G04 This is an RS-274x file exported by *
G04 gerbv version 2.6.0 *
G04 More information is available about gerbv at *
G04 http://gerbv.gpleda.org/ *
G04 --End of header info--*
%MOIN*%
%FSLAX34Y34*%
%IPPOS*%
G04 --Define apertures--*
%ADD10C,0.0050*%
%ADD11R,0.0050X0.0050*%
%ADD12R,0.0100X0.0050*%
%ADD13R,0.0150X0.0050*%
%ADD14R,0.0200X0.0050*%
%ADD15R,0.0500X0.0050*%
%ADD16R,0.0550X0.0050*%
%ADD17R,0.0450X0.0050*%
%ADD18R,0.0250X0.0050*%
%ADD19R,0.0600X0.0050*%
%ADD20R,0.0750X0.0050*%
%ADD21R,0.0950X0.0050*%
%ADD22R,0.0700X0.0050*%
%ADD23R,0.0300X0.0050*%
%ADD24R,0.0650X0.0050*%
%ADD25R,0.1600X0.0050*%
%ADD26R,0.1550X0.0050*%
%ADD27R,0.1500X0.0050*%
%ADD28R,0.1800X0.0050*%
%ADD29R,0.1750X0.0050*%
%ADD30R,0.0800X0.0050*%
%ADD31R,0.0850X0.0050*%
%ADD32R,0.1450X0.0050*%
%ADD33R,0.0900X0.0050*%
%ADD34R,0.1400X0.0050*%
%ADD35R,0.2400X0.0050*%
%ADD36R,0.2350X0.0050*%
%ADD37R,0.2300X0.0050*%
%ADD38R,0.0350X0.0050*%
%ADD39R,0.1200X0.0050*%
%ADD40R,0.1100X0.0050*%
%ADD41R,0.2650X0.0050*%
%ADD42R,0.1000X0.0050*%
%ADD43R,0.1050X0.0050*%
%ADD44R,0.0400X0.0050*%
%ADD45R,0.2700X0.0050*%
%ADD46R,0.1700X0.0050*%
%ADD47R,0.2800X0.0050*%
%ADD48R,0.3250X0.0050*%
%ADD49R,0.1150X0.0050*%
%ADD50R,0.2850X0.0050*%
%ADD51R,0.2250X0.0050*%
%ADD52R,0.1300X0.0050*%
%ADD53R,0.3400X0.0050*%
%ADD54R,0.2150X0.0050*%
%ADD55R,0.2900X0.0050*%
%ADD56R,0.4050X0.0050*%
%ADD57R,0.4850X0.0050*%
%ADD58R,0.2200X0.0050*%
%ADD59R,0.4650X0.0050*%
%ADD60R,0.2750X0.0050*%
%ADD61R,0.4200X0.0050*%
%ADD62R,0.3650X0.0050*%
%ADD63R,0.3050X0.0050*%
%ADD64R,0.2950X0.0050*%
%ADD65R,0.3550X0.0050*%
%ADD66R,0.2100X0.0050*%
%ADD67R,0.2500X0.0050*%
%ADD68R,0.2000X0.0050*%
%ADD69R,0.3850X0.0050*%
%ADD70R,0.1950X0.0050*%
%ADD71R,0.3800X0.0050*%
%ADD72R,0.3700X0.0050*%
%ADD73R,0.1650X0.0050*%
%ADD74R,0.3500X0.0050*%
%ADD75R,0.3300X0.0050*%
%ADD76R,0.1900X0.0050*%
%ADD77R,0.2050X0.0050*%
%ADD78R,0.3150X0.0050*%
%ADD79R,0.3200X0.0050*%
%ADD80R,0.2550X0.0050*%
%ADD81R,0.3100X0.0050*%
%ADD82R,0.4800X0.0050*%
%ADD83R,0.4300X0.0050*%
%ADD84R,0.6150X0.0050*%
%ADD85R,0.1350X0.0050*%
%ADD86R,0.4500X0.0050*%
%ADD87R,0.1850X0.0050*%
%ADD88R,0.3600X0.0050*%
%ADD89R,0.5200X0.0050*%
%ADD90R,0.5150X0.0050*%
%ADD91R,0.4450X0.0050*%
%ADD92R,0.1250X0.0050*%
%ADD93R,0.2600X0.0050*%
%ADD94R,0.2450X0.0050*%
%ADD95R,0.4250X0.0050*%
%ADD96R,0.4100X0.0050*%
%ADD97R,0.4000X0.0050*%
%ADD98R,0.3900X0.0050*%
%ADD99R,0.3000X0.0050*%
%ADD100R,0.4950X0.0050*%
%ADD101R,0.5000X0.0050*%
%ADD102R,0.5050X0.0050*%
%ADD103R,0.5100X0.0050*%
%ADD104R,0.7000X0.0050*%
%ADD105R,0.7200X0.0050*%
%ADD106R,0.4750X0.0050*%
%ADD107R,0.4700X0.0050*%
%ADD108R,0.4600X0.0050*%
%ADD109R,0.8300X0.0050*%
%ADD110R,0.8400X0.0050*%
%ADD111R,0.8500X0.0050*%
%ADD112R,0.8700X0.0050*%
%ADD113R,0.9000X0.0050*%
%ADD114R,0.7400X0.0050*%
%ADD115R,0.5550X0.0050*%
%ADD116R,0.5400X0.0050*%
%ADD117R,0.5250X0.0050*%
%ADD118R,0.4400X0.0050*%
%ADD119R,0.4350X0.0050*%
%ADD120R,0.3350X0.0050*%
%ADD121C,0.0000*%
G04 --Start main section--*
G54D10*
G01X0001440Y0000640D02*
G01X0033440Y0000640D01*
G01X0033440Y0000640D02*
G01X0033500Y0000642D01*
G01X0033500Y0000642D02*
G01X0033561Y0000647D01*
G01X0033561Y0000647D02*
G01X0033620Y0000656D01*
G01X0033620Y0000656D02*
G01X0033679Y0000669D01*
G01X0033679Y0000669D02*
G01X0033738Y0000685D01*
G01X0033738Y0000685D02*
G01X0033795Y0000705D01*
G01X0033795Y0000705D02*
G01X0033850Y0000728D01*
G01X0033850Y0000728D02*
G01X0033905Y0000755D01*
G01X0033905Y0000755D02*
G01X0033957Y0000784D01*
G01X0033957Y0000784D02*
G01X0034008Y0000817D01*
G01X0034008Y0000817D02*
G01X0034057Y0000853D01*
G01X0034057Y0000853D02*
G01X0034103Y0000891D01*
G01X0034103Y0000891D02*
G01X0034147Y0000933D01*
G01X0034147Y0000933D02*
G01X0034189Y0000977D01*
G01X0034189Y0000977D02*
G01X0034227Y0001023D01*
G01X0034227Y0001023D02*
G01X0034263Y0001072D01*
G01X0034263Y0001072D02*
G01X0034296Y0001123D01*
G01X0034296Y0001123D02*
G01X0034325Y0001175D01*
G01X0034325Y0001175D02*
G01X0034352Y0001230D01*
G01X0034352Y0001230D02*
G01X0034375Y0001285D01*
G01X0034375Y0001285D02*
G01X0034395Y0001342D01*
G01X0034395Y0001342D02*
G01X0034411Y0001401D01*
G01X0034411Y0001401D02*
G01X0034424Y0001460D01*
G01X0034424Y0001460D02*
G01X0034433Y0001519D01*
G01X0034433Y0001519D02*
G01X0034438Y0001580D01*
G01X0034438Y0001580D02*
G01X0034440Y0001640D01*
G01X0034440Y0001640D02*
G01X0034440Y0014640D01*
G01X0034440Y0014640D02*
G01X0034438Y0014700D01*
G01X0034438Y0014700D02*
G01X0034433Y0014761D01*
G01X0034433Y0014761D02*
G01X0034424Y0014820D01*
G01X0034424Y0014820D02*
G01X0034411Y0014879D01*
G01X0034411Y0014879D02*
G01X0034395Y0014938D01*
G01X0034395Y0014938D02*
G01X0034375Y0014995D01*
G01X0034375Y0014995D02*
G01X0034352Y0015050D01*
G01X0034352Y0015050D02*
G01X0034325Y0015105D01*
G01X0034325Y0015105D02*
G01X0034296Y0015157D01*
G01X0034296Y0015157D02*
G01X0034263Y0015208D01*
G01X0034263Y0015208D02*
G01X0034227Y0015257D01*
G01X0034227Y0015257D02*
G01X0034189Y0015303D01*
G01X0034189Y0015303D02*
G01X0034147Y0015347D01*
G01X0034147Y0015347D02*
G01X0034103Y0015389D01*
G01X0034103Y0015389D02*
G01X0034057Y0015427D01*
G01X0034057Y0015427D02*
G01X0034008Y0015463D01*
G01X0034008Y0015463D02*
G01X0033957Y0015496D01*
G01X0033957Y0015496D02*
G01X0033905Y0015525D01*
G01X0033905Y0015525D02*
G01X0033850Y0015552D01*
G01X0033850Y0015552D02*
G01X0033795Y0015575D01*
G01X0033795Y0015575D02*
G01X0033738Y0015595D01*
G01X0033738Y0015595D02*
G01X0033679Y0015611D01*
G01X0033679Y0015611D02*
G01X0033620Y0015624D01*
G01X0033620Y0015624D02*
G01X0033561Y0015633D01*
G01X0033561Y0015633D02*
G01X0033500Y0015638D01*
G01X0033500Y0015638D02*
G01X0033440Y0015640D01*
G01X0033440Y0015640D02*
G01X0001440Y0015640D01*
G01X0001440Y0015640D02*
G01X0001380Y0015638D01*
G01X0001380Y0015638D02*
G01X0001319Y0015633D01*
G01X0001319Y0015633D02*
G01X0001260Y0015624D01*
G01X0001260Y0015624D02*
G01X0001201Y0015611D01*
G01X0001201Y0015611D02*
G01X0001142Y0015595D01*
G01X0001142Y0015595D02*
G01X0001085Y0015575D01*
G01X0001085Y0015575D02*
G01X0001030Y0015552D01*
G01X0001030Y0015552D02*
G01X0000975Y0015525D01*
G01X0000975Y0015525D02*
G01X0000923Y0015496D01*
G01X0000923Y0015496D02*
G01X0000872Y0015463D01*
G01X0000872Y0015463D02*
G01X0000823Y0015427D01*
G01X0000823Y0015427D02*
G01X0000777Y0015389D01*
G01X0000777Y0015389D02*
G01X0000733Y0015347D01*
G01X0000733Y0015347D02*
G01X0000691Y0015303D01*
G01X0000691Y0015303D02*
G01X0000653Y0015257D01*
G01X0000653Y0015257D02*
G01X0000617Y0015208D01*
G01X0000617Y0015208D02*
G01X0000584Y0015157D01*
G01X0000584Y0015157D02*
G01X0000555Y0015105D01*
G01X0000555Y0015105D02*
G01X0000528Y0015050D01*
G01X0000528Y0015050D02*
G01X0000505Y0014995D01*
G01X0000505Y0014995D02*
G01X0000485Y0014938D01*
G01X0000485Y0014938D02*
G01X0000469Y0014879D01*
G01X0000469Y0014879D02*
G01X0000456Y0014820D01*
G01X0000456Y0014820D02*
G01X0000447Y0014761D01*
G01X0000447Y0014761D02*
G01X0000442Y0014700D01*
G01X0000442Y0014700D02*
G01X0000440Y0014640D01*
G01X0000440Y0014640D02*
G01X0000440Y0001640D01*
G01X0000440Y0001640D02*
G01X0000442Y0001580D01*
G01X0000442Y0001580D02*
G01X0000447Y0001519D01*
G01X0000447Y0001519D02*
G01X0000456Y0001460D01*
G01X0000456Y0001460D02*
G01X0000469Y0001401D01*
G01X0000469Y0001401D02*
G01X0000485Y0001342D01*
G01X0000485Y0001342D02*
G01X0000505Y0001285D01*
G01X0000505Y0001285D02*
G01X0000528Y0001230D01*
G01X0000528Y0001230D02*
G01X0000555Y0001175D01*
G01X0000555Y0001175D02*
G01X0000584Y0001123D01*
G01X0000584Y0001123D02*
G01X0000617Y0001072D01*
G01X0000617Y0001072D02*
G01X0000653Y0001023D01*
G01X0000653Y0001023D02*
G01X0000691Y0000977D01*
G01X0000691Y0000977D02*
G01X0000733Y0000933D01*
G01X0000733Y0000933D02*
G01X0000777Y0000891D01*
G01X0000777Y0000891D02*
G01X0000823Y0000853D01*
G01X0000823Y0000853D02*
G01X0000872Y0000817D01*
G01X0000872Y0000817D02*
G01X0000923Y0000784D01*
G01X0000923Y0000784D02*
G01X0000975Y0000755D01*
G01X0000975Y0000755D02*
G01X0001030Y0000728D01*
G01X0001030Y0000728D02*
G01X0001085Y0000705D01*
G01X0001085Y0000705D02*
G01X0001142Y0000685D01*
G01X0001142Y0000685D02*
G01X0001201Y0000669D01*
G01X0001201Y0000669D02*
G01X0001260Y0000656D01*
G01X0001260Y0000656D02*
G01X0001319Y0000647D01*
G01X0001319Y0000647D02*
G01X0001380Y0000642D01*
G01X0001380Y0000642D02*
G01X0001440Y0000640D01*
G01X0031251Y0008913D02*
G01X0031251Y0011945D01*
G01X0031251Y0011945D02*
G01X0034893Y0011945D01*
G01X0034893Y0011945D02*
G01X0034893Y0008913D01*
G01X0034893Y0008913D02*
G01X0031251Y0008913D01*
G54D11*
G01X0025640Y0010340D03*
G01X0022790Y0008340D03*
G01X0020090Y0008190D03*
G01X0020090Y0008890D03*
G01X0015090Y0010490D03*
G01X0017590Y0011940D03*
G01X0018190Y0012740D03*
G01X0018240Y0012840D03*
G01X0017590Y0012940D03*
G01X0019040Y0013990D03*
G01X0022040Y0012690D03*
G01X0023840Y0014390D03*
G01X0027490Y0013840D03*
G01X0027590Y0014690D03*
G01X0025590Y0012440D03*
G01X0014090Y0005540D03*
G01X0014140Y0005490D03*
G01X0013940Y0005340D03*
G01X0014040Y0005090D03*
G01X0014090Y0005040D03*
G01X0013140Y0004290D03*
G01X0012990Y0004290D03*
G01X0011240Y0004040D03*
G01X0011240Y0003990D03*
G01X0011240Y0003940D03*
G01X0011040Y0005090D03*
G01X0010940Y0005590D03*
G01X0010840Y0005640D03*
G01X0010790Y0005590D03*
G01X0011740Y0005640D03*
G01X0015540Y0003640D03*
G01X0016240Y0004290D03*
G01X0017940Y0002190D03*
G01X0015340Y0001990D03*
G01X0015140Y0001640D03*
G01X0014140Y0001740D03*
G54D12*
G01X0014115Y0001790D03*
G01X0014065Y0001840D03*
G01X0014015Y0001890D03*
G01X0014015Y0001940D03*
G01X0013965Y0001990D03*
G01X0015065Y0001690D03*
G01X0015265Y0002040D03*
G01X0015215Y0002090D03*
G01X0015165Y0002140D03*
G01X0015115Y0002190D03*
G01X0016165Y0002390D03*
G01X0013665Y0002940D03*
G01X0011815Y0003690D03*
G01X0011815Y0004090D03*
G01X0011865Y0004140D03*
G01X0011865Y0004190D03*
G01X0011215Y0004190D03*
G01X0011215Y0004140D03*
G01X0011215Y0004090D03*
G01X0010665Y0004090D03*
G01X0010565Y0004140D03*
G01X0010565Y0004290D03*
G01X0010565Y0004340D03*
G01X0010615Y0004390D03*
G01X0012265Y0004840D03*
G01X0013115Y0004340D03*
G01X0014165Y0005340D03*
G01X0014265Y0005290D03*
G01X0014315Y0005390D03*
G01X0014215Y0005440D03*
G01X0014665Y0005390D03*
G01X0013765Y0006090D03*
G01X0013065Y0007290D03*
G01X0013865Y0007490D03*
G01X0010765Y0005540D03*
G01X0016115Y0003890D03*
G01X0016315Y0003890D03*
G01X0016565Y0004240D03*
G01X0018665Y0005440D03*
G01X0020715Y0006640D03*
G01X0020615Y0006690D03*
G01X0022615Y0008190D03*
G01X0022665Y0008240D03*
G01X0022715Y0008290D03*
G01X0022665Y0009990D03*
G01X0022315Y0010190D03*
G01X0025015Y0011240D03*
G01X0024965Y0011540D03*
G01X0026315Y0011790D03*
G01X0025415Y0012340D03*
G01X0025515Y0012390D03*
G01X0024765Y0013090D03*
G01X0023965Y0013040D03*
G01X0025565Y0014040D03*
G01X0025965Y0013190D03*
G01X0027415Y0013890D03*
G01X0027965Y0014890D03*
G01X0023915Y0014440D03*
G01X0022065Y0014540D03*
G01X0020415Y0015090D03*
G01X0019665Y0014540D03*
G01X0019015Y0013940D03*
G01X0018365Y0013440D03*
G01X0017515Y0012890D03*
G01X0017465Y0012840D03*
G01X0017365Y0012790D03*
G01X0018165Y0012690D03*
G01X0018215Y0012790D03*
G01X0017515Y0011890D03*
G01X0017465Y0011840D03*
G01X0017415Y0011790D03*
G01X0017365Y0011740D03*
G01X0017215Y0011640D03*
G01X0016865Y0011890D03*
G01X0018165Y0011490D03*
G01X0018215Y0011540D03*
G01X0017015Y0011040D03*
G01X0016915Y0010990D03*
G01X0016865Y0010940D03*
G01X0016565Y0010440D03*
G01X0015115Y0010540D03*
G01X0025465Y0010240D03*
G01X0025565Y0010290D03*
G54D13*
G01X0025340Y0010190D03*
G01X0025240Y0010140D03*
G01X0023890Y0009990D03*
G01X0023790Y0009940D03*
G01X0022690Y0010240D03*
G01X0022840Y0010690D03*
G01X0024890Y0011490D03*
G01X0026240Y0011740D03*
G01X0025290Y0012290D03*
G01X0025190Y0012240D03*
G01X0024640Y0013040D03*
G01X0025690Y0013640D03*
G01X0025440Y0013990D03*
G01X0025340Y0013940D03*
G01X0024090Y0014540D03*
G01X0023990Y0014490D03*
G01X0023440Y0013990D03*
G01X0022090Y0014590D03*
G01X0021340Y0014640D03*
G01X0021240Y0014590D03*
G01X0020340Y0015040D03*
G01X0019740Y0014590D03*
G01X0018440Y0013490D03*
G01X0017290Y0012740D03*
G01X0017240Y0012690D03*
G01X0017140Y0012640D03*
G01X0018090Y0012590D03*
G01X0018090Y0012540D03*
G01X0018140Y0012640D03*
G01X0016790Y0011840D03*
G01X0016690Y0011790D03*
G01X0017140Y0011590D03*
G01X0017090Y0011540D03*
G01X0016990Y0011490D03*
G01X0017290Y0011690D03*
G01X0016790Y0010890D03*
G01X0016640Y0010790D03*
G01X0016490Y0010390D03*
G01X0020790Y0008240D03*
G01X0022540Y0008140D03*
G01X0020490Y0006740D03*
G01X0019090Y0006290D03*
G01X0019140Y0005690D03*
G01X0017940Y0004740D03*
G01X0016940Y0004690D03*
G01X0016290Y0004240D03*
G01X0016190Y0003840D03*
G01X0015590Y0003590D03*
G01X0016890Y0002990D03*
G01X0015040Y0002240D03*
G01X0014990Y0002290D03*
G01X0013940Y0002090D03*
G01X0013940Y0002040D03*
G01X0014640Y0001790D03*
G01X0014990Y0001740D03*
G01X0010540Y0004190D03*
G01X0010540Y0004240D03*
G01X0010640Y0004440D03*
G01X0010690Y0004490D03*
G01X0011240Y0004290D03*
G01X0011240Y0004240D03*
G01X0011890Y0004240D03*
G01X0011890Y0004290D03*
G01X0012890Y0004840D03*
G01X0012990Y0004440D03*
G01X0013040Y0004390D03*
G01X0013940Y0005190D03*
G01X0013990Y0005140D03*
G01X0014040Y0005290D03*
G01X0014140Y0005240D03*
G01X0014390Y0005340D03*
G01X0014440Y0005290D03*
G01X0014540Y0005240D03*
G01X0015390Y0006490D03*
G01X0027040Y0012390D03*
G01X0027840Y0014940D03*
G54D14*
G01X0027715Y0014990D03*
G01X0025215Y0013890D03*
G01X0025165Y0013840D03*
G01X0025065Y0013790D03*
G01X0025715Y0013090D03*
G01X0025865Y0013140D03*
G01X0024265Y0012340D03*
G01X0024165Y0011790D03*
G01X0024815Y0011440D03*
G01X0024715Y0011390D03*
G01X0024615Y0011340D03*
G01X0025115Y0011290D03*
G01X0026115Y0011690D03*
G01X0024015Y0013090D03*
G01X0022715Y0014090D03*
G01X0022115Y0014640D03*
G01X0021865Y0013640D03*
G01X0021765Y0013590D03*
G01X0019865Y0014640D03*
G01X0019965Y0014690D03*
G01X0020265Y0014990D03*
G01X0018965Y0013890D03*
G01X0018615Y0013590D03*
G01X0018515Y0013540D03*
G01X0017065Y0012590D03*
G01X0017015Y0012540D03*
G01X0016915Y0012490D03*
G01X0016765Y0012390D03*
G01X0016615Y0011740D03*
G01X0016915Y0011440D03*
G01X0016815Y0011390D03*
G01X0016715Y0010840D03*
G01X0016565Y0010740D03*
G01X0016515Y0010690D03*
G01X0018265Y0011590D03*
G01X0018065Y0012440D03*
G01X0018065Y0012490D03*
G01X0024165Y0014590D03*
G01X0025165Y0010090D03*
G01X0025065Y0010040D03*
G01X0022465Y0008090D03*
G01X0021815Y0007340D03*
G01X0020415Y0006790D03*
G01X0019015Y0006340D03*
G01X0018165Y0005040D03*
G01X0017365Y0004690D03*
G01X0017015Y0004640D03*
G01X0016365Y0004190D03*
G01X0014665Y0005140D03*
G01X0014615Y0005190D03*
G01X0014765Y0005340D03*
G01X0014265Y0005190D03*
G01X0013865Y0005240D03*
G01X0014065Y0005390D03*
G01X0011865Y0004340D03*
G01X0012415Y0003740D03*
G01X0013815Y0002390D03*
G01X0013815Y0002340D03*
G01X0013865Y0002290D03*
G01X0013865Y0002240D03*
G01X0013865Y0002190D03*
G01X0013915Y0002140D03*
G01X0014915Y0002390D03*
G01X0014965Y0002340D03*
G01X0014915Y0001790D03*
G01X0016765Y0003040D03*
G01X0010965Y0005140D03*
G01X0011115Y0005740D03*
G01X0020215Y0008140D03*
G01X0020665Y0008290D03*
G54D15*
G01X0020465Y0008040D03*
G01X0020365Y0008490D03*
G01X0020865Y0008940D03*
G01X0021915Y0007840D03*
G01X0019815Y0006090D03*
G01X0019715Y0006140D03*
G01X0016015Y0003590D03*
G01X0015965Y0003640D03*
G01X0016665Y0002540D03*
G01X0016915Y0002440D03*
G01X0017065Y0002390D03*
G01X0017215Y0002340D03*
G01X0017415Y0002290D03*
G01X0014715Y0001840D03*
G01X0014665Y0001890D03*
G01X0014615Y0001940D03*
G01X0014565Y0001990D03*
G01X0014515Y0002090D03*
G01X0014465Y0002190D03*
G01X0014415Y0002290D03*
G01X0012615Y0004290D03*
G01X0012765Y0004740D03*
G01X0010815Y0005290D03*
G01X0014215Y0007290D03*
G01X0015165Y0010040D03*
G01X0015215Y0010140D03*
G01X0015265Y0010190D03*
G01X0015315Y0010290D03*
G01X0015365Y0010340D03*
G01X0015415Y0010390D03*
G01X0015565Y0010590D03*
G01X0016115Y0011340D03*
G01X0016165Y0011390D03*
G01X0017565Y0011040D03*
G01X0017615Y0011140D03*
G01X0017665Y0011240D03*
G01X0017715Y0011390D03*
G01X0017765Y0011490D03*
G01X0017815Y0011590D03*
G01X0017815Y0011640D03*
G01X0017865Y0011740D03*
G01X0017915Y0011790D03*
G01X0017315Y0010540D03*
G01X0021565Y0012390D03*
G01X0021665Y0012440D03*
G01X0022665Y0012290D03*
G01X0022765Y0012340D03*
G01X0024915Y0012740D03*
G01X0026415Y0013890D03*
G01X0023365Y0014840D03*
G01X0022215Y0014240D03*
G01X0022115Y0014190D03*
G01X0020865Y0013990D03*
G01X0022515Y0013490D03*
G54D16*
G01X0022740Y0013540D03*
G01X0023190Y0013790D03*
G01X0022040Y0014140D03*
G01X0020790Y0013940D03*
G01X0023840Y0015340D03*
G01X0026540Y0013940D03*
G01X0024090Y0012890D03*
G01X0025540Y0011490D03*
G01X0025640Y0011540D03*
G01X0024190Y0009740D03*
G01X0020990Y0008890D03*
G01X0020690Y0007840D03*
G01X0020740Y0007790D03*
G01X0020840Y0007740D03*
G01X0021790Y0007790D03*
G01X0018790Y0005490D03*
G01X0017390Y0004740D03*
G01X0015790Y0003790D03*
G01X0015840Y0003740D03*
G01X0015890Y0003690D03*
G01X0016790Y0003440D03*
G01X0016540Y0002590D03*
G01X0016790Y0002490D03*
G01X0014540Y0002040D03*
G01X0014490Y0002140D03*
G01X0014440Y0002240D03*
G01X0014390Y0002340D03*
G01X0014390Y0002390D03*
G01X0014340Y0002490D03*
G01X0014340Y0002540D03*
G01X0012140Y0003640D03*
G01X0012540Y0004340D03*
G01X0014590Y0005090D03*
G01X0014090Y0007240D03*
G01X0015140Y0009890D03*
G01X0015140Y0009940D03*
G01X0015190Y0009990D03*
G01X0015890Y0009990D03*
G01X0015940Y0010040D03*
G01X0015990Y0010090D03*
G01X0016040Y0010140D03*
G01X0016090Y0010190D03*
G01X0016140Y0010240D03*
G01X0016190Y0010290D03*
G01X0016240Y0010340D03*
G54D17*
G01X0015540Y0010540D03*
G01X0015490Y0010490D03*
G01X0015440Y0010440D03*
G01X0015290Y0010240D03*
G01X0015190Y0010090D03*
G01X0014640Y0010090D03*
G01X0014640Y0010140D03*
G01X0014640Y0010190D03*
G01X0014690Y0010340D03*
G01X0014590Y0009990D03*
G01X0014590Y0009940D03*
G01X0014590Y0009890D03*
G01X0017290Y0010490D03*
G01X0017340Y0010590D03*
G01X0017390Y0010640D03*
G01X0017390Y0010690D03*
G01X0017440Y0010740D03*
G01X0017440Y0010790D03*
G01X0017490Y0010840D03*
G01X0017490Y0010890D03*
G01X0017540Y0010940D03*
G01X0017540Y0010990D03*
G01X0017590Y0011090D03*
G01X0017640Y0011190D03*
G01X0017690Y0011290D03*
G01X0017690Y0011340D03*
G01X0017740Y0011440D03*
G01X0017790Y0011540D03*
G01X0017840Y0011690D03*
G01X0016240Y0011440D03*
G01X0020940Y0014040D03*
G01X0020990Y0014090D03*
G01X0022290Y0014290D03*
G01X0022340Y0014340D03*
G01X0022440Y0014390D03*
G01X0024190Y0013790D03*
G01X0024440Y0013440D03*
G01X0024740Y0014090D03*
G01X0026740Y0013690D03*
G01X0026890Y0014040D03*
G01X0024290Y0012390D03*
G01X0022590Y0012240D03*
G01X0022540Y0012190D03*
G01X0021890Y0012090D03*
G01X0021740Y0012490D03*
G01X0025440Y0011440D03*
G01X0023640Y0010640D03*
G01X0022340Y0010090D03*
G01X0022040Y0007890D03*
G01X0021440Y0007490D03*
G01X0020640Y0007140D03*
G01X0019640Y0006190D03*
G01X0019590Y0006240D03*
G01X0019540Y0006290D03*
G01X0019490Y0006340D03*
G01X0018540Y0005740D03*
G01X0013940Y0005890D03*
G01X0011490Y0005590D03*
G01X0017640Y0002240D03*
G01X0019240Y0003090D03*
G01X0019190Y0003140D03*
G01X0019290Y0003040D03*
G54D18*
G01X0019390Y0002990D03*
G01X0016290Y0003790D03*
G01X0016240Y0003940D03*
G01X0017090Y0004590D03*
G01X0014340Y0005140D03*
G01X0013790Y0005290D03*
G01X0013640Y0006140D03*
G01X0011190Y0005840D03*
G01X0011140Y0005790D03*
G01X0012940Y0004490D03*
G01X0012490Y0003790D03*
G01X0012340Y0003690D03*
G01X0011240Y0004340D03*
G01X0013790Y0002590D03*
G01X0013790Y0002540D03*
G01X0013790Y0002490D03*
G01X0013790Y0002440D03*
G01X0014840Y0002490D03*
G01X0014840Y0002540D03*
G01X0014890Y0002440D03*
G01X0020190Y0006940D03*
G01X0020240Y0006890D03*
G01X0020340Y0006840D03*
G01X0020840Y0007090D03*
G01X0023640Y0009840D03*
G01X0023690Y0009890D03*
G01X0024790Y0009940D03*
G01X0024940Y0009990D03*
G01X0025890Y0011840D03*
G01X0025940Y0011890D03*
G01X0026040Y0011940D03*
G01X0026090Y0011990D03*
G01X0026190Y0012040D03*
G01X0026290Y0012090D03*
G01X0026390Y0012140D03*
G01X0026490Y0012190D03*
G01X0026590Y0012240D03*
G01X0026740Y0012290D03*
G01X0026890Y0012340D03*
G01X0025490Y0012990D03*
G01X0025390Y0012940D03*
G01X0025590Y0013040D03*
G01X0025840Y0013690D03*
G01X0024990Y0013740D03*
G01X0024890Y0013690D03*
G01X0024490Y0012990D03*
G01X0025040Y0012190D03*
G01X0021990Y0012640D03*
G01X0021540Y0013490D03*
G01X0021640Y0013540D03*
G01X0023340Y0013940D03*
G01X0021140Y0014540D03*
G01X0020190Y0014940D03*
G01X0020040Y0014740D03*
G01X0018690Y0013640D03*
G01X0016840Y0012440D03*
G01X0016690Y0012340D03*
G01X0016540Y0012240D03*
G01X0016540Y0011690D03*
G01X0016490Y0011640D03*
G01X0016690Y0011340D03*
G01X0016440Y0010640D03*
G01X0016390Y0010590D03*
G01X0016340Y0010540D03*
G01X0018340Y0011640D03*
G01X0024190Y0015390D03*
G01X0027540Y0015040D03*
G01X0014540Y0007390D03*
G01X0013740Y0007440D03*
G54D19*
G01X0013965Y0007190D03*
G01X0016665Y0006740D03*
G01X0019165Y0005740D03*
G01X0018265Y0005090D03*
G01X0014665Y0005040D03*
G01X0012465Y0004390D03*
G01X0012065Y0004790D03*
G01X0012915Y0003340D03*
G01X0014365Y0002440D03*
G01X0016365Y0002690D03*
G01X0016465Y0002640D03*
G01X0020665Y0007890D03*
G01X0020615Y0007940D03*
G01X0020565Y0007990D03*
G01X0020865Y0008990D03*
G01X0022565Y0010040D03*
G01X0021915Y0011140D03*
G01X0021465Y0012340D03*
G01X0022865Y0012390D03*
G01X0024665Y0012090D03*
G01X0025715Y0011590D03*
G01X0022315Y0013440D03*
G01X0021965Y0014090D03*
G01X0020715Y0013890D03*
G01X0022015Y0014690D03*
G01X0022065Y0014740D03*
G01X0022165Y0014790D03*
G01X0022315Y0014890D03*
G01X0022415Y0014940D03*
G01X0022515Y0014990D03*
G01X0022765Y0015090D03*
G01X0022915Y0015140D03*
G01X0023065Y0015190D03*
G01X0023265Y0015240D03*
G01X0023515Y0015290D03*
G01X0024465Y0014790D03*
G01X0018915Y0013690D03*
G01X0017965Y0011840D03*
G01X0016065Y0011290D03*
G01X0017965Y0010640D03*
G01X0018015Y0010690D03*
G01X0015865Y0009940D03*
G01X0017215Y0008190D03*
G54D20*
G01X0021140Y0008840D03*
G01X0018190Y0010840D03*
G01X0022140Y0012990D03*
G01X0022990Y0012440D03*
G01X0023390Y0011290D03*
G01X0026390Y0015290D03*
G01X0013240Y0007190D03*
G01X0013690Y0005440D03*
G01X0016690Y0004340D03*
G01X0016140Y0002840D03*
G01X0015640Y0002490D03*
G01X0015490Y0002540D03*
G01X0015790Y0002440D03*
G01X0020040Y0003090D03*
G54D21*
G01X0015840Y0003040D03*
G01X0014490Y0002640D03*
G01X0014490Y0002590D03*
G01X0019640Y0006440D03*
G01X0015790Y0007840D03*
G01X0014840Y0009790D03*
G01X0015840Y0011040D03*
G01X0015990Y0011140D03*
G01X0016090Y0011190D03*
G01X0018440Y0011040D03*
G01X0021790Y0011090D03*
G01X0024140Y0011940D03*
G01X0021840Y0013940D03*
G01X0024540Y0014140D03*
G01X0026890Y0015140D03*
G54D22*
G01X0024265Y0013390D03*
G01X0023915Y0012840D03*
G01X0023215Y0011340D03*
G01X0023065Y0011390D03*
G01X0023815Y0010990D03*
G01X0019465Y0008890D03*
G01X0015765Y0009790D03*
G01X0014915Y0010590D03*
G01X0018065Y0010740D03*
G01X0018115Y0010790D03*
G01X0020615Y0013840D03*
G01X0010915Y0005340D03*
G01X0016215Y0002790D03*
G01X0015415Y0002590D03*
G54D23*
G01X0016665Y0003090D03*
G01X0016615Y0003140D03*
G01X0016715Y0003390D03*
G01X0013765Y0002790D03*
G01X0013765Y0002740D03*
G01X0013765Y0002690D03*
G01X0013765Y0002640D03*
G01X0011865Y0004390D03*
G01X0011265Y0004390D03*
G01X0012815Y0004790D03*
G01X0013715Y0005340D03*
G01X0014865Y0005290D03*
G01X0010915Y0005190D03*
G01X0013615Y0007390D03*
G01X0016165Y0010390D03*
G01X0016215Y0010440D03*
G01X0016265Y0010490D03*
G01X0016415Y0011590D03*
G01X0016165Y0011990D03*
G01X0016315Y0012090D03*
G01X0016365Y0012140D03*
G01X0016465Y0012190D03*
G01X0016615Y0012290D03*
G01X0018415Y0011690D03*
G01X0022215Y0012340D03*
G01X0022265Y0012390D03*
G01X0022315Y0012440D03*
G01X0022365Y0012490D03*
G01X0022415Y0012540D03*
G01X0022465Y0012590D03*
G01X0024715Y0013590D03*
G01X0024815Y0013640D03*
G01X0025265Y0012890D03*
G01X0025165Y0012840D03*
G01X0025815Y0011790D03*
G01X0025765Y0011740D03*
G01X0025715Y0011690D03*
G01X0025215Y0011340D03*
G01X0024465Y0011290D03*
G01X0022765Y0010340D03*
G01X0022715Y0010290D03*
G01X0023565Y0009790D03*
G01X0024665Y0009890D03*
G01X0022365Y0008040D03*
G01X0022265Y0007990D03*
G01X0021665Y0007390D03*
G01X0020115Y0006990D03*
G01X0020565Y0008340D03*
G01X0023265Y0013890D03*
G01X0024265Y0014640D03*
G01X0026765Y0015040D03*
G01X0026865Y0014990D03*
G01X0027165Y0014840D03*
G01X0027265Y0013940D03*
G01X0021565Y0014490D03*
G01X0021415Y0014390D03*
G01X0021065Y0014490D03*
G54D24*
G01X0022240Y0014840D03*
G01X0022640Y0015040D03*
G01X0026140Y0015340D03*
G01X0026340Y0013840D03*
G01X0024290Y0012440D03*
G01X0024190Y0011890D03*
G01X0025790Y0011640D03*
G01X0022590Y0012140D03*
G01X0021840Y0011190D03*
G01X0022640Y0010740D03*
G01X0021640Y0007740D03*
G01X0021290Y0007540D03*
G01X0015840Y0009890D03*
G01X0015790Y0009840D03*
G01X0013290Y0007240D03*
G01X0011290Y0005540D03*
G01X0015340Y0002640D03*
G01X0016290Y0002740D03*
G01X0019890Y0003140D03*
G01X0017890Y0004640D03*
G01X0018990Y0013740D03*
G54D25*
G01X0023665Y0013290D03*
G01X0019115Y0011390D03*
G01X0019715Y0010840D03*
G01X0021265Y0009140D03*
G01X0020565Y0008690D03*
G01X0018965Y0005840D03*
G01X0018115Y0004340D03*
G01X0014815Y0002690D03*
G01X0013265Y0004090D03*
G01X0013015Y0006790D03*
G54D26*
G01X0016090Y0007640D03*
G01X0017890Y0004440D03*
G01X0017990Y0004390D03*
G01X0014790Y0002740D03*
G01X0014590Y0002940D03*
G01X0021240Y0011390D03*
G01X0021190Y0012840D03*
G01X0020790Y0013690D03*
G01X0020890Y0013740D03*
G01X0025490Y0014490D03*
G54D27*
G01X0022965Y0013140D03*
G01X0022915Y0012090D03*
G01X0020715Y0013640D03*
G01X0020615Y0013590D03*
G01X0019815Y0010890D03*
G01X0019365Y0009240D03*
G01X0019515Y0009140D03*
G01X0015915Y0008140D03*
G01X0013315Y0006990D03*
G01X0013065Y0006840D03*
G01X0018365Y0006140D03*
G01X0018465Y0006090D03*
G01X0014715Y0002790D03*
G54D28*
G01X0014515Y0002840D03*
G01X0012465Y0005890D03*
G01X0018965Y0008190D03*
G01X0021365Y0009190D03*
G01X0025465Y0014440D03*
G01X0024315Y0014940D03*
G54D29*
G01X0024490Y0014990D03*
G01X0024140Y0014890D03*
G01X0023490Y0013240D03*
G01X0021390Y0012940D03*
G01X0019290Y0011440D03*
G01X0021190Y0011340D03*
G01X0021690Y0010890D03*
G01X0015240Y0009740D03*
G01X0016190Y0007540D03*
G01X0015840Y0007140D03*
G01X0018090Y0006640D03*
G01X0013590Y0007090D03*
G01X0012890Y0005640D03*
G01X0011740Y0004490D03*
G01X0011790Y0004440D03*
G01X0014490Y0002890D03*
G54D30*
G01X0015915Y0003540D03*
G01X0016865Y0003490D03*
G01X0016065Y0002890D03*
G01X0020215Y0003040D03*
G01X0020865Y0003340D03*
G01X0018765Y0005540D03*
G01X0019465Y0006590D03*
G01X0019415Y0006640D03*
G01X0019565Y0008840D03*
G01X0021065Y0009990D03*
G01X0023665Y0010890D03*
G01X0023865Y0011040D03*
G01X0022865Y0011440D03*
G01X0023765Y0012790D03*
G01X0026315Y0013790D03*
G01X0026865Y0013990D03*
G01X0026565Y0015240D03*
G01X0020665Y0014390D03*
G01X0019515Y0013890D03*
G01X0019115Y0013790D03*
G01X0018215Y0010890D03*
G54D31*
G01X0018290Y0010940D03*
G01X0021190Y0009940D03*
G01X0021290Y0009840D03*
G01X0020440Y0008540D03*
G01X0021240Y0007590D03*
G01X0019540Y0006540D03*
G01X0018640Y0005590D03*
G01X0017340Y0004790D03*
G01X0016540Y0004490D03*
G01X0016690Y0004390D03*
G01X0015990Y0002940D03*
G01X0010990Y0005390D03*
G01X0019590Y0013940D03*
G01X0021690Y0013890D03*
G01X0024440Y0014840D03*
G01X0026740Y0015190D03*
G54D32*
G01X0023590Y0013740D03*
G01X0023490Y0013690D03*
G01X0023390Y0013640D03*
G01X0023290Y0013590D03*
G01X0020540Y0013540D03*
G01X0018990Y0011340D03*
G01X0015540Y0010990D03*
G01X0019440Y0009190D03*
G01X0016040Y0007690D03*
G01X0013540Y0007140D03*
G01X0017790Y0004490D03*
G01X0015490Y0004140D03*
G01X0014590Y0002990D03*
G01X0013190Y0004140D03*
G54D33*
G01X0012815Y0004240D03*
G01X0013565Y0005490D03*
G01X0011115Y0005490D03*
G01X0015915Y0002990D03*
G01X0016615Y0004440D03*
G01X0017865Y0004590D03*
G01X0020415Y0002990D03*
G01X0019565Y0006490D03*
G01X0023615Y0010590D03*
G01X0023665Y0010940D03*
G01X0023865Y0011090D03*
G01X0018365Y0010990D03*
G01X0019665Y0013990D03*
G01X0021515Y0013840D03*
G54D34*
G01X0020465Y0013490D03*
G01X0020415Y0013440D03*
G01X0022615Y0013040D03*
G01X0021315Y0011440D03*
G01X0023865Y0011240D03*
G01X0023415Y0009640D03*
G01X0023065Y0009590D03*
G01X0021165Y0009090D03*
G01X0019565Y0009090D03*
G01X0013215Y0006940D03*
G01X0013115Y0006890D03*
G01X0011715Y0004740D03*
G01X0014565Y0003040D03*
G01X0017715Y0004540D03*
G01X0018615Y0003540D03*
G54D35*
G01X0015115Y0003090D03*
G01X0011865Y0004540D03*
G01X0012415Y0006040D03*
G01X0018215Y0007040D03*
G01X0019715Y0010690D03*
G01X0019865Y0010740D03*
G54D36*
G01X0021940Y0011490D03*
G01X0016140Y0008390D03*
G01X0012540Y0006190D03*
G01X0011840Y0004590D03*
G01X0014240Y0003790D03*
G01X0015090Y0003140D03*
G54D37*
G01X0015065Y0003190D03*
G01X0015065Y0003240D03*
G01X0018065Y0004240D03*
G01X0021065Y0003440D03*
G01X0019115Y0005940D03*
G01X0019065Y0005990D03*
G01X0018965Y0006040D03*
G01X0016265Y0008240D03*
G01X0012815Y0006440D03*
G01X0012465Y0005740D03*
G01X0011865Y0004640D03*
G54D38*
G01X0012590Y0003840D03*
G01X0012890Y0003290D03*
G01X0016490Y0003240D03*
G01X0016540Y0003190D03*
G01X0014940Y0005240D03*
G01X0013640Y0005390D03*
G01X0011090Y0005640D03*
G01X0013540Y0007340D03*
G01X0019990Y0007090D03*
G01X0020040Y0007040D03*
G01X0020340Y0008090D03*
G01X0020440Y0008390D03*
G01X0020390Y0008440D03*
G01X0022140Y0007940D03*
G01X0022290Y0010140D03*
G01X0022840Y0010390D03*
G01X0023090Y0010490D03*
G01X0025340Y0011390D03*
G01X0024890Y0012140D03*
G01X0025040Y0012790D03*
G01X0024540Y0013490D03*
G01X0024640Y0013540D03*
G01X0024490Y0013940D03*
G01X0024390Y0013890D03*
G01X0024590Y0013990D03*
G01X0024690Y0014040D03*
G01X0025440Y0014590D03*
G01X0024340Y0014690D03*
G01X0023190Y0013840D03*
G01X0022690Y0014540D03*
G01X0021790Y0014640D03*
G01X0021740Y0014590D03*
G01X0021640Y0014540D03*
G01X0021490Y0014440D03*
G01X0021340Y0014340D03*
G01X0021290Y0014290D03*
G01X0021190Y0014240D03*
G01X0021140Y0014190D03*
G01X0019990Y0014040D03*
G01X0019390Y0014040D03*
G01X0020140Y0014890D03*
G01X0021440Y0013440D03*
G01X0022640Y0012740D03*
G01X0022690Y0012790D03*
G01X0022790Y0012840D03*
G01X0022840Y0012890D03*
G01X0022590Y0012690D03*
G01X0022540Y0012640D03*
G01X0022140Y0012290D03*
G01X0022090Y0012240D03*
G01X0022040Y0012190D03*
G01X0021890Y0012590D03*
G01X0026940Y0014940D03*
G01X0027040Y0014890D03*
G01X0027290Y0014790D03*
G01X0027440Y0014740D03*
G01X0027340Y0015090D03*
G01X0026690Y0015090D03*
G01X0026990Y0013640D03*
G01X0016590Y0011290D03*
G01X0016340Y0011540D03*
G01X0015940Y0011840D03*
G01X0015890Y0011790D03*
G01X0016040Y0011890D03*
G01X0016090Y0011940D03*
G01X0016240Y0012040D03*
G01X0015690Y0011640D03*
G01X0015640Y0011590D03*
G54D39*
G01X0018765Y0011240D03*
G01X0021865Y0010940D03*
G01X0023865Y0011190D03*
G01X0021615Y0013290D03*
G01X0021515Y0013240D03*
G01X0020315Y0014290D03*
G01X0020165Y0014240D03*
G01X0024965Y0014340D03*
G01X0015915Y0007790D03*
G01X0016515Y0006640D03*
G01X0014815Y0006640D03*
G01X0014715Y0006590D03*
G01X0014615Y0006540D03*
G01X0014615Y0006490D03*
G01X0015515Y0004240D03*
G01X0019465Y0003190D03*
G54D40*
G01X0019365Y0003240D03*
G01X0018965Y0003440D03*
G01X0015515Y0004340D03*
G01X0015515Y0004390D03*
G01X0015465Y0004440D03*
G01X0015465Y0004490D03*
G01X0012965Y0004190D03*
G01X0016515Y0006690D03*
G01X0015815Y0007990D03*
G01X0020165Y0011040D03*
G01X0020265Y0011090D03*
G01X0020365Y0011140D03*
G01X0020465Y0011190D03*
G01X0021765Y0011040D03*
G01X0023865Y0011140D03*
G01X0021165Y0012990D03*
G01X0021215Y0013040D03*
G01X0024815Y0014290D03*
G01X0025465Y0014540D03*
G54D41*
G01X0015440Y0006940D03*
G01X0012290Y0005690D03*
G01X0015190Y0003340D03*
G01X0015240Y0003290D03*
G01X0018090Y0004190D03*
G54D42*
G01X0019265Y0003290D03*
G01X0019715Y0006390D03*
G01X0020065Y0007290D03*
G01X0020015Y0007340D03*
G01X0019915Y0007390D03*
G01X0019865Y0007440D03*
G01X0019815Y0007490D03*
G01X0019765Y0007540D03*
G01X0019715Y0007590D03*
G01X0015765Y0007890D03*
G01X0014865Y0009840D03*
G01X0015915Y0011090D03*
G01X0016165Y0011240D03*
G01X0018515Y0011090D03*
G01X0021115Y0009790D03*
G01X0023715Y0012740D03*
G01X0022015Y0013990D03*
G01X0019815Y0014140D03*
G01X0024615Y0014190D03*
G01X0026315Y0013740D03*
G54D43*
G01X0024740Y0014240D03*
G01X0022140Y0014040D03*
G01X0020440Y0014340D03*
G01X0019340Y0013840D03*
G01X0018590Y0011140D03*
G01X0021390Y0009890D03*
G01X0022240Y0010790D03*
G01X0019440Y0007840D03*
G01X0019490Y0007790D03*
G01X0019540Y0007740D03*
G01X0019590Y0007690D03*
G01X0019640Y0007640D03*
G01X0020140Y0007240D03*
G01X0020190Y0007190D03*
G01X0021240Y0007640D03*
G01X0018390Y0005640D03*
G01X0018090Y0005240D03*
G01X0019090Y0003390D03*
G01X0019190Y0003340D03*
G01X0011140Y0005440D03*
G01X0015790Y0007940D03*
G54D44*
G01X0014365Y0007340D03*
G01X0013465Y0007290D03*
G01X0011315Y0005890D03*
G01X0010865Y0005240D03*
G01X0012115Y0003590D03*
G01X0013165Y0003390D03*
G01X0013265Y0003440D03*
G01X0015015Y0005190D03*
G01X0016615Y0004290D03*
G01X0017915Y0004690D03*
G01X0019965Y0007140D03*
G01X0021565Y0007440D03*
G01X0023465Y0009740D03*
G01X0024365Y0009790D03*
G01X0024515Y0009840D03*
G01X0023215Y0010540D03*
G01X0022965Y0010440D03*
G01X0024215Y0011840D03*
G01X0024315Y0012940D03*
G01X0024015Y0013140D03*
G01X0022965Y0012990D03*
G01X0022915Y0012940D03*
G01X0021815Y0012540D03*
G01X0021965Y0012140D03*
G01X0018515Y0011740D03*
G01X0016315Y0011490D03*
G01X0015765Y0011690D03*
G01X0015815Y0011740D03*
G01X0015565Y0011540D03*
G01X0015515Y0011490D03*
G01X0015465Y0011440D03*
G01X0015415Y0011390D03*
G01X0015365Y0011340D03*
G01X0015315Y0011290D03*
G01X0015265Y0011240D03*
G01X0015215Y0011190D03*
G01X0015165Y0011140D03*
G01X0015115Y0011090D03*
G01X0015065Y0011040D03*
G01X0014765Y0010540D03*
G01X0014765Y0010490D03*
G01X0014715Y0010440D03*
G01X0014715Y0010390D03*
G01X0014665Y0010290D03*
G01X0014665Y0010240D03*
G01X0014615Y0010040D03*
G01X0019465Y0014090D03*
G01X0020015Y0014790D03*
G01X0020065Y0014840D03*
G01X0020915Y0014440D03*
G01X0021065Y0014140D03*
G01X0022515Y0014440D03*
G01X0022615Y0014490D03*
G01X0022765Y0014590D03*
G01X0022865Y0014640D03*
G01X0022965Y0014690D03*
G01X0023065Y0014740D03*
G01X0023215Y0014790D03*
G01X0024415Y0014740D03*
G01X0024315Y0013840D03*
G54D45*
G01X0016215Y0008490D03*
G01X0015115Y0003390D03*
G54D46*
G01X0020965Y0003390D03*
G01X0018165Y0006540D03*
G01X0018165Y0006590D03*
G01X0016015Y0008190D03*
G01X0015215Y0009640D03*
G01X0015215Y0009690D03*
G54D47*
G01X0019915Y0012490D03*
G01X0020015Y0012540D03*
G01X0020165Y0012640D03*
G01X0020265Y0012690D03*
G01X0020315Y0012740D03*
G01X0020415Y0012790D03*
G01X0017615Y0003690D03*
G01X0015015Y0003440D03*
G54D48*
G01X0014740Y0003490D03*
G01X0016790Y0005290D03*
G01X0018290Y0007940D03*
G01X0019340Y0011990D03*
G01X0019540Y0012390D03*
G01X0023090Y0011990D03*
G54D49*
G01X0021840Y0010990D03*
G01X0020090Y0010990D03*
G01X0018690Y0011190D03*
G01X0021290Y0013090D03*
G01X0021340Y0013140D03*
G01X0021440Y0013190D03*
G01X0019990Y0014190D03*
G01X0021040Y0009040D03*
G01X0020490Y0008590D03*
G01X0018440Y0005140D03*
G01X0015540Y0004290D03*
G01X0018840Y0003490D03*
G54D50*
G01X0017690Y0003640D03*
G01X0021190Y0003490D03*
G01X0015390Y0006890D03*
G01X0019840Y0012440D03*
G54D51*
G01X0018690Y0008390D03*
G01X0016190Y0008290D03*
G01X0016140Y0008340D03*
G01X0012390Y0006090D03*
G01X0014290Y0003740D03*
G01X0014340Y0003540D03*
G01X0017690Y0003790D03*
G54D52*
G01X0017015Y0003540D03*
G01X0015515Y0004190D03*
G01X0018365Y0005190D03*
G01X0015265Y0006440D03*
G01X0019565Y0009040D03*
G01X0019615Y0008990D03*
G01X0023665Y0009690D03*
G01X0019715Y0012840D03*
G01X0019765Y0012890D03*
G01X0019815Y0012940D03*
G01X0019865Y0012990D03*
G01X0019915Y0013040D03*
G01X0019965Y0013090D03*
G01X0020165Y0013240D03*
G01X0020215Y0013290D03*
G01X0021815Y0013390D03*
G01X0023865Y0013340D03*
G01X0025115Y0014390D03*
G01X0015365Y0010790D03*
G01X0015315Y0010740D03*
G54D53*
G01X0015965Y0005640D03*
G01X0021315Y0003540D03*
G54D54*
G01X0019690Y0003940D03*
G01X0014340Y0003640D03*
G01X0014340Y0003590D03*
G01X0011940Y0004690D03*
G01X0012840Y0005540D03*
G01X0012590Y0006290D03*
G01X0013040Y0006640D03*
G01X0015640Y0007040D03*
G01X0018740Y0008340D03*
G01X0021290Y0009240D03*
G54D55*
G01X0019165Y0011890D03*
G01X0017615Y0006440D03*
G01X0017765Y0003590D03*
G54D56*
G01X0021490Y0003590D03*
G01X0017240Y0007290D03*
G01X0018440Y0009790D03*
G01X0018490Y0009840D03*
G54D57*
G01X0016290Y0008990D03*
G01X0016140Y0009040D03*
G01X0016040Y0009240D03*
G01X0021790Y0003640D03*
G54D58*
G01X0017615Y0003840D03*
G01X0014315Y0003690D03*
G01X0012565Y0006240D03*
G01X0013165Y0006690D03*
G01X0018665Y0008440D03*
G54D59*
G01X0021540Y0003690D03*
G54D60*
G01X0017540Y0003740D03*
G01X0012990Y0006390D03*
G01X0015490Y0006840D03*
G01X0020090Y0012590D03*
G54D61*
G01X0020765Y0011590D03*
G01X0018965Y0010240D03*
G01X0021215Y0003740D03*
G54D62*
G01X0020790Y0003790D03*
G54D63*
G01X0014490Y0003840D03*
G01X0018390Y0008090D03*
G54D64*
G01X0017590Y0006490D03*
G01X0020340Y0003840D03*
G54D65*
G01X0016040Y0005940D03*
G01X0015940Y0005990D03*
G01X0014190Y0003940D03*
G01X0014190Y0003890D03*
G01X0019590Y0012140D03*
G54D66*
G01X0018315Y0007140D03*
G01X0016315Y0005240D03*
G01X0016365Y0005190D03*
G01X0017515Y0003890D03*
G01X0012615Y0006340D03*
G01X0012365Y0006140D03*
G01X0012865Y0006540D03*
G01X0012965Y0006590D03*
G54D67*
G01X0012415Y0005990D03*
G01X0012365Y0005940D03*
G01X0016165Y0008440D03*
G01X0018215Y0006990D03*
G01X0019965Y0003890D03*
G54D68*
G01X0017465Y0003940D03*
G01X0015865Y0004590D03*
G01X0015815Y0004640D03*
G01X0015765Y0004690D03*
G01X0015715Y0004740D03*
G01X0012815Y0005590D03*
G01X0017915Y0007790D03*
G01X0019515Y0011490D03*
G01X0019365Y0011840D03*
G01X0023715Y0012490D03*
G01X0023965Y0012640D03*
G01X0024065Y0012690D03*
G54D69*
G01X0017190Y0007490D03*
G01X0017190Y0007440D03*
G01X0014390Y0003990D03*
G54D70*
G01X0017390Y0003990D03*
G01X0019390Y0003990D03*
G01X0018090Y0007540D03*
G01X0018090Y0007590D03*
G01X0018040Y0007640D03*
G01X0017990Y0007690D03*
G01X0017940Y0007740D03*
G01X0021140Y0011290D03*
G54D71*
G01X0020765Y0011690D03*
G01X0019765Y0012290D03*
G01X0018565Y0009990D03*
G01X0014365Y0004040D03*
G54D72*
G01X0018215Y0004040D03*
G01X0020815Y0011740D03*
G01X0019715Y0012240D03*
G01X0019665Y0012190D03*
G54D73*
G01X0021290Y0012890D03*
G01X0020990Y0013790D03*
G01X0016140Y0007590D03*
G01X0013490Y0007040D03*
G01X0012340Y0005840D03*
G01X0015440Y0004090D03*
G54D74*
G01X0018065Y0004090D03*
G01X0016115Y0005890D03*
G01X0019515Y0012090D03*
G54D75*
G01X0023215Y0012040D03*
G01X0018265Y0007990D03*
G01X0017965Y0004140D03*
G54D76*
G01X0018115Y0004290D03*
G01X0018465Y0007090D03*
G01X0018915Y0008240D03*
G01X0022015Y0011890D03*
G01X0022265Y0011940D03*
G01X0023365Y0013190D03*
G54D77*
G01X0023790Y0012540D03*
G01X0023890Y0012590D03*
G01X0021790Y0011840D03*
G01X0021090Y0011240D03*
G01X0021640Y0010840D03*
G01X0018840Y0008290D03*
G01X0017840Y0007840D03*
G01X0013190Y0006740D03*
G01X0012790Y0006490D03*
G01X0015690Y0004790D03*
G01X0015890Y0004540D03*
G54D78*
G01X0016190Y0004840D03*
G01X0016140Y0004890D03*
G01X0016090Y0004940D03*
G01X0016440Y0005440D03*
G01X0016540Y0005390D03*
G01X0016190Y0005540D03*
G54D79*
G01X0016065Y0005590D03*
G01X0016665Y0005340D03*
G01X0016015Y0004990D03*
G01X0018365Y0007890D03*
G01X0018315Y0008040D03*
G01X0019215Y0010540D03*
G01X0019215Y0010590D03*
G01X0019515Y0012340D03*
G54D80*
G01X0018240Y0006940D03*
G01X0018290Y0006890D03*
G01X0018340Y0006840D03*
G01X0015640Y0006790D03*
G01X0016190Y0005140D03*
G01X0016240Y0005090D03*
G01X0016290Y0005040D03*
G54D81*
G01X0016315Y0005490D03*
G01X0019265Y0011940D03*
G54D82*
G01X0016665Y0008840D03*
G01X0016565Y0008890D03*
G01X0016415Y0008940D03*
G01X0016465Y0005690D03*
G54D83*
G01X0015865Y0005740D03*
G01X0016915Y0006390D03*
G54D84*
G01X0014490Y0005790D03*
G54D85*
G01X0015090Y0006740D03*
G01X0015990Y0007740D03*
G01X0015890Y0008090D03*
G01X0020540Y0008640D03*
G01X0019940Y0010940D03*
G01X0018890Y0011290D03*
G01X0015490Y0010940D03*
G01X0015440Y0010890D03*
G01X0015390Y0010840D03*
G01X0020040Y0013140D03*
G01X0020090Y0013190D03*
G01X0020290Y0013340D03*
G01X0020340Y0013390D03*
G01X0022740Y0013090D03*
G01X0018940Y0005790D03*
G54D86*
G01X0015565Y0005840D03*
G01X0019215Y0010390D03*
G54D87*
G01X0018840Y0008490D03*
G01X0015740Y0007090D03*
G01X0018990Y0005890D03*
G54D88*
G01X0015865Y0006040D03*
G01X0015765Y0006090D03*
G01X0015715Y0006140D03*
G54D89*
G01X0016365Y0006240D03*
G01X0016415Y0006190D03*
G54D90*
G01X0016340Y0006290D03*
G54D91*
G01X0016640Y0006340D03*
G01X0016340Y0009190D03*
G54D92*
G01X0015840Y0008040D03*
G01X0014940Y0006690D03*
G01X0016590Y0006590D03*
G01X0016640Y0006540D03*
G01X0021240Y0007690D03*
G01X0019690Y0008940D03*
G01X0015290Y0010690D03*
G01X0015240Y0010640D03*
G01X0021740Y0013340D03*
G54D93*
G01X0020065Y0010790D03*
G01X0018365Y0006790D03*
G01X0018415Y0006740D03*
G01X0018465Y0006690D03*
G54D94*
G01X0015540Y0006990D03*
G01X0019590Y0010640D03*
G54D95*
G01X0019040Y0010290D03*
G01X0018940Y0010190D03*
G01X0018940Y0010140D03*
G01X0017190Y0007190D03*
G54D96*
G01X0017215Y0007240D03*
G01X0018615Y0009890D03*
G01X0019065Y0010440D03*
G54D97*
G01X0018615Y0009940D03*
G01X0020515Y0009290D03*
G01X0017215Y0007340D03*
G01X0020765Y0011640D03*
G54D98*
G01X0017215Y0007390D03*
G54D99*
G01X0018415Y0008140D03*
G54D100*
G01X0017240Y0008540D03*
G54D101*
G01X0017215Y0008590D03*
G54D102*
G01X0017140Y0008640D03*
G54D103*
G01X0017115Y0008690D03*
G54D104*
G01X0017965Y0008740D03*
G54D105*
G01X0017965Y0008790D03*
G54D106*
G01X0016140Y0009090D03*
G54D107*
G01X0016265Y0009140D03*
G54D108*
G01X0016065Y0009290D03*
G01X0019015Y0010040D03*
G54D109*
G01X0018465Y0009340D03*
G54D110*
G01X0018515Y0009390D03*
G54D111*
G01X0018615Y0009440D03*
G54D112*
G01X0018715Y0009490D03*
G54D113*
G01X0018865Y0009540D03*
G54D114*
G01X0018065Y0009590D03*
G54D115*
G01X0018890Y0009640D03*
G54D116*
G01X0018915Y0009690D03*
G54D117*
G01X0018940Y0009740D03*
G54D118*
G01X0018965Y0010090D03*
G01X0020765Y0011540D03*
G54D119*
G01X0020540Y0011790D03*
G01X0019140Y0010340D03*
G54D120*
G01X0019240Y0010490D03*
G01X0019440Y0012040D03*
G54D121*
G01X0032310Y0014140D02*
G01X0032312Y0014190D01*
G01X0032312Y0014190D02*
G01X0032318Y0014240D01*
G01X0032318Y0014240D02*
G01X0032328Y0014289D01*
G01X0032328Y0014289D02*
G01X0032342Y0014337D01*
G01X0032342Y0014337D02*
G01X0032359Y0014384D01*
G01X0032359Y0014384D02*
G01X0032380Y0014429D01*
G01X0032380Y0014429D02*
G01X0032405Y0014473D01*
G01X0032405Y0014473D02*
G01X0032433Y0014514D01*
G01X0032433Y0014514D02*
G01X0032465Y0014553D01*
G01X0032465Y0014553D02*
G01X0032499Y0014590D01*
G01X0032499Y0014590D02*
G01X0032536Y0014624D01*
G01X0032536Y0014624D02*
G01X0032576Y0014654D01*
G01X0032576Y0014654D02*
G01X0032618Y0014681D01*
G01X0032618Y0014681D02*
G01X0032662Y0014705D01*
G01X0032662Y0014705D02*
G01X0032708Y0014726D01*
G01X0032708Y0014726D02*
G01X0032755Y0014742D01*
G01X0032755Y0014742D02*
G01X0032803Y0014755D01*
G01X0032803Y0014755D02*
G01X0032853Y0014764D01*
G01X0032853Y0014764D02*
G01X0032902Y0014769D01*
G01X0032902Y0014769D02*
G01X0032953Y0014770D01*
G01X0032953Y0014770D02*
G01X0033003Y0014767D01*
G01X0033003Y0014767D02*
G01X0033052Y0014760D01*
G01X0033052Y0014760D02*
G01X0033101Y0014749D01*
G01X0033101Y0014749D02*
G01X0033149Y0014734D01*
G01X0033149Y0014734D02*
G01X0033195Y0014716D01*
G01X0033195Y0014716D02*
G01X0033240Y0014694D01*
G01X0033240Y0014694D02*
G01X0033283Y0014668D01*
G01X0033283Y0014668D02*
G01X0033324Y0014639D01*
G01X0033324Y0014639D02*
G01X0033363Y0014607D01*
G01X0033363Y0014607D02*
G01X0033399Y0014572D01*
G01X0033399Y0014572D02*
G01X0033431Y0014534D01*
G01X0033431Y0014534D02*
G01X0033461Y0014494D01*
G01X0033461Y0014494D02*
G01X0033488Y0014451D01*
G01X0033488Y0014451D02*
G01X0033511Y0014407D01*
G01X0033511Y0014407D02*
G01X0033530Y0014361D01*
G01X0033530Y0014361D02*
G01X0033546Y0014313D01*
G01X0033546Y0014313D02*
G01X0033558Y0014264D01*
G01X0033558Y0014264D02*
G01X0033566Y0014215D01*
G01X0033566Y0014215D02*
G01X0033570Y0014165D01*
G01X0033570Y0014165D02*
G01X0033570Y0014115D01*
G01X0033570Y0014115D02*
G01X0033566Y0014065D01*
G01X0033566Y0014065D02*
G01X0033558Y0014016D01*
G01X0033558Y0014016D02*
G01X0033546Y0013967D01*
G01X0033546Y0013967D02*
G01X0033530Y0013919D01*
G01X0033530Y0013919D02*
G01X0033511Y0013873D01*
G01X0033511Y0013873D02*
G01X0033488Y0013829D01*
G01X0033488Y0013829D02*
G01X0033461Y0013786D01*
G01X0033461Y0013786D02*
G01X0033431Y0013746D01*
G01X0033431Y0013746D02*
G01X0033399Y0013708D01*
G01X0033399Y0013708D02*
G01X0033363Y0013673D01*
G01X0033363Y0013673D02*
G01X0033324Y0013641D01*
G01X0033324Y0013641D02*
G01X0033283Y0013612D01*
G01X0033283Y0013612D02*
G01X0033240Y0013586D01*
G01X0033240Y0013586D02*
G01X0033195Y0013564D01*
G01X0033195Y0013564D02*
G01X0033149Y0013546D01*
G01X0033149Y0013546D02*
G01X0033101Y0013531D01*
G01X0033101Y0013531D02*
G01X0033052Y0013520D01*
G01X0033052Y0013520D02*
G01X0033003Y0013513D01*
G01X0033003Y0013513D02*
G01X0032953Y0013510D01*
G01X0032953Y0013510D02*
G01X0032902Y0013511D01*
G01X0032902Y0013511D02*
G01X0032853Y0013516D01*
G01X0032853Y0013516D02*
G01X0032803Y0013525D01*
G01X0032803Y0013525D02*
G01X0032755Y0013538D01*
G01X0032755Y0013538D02*
G01X0032708Y0013554D01*
G01X0032708Y0013554D02*
G01X0032662Y0013575D01*
G01X0032662Y0013575D02*
G01X0032618Y0013599D01*
G01X0032618Y0013599D02*
G01X0032576Y0013626D01*
G01X0032576Y0013626D02*
G01X0032536Y0013656D01*
G01X0032536Y0013656D02*
G01X0032499Y0013690D01*
G01X0032499Y0013690D02*
G01X0032465Y0013727D01*
G01X0032465Y0013727D02*
G01X0032433Y0013766D01*
G01X0032433Y0013766D02*
G01X0032405Y0013807D01*
G01X0032405Y0013807D02*
G01X0032380Y0013851D01*
G01X0032380Y0013851D02*
G01X0032359Y0013896D01*
G01X0032359Y0013896D02*
G01X0032342Y0013943D01*
G01X0032342Y0013943D02*
G01X0032328Y0013991D01*
G01X0032328Y0013991D02*
G01X0032318Y0014040D01*
G01X0032318Y0014040D02*
G01X0032312Y0014090D01*
G01X0032312Y0014090D02*
G01X0032310Y0014140D01*
G01X0032310Y0002140D02*
G01X0032312Y0002190D01*
G01X0032312Y0002190D02*
G01X0032318Y0002240D01*
G01X0032318Y0002240D02*
G01X0032328Y0002289D01*
G01X0032328Y0002289D02*
G01X0032342Y0002337D01*
G01X0032342Y0002337D02*
G01X0032359Y0002384D01*
G01X0032359Y0002384D02*
G01X0032380Y0002429D01*
G01X0032380Y0002429D02*
G01X0032405Y0002473D01*
G01X0032405Y0002473D02*
G01X0032433Y0002514D01*
G01X0032433Y0002514D02*
G01X0032465Y0002553D01*
G01X0032465Y0002553D02*
G01X0032499Y0002590D01*
G01X0032499Y0002590D02*
G01X0032536Y0002624D01*
G01X0032536Y0002624D02*
G01X0032576Y0002654D01*
G01X0032576Y0002654D02*
G01X0032618Y0002681D01*
G01X0032618Y0002681D02*
G01X0032662Y0002705D01*
G01X0032662Y0002705D02*
G01X0032708Y0002726D01*
G01X0032708Y0002726D02*
G01X0032755Y0002742D01*
G01X0032755Y0002742D02*
G01X0032803Y0002755D01*
G01X0032803Y0002755D02*
G01X0032853Y0002764D01*
G01X0032853Y0002764D02*
G01X0032902Y0002769D01*
G01X0032902Y0002769D02*
G01X0032953Y0002770D01*
G01X0032953Y0002770D02*
G01X0033003Y0002767D01*
G01X0033003Y0002767D02*
G01X0033052Y0002760D01*
G01X0033052Y0002760D02*
G01X0033101Y0002749D01*
G01X0033101Y0002749D02*
G01X0033149Y0002734D01*
G01X0033149Y0002734D02*
G01X0033195Y0002716D01*
G01X0033195Y0002716D02*
G01X0033240Y0002694D01*
G01X0033240Y0002694D02*
G01X0033283Y0002668D01*
G01X0033283Y0002668D02*
G01X0033324Y0002639D01*
G01X0033324Y0002639D02*
G01X0033363Y0002607D01*
G01X0033363Y0002607D02*
G01X0033399Y0002572D01*
G01X0033399Y0002572D02*
G01X0033431Y0002534D01*
G01X0033431Y0002534D02*
G01X0033461Y0002494D01*
G01X0033461Y0002494D02*
G01X0033488Y0002451D01*
G01X0033488Y0002451D02*
G01X0033511Y0002407D01*
G01X0033511Y0002407D02*
G01X0033530Y0002361D01*
G01X0033530Y0002361D02*
G01X0033546Y0002313D01*
G01X0033546Y0002313D02*
G01X0033558Y0002264D01*
G01X0033558Y0002264D02*
G01X0033566Y0002215D01*
G01X0033566Y0002215D02*
G01X0033570Y0002165D01*
G01X0033570Y0002165D02*
G01X0033570Y0002115D01*
G01X0033570Y0002115D02*
G01X0033566Y0002065D01*
G01X0033566Y0002065D02*
G01X0033558Y0002016D01*
G01X0033558Y0002016D02*
G01X0033546Y0001967D01*
G01X0033546Y0001967D02*
G01X0033530Y0001919D01*
G01X0033530Y0001919D02*
G01X0033511Y0001873D01*
G01X0033511Y0001873D02*
G01X0033488Y0001829D01*
G01X0033488Y0001829D02*
G01X0033461Y0001786D01*
G01X0033461Y0001786D02*
G01X0033431Y0001746D01*
G01X0033431Y0001746D02*
G01X0033399Y0001708D01*
G01X0033399Y0001708D02*
G01X0033363Y0001673D01*
G01X0033363Y0001673D02*
G01X0033324Y0001641D01*
G01X0033324Y0001641D02*
G01X0033283Y0001612D01*
G01X0033283Y0001612D02*
G01X0033240Y0001586D01*
G01X0033240Y0001586D02*
G01X0033195Y0001564D01*
G01X0033195Y0001564D02*
G01X0033149Y0001546D01*
G01X0033149Y0001546D02*
G01X0033101Y0001531D01*
G01X0033101Y0001531D02*
G01X0033052Y0001520D01*
G01X0033052Y0001520D02*
G01X0033003Y0001513D01*
G01X0033003Y0001513D02*
G01X0032953Y0001510D01*
G01X0032953Y0001510D02*
G01X0032902Y0001511D01*
G01X0032902Y0001511D02*
G01X0032853Y0001516D01*
G01X0032853Y0001516D02*
G01X0032803Y0001525D01*
G01X0032803Y0001525D02*
G01X0032755Y0001538D01*
G01X0032755Y0001538D02*
G01X0032708Y0001554D01*
G01X0032708Y0001554D02*
G01X0032662Y0001575D01*
G01X0032662Y0001575D02*
G01X0032618Y0001599D01*
G01X0032618Y0001599D02*
G01X0032576Y0001626D01*
G01X0032576Y0001626D02*
G01X0032536Y0001656D01*
G01X0032536Y0001656D02*
G01X0032499Y0001690D01*
G01X0032499Y0001690D02*
G01X0032465Y0001727D01*
G01X0032465Y0001727D02*
G01X0032433Y0001766D01*
G01X0032433Y0001766D02*
G01X0032405Y0001807D01*
G01X0032405Y0001807D02*
G01X0032380Y0001851D01*
G01X0032380Y0001851D02*
G01X0032359Y0001896D01*
G01X0032359Y0001896D02*
G01X0032342Y0001943D01*
G01X0032342Y0001943D02*
G01X0032328Y0001991D01*
G01X0032328Y0001991D02*
G01X0032318Y0002040D01*
G01X0032318Y0002040D02*
G01X0032312Y0002090D01*
G01X0032312Y0002090D02*
G01X0032310Y0002140D01*
G01X0001310Y0002140D02*
G01X0001312Y0002190D01*
G01X0001312Y0002190D02*
G01X0001318Y0002240D01*
G01X0001318Y0002240D02*
G01X0001328Y0002289D01*
G01X0001328Y0002289D02*
G01X0001342Y0002337D01*
G01X0001342Y0002337D02*
G01X0001359Y0002384D01*
G01X0001359Y0002384D02*
G01X0001380Y0002429D01*
G01X0001380Y0002429D02*
G01X0001405Y0002473D01*
G01X0001405Y0002473D02*
G01X0001433Y0002514D01*
G01X0001433Y0002514D02*
G01X0001465Y0002553D01*
G01X0001465Y0002553D02*
G01X0001499Y0002590D01*
G01X0001499Y0002590D02*
G01X0001536Y0002624D01*
G01X0001536Y0002624D02*
G01X0001576Y0002654D01*
G01X0001576Y0002654D02*
G01X0001618Y0002681D01*
G01X0001618Y0002681D02*
G01X0001662Y0002705D01*
G01X0001662Y0002705D02*
G01X0001708Y0002726D01*
G01X0001708Y0002726D02*
G01X0001755Y0002742D01*
G01X0001755Y0002742D02*
G01X0001803Y0002755D01*
G01X0001803Y0002755D02*
G01X0001853Y0002764D01*
G01X0001853Y0002764D02*
G01X0001902Y0002769D01*
G01X0001902Y0002769D02*
G01X0001953Y0002770D01*
G01X0001953Y0002770D02*
G01X0002003Y0002767D01*
G01X0002003Y0002767D02*
G01X0002052Y0002760D01*
G01X0002052Y0002760D02*
G01X0002101Y0002749D01*
G01X0002101Y0002749D02*
G01X0002149Y0002734D01*
G01X0002149Y0002734D02*
G01X0002195Y0002716D01*
G01X0002195Y0002716D02*
G01X0002240Y0002694D01*
G01X0002240Y0002694D02*
G01X0002283Y0002668D01*
G01X0002283Y0002668D02*
G01X0002324Y0002639D01*
G01X0002324Y0002639D02*
G01X0002363Y0002607D01*
G01X0002363Y0002607D02*
G01X0002399Y0002572D01*
G01X0002399Y0002572D02*
G01X0002431Y0002534D01*
G01X0002431Y0002534D02*
G01X0002461Y0002494D01*
G01X0002461Y0002494D02*
G01X0002488Y0002451D01*
G01X0002488Y0002451D02*
G01X0002511Y0002407D01*
G01X0002511Y0002407D02*
G01X0002530Y0002361D01*
G01X0002530Y0002361D02*
G01X0002546Y0002313D01*
G01X0002546Y0002313D02*
G01X0002558Y0002264D01*
G01X0002558Y0002264D02*
G01X0002566Y0002215D01*
G01X0002566Y0002215D02*
G01X0002570Y0002165D01*
G01X0002570Y0002165D02*
G01X0002570Y0002115D01*
G01X0002570Y0002115D02*
G01X0002566Y0002065D01*
G01X0002566Y0002065D02*
G01X0002558Y0002016D01*
G01X0002558Y0002016D02*
G01X0002546Y0001967D01*
G01X0002546Y0001967D02*
G01X0002530Y0001919D01*
G01X0002530Y0001919D02*
G01X0002511Y0001873D01*
G01X0002511Y0001873D02*
G01X0002488Y0001829D01*
G01X0002488Y0001829D02*
G01X0002461Y0001786D01*
G01X0002461Y0001786D02*
G01X0002431Y0001746D01*
G01X0002431Y0001746D02*
G01X0002399Y0001708D01*
G01X0002399Y0001708D02*
G01X0002363Y0001673D01*
G01X0002363Y0001673D02*
G01X0002324Y0001641D01*
G01X0002324Y0001641D02*
G01X0002283Y0001612D01*
G01X0002283Y0001612D02*
G01X0002240Y0001586D01*
G01X0002240Y0001586D02*
G01X0002195Y0001564D01*
G01X0002195Y0001564D02*
G01X0002149Y0001546D01*
G01X0002149Y0001546D02*
G01X0002101Y0001531D01*
G01X0002101Y0001531D02*
G01X0002052Y0001520D01*
G01X0002052Y0001520D02*
G01X0002003Y0001513D01*
G01X0002003Y0001513D02*
G01X0001953Y0001510D01*
G01X0001953Y0001510D02*
G01X0001902Y0001511D01*
G01X0001902Y0001511D02*
G01X0001853Y0001516D01*
G01X0001853Y0001516D02*
G01X0001803Y0001525D01*
G01X0001803Y0001525D02*
G01X0001755Y0001538D01*
G01X0001755Y0001538D02*
G01X0001708Y0001554D01*
G01X0001708Y0001554D02*
G01X0001662Y0001575D01*
G01X0001662Y0001575D02*
G01X0001618Y0001599D01*
G01X0001618Y0001599D02*
G01X0001576Y0001626D01*
G01X0001576Y0001626D02*
G01X0001536Y0001656D01*
G01X0001536Y0001656D02*
G01X0001499Y0001690D01*
G01X0001499Y0001690D02*
G01X0001465Y0001727D01*
G01X0001465Y0001727D02*
G01X0001433Y0001766D01*
G01X0001433Y0001766D02*
G01X0001405Y0001807D01*
G01X0001405Y0001807D02*
G01X0001380Y0001851D01*
G01X0001380Y0001851D02*
G01X0001359Y0001896D01*
G01X0001359Y0001896D02*
G01X0001342Y0001943D01*
G01X0001342Y0001943D02*
G01X0001328Y0001991D01*
G01X0001328Y0001991D02*
G01X0001318Y0002040D01*
G01X0001318Y0002040D02*
G01X0001312Y0002090D01*
G01X0001312Y0002090D02*
G01X0001310Y0002140D01*
G01X0001310Y0014140D02*
G01X0001312Y0014190D01*
G01X0001312Y0014190D02*
G01X0001318Y0014240D01*
G01X0001318Y0014240D02*
G01X0001328Y0014289D01*
G01X0001328Y0014289D02*
G01X0001342Y0014337D01*
G01X0001342Y0014337D02*
G01X0001359Y0014384D01*
G01X0001359Y0014384D02*
G01X0001380Y0014429D01*
G01X0001380Y0014429D02*
G01X0001405Y0014473D01*
G01X0001405Y0014473D02*
G01X0001433Y0014514D01*
G01X0001433Y0014514D02*
G01X0001465Y0014553D01*
G01X0001465Y0014553D02*
G01X0001499Y0014590D01*
G01X0001499Y0014590D02*
G01X0001536Y0014624D01*
G01X0001536Y0014624D02*
G01X0001576Y0014654D01*
G01X0001576Y0014654D02*
G01X0001618Y0014681D01*
G01X0001618Y0014681D02*
G01X0001662Y0014705D01*
G01X0001662Y0014705D02*
G01X0001708Y0014726D01*
G01X0001708Y0014726D02*
G01X0001755Y0014742D01*
G01X0001755Y0014742D02*
G01X0001803Y0014755D01*
G01X0001803Y0014755D02*
G01X0001853Y0014764D01*
G01X0001853Y0014764D02*
G01X0001902Y0014769D01*
G01X0001902Y0014769D02*
G01X0001953Y0014770D01*
G01X0001953Y0014770D02*
G01X0002003Y0014767D01*
G01X0002003Y0014767D02*
G01X0002052Y0014760D01*
G01X0002052Y0014760D02*
G01X0002101Y0014749D01*
G01X0002101Y0014749D02*
G01X0002149Y0014734D01*
G01X0002149Y0014734D02*
G01X0002195Y0014716D01*
G01X0002195Y0014716D02*
G01X0002240Y0014694D01*
G01X0002240Y0014694D02*
G01X0002283Y0014668D01*
G01X0002283Y0014668D02*
G01X0002324Y0014639D01*
G01X0002324Y0014639D02*
G01X0002363Y0014607D01*
G01X0002363Y0014607D02*
G01X0002399Y0014572D01*
G01X0002399Y0014572D02*
G01X0002431Y0014534D01*
G01X0002431Y0014534D02*
G01X0002461Y0014494D01*
G01X0002461Y0014494D02*
G01X0002488Y0014451D01*
G01X0002488Y0014451D02*
G01X0002511Y0014407D01*
G01X0002511Y0014407D02*
G01X0002530Y0014361D01*
G01X0002530Y0014361D02*
G01X0002546Y0014313D01*
G01X0002546Y0014313D02*
G01X0002558Y0014264D01*
G01X0002558Y0014264D02*
G01X0002566Y0014215D01*
G01X0002566Y0014215D02*
G01X0002570Y0014165D01*
G01X0002570Y0014165D02*
G01X0002570Y0014115D01*
G01X0002570Y0014115D02*
G01X0002566Y0014065D01*
G01X0002566Y0014065D02*
G01X0002558Y0014016D01*
G01X0002558Y0014016D02*
G01X0002546Y0013967D01*
G01X0002546Y0013967D02*
G01X0002530Y0013919D01*
G01X0002530Y0013919D02*
G01X0002511Y0013873D01*
G01X0002511Y0013873D02*
G01X0002488Y0013829D01*
G01X0002488Y0013829D02*
G01X0002461Y0013786D01*
G01X0002461Y0013786D02*
G01X0002431Y0013746D01*
G01X0002431Y0013746D02*
G01X0002399Y0013708D01*
G01X0002399Y0013708D02*
G01X0002363Y0013673D01*
G01X0002363Y0013673D02*
G01X0002324Y0013641D01*
G01X0002324Y0013641D02*
G01X0002283Y0013612D01*
G01X0002283Y0013612D02*
G01X0002240Y0013586D01*
G01X0002240Y0013586D02*
G01X0002195Y0013564D01*
G01X0002195Y0013564D02*
G01X0002149Y0013546D01*
G01X0002149Y0013546D02*
G01X0002101Y0013531D01*
G01X0002101Y0013531D02*
G01X0002052Y0013520D01*
G01X0002052Y0013520D02*
G01X0002003Y0013513D01*
G01X0002003Y0013513D02*
G01X0001953Y0013510D01*
G01X0001953Y0013510D02*
G01X0001902Y0013511D01*
G01X0001902Y0013511D02*
G01X0001853Y0013516D01*
G01X0001853Y0013516D02*
G01X0001803Y0013525D01*
G01X0001803Y0013525D02*
G01X0001755Y0013538D01*
G01X0001755Y0013538D02*
G01X0001708Y0013554D01*
G01X0001708Y0013554D02*
G01X0001662Y0013575D01*
G01X0001662Y0013575D02*
G01X0001618Y0013599D01*
G01X0001618Y0013599D02*
G01X0001576Y0013626D01*
G01X0001576Y0013626D02*
G01X0001536Y0013656D01*
G01X0001536Y0013656D02*
G01X0001499Y0013690D01*
G01X0001499Y0013690D02*
G01X0001465Y0013727D01*
G01X0001465Y0013727D02*
G01X0001433Y0013766D01*
G01X0001433Y0013766D02*
G01X0001405Y0013807D01*
G01X0001405Y0013807D02*
G01X0001380Y0013851D01*
G01X0001380Y0013851D02*
G01X0001359Y0013896D01*
G01X0001359Y0013896D02*
G01X0001342Y0013943D01*
G01X0001342Y0013943D02*
G01X0001328Y0013991D01*
G01X0001328Y0013991D02*
G01X0001318Y0014040D01*
G01X0001318Y0014040D02*
G01X0001312Y0014090D01*
G01X0001312Y0014090D02*
G01X0001310Y0014140D01*
M02*
