G04 This is an RS-274x file exported by *
G04 gerbv version 2.6.0 *
G04 More information is available about gerbv at *
G04 http://gerbv.gpleda.org/ *
G04 --End of header info--*
%MOIN*%
%FSLAX34Y34*%
%IPPOS*%
G04 --Define apertures--*
%AMMACRO10*
5,1,8,0.000000,0.000000,0.064943,22.500000*
%
%ADD10MACRO10*%
%ADD11C,0.0531*%
%ADD12C,0.0080*%
%ADD13C,0.0300*%
%ADD14C,0.0480*%
%ADD15C,0.0640*%
G04 --Start main section--*
G54D10*
G01X0004940Y0002140D03*
G01X0005940Y0002140D03*
G01X0006940Y0002140D03*
G01X0007940Y0002140D03*
G01X0008940Y0002140D03*
G01X0009940Y0002140D03*
G01X0010940Y0002140D03*
G01X0011940Y0002140D03*
G01X0012940Y0002140D03*
G01X0013940Y0002140D03*
G01X0014940Y0002140D03*
G01X0015940Y0002140D03*
G01X0016940Y0002140D03*
G01X0017940Y0002140D03*
G01X0018940Y0002140D03*
G01X0019940Y0002140D03*
G01X0020940Y0002140D03*
G01X0021940Y0002140D03*
G01X0022940Y0002140D03*
G01X0023940Y0002140D03*
G01X0025940Y0002140D03*
G01X0026940Y0002140D03*
G01X0027940Y0002140D03*
G01X0028940Y0002140D03*
G01X0029940Y0002140D03*
G01X0030940Y0002140D03*
G01X0030940Y0014140D03*
G01X0029940Y0014140D03*
G01X0028940Y0014140D03*
G01X0027940Y0014140D03*
G01X0026940Y0014140D03*
G01X0025940Y0014140D03*
G01X0023940Y0014140D03*
G01X0022940Y0014140D03*
G01X0021940Y0014140D03*
G01X0020940Y0014140D03*
G01X0019940Y0014140D03*
G01X0018940Y0014140D03*
G01X0017940Y0014140D03*
G01X0016940Y0014140D03*
G01X0015940Y0014140D03*
G01X0014940Y0014140D03*
G01X0013940Y0014140D03*
G01X0012940Y0014140D03*
G01X0011940Y0014140D03*
G01X0010940Y0014140D03*
G01X0009940Y0014140D03*
G01X0008940Y0014140D03*
G01X0007940Y0014140D03*
G01X0006940Y0014140D03*
G01X0005940Y0014140D03*
G01X0004940Y0014140D03*
G54D11*
G01X0032551Y0011295D03*
G01X0032551Y0009563D03*
G54D12*
G01X0002673Y0001018D02*
G01X0002301Y0000855D01*
G01X0002301Y0000855D02*
G01X0032630Y0000855D01*
G01X0032630Y0000855D02*
G01X0032402Y0000913D01*
G01X0032402Y0000913D02*
G01X0032402Y0000913D01*
G01X0032402Y0000913D02*
G01X0032032Y0001154D01*
G01X0032032Y0001154D02*
G01X0032032Y0001154D01*
G01X0032032Y0001154D02*
G01X0031762Y0001502D01*
G01X0031762Y0001502D02*
G01X0031762Y0001502D01*
G01X0031762Y0001502D02*
G01X0031618Y0001919D01*
G01X0031618Y0001919D02*
G01X0031618Y0002361D01*
G01X0031618Y0002361D02*
G01X0031762Y0002778D01*
G01X0031762Y0002778D02*
G01X0031762Y0002778D01*
G01X0031762Y0002778D02*
G01X0032032Y0003126D01*
G01X0032032Y0003126D02*
G01X0032032Y0003126D01*
G01X0032032Y0003126D02*
G01X0032032Y0003126D01*
G01X0032032Y0003126D02*
G01X0032402Y0003367D01*
G01X0032402Y0003367D02*
G01X0032402Y0003367D01*
G01X0032402Y0003367D02*
G01X0032829Y0003475D01*
G01X0032829Y0003475D02*
G01X0032829Y0003475D01*
G01X0032829Y0003475D02*
G01X0033269Y0003439D01*
G01X0033269Y0003439D02*
G01X0033269Y0003439D01*
G01X0033269Y0003439D02*
G01X0033673Y0003262D01*
G01X0033673Y0003262D02*
G01X0033673Y0003262D01*
G01X0033673Y0003262D02*
G01X0033997Y0002963D01*
G01X0033997Y0002963D02*
G01X0033997Y0002963D01*
G01X0033997Y0002963D02*
G01X0034207Y0002575D01*
G01X0034207Y0002575D02*
G01X0034207Y0002575D01*
G01X0034207Y0002575D02*
G01X0034225Y0002470D01*
G01X0034225Y0002470D02*
G01X0034225Y0013810D01*
G01X0034225Y0013810D02*
G01X0034207Y0013705D01*
G01X0034207Y0013705D02*
G01X0034207Y0013705D01*
G01X0034207Y0013705D02*
G01X0033997Y0013317D01*
G01X0033997Y0013317D02*
G01X0033997Y0013317D01*
G01X0033997Y0013317D02*
G01X0033673Y0013018D01*
G01X0033673Y0013018D02*
G01X0033673Y0013018D01*
G01X0033673Y0013018D02*
G01X0033269Y0012841D01*
G01X0033269Y0012841D02*
G01X0033269Y0012841D01*
G01X0033269Y0012841D02*
G01X0032829Y0012805D01*
G01X0032829Y0012805D02*
G01X0032829Y0012805D01*
G01X0032829Y0012805D02*
G01X0032402Y0012913D01*
G01X0032402Y0012913D02*
G01X0032402Y0012913D01*
G01X0032402Y0012913D02*
G01X0032032Y0013154D01*
G01X0032032Y0013154D02*
G01X0032032Y0013154D01*
G01X0032032Y0013154D02*
G01X0032032Y0013154D01*
G01X0032032Y0013154D02*
G01X0031762Y0013502D01*
G01X0031762Y0013502D02*
G01X0031762Y0013502D01*
G01X0031762Y0013502D02*
G01X0031618Y0013919D01*
G01X0031618Y0013919D02*
G01X0031618Y0014361D01*
G01X0031618Y0014361D02*
G01X0031762Y0014778D01*
G01X0031762Y0014778D02*
G01X0031762Y0014778D01*
G01X0031762Y0014778D02*
G01X0032032Y0015126D01*
G01X0032032Y0015126D02*
G01X0032032Y0015126D01*
G01X0032032Y0015126D02*
G01X0032032Y0015126D01*
G01X0032032Y0015126D02*
G01X0032402Y0015367D01*
G01X0032402Y0015367D02*
G01X0032402Y0015367D01*
G01X0032402Y0015367D02*
G01X0032630Y0015425D01*
G01X0032630Y0015425D02*
G01X0002301Y0015425D01*
G01X0002301Y0015425D02*
G01X0002673Y0015262D01*
G01X0002673Y0015262D02*
G01X0002673Y0015262D01*
G01X0002673Y0015262D02*
G01X0002997Y0014963D01*
G01X0002997Y0014963D02*
G01X0002997Y0014963D01*
G01X0002997Y0014963D02*
G01X0002997Y0014963D01*
G01X0002997Y0014963D02*
G01X0003207Y0014575D01*
G01X0003207Y0014575D02*
G01X0003207Y0014575D01*
G01X0003207Y0014575D02*
G01X0003280Y0014140D01*
G01X0003280Y0014140D02*
G01X0003207Y0013705D01*
G01X0003207Y0013705D02*
G01X0003207Y0013705D01*
G01X0003207Y0013705D02*
G01X0002997Y0013317D01*
G01X0002997Y0013317D02*
G01X0002997Y0013317D01*
G01X0002997Y0013317D02*
G01X0002673Y0013018D01*
G01X0002673Y0013018D02*
G01X0002673Y0013018D01*
G01X0002673Y0013018D02*
G01X0002269Y0012841D01*
G01X0002269Y0012841D02*
G01X0002269Y0012841D01*
G01X0002269Y0012841D02*
G01X0001829Y0012805D01*
G01X0001829Y0012805D02*
G01X0001829Y0012805D01*
G01X0001829Y0012805D02*
G01X0001402Y0012913D01*
G01X0001402Y0012913D02*
G01X0001402Y0012913D01*
G01X0001402Y0012913D02*
G01X0001032Y0013154D01*
G01X0001032Y0013154D02*
G01X0001032Y0013154D01*
G01X0001032Y0013154D02*
G01X0001032Y0013154D01*
G01X0001032Y0013154D02*
G01X0000762Y0013502D01*
G01X0000762Y0013502D02*
G01X0000762Y0013502D01*
G01X0000762Y0013502D02*
G01X0000655Y0013812D01*
G01X0000655Y0013812D02*
G01X0000655Y0002468D01*
G01X0000655Y0002468D02*
G01X0000762Y0002778D01*
G01X0000762Y0002778D02*
G01X0000762Y0002778D01*
G01X0000762Y0002778D02*
G01X0001032Y0003126D01*
G01X0001032Y0003126D02*
G01X0001032Y0003126D01*
G01X0001032Y0003126D02*
G01X0001032Y0003126D01*
G01X0001032Y0003126D02*
G01X0001402Y0003367D01*
G01X0001402Y0003367D02*
G01X0001402Y0003367D01*
G01X0001402Y0003367D02*
G01X0001829Y0003475D01*
G01X0001829Y0003475D02*
G01X0001829Y0003475D01*
G01X0001829Y0003475D02*
G01X0002269Y0003439D01*
G01X0002269Y0003439D02*
G01X0002269Y0003439D01*
G01X0002269Y0003439D02*
G01X0002673Y0003262D01*
G01X0002673Y0003262D02*
G01X0002673Y0003262D01*
G01X0002673Y0003262D02*
G01X0002997Y0002963D01*
G01X0002997Y0002963D02*
G01X0002997Y0002963D01*
G01X0002997Y0002963D02*
G01X0003207Y0002575D01*
G01X0003207Y0002575D02*
G01X0003207Y0002575D01*
G01X0003207Y0002575D02*
G01X0003280Y0002140D01*
G01X0003280Y0002140D02*
G01X0003207Y0001705D01*
G01X0003207Y0001705D02*
G01X0002997Y0001317D01*
G01X0002997Y0001317D02*
G01X0002997Y0001317D01*
G01X0002997Y0001317D02*
G01X0002673Y0001018D01*
G01X0002673Y0001018D02*
G01X0002673Y0001018D01*
G01X0002688Y0001033D02*
G01X0032219Y0001033D01*
G01X0032339Y0000954D02*
G01X0002527Y0000954D01*
G01X0002348Y0000876D02*
G01X0032549Y0000876D01*
G01X0032098Y0001111D02*
G01X0002774Y0001111D01*
G01X0002859Y0001190D02*
G01X0032005Y0001190D01*
G01X0031944Y0001268D02*
G01X0002944Y0001268D01*
G01X0003013Y0001347D02*
G01X0031883Y0001347D01*
G01X0031822Y0001425D02*
G01X0003056Y0001425D01*
G01X0003098Y0001504D02*
G01X0031761Y0001504D01*
G01X0031734Y0001582D02*
G01X0003141Y0001582D01*
G01X0003183Y0001661D02*
G01X0031707Y0001661D01*
G01X0031680Y0001739D02*
G01X0026161Y0001739D01*
G01X0026122Y0001700D02*
G01X0026380Y0001958D01*
G01X0026380Y0001958D02*
G01X0026380Y0002100D01*
G01X0026380Y0002100D02*
G01X0025980Y0002100D01*
G01X0025980Y0002100D02*
G01X0025980Y0002180D01*
G01X0025980Y0002180D02*
G01X0026380Y0002180D01*
G01X0026380Y0002180D02*
G01X0026380Y0002322D01*
G01X0026380Y0002322D02*
G01X0026233Y0002469D01*
G01X0026233Y0002469D02*
G01X0026704Y0002470D01*
G01X0026704Y0002470D02*
G01X0026540Y0002306D01*
G01X0026540Y0002306D02*
G01X0026540Y0001974D01*
G01X0026540Y0001974D02*
G01X0026774Y0001740D01*
G01X0026774Y0001740D02*
G01X0027106Y0001740D01*
G01X0027106Y0001740D02*
G01X0027340Y0001974D01*
G01X0027340Y0001974D02*
G01X0027340Y0002306D01*
G01X0027340Y0002306D02*
G01X0027175Y0002471D01*
G01X0027175Y0002471D02*
G01X0027706Y0002471D01*
G01X0027706Y0002471D02*
G01X0027540Y0002306D01*
G01X0027540Y0002306D02*
G01X0027540Y0001974D01*
G01X0027540Y0001974D02*
G01X0027774Y0001740D01*
G01X0027774Y0001740D02*
G01X0028106Y0001740D01*
G01X0028106Y0001740D02*
G01X0028340Y0001974D01*
G01X0028340Y0001974D02*
G01X0028340Y0002306D01*
G01X0028340Y0002306D02*
G01X0028150Y0002496D01*
G01X0028150Y0002496D02*
G01X0028170Y0002505D01*
G01X0028170Y0002505D02*
G01X0028245Y0002536D01*
G01X0028245Y0002536D02*
G01X0028247Y0002538D01*
G01X0028247Y0002538D02*
G01X0028249Y0002539D01*
G01X0028249Y0002539D02*
G01X0028306Y0002597D01*
G01X0028306Y0002597D02*
G01X0028363Y0002654D01*
G01X0028363Y0002654D02*
G01X0028364Y0002657D01*
G01X0028364Y0002657D02*
G01X0029162Y0003477D01*
G01X0029162Y0003477D02*
G01X0029224Y0003632D01*
G01X0029224Y0003632D02*
G01X0029222Y0003799D01*
G01X0029222Y0003799D02*
G01X0029156Y0003953D01*
G01X0029156Y0003953D02*
G01X0029036Y0004069D01*
G01X0029036Y0004069D02*
G01X0028881Y0004131D01*
G01X0028881Y0004131D02*
G01X0028714Y0004129D01*
G01X0028714Y0004129D02*
G01X0028561Y0004063D01*
G01X0028561Y0004063D02*
G01X0027829Y0003312D01*
G01X0027829Y0003312D02*
G01X0024957Y0003308D01*
G01X0024957Y0003308D02*
G01X0024944Y0003312D01*
G01X0024944Y0003312D02*
G01X0024874Y0003308D01*
G01X0024874Y0003308D02*
G01X0024803Y0003307D01*
G01X0024803Y0003307D02*
G01X0024791Y0003302D01*
G01X0024791Y0003302D02*
G01X0024777Y0003301D01*
G01X0024777Y0003301D02*
G01X0024714Y0003270D01*
G01X0024714Y0003270D02*
G01X0024649Y0003243D01*
G01X0024649Y0003243D02*
G01X0024640Y0003234D01*
G01X0024640Y0003234D02*
G01X0024627Y0003228D01*
G01X0024627Y0003228D02*
G01X0024581Y0003175D01*
G01X0024581Y0003175D02*
G01X0024531Y0003125D01*
G01X0024531Y0003125D02*
G01X0024526Y0003112D01*
G01X0024526Y0003112D02*
G01X0024040Y0002560D01*
G01X0024040Y0002560D02*
G01X0023856Y0002560D01*
G01X0023856Y0002560D02*
G01X0023808Y0002540D01*
G01X0023808Y0002540D02*
G01X0023774Y0002540D01*
G01X0023774Y0002540D02*
G01X0023750Y0002516D01*
G01X0023750Y0002516D02*
G01X0023702Y0002496D01*
G01X0023702Y0002496D02*
G01X0023584Y0002378D01*
G01X0023584Y0002378D02*
G01X0023564Y0002330D01*
G01X0023564Y0002330D02*
G01X0023540Y0002306D01*
G01X0023540Y0002306D02*
G01X0023540Y0002272D01*
G01X0023540Y0002272D02*
G01X0023520Y0002224D01*
G01X0023520Y0002224D02*
G01X0023520Y0002056D01*
G01X0023520Y0002056D02*
G01X0023540Y0002008D01*
G01X0023540Y0002008D02*
G01X0023540Y0001974D01*
G01X0023540Y0001974D02*
G01X0023564Y0001950D01*
G01X0023564Y0001950D02*
G01X0023584Y0001902D01*
G01X0023584Y0001902D02*
G01X0023702Y0001784D01*
G01X0023702Y0001784D02*
G01X0023750Y0001764D01*
G01X0023750Y0001764D02*
G01X0023774Y0001740D01*
G01X0023774Y0001740D02*
G01X0023808Y0001740D01*
G01X0023808Y0001740D02*
G01X0023856Y0001720D01*
G01X0023856Y0001720D02*
G01X0024160Y0001720D01*
G01X0024160Y0001720D02*
G01X0024173Y0001716D01*
G01X0024173Y0001716D02*
G01X0024243Y0001720D01*
G01X0024243Y0001720D02*
G01X0024314Y0001720D01*
G01X0024314Y0001720D02*
G01X0024326Y0001725D01*
G01X0024326Y0001725D02*
G01X0024340Y0001726D01*
G01X0024340Y0001726D02*
G01X0024403Y0001757D01*
G01X0024403Y0001757D02*
G01X0024468Y0001784D01*
G01X0024468Y0001784D02*
G01X0024478Y0001794D01*
G01X0024478Y0001794D02*
G01X0024490Y0001800D01*
G01X0024490Y0001800D02*
G01X0024536Y0001853D01*
G01X0024536Y0001853D02*
G01X0024586Y0001902D01*
G01X0024586Y0001902D02*
G01X0024591Y0001915D01*
G01X0024591Y0001915D02*
G01X0025078Y0002468D01*
G01X0025078Y0002468D02*
G01X0025646Y0002469D01*
G01X0025646Y0002469D02*
G01X0025500Y0002322D01*
G01X0025500Y0002322D02*
G01X0025500Y0002180D01*
G01X0025500Y0002180D02*
G01X0025900Y0002180D01*
G01X0025900Y0002180D02*
G01X0025900Y0002100D01*
G01X0025900Y0002100D02*
G01X0025980Y0002100D01*
G01X0025980Y0002100D02*
G01X0025980Y0001700D01*
G01X0025980Y0001700D02*
G01X0026122Y0001700D01*
G01X0025980Y0001739D02*
G01X0025900Y0001739D01*
G01X0025900Y0001700D02*
G01X0025900Y0002100D01*
G01X0025900Y0002100D02*
G01X0025500Y0002100D01*
G01X0025500Y0002100D02*
G01X0025500Y0001958D01*
G01X0025500Y0001958D02*
G01X0025758Y0001700D01*
G01X0025758Y0001700D02*
G01X0025900Y0001700D01*
G01X0025900Y0001818D02*
G01X0025980Y0001818D01*
G01X0025980Y0001896D02*
G01X0025900Y0001896D01*
G01X0025900Y0001975D02*
G01X0025980Y0001975D01*
G01X0025980Y0002053D02*
G01X0025900Y0002053D01*
G01X0025900Y0002132D02*
G01X0024782Y0002132D01*
G01X0024851Y0002210D02*
G01X0025500Y0002210D01*
G01X0025500Y0002289D02*
G01X0024920Y0002289D01*
G01X0024989Y0002367D02*
G01X0025545Y0002367D01*
G01X0025623Y0002446D02*
G01X0025058Y0002446D01*
G01X0024354Y0002917D02*
G01X0020859Y0002917D01*
G01X0020852Y0002898D02*
G01X0020890Y0002990D01*
G01X0020890Y0002990D02*
G01X0020890Y0003090D01*
G01X0020890Y0003090D02*
G01X0020861Y0003160D01*
G01X0020861Y0003160D02*
G01X0020957Y0003160D01*
G01X0020957Y0003160D02*
G01X0020958Y0003158D01*
G01X0020958Y0003158D02*
G01X0021028Y0003088D01*
G01X0021028Y0003088D02*
G01X0021120Y0003050D01*
G01X0021120Y0003050D02*
G01X0021220Y0003050D01*
G01X0021220Y0003050D02*
G01X0021312Y0003088D01*
G01X0021312Y0003088D02*
G01X0021382Y0003158D01*
G01X0021382Y0003158D02*
G01X0021420Y0003250D01*
G01X0021420Y0003250D02*
G01X0021420Y0003350D01*
G01X0021420Y0003350D02*
G01X0021383Y0003440D01*
G01X0021383Y0003440D02*
G01X0021473Y0003440D01*
G01X0021473Y0003440D02*
G01X0021580Y0003337D01*
G01X0021580Y0003337D02*
G01X0021580Y0003240D01*
G01X0021580Y0003240D02*
G01X0021618Y0003148D01*
G01X0021618Y0003148D02*
G01X0021688Y0003078D01*
G01X0021688Y0003078D02*
G01X0021780Y0003040D01*
G01X0021780Y0003040D02*
G01X0021880Y0003040D01*
G01X0021880Y0003040D02*
G01X0021972Y0003078D01*
G01X0021972Y0003078D02*
G01X0022042Y0003148D01*
G01X0022042Y0003148D02*
G01X0022080Y0003240D01*
G01X0022080Y0003240D02*
G01X0022080Y0003340D01*
G01X0022080Y0003340D02*
G01X0022042Y0003432D01*
G01X0022042Y0003432D02*
G01X0021979Y0003495D01*
G01X0021979Y0003495D02*
G01X0022012Y0003508D01*
G01X0022012Y0003508D02*
G01X0022082Y0003578D01*
G01X0022082Y0003578D02*
G01X0022120Y0003670D01*
G01X0022120Y0003670D02*
G01X0022120Y0003770D01*
G01X0022120Y0003770D02*
G01X0022082Y0003862D01*
G01X0022082Y0003862D02*
G01X0022012Y0003932D01*
G01X0022012Y0003932D02*
G01X0021920Y0003970D01*
G01X0021920Y0003970D02*
G01X0021820Y0003970D01*
G01X0021820Y0003970D02*
G01X0021728Y0003932D01*
G01X0021728Y0003932D02*
G01X0021658Y0003862D01*
G01X0021658Y0003862D02*
G01X0021657Y0003860D01*
G01X0021657Y0003860D02*
G01X0020972Y0003860D01*
G01X0020972Y0003860D02*
G01X0020890Y0003778D01*
G01X0020890Y0003778D02*
G01X0020832Y0003720D01*
G01X0020832Y0003720D02*
G01X0017618Y0003720D01*
G01X0017618Y0003720D02*
G01X0015646Y0005692D01*
G01X0015646Y0005692D02*
G01X0015662Y0005708D01*
G01X0015662Y0005708D02*
G01X0015700Y0005800D01*
G01X0015700Y0005800D02*
G01X0015700Y0005900D01*
G01X0015700Y0005900D02*
G01X0015662Y0005992D01*
G01X0015662Y0005992D02*
G01X0015592Y0006062D01*
G01X0015592Y0006062D02*
G01X0015500Y0006100D01*
G01X0015500Y0006100D02*
G01X0015400Y0006100D01*
G01X0015400Y0006100D02*
G01X0015308Y0006062D01*
G01X0015308Y0006062D02*
G01X0015238Y0005992D01*
G01X0015238Y0005992D02*
G01X0015230Y0005972D01*
G01X0015230Y0005972D02*
G01X0015230Y0006107D01*
G01X0015230Y0006107D02*
G01X0015232Y0006108D01*
G01X0015232Y0006108D02*
G01X0015302Y0006178D01*
G01X0015302Y0006178D02*
G01X0015340Y0006270D01*
G01X0015340Y0006270D02*
G01X0015340Y0006370D01*
G01X0015340Y0006370D02*
G01X0015302Y0006462D01*
G01X0015302Y0006462D02*
G01X0015232Y0006532D01*
G01X0015232Y0006532D02*
G01X0015140Y0006570D01*
G01X0015140Y0006570D02*
G01X0015040Y0006570D01*
G01X0015040Y0006570D02*
G01X0014948Y0006532D01*
G01X0014948Y0006532D02*
G01X0014878Y0006462D01*
G01X0014878Y0006462D02*
G01X0014840Y0006370D01*
G01X0014840Y0006370D02*
G01X0014840Y0006270D01*
G01X0014840Y0006270D02*
G01X0014878Y0006178D01*
G01X0014878Y0006178D02*
G01X0014948Y0006108D01*
G01X0014948Y0006108D02*
G01X0014950Y0006107D01*
G01X0014950Y0006107D02*
G01X0014950Y0005988D01*
G01X0014950Y0005988D02*
G01X0014679Y0006259D01*
G01X0014679Y0006259D02*
G01X0014680Y0006260D01*
G01X0014680Y0006260D02*
G01X0014680Y0006360D01*
G01X0014680Y0006360D02*
G01X0014642Y0006452D01*
G01X0014642Y0006452D02*
G01X0014572Y0006522D01*
G01X0014572Y0006522D02*
G01X0014480Y0006560D01*
G01X0014480Y0006560D02*
G01X0014380Y0006560D01*
G01X0014380Y0006560D02*
G01X0014288Y0006522D01*
G01X0014288Y0006522D02*
G01X0014280Y0006514D01*
G01X0014280Y0006514D02*
G01X0014252Y0006582D01*
G01X0014252Y0006582D02*
G01X0014182Y0006652D01*
G01X0014182Y0006652D02*
G01X0014090Y0006690D01*
G01X0014090Y0006690D02*
G01X0013990Y0006690D01*
G01X0013990Y0006690D02*
G01X0013898Y0006652D01*
G01X0013898Y0006652D02*
G01X0013828Y0006582D01*
G01X0013828Y0006582D02*
G01X0013790Y0006490D01*
G01X0013790Y0006490D02*
G01X0013790Y0006390D01*
G01X0013790Y0006390D02*
G01X0013828Y0006298D01*
G01X0013828Y0006298D02*
G01X0013898Y0006228D01*
G01X0013898Y0006228D02*
G01X0013900Y0006227D01*
G01X0013900Y0006227D02*
G01X0013900Y0006182D01*
G01X0013900Y0006182D02*
G01X0014200Y0005882D01*
G01X0014200Y0005882D02*
G01X0014282Y0005800D01*
G01X0014282Y0005800D02*
G01X0014542Y0005800D01*
G01X0014542Y0005800D02*
G01X0017240Y0003102D01*
G01X0017240Y0003102D02*
G01X0017322Y0003020D01*
G01X0017322Y0003020D02*
G01X0020390Y0003020D01*
G01X0020390Y0003020D02*
G01X0020390Y0002990D01*
G01X0020390Y0002990D02*
G01X0020428Y0002898D01*
G01X0020428Y0002898D02*
G01X0020498Y0002828D01*
G01X0020498Y0002828D02*
G01X0020590Y0002790D01*
G01X0020590Y0002790D02*
G01X0020690Y0002790D01*
G01X0020690Y0002790D02*
G01X0020782Y0002828D01*
G01X0020782Y0002828D02*
G01X0020852Y0002898D01*
G01X0020792Y0002838D02*
G01X0024285Y0002838D01*
G01X0024216Y0002760D02*
G01X0003108Y0002760D01*
G01X0003065Y0002838D02*
G01X0020488Y0002838D01*
G01X0020421Y0002917D02*
G01X0003023Y0002917D01*
G01X0002963Y0002995D02*
G01X0020390Y0002995D01*
G01X0020520Y0003160D02*
G01X0020640Y0003040D01*
G01X0020520Y0003160D02*
G01X0017380Y0003160D01*
G01X0017380Y0003160D02*
G01X0014600Y0005940D01*
G01X0014600Y0005940D02*
G01X0014340Y0005940D01*
G01X0014340Y0005940D02*
G01X0014040Y0006240D01*
G01X0014040Y0006240D02*
G01X0014040Y0006440D01*
G01X0014274Y0006528D02*
G01X0014302Y0006528D01*
G01X0014228Y0006606D02*
G01X0015456Y0006606D01*
G01X0015470Y0006600D02*
G01X0015570Y0006600D01*
G01X0015570Y0006600D02*
G01X0015662Y0006638D01*
G01X0015662Y0006638D02*
G01X0015732Y0006708D01*
G01X0015732Y0006708D02*
G01X0015770Y0006800D01*
G01X0015770Y0006800D02*
G01X0015770Y0006881D01*
G01X0015770Y0006881D02*
G01X0018210Y0006900D01*
G01X0018210Y0006900D02*
G01X0018742Y0006900D01*
G01X0018742Y0006900D02*
G01X0019672Y0005970D01*
G01X0019672Y0005970D02*
G01X0023070Y0005970D01*
G01X0023070Y0005970D02*
G01X0023070Y0005940D01*
G01X0023070Y0005940D02*
G01X0023108Y0005848D01*
G01X0023108Y0005848D02*
G01X0023178Y0005778D01*
G01X0023178Y0005778D02*
G01X0023270Y0005740D01*
G01X0023270Y0005740D02*
G01X0023370Y0005740D01*
G01X0023370Y0005740D02*
G01X0023462Y0005778D01*
G01X0023462Y0005778D02*
G01X0023532Y0005848D01*
G01X0023532Y0005848D02*
G01X0023570Y0005940D01*
G01X0023570Y0005940D02*
G01X0023570Y0006040D01*
G01X0023570Y0006040D02*
G01X0023541Y0006110D01*
G01X0023541Y0006110D02*
G01X0024168Y0006110D01*
G01X0024168Y0006110D02*
G01X0024429Y0006371D01*
G01X0024429Y0006371D02*
G01X0024430Y0006370D01*
G01X0024430Y0006370D02*
G01X0024530Y0006370D01*
G01X0024530Y0006370D02*
G01X0024622Y0006408D01*
G01X0024622Y0006408D02*
G01X0024692Y0006478D01*
G01X0024692Y0006478D02*
G01X0024730Y0006570D01*
G01X0024730Y0006570D02*
G01X0024730Y0006670D01*
G01X0024730Y0006670D02*
G01X0024692Y0006762D01*
G01X0024692Y0006762D02*
G01X0024622Y0006832D01*
G01X0024622Y0006832D02*
G01X0024530Y0006870D01*
G01X0024530Y0006870D02*
G01X0024430Y0006870D01*
G01X0024430Y0006870D02*
G01X0024338Y0006832D01*
G01X0024338Y0006832D02*
G01X0024268Y0006762D01*
G01X0024268Y0006762D02*
G01X0024230Y0006670D01*
G01X0024230Y0006670D02*
G01X0024230Y0006570D01*
G01X0024230Y0006570D02*
G01X0024231Y0006569D01*
G01X0024231Y0006569D02*
G01X0024052Y0006390D01*
G01X0024052Y0006390D02*
G01X0020544Y0006390D01*
G01X0020544Y0006390D02*
G01X0020592Y0006438D01*
G01X0020592Y0006438D02*
G01X0020630Y0006530D01*
G01X0020630Y0006530D02*
G01X0020630Y0006630D01*
G01X0020630Y0006630D02*
G01X0020592Y0006722D01*
G01X0020592Y0006722D02*
G01X0020522Y0006792D01*
G01X0020522Y0006792D02*
G01X0020430Y0006830D01*
G01X0020430Y0006830D02*
G01X0020330Y0006830D01*
G01X0020330Y0006830D02*
G01X0020238Y0006792D01*
G01X0020238Y0006792D02*
G01X0020168Y0006722D01*
G01X0020168Y0006722D02*
G01X0020167Y0006720D01*
G01X0020167Y0006720D02*
G01X0019797Y0006720D01*
G01X0019797Y0006720D02*
G01X0019265Y0007242D01*
G01X0019265Y0007242D02*
G01X0019273Y0007242D01*
G01X0019273Y0007242D02*
G01X0019365Y0007280D01*
G01X0019365Y0007280D02*
G01X0019435Y0007351D01*
G01X0019435Y0007351D02*
G01X0019473Y0007443D01*
G01X0019473Y0007443D02*
G01X0019473Y0007517D01*
G01X0019473Y0007517D02*
G01X0019485Y0007520D01*
G01X0019485Y0007520D02*
G01X0020270Y0007522D01*
G01X0020270Y0007522D02*
G01X0020303Y0007441D01*
G01X0020303Y0007441D02*
G01X0020373Y0007371D01*
G01X0020373Y0007371D02*
G01X0020465Y0007333D01*
G01X0020465Y0007333D02*
G01X0020565Y0007333D01*
G01X0020565Y0007333D02*
G01X0020656Y0007371D01*
G01X0020656Y0007371D02*
G01X0020727Y0007441D01*
G01X0020727Y0007441D02*
G01X0020765Y0007533D01*
G01X0020765Y0007533D02*
G01X0020765Y0007633D01*
G01X0020765Y0007633D02*
G01X0020727Y0007725D01*
G01X0020727Y0007725D02*
G01X0020656Y0007795D01*
G01X0020656Y0007795D02*
G01X0020565Y0007833D01*
G01X0020565Y0007833D02*
G01X0020465Y0007833D01*
G01X0020465Y0007833D02*
G01X0020391Y0007802D01*
G01X0020391Y0007802D02*
G01X0019648Y0007800D01*
G01X0019648Y0007800D02*
G01X0019683Y0007835D01*
G01X0019683Y0007835D02*
G01X0019721Y0007927D01*
G01X0019721Y0007927D02*
G01X0019721Y0008026D01*
G01X0019721Y0008026D02*
G01X0019683Y0008118D01*
G01X0019683Y0008118D02*
G01X0019612Y0008188D01*
G01X0019612Y0008188D02*
G01X0019520Y0008226D01*
G01X0019520Y0008226D02*
G01X0019421Y0008226D01*
G01X0019421Y0008226D02*
G01X0019329Y0008188D01*
G01X0019329Y0008188D02*
G01X0019259Y0008118D01*
G01X0019259Y0008118D02*
G01X0019258Y0008117D01*
G01X0019258Y0008117D02*
G01X0018920Y0008118D01*
G01X0018920Y0008118D02*
G01X0018950Y0008190D01*
G01X0018950Y0008190D02*
G01X0018950Y0008290D01*
G01X0018950Y0008290D02*
G01X0018919Y0008365D01*
G01X0018919Y0008365D02*
G01X0019417Y0008366D01*
G01X0019417Y0008366D02*
G01X0019417Y0008365D01*
G01X0019417Y0008365D02*
G01X0019487Y0008295D01*
G01X0019487Y0008295D02*
G01X0019579Y0008257D01*
G01X0019579Y0008257D02*
G01X0019679Y0008257D01*
G01X0019679Y0008257D02*
G01X0019771Y0008295D01*
G01X0019771Y0008295D02*
G01X0019841Y0008365D01*
G01X0019841Y0008365D02*
G01X0019879Y0008457D01*
G01X0019879Y0008457D02*
G01X0019879Y0008556D01*
G01X0019879Y0008556D02*
G01X0019841Y0008648D01*
G01X0019841Y0008648D02*
G01X0019771Y0008719D01*
G01X0019771Y0008719D02*
G01X0019736Y0008733D01*
G01X0019736Y0008733D02*
G01X0019756Y0008742D01*
G01X0019756Y0008742D02*
G01X0019827Y0008812D01*
G01X0019827Y0008812D02*
G01X0019865Y0008904D01*
G01X0019865Y0008904D02*
G01X0019865Y0009003D01*
G01X0019865Y0009003D02*
G01X0019827Y0009095D01*
G01X0019827Y0009095D02*
G01X0019756Y0009165D01*
G01X0019756Y0009165D02*
G01X0019665Y0009204D01*
G01X0019665Y0009204D02*
G01X0019565Y0009204D01*
G01X0019565Y0009204D02*
G01X0019473Y0009165D01*
G01X0019473Y0009165D02*
G01X0019403Y0009095D01*
G01X0019403Y0009095D02*
G01X0019365Y0009003D01*
G01X0019365Y0009003D02*
G01X0019365Y0008904D01*
G01X0019365Y0008904D02*
G01X0019381Y0008865D01*
G01X0019381Y0008865D02*
G01X0019348Y0008819D01*
G01X0019348Y0008819D02*
G01X0019277Y0008800D01*
G01X0019277Y0008800D02*
G01X0014553Y0008806D01*
G01X0014553Y0008806D02*
G01X0013831Y0009509D01*
G01X0013831Y0009509D02*
G01X0013790Y0009550D01*
G01X0013790Y0009550D02*
G01X0013789Y0009550D01*
G01X0013789Y0009550D02*
G01X0013732Y0009549D01*
G01X0013732Y0009549D02*
G01X0012974Y0009546D01*
G01X0012974Y0009546D02*
G01X0012939Y0009557D01*
G01X0012939Y0009557D02*
G01X0012932Y0009553D01*
G01X0012932Y0009553D02*
G01X0012864Y0009582D01*
G01X0012864Y0009582D02*
G01X0012764Y0009582D01*
G01X0012764Y0009582D02*
G01X0012672Y0009544D01*
G01X0012672Y0009544D02*
G01X0012602Y0009473D01*
G01X0012602Y0009473D02*
G01X0012601Y0009472D01*
G01X0012601Y0009472D02*
G01X0010406Y0009472D01*
G01X0010406Y0009472D02*
G01X0006298Y0013580D01*
G01X0006298Y0013580D02*
G01X0005698Y0013580D01*
G01X0005698Y0013580D02*
G01X0005322Y0013956D01*
G01X0005322Y0013956D02*
G01X0005340Y0013974D01*
G01X0005340Y0013974D02*
G01X0005340Y0014306D01*
G01X0005340Y0014306D02*
G01X0005106Y0014540D01*
G01X0005106Y0014540D02*
G01X0004774Y0014540D01*
G01X0004774Y0014540D02*
G01X0004540Y0014306D01*
G01X0004540Y0014306D02*
G01X0004540Y0013974D01*
G01X0004540Y0013974D02*
G01X0004774Y0013740D01*
G01X0004774Y0013740D02*
G01X0005106Y0013740D01*
G01X0005106Y0013740D02*
G01X0005124Y0013758D01*
G01X0005124Y0013758D02*
G01X0005500Y0013382D01*
G01X0005500Y0013382D02*
G01X0005582Y0013300D01*
G01X0005582Y0013300D02*
G01X0006182Y0013300D01*
G01X0006182Y0013300D02*
G01X0010208Y0009274D01*
G01X0010208Y0009274D02*
G01X0010290Y0009192D01*
G01X0010290Y0009192D02*
G01X0012601Y0009192D01*
G01X0012601Y0009192D02*
G01X0012602Y0009190D01*
G01X0012602Y0009190D02*
G01X0012672Y0009120D01*
G01X0012672Y0009120D02*
G01X0012764Y0009082D01*
G01X0012764Y0009082D02*
G01X0012864Y0009082D01*
G01X0012864Y0009082D02*
G01X0012956Y0009120D01*
G01X0012956Y0009120D02*
G01X0013026Y0009190D01*
G01X0013026Y0009190D02*
G01X0013058Y0009267D01*
G01X0013058Y0009267D02*
G01X0013676Y0009269D01*
G01X0013676Y0009269D02*
G01X0014397Y0008567D01*
G01X0014397Y0008567D02*
G01X0014437Y0008526D01*
G01X0014437Y0008526D02*
G01X0014439Y0008526D01*
G01X0014439Y0008526D02*
G01X0014439Y0008525D01*
G01X0014439Y0008525D02*
G01X0014496Y0008526D01*
G01X0014496Y0008526D02*
G01X0015443Y0008525D01*
G01X0015443Y0008525D02*
G01X0015414Y0008490D01*
G01X0015414Y0008490D02*
G01X0015340Y0008490D01*
G01X0015340Y0008490D02*
G01X0015248Y0008452D01*
G01X0015248Y0008452D02*
G01X0015178Y0008382D01*
G01X0015178Y0008382D02*
G01X0015140Y0008290D01*
G01X0015140Y0008290D02*
G01X0015140Y0008190D01*
G01X0015140Y0008190D02*
G01X0015178Y0008098D01*
G01X0015178Y0008098D02*
G01X0015248Y0008028D01*
G01X0015248Y0008028D02*
G01X0015340Y0007990D01*
G01X0015340Y0007990D02*
G01X0015440Y0007990D01*
G01X0015440Y0007990D02*
G01X0015532Y0008028D01*
G01X0015532Y0008028D02*
G01X0015570Y0008066D01*
G01X0015570Y0008066D02*
G01X0015608Y0008028D01*
G01X0015608Y0008028D02*
G01X0015700Y0007990D01*
G01X0015700Y0007990D02*
G01X0015779Y0007990D01*
G01X0015779Y0007990D02*
G01X0015825Y0007935D01*
G01X0015825Y0007935D02*
G01X0015825Y0007929D01*
G01X0015825Y0007929D02*
G01X0015856Y0007897D01*
G01X0015856Y0007897D02*
G01X0013996Y0007896D01*
G01X0013996Y0007896D02*
G01X0013990Y0007897D01*
G01X0013990Y0007897D02*
G01X0013990Y0007933D01*
G01X0013990Y0007933D02*
G01X0013952Y0008025D01*
G01X0013952Y0008025D02*
G01X0013881Y0008095D01*
G01X0013881Y0008095D02*
G01X0013789Y0008133D01*
G01X0013789Y0008133D02*
G01X0013690Y0008133D01*
G01X0013690Y0008133D02*
G01X0013598Y0008095D01*
G01X0013598Y0008095D02*
G01X0013528Y0008025D01*
G01X0013528Y0008025D02*
G01X0013490Y0007933D01*
G01X0013490Y0007933D02*
G01X0013490Y0007834D01*
G01X0013490Y0007834D02*
G01X0013528Y0007742D01*
G01X0013528Y0007742D02*
G01X0013598Y0007671D01*
G01X0013598Y0007671D02*
G01X0013650Y0007650D01*
G01X0013650Y0007650D02*
G01X0012798Y0007650D01*
G01X0012798Y0007650D02*
G01X0012797Y0007651D01*
G01X0012797Y0007651D02*
G01X0012727Y0007721D01*
G01X0012727Y0007721D02*
G01X0012635Y0007760D01*
G01X0012635Y0007760D02*
G01X0012536Y0007760D01*
G01X0012536Y0007760D02*
G01X0012444Y0007721D01*
G01X0012444Y0007721D02*
G01X0012374Y0007651D01*
G01X0012374Y0007651D02*
G01X0012336Y0007559D01*
G01X0012336Y0007559D02*
G01X0012336Y0007460D01*
G01X0012336Y0007460D02*
G01X0012374Y0007368D01*
G01X0012374Y0007368D02*
G01X0012444Y0007298D01*
G01X0012444Y0007298D02*
G01X0012536Y0007260D01*
G01X0012536Y0007260D02*
G01X0012620Y0007260D01*
G01X0012620Y0007260D02*
G01X0012620Y0007190D01*
G01X0012620Y0007190D02*
G01X0012658Y0007098D01*
G01X0012658Y0007098D02*
G01X0012728Y0007028D01*
G01X0012728Y0007028D02*
G01X0012820Y0006990D01*
G01X0012820Y0006990D02*
G01X0012920Y0006990D01*
G01X0012920Y0006990D02*
G01X0013012Y0007028D01*
G01X0013012Y0007028D02*
G01X0013082Y0007098D01*
G01X0013082Y0007098D02*
G01X0013083Y0007100D01*
G01X0013083Y0007100D02*
G01X0013098Y0007100D01*
G01X0013098Y0007100D02*
G01X0013198Y0007200D01*
G01X0013198Y0007200D02*
G01X0014534Y0007197D01*
G01X0014534Y0007197D02*
G01X0014518Y0007182D01*
G01X0014518Y0007182D02*
G01X0014480Y0007090D01*
G01X0014480Y0007090D02*
G01X0014480Y0006990D01*
G01X0014480Y0006990D02*
G01X0014518Y0006898D01*
G01X0014518Y0006898D02*
G01X0014588Y0006828D01*
G01X0014588Y0006828D02*
G01X0014680Y0006790D01*
G01X0014680Y0006790D02*
G01X0014780Y0006790D01*
G01X0014780Y0006790D02*
G01X0014872Y0006828D01*
G01X0014872Y0006828D02*
G01X0014942Y0006898D01*
G01X0014942Y0006898D02*
G01X0014980Y0006990D01*
G01X0014980Y0006990D02*
G01X0014980Y0007040D01*
G01X0014980Y0007040D02*
G01X0015356Y0007040D01*
G01X0015356Y0007040D02*
G01X0015308Y0006992D01*
G01X0015308Y0006992D02*
G01X0015270Y0006900D01*
G01X0015270Y0006900D02*
G01X0015270Y0006800D01*
G01X0015270Y0006800D02*
G01X0015308Y0006708D01*
G01X0015308Y0006708D02*
G01X0015378Y0006638D01*
G01X0015378Y0006638D02*
G01X0015470Y0006600D01*
G01X0015584Y0006606D02*
G01X0019036Y0006606D01*
G01X0019114Y0006528D02*
G01X0015236Y0006528D01*
G01X0015307Y0006449D02*
G01X0019193Y0006449D01*
G01X0019271Y0006371D02*
G01X0015340Y0006371D01*
G01X0015340Y0006292D02*
G01X0019350Y0006292D01*
G01X0019428Y0006214D02*
G01X0015316Y0006214D01*
G01X0015259Y0006135D02*
G01X0019507Y0006135D01*
G01X0019585Y0006057D02*
G01X0015597Y0006057D01*
G01X0015668Y0005978D02*
G01X0019664Y0005978D01*
G01X0019730Y0006110D02*
G01X0018800Y0007040D01*
G01X0018800Y0007040D02*
G01X0018210Y0007040D01*
G01X0018210Y0007040D02*
G01X0015690Y0007020D01*
G01X0015690Y0007020D02*
G01X0015520Y0006850D01*
G01X0015770Y0006842D02*
G01X0018800Y0006842D01*
G01X0018879Y0006763D02*
G01X0015755Y0006763D01*
G01X0015708Y0006685D02*
G01X0018957Y0006685D01*
G01X0019513Y0006999D02*
G01X0034225Y0006999D01*
G01X0034225Y0007077D02*
G01X0019433Y0007077D01*
G01X0019353Y0007156D02*
G01X0034225Y0007156D01*
G01X0034225Y0007234D02*
G01X0019273Y0007234D01*
G01X0019397Y0007313D02*
G01X0034225Y0007313D01*
G01X0034225Y0007391D02*
G01X0020676Y0007391D01*
G01X0020738Y0007470D02*
G01X0034225Y0007470D01*
G01X0034225Y0007548D02*
G01X0020765Y0007548D01*
G01X0020765Y0007627D02*
G01X0034225Y0007627D01*
G01X0034225Y0007705D02*
G01X0020735Y0007705D01*
G01X0020668Y0007784D02*
G01X0034225Y0007784D01*
G01X0034225Y0007862D02*
G01X0019694Y0007862D01*
G01X0019721Y0007941D02*
G01X0034225Y0007941D01*
G01X0034225Y0008019D02*
G01X0019721Y0008019D01*
G01X0019691Y0008098D02*
G01X0034225Y0008098D01*
G01X0034225Y0008176D02*
G01X0019625Y0008176D01*
G01X0019449Y0008333D02*
G01X0018932Y0008333D01*
G01X0018950Y0008255D02*
G01X0034225Y0008255D01*
G01X0034225Y0008333D02*
G01X0019809Y0008333D01*
G01X0019860Y0008412D02*
G01X0034225Y0008412D01*
G01X0034225Y0008490D02*
G01X0019879Y0008490D01*
G01X0019874Y0008569D02*
G01X0034225Y0008569D01*
G01X0034225Y0008647D02*
G01X0019841Y0008647D01*
G01X0019754Y0008726D02*
G01X0034225Y0008726D01*
G01X0034225Y0008804D02*
G01X0019819Y0008804D01*
G01X0019856Y0008883D02*
G01X0034225Y0008883D01*
G01X0034225Y0008961D02*
G01X0019865Y0008961D01*
G01X0019850Y0009040D02*
G01X0034225Y0009040D01*
G01X0034225Y0009118D02*
G01X0019804Y0009118D01*
G01X0019682Y0009197D02*
G01X0034225Y0009197D01*
G01X0034225Y0009275D02*
G01X0032780Y0009275D01*
G01X0032758Y0009253D02*
G01X0032861Y0009355D01*
G01X0032861Y0009355D02*
G01X0032916Y0009490D01*
G01X0032916Y0009490D02*
G01X0032916Y0009635D01*
G01X0032916Y0009635D02*
G01X0032861Y0009770D01*
G01X0032861Y0009770D02*
G01X0032758Y0009873D01*
G01X0032758Y0009873D02*
G01X0032623Y0009928D01*
G01X0032623Y0009928D02*
G01X0032478Y0009928D01*
G01X0032478Y0009928D02*
G01X0032343Y0009873D01*
G01X0032343Y0009873D02*
G01X0032241Y0009770D01*
G01X0032241Y0009770D02*
G01X0032185Y0009635D01*
G01X0032185Y0009635D02*
G01X0032185Y0009490D01*
G01X0032185Y0009490D02*
G01X0032241Y0009355D01*
G01X0032241Y0009355D02*
G01X0032343Y0009253D01*
G01X0032343Y0009253D02*
G01X0032478Y0009197D01*
G01X0032478Y0009197D02*
G01X0032623Y0009197D01*
G01X0032623Y0009197D02*
G01X0032758Y0009253D01*
G01X0032859Y0009354D02*
G01X0034225Y0009354D01*
G01X0034225Y0009432D02*
G01X0032892Y0009432D01*
G01X0032916Y0009511D02*
G01X0034225Y0009511D01*
G01X0034225Y0009589D02*
G01X0032916Y0009589D01*
G01X0032903Y0009668D02*
G01X0034225Y0009668D01*
G01X0034225Y0009746D02*
G01X0032871Y0009746D01*
G01X0032806Y0009825D02*
G01X0034225Y0009825D01*
G01X0034225Y0009903D02*
G01X0032685Y0009903D01*
G01X0032417Y0009903D02*
G01X0028254Y0009903D01*
G01X0028252Y0009898D02*
G01X0028290Y0009990D01*
G01X0028290Y0009990D02*
G01X0028290Y0010090D01*
G01X0028290Y0010090D02*
G01X0028252Y0010182D01*
G01X0028252Y0010182D02*
G01X0028182Y0010252D01*
G01X0028182Y0010252D02*
G01X0028180Y0010253D01*
G01X0028180Y0010253D02*
G01X0028180Y0011327D01*
G01X0028180Y0011327D02*
G01X0028182Y0011328D01*
G01X0028182Y0011328D02*
G01X0028252Y0011398D01*
G01X0028252Y0011398D02*
G01X0028290Y0011490D01*
G01X0028290Y0011490D02*
G01X0028290Y0011590D01*
G01X0028290Y0011590D02*
G01X0028252Y0011682D01*
G01X0028252Y0011682D02*
G01X0028182Y0011752D01*
G01X0028182Y0011752D02*
G01X0028090Y0011790D01*
G01X0028090Y0011790D02*
G01X0027990Y0011790D01*
G01X0027990Y0011790D02*
G01X0027914Y0011758D01*
G01X0027914Y0011758D02*
G01X0027917Y0013740D01*
G01X0027917Y0013740D02*
G01X0028106Y0013740D01*
G01X0028106Y0013740D02*
G01X0028340Y0013974D01*
G01X0028340Y0013974D02*
G01X0028340Y0014306D01*
G01X0028340Y0014306D02*
G01X0028106Y0014540D01*
G01X0028106Y0014540D02*
G01X0027774Y0014540D01*
G01X0027774Y0014540D02*
G01X0027540Y0014306D01*
G01X0027540Y0014306D02*
G01X0027540Y0013974D01*
G01X0027540Y0013974D02*
G01X0027637Y0013877D01*
G01X0027637Y0013877D02*
G01X0027633Y0011300D01*
G01X0027633Y0011300D02*
G01X0027631Y0011300D01*
G01X0027631Y0011300D02*
G01X0027561Y0011229D01*
G01X0027561Y0011229D02*
G01X0027523Y0011137D01*
G01X0027523Y0011137D02*
G01X0027523Y0011038D01*
G01X0027523Y0011038D02*
G01X0027561Y0010946D01*
G01X0027561Y0010946D02*
G01X0027631Y0010876D01*
G01X0027631Y0010876D02*
G01X0027723Y0010838D01*
G01X0027723Y0010838D02*
G01X0027822Y0010838D01*
G01X0027822Y0010838D02*
G01X0027900Y0010870D01*
G01X0027900Y0010870D02*
G01X0027900Y0010253D01*
G01X0027900Y0010253D02*
G01X0027898Y0010252D01*
G01X0027898Y0010252D02*
G01X0027828Y0010182D01*
G01X0027828Y0010182D02*
G01X0027790Y0010090D01*
G01X0027790Y0010090D02*
G01X0027790Y0009990D01*
G01X0027790Y0009990D02*
G01X0027828Y0009898D01*
G01X0027828Y0009898D02*
G01X0027898Y0009828D01*
G01X0027898Y0009828D02*
G01X0027990Y0009790D01*
G01X0027990Y0009790D02*
G01X0028090Y0009790D01*
G01X0028090Y0009790D02*
G01X0028182Y0009828D01*
G01X0028182Y0009828D02*
G01X0028252Y0009898D01*
G01X0028286Y0009982D02*
G01X0034225Y0009982D01*
G01X0034225Y0010060D02*
G01X0028290Y0010060D01*
G01X0028270Y0010139D02*
G01X0034225Y0010139D01*
G01X0034225Y0010217D02*
G01X0028217Y0010217D01*
G01X0028180Y0010296D02*
G01X0034225Y0010296D01*
G01X0034225Y0010374D02*
G01X0028180Y0010374D01*
G01X0028180Y0010453D02*
G01X0034225Y0010453D01*
G01X0034225Y0010531D02*
G01X0028180Y0010531D01*
G01X0028180Y0010610D02*
G01X0034225Y0010610D01*
G01X0034225Y0010688D02*
G01X0028180Y0010688D01*
G01X0028180Y0010767D02*
G01X0034225Y0010767D01*
G01X0034225Y0010845D02*
G01X0028180Y0010845D01*
G01X0028180Y0010924D02*
G01X0034225Y0010924D01*
G01X0034225Y0011002D02*
G01X0032775Y0011002D01*
G01X0032758Y0010985D02*
G01X0032861Y0011088D01*
G01X0032861Y0011088D02*
G01X0032916Y0011222D01*
G01X0032916Y0011222D02*
G01X0032916Y0011368D01*
G01X0032916Y0011368D02*
G01X0032861Y0011502D01*
G01X0032861Y0011502D02*
G01X0032758Y0011605D01*
G01X0032758Y0011605D02*
G01X0032623Y0011661D01*
G01X0032623Y0011661D02*
G01X0032478Y0011661D01*
G01X0032478Y0011661D02*
G01X0032343Y0011605D01*
G01X0032343Y0011605D02*
G01X0032241Y0011502D01*
G01X0032241Y0011502D02*
G01X0032185Y0011368D01*
G01X0032185Y0011368D02*
G01X0032185Y0011222D01*
G01X0032185Y0011222D02*
G01X0032241Y0011088D01*
G01X0032241Y0011088D02*
G01X0032343Y0010985D01*
G01X0032343Y0010985D02*
G01X0032478Y0010929D01*
G01X0032478Y0010929D02*
G01X0032623Y0010929D01*
G01X0032623Y0010929D02*
G01X0032758Y0010985D01*
G01X0032853Y0011081D02*
G01X0034225Y0011081D01*
G01X0034225Y0011159D02*
G01X0032890Y0011159D01*
G01X0032916Y0011238D02*
G01X0034225Y0011238D01*
G01X0034225Y0011316D02*
G01X0032916Y0011316D01*
G01X0032905Y0011395D02*
G01X0034225Y0011395D01*
G01X0034225Y0011473D02*
G01X0032873Y0011473D01*
G01X0032811Y0011552D02*
G01X0034225Y0011552D01*
G01X0034225Y0011630D02*
G01X0032697Y0011630D01*
G01X0032404Y0011630D02*
G01X0028273Y0011630D01*
G01X0028290Y0011552D02*
G01X0032290Y0011552D01*
G01X0032229Y0011473D02*
G01X0028283Y0011473D01*
G01X0028248Y0011395D02*
G01X0032196Y0011395D01*
G01X0032185Y0011316D02*
G01X0028180Y0011316D01*
G01X0028180Y0011238D02*
G01X0032185Y0011238D01*
G01X0032211Y0011159D02*
G01X0028180Y0011159D01*
G01X0028180Y0011081D02*
G01X0032248Y0011081D01*
G01X0032326Y0011002D02*
G01X0028180Y0011002D01*
G01X0027900Y0010845D02*
G01X0027840Y0010845D01*
G01X0027900Y0010767D02*
G01X0024496Y0010767D01*
G01X0024496Y0010845D02*
G01X0027705Y0010845D01*
G01X0027583Y0010924D02*
G01X0024497Y0010924D01*
G01X0024498Y0011002D02*
G01X0027538Y0011002D01*
G01X0027523Y0011081D02*
G01X0024498Y0011081D01*
G01X0024499Y0011159D02*
G01X0027532Y0011159D01*
G01X0027569Y0011238D02*
G01X0024499Y0011238D01*
G01X0024500Y0011316D02*
G01X0027633Y0011316D01*
G01X0027633Y0011395D02*
G01X0024543Y0011395D01*
G01X0024500Y0011349D02*
G01X0026764Y0013750D01*
G01X0026764Y0013750D02*
G01X0026765Y0013750D01*
G01X0026764Y0013750D02*
G01X0026774Y0013740D01*
G01X0026774Y0013740D02*
G01X0027106Y0013740D01*
G01X0027106Y0013740D02*
G01X0027340Y0013974D01*
G01X0027340Y0013974D02*
G01X0027340Y0014306D01*
G01X0027340Y0014306D02*
G01X0027106Y0014540D01*
G01X0027106Y0014540D02*
G01X0026774Y0014540D01*
G01X0026774Y0014540D02*
G01X0026540Y0014306D01*
G01X0026540Y0014306D02*
G01X0026540Y0013974D01*
G01X0026540Y0013974D02*
G01X0026566Y0013948D01*
G01X0026566Y0013948D02*
G01X0024260Y0011503D01*
G01X0024260Y0011503D02*
G01X0024221Y0011464D01*
G01X0024221Y0011464D02*
G01X0024221Y0011461D01*
G01X0024221Y0011461D02*
G01X0024219Y0011459D01*
G01X0024219Y0011459D02*
G01X0024220Y0011403D01*
G01X0024220Y0011403D02*
G01X0024214Y0010554D01*
G01X0024214Y0010554D02*
G01X0024211Y0010553D01*
G01X0024211Y0010553D02*
G01X0024141Y0010482D01*
G01X0024141Y0010482D02*
G01X0024103Y0010391D01*
G01X0024103Y0010391D02*
G01X0024103Y0010291D01*
G01X0024103Y0010291D02*
G01X0024141Y0010199D01*
G01X0024141Y0010199D02*
G01X0024211Y0010129D01*
G01X0024211Y0010129D02*
G01X0024303Y0010091D01*
G01X0024303Y0010091D02*
G01X0024403Y0010091D01*
G01X0024403Y0010091D02*
G01X0024494Y0010129D01*
G01X0024494Y0010129D02*
G01X0024565Y0010199D01*
G01X0024565Y0010199D02*
G01X0024603Y0010291D01*
G01X0024603Y0010291D02*
G01X0024603Y0010391D01*
G01X0024603Y0010391D02*
G01X0024565Y0010482D01*
G01X0024565Y0010482D02*
G01X0024494Y0010553D01*
G01X0024494Y0010553D02*
G01X0024500Y0011349D01*
G01X0024360Y0011405D02*
G01X0026940Y0014140D01*
G01X0026540Y0014142D02*
G01X0026340Y0014142D01*
G01X0026340Y0014064D02*
G01X0026540Y0014064D01*
G01X0026540Y0013985D02*
G01X0026340Y0013985D01*
G01X0026340Y0013974D02*
G01X0026106Y0013740D01*
G01X0026106Y0013740D02*
G01X0025774Y0013740D01*
G01X0025774Y0013740D02*
G01X0025540Y0013974D01*
G01X0025540Y0013974D02*
G01X0025540Y0014306D01*
G01X0025540Y0014306D02*
G01X0025774Y0014540D01*
G01X0025774Y0014540D02*
G01X0026106Y0014540D01*
G01X0026106Y0014540D02*
G01X0026340Y0014306D01*
G01X0026340Y0014306D02*
G01X0026340Y0013974D01*
G01X0026272Y0013907D02*
G01X0026527Y0013907D01*
G01X0026453Y0013828D02*
G01X0026194Y0013828D01*
G01X0026115Y0013750D02*
G01X0026379Y0013750D01*
G01X0026305Y0013671D02*
G01X0005607Y0013671D01*
G01X0005685Y0013593D02*
G01X0026231Y0013593D01*
G01X0026157Y0013514D02*
G01X0006364Y0013514D01*
G01X0006442Y0013436D02*
G01X0026083Y0013436D01*
G01X0026009Y0013357D02*
G01X0006521Y0013357D01*
G01X0006599Y0013279D02*
G01X0025935Y0013279D01*
G01X0025861Y0013200D02*
G01X0006678Y0013200D01*
G01X0006756Y0013122D02*
G01X0025787Y0013122D01*
G01X0025713Y0013043D02*
G01X0006835Y0013043D01*
G01X0006913Y0012965D02*
G01X0025639Y0012965D01*
G01X0025565Y0012886D02*
G01X0006992Y0012886D01*
G01X0007070Y0012808D02*
G01X0025491Y0012808D01*
G01X0025417Y0012729D02*
G01X0007149Y0012729D01*
G01X0007227Y0012651D02*
G01X0025343Y0012651D01*
G01X0025269Y0012572D02*
G01X0007306Y0012572D01*
G01X0007384Y0012494D02*
G01X0025195Y0012494D01*
G01X0025121Y0012415D02*
G01X0007463Y0012415D01*
G01X0007541Y0012337D02*
G01X0025047Y0012337D01*
G01X0024973Y0012258D02*
G01X0007620Y0012258D01*
G01X0007698Y0012180D02*
G01X0024899Y0012180D01*
G01X0024825Y0012101D02*
G01X0007777Y0012101D01*
G01X0007855Y0012023D02*
G01X0024750Y0012023D01*
G01X0024676Y0011944D02*
G01X0007934Y0011944D01*
G01X0008012Y0011866D02*
G01X0024602Y0011866D01*
G01X0024528Y0011787D02*
G01X0008091Y0011787D01*
G01X0008169Y0011709D02*
G01X0024454Y0011709D01*
G01X0024380Y0011630D02*
G01X0008248Y0011630D01*
G01X0008326Y0011552D02*
G01X0024306Y0011552D01*
G01X0024230Y0011473D02*
G01X0008405Y0011473D01*
G01X0008483Y0011395D02*
G01X0024220Y0011395D01*
G01X0024220Y0011316D02*
G01X0008562Y0011316D01*
G01X0008640Y0011238D02*
G01X0024219Y0011238D01*
G01X0024219Y0011159D02*
G01X0008719Y0011159D01*
G01X0008797Y0011081D02*
G01X0024218Y0011081D01*
G01X0024218Y0011002D02*
G01X0008876Y0011002D01*
G01X0008954Y0010924D02*
G01X0024217Y0010924D01*
G01X0024216Y0010845D02*
G01X0009033Y0010845D01*
G01X0009111Y0010767D02*
G01X0024216Y0010767D01*
G01X0024215Y0010688D02*
G01X0009190Y0010688D01*
G01X0009268Y0010610D02*
G01X0024215Y0010610D01*
G01X0024190Y0010531D02*
G01X0009347Y0010531D01*
G01X0009425Y0010453D02*
G01X0024129Y0010453D01*
G01X0024103Y0010374D02*
G01X0009504Y0010374D01*
G01X0009582Y0010296D02*
G01X0024103Y0010296D01*
G01X0024134Y0010217D02*
G01X0009661Y0010217D01*
G01X0009739Y0010139D02*
G01X0024202Y0010139D01*
G01X0024353Y0010341D02*
G01X0024360Y0011405D01*
G01X0024617Y0011473D02*
G01X0027633Y0011473D01*
G01X0027633Y0011552D02*
G01X0024691Y0011552D01*
G01X0024765Y0011630D02*
G01X0027633Y0011630D01*
G01X0027634Y0011709D02*
G01X0024839Y0011709D01*
G01X0024913Y0011787D02*
G01X0027634Y0011787D01*
G01X0027634Y0011866D02*
G01X0024987Y0011866D01*
G01X0025061Y0011944D02*
G01X0027634Y0011944D01*
G01X0027634Y0012023D02*
G01X0025135Y0012023D01*
G01X0025209Y0012101D02*
G01X0027634Y0012101D01*
G01X0027634Y0012180D02*
G01X0025283Y0012180D01*
G01X0025357Y0012258D02*
G01X0027634Y0012258D01*
G01X0027634Y0012337D02*
G01X0025432Y0012337D01*
G01X0025506Y0012415D02*
G01X0027635Y0012415D01*
G01X0027635Y0012494D02*
G01X0025580Y0012494D01*
G01X0025654Y0012572D02*
G01X0027635Y0012572D01*
G01X0027635Y0012651D02*
G01X0025728Y0012651D01*
G01X0025802Y0012729D02*
G01X0027635Y0012729D01*
G01X0027635Y0012808D02*
G01X0025876Y0012808D01*
G01X0025950Y0012886D02*
G01X0027635Y0012886D01*
G01X0027635Y0012965D02*
G01X0026024Y0012965D01*
G01X0026098Y0013043D02*
G01X0027636Y0013043D01*
G01X0027636Y0013122D02*
G01X0026172Y0013122D01*
G01X0026246Y0013200D02*
G01X0027636Y0013200D01*
G01X0027636Y0013279D02*
G01X0026320Y0013279D01*
G01X0026394Y0013357D02*
G01X0027636Y0013357D01*
G01X0027636Y0013436D02*
G01X0026468Y0013436D01*
G01X0026542Y0013514D02*
G01X0027636Y0013514D01*
G01X0027636Y0013593D02*
G01X0026616Y0013593D01*
G01X0026690Y0013671D02*
G01X0027637Y0013671D01*
G01X0027637Y0013750D02*
G01X0027115Y0013750D01*
G01X0027194Y0013828D02*
G01X0027637Y0013828D01*
G01X0027608Y0013907D02*
G01X0027272Y0013907D01*
G01X0027340Y0013985D02*
G01X0027540Y0013985D01*
G01X0027540Y0014064D02*
G01X0027340Y0014064D01*
G01X0027340Y0014142D02*
G01X0027540Y0014142D01*
G01X0027540Y0014221D02*
G01X0027340Y0014221D01*
G01X0027340Y0014299D02*
G01X0027540Y0014299D01*
G01X0027612Y0014378D02*
G01X0027268Y0014378D01*
G01X0027190Y0014456D02*
G01X0027690Y0014456D01*
G01X0027769Y0014535D02*
G01X0027111Y0014535D01*
G01X0026769Y0014535D02*
G01X0026111Y0014535D01*
G01X0026190Y0014456D02*
G01X0026690Y0014456D01*
G01X0026612Y0014378D02*
G01X0026268Y0014378D01*
G01X0026340Y0014299D02*
G01X0026540Y0014299D01*
G01X0026540Y0014221D02*
G01X0026340Y0014221D01*
G01X0025769Y0014535D02*
G01X0024111Y0014535D01*
G01X0024106Y0014540D02*
G01X0023774Y0014540D01*
G01X0023774Y0014540D02*
G01X0023540Y0014306D01*
G01X0023540Y0014306D02*
G01X0023540Y0013974D01*
G01X0023540Y0013974D02*
G01X0023774Y0013740D01*
G01X0023774Y0013740D02*
G01X0024106Y0013740D01*
G01X0024106Y0013740D02*
G01X0024340Y0013974D01*
G01X0024340Y0013974D02*
G01X0024340Y0014306D01*
G01X0024340Y0014306D02*
G01X0024106Y0014540D01*
G01X0024190Y0014456D02*
G01X0025690Y0014456D01*
G01X0025612Y0014378D02*
G01X0024268Y0014378D01*
G01X0024340Y0014299D02*
G01X0025540Y0014299D01*
G01X0025540Y0014221D02*
G01X0024340Y0014221D01*
G01X0024340Y0014142D02*
G01X0025540Y0014142D01*
G01X0025540Y0014064D02*
G01X0024340Y0014064D01*
G01X0024340Y0013985D02*
G01X0025540Y0013985D01*
G01X0025608Y0013907D02*
G01X0024272Y0013907D01*
G01X0024194Y0013828D02*
G01X0025686Y0013828D01*
G01X0025765Y0013750D02*
G01X0024115Y0013750D01*
G01X0023765Y0013750D02*
G01X0023115Y0013750D01*
G01X0023106Y0013740D02*
G01X0023340Y0013974D01*
G01X0023340Y0013974D02*
G01X0023340Y0014306D01*
G01X0023340Y0014306D02*
G01X0023106Y0014540D01*
G01X0023106Y0014540D02*
G01X0022774Y0014540D01*
G01X0022774Y0014540D02*
G01X0022540Y0014306D01*
G01X0022540Y0014306D02*
G01X0022540Y0013974D01*
G01X0022540Y0013974D02*
G01X0022774Y0013740D01*
G01X0022774Y0013740D02*
G01X0023106Y0013740D01*
G01X0023194Y0013828D02*
G01X0023686Y0013828D01*
G01X0023608Y0013907D02*
G01X0023272Y0013907D01*
G01X0023340Y0013985D02*
G01X0023540Y0013985D01*
G01X0023540Y0014064D02*
G01X0023340Y0014064D01*
G01X0023340Y0014142D02*
G01X0023540Y0014142D01*
G01X0023540Y0014221D02*
G01X0023340Y0014221D01*
G01X0023340Y0014299D02*
G01X0023540Y0014299D01*
G01X0023612Y0014378D02*
G01X0023268Y0014378D01*
G01X0023190Y0014456D02*
G01X0023690Y0014456D01*
G01X0023769Y0014535D02*
G01X0023111Y0014535D01*
G01X0022769Y0014535D02*
G01X0022111Y0014535D01*
G01X0022106Y0014540D02*
G01X0021774Y0014540D01*
G01X0021774Y0014540D02*
G01X0021540Y0014306D01*
G01X0021540Y0014306D02*
G01X0021540Y0013974D01*
G01X0021540Y0013974D02*
G01X0021774Y0013740D01*
G01X0021774Y0013740D02*
G01X0022106Y0013740D01*
G01X0022106Y0013740D02*
G01X0022340Y0013974D01*
G01X0022340Y0013974D02*
G01X0022340Y0014306D01*
G01X0022340Y0014306D02*
G01X0022106Y0014540D01*
G01X0022190Y0014456D02*
G01X0022690Y0014456D01*
G01X0022612Y0014378D02*
G01X0022268Y0014378D01*
G01X0022340Y0014299D02*
G01X0022540Y0014299D01*
G01X0022540Y0014221D02*
G01X0022340Y0014221D01*
G01X0022340Y0014142D02*
G01X0022540Y0014142D01*
G01X0022540Y0014064D02*
G01X0022340Y0014064D01*
G01X0022340Y0013985D02*
G01X0022540Y0013985D01*
G01X0022608Y0013907D02*
G01X0022272Y0013907D01*
G01X0022194Y0013828D02*
G01X0022686Y0013828D01*
G01X0022765Y0013750D02*
G01X0022115Y0013750D01*
G01X0021765Y0013750D02*
G01X0021115Y0013750D01*
G01X0021106Y0013740D02*
G01X0021340Y0013974D01*
G01X0021340Y0013974D02*
G01X0021340Y0014306D01*
G01X0021340Y0014306D02*
G01X0021106Y0014540D01*
G01X0021106Y0014540D02*
G01X0020774Y0014540D01*
G01X0020774Y0014540D02*
G01X0020540Y0014306D01*
G01X0020540Y0014306D02*
G01X0020540Y0013974D01*
G01X0020540Y0013974D02*
G01X0020774Y0013740D01*
G01X0020774Y0013740D02*
G01X0021106Y0013740D01*
G01X0021194Y0013828D02*
G01X0021686Y0013828D01*
G01X0021608Y0013907D02*
G01X0021272Y0013907D01*
G01X0021340Y0013985D02*
G01X0021540Y0013985D01*
G01X0021540Y0014064D02*
G01X0021340Y0014064D01*
G01X0021340Y0014142D02*
G01X0021540Y0014142D01*
G01X0021540Y0014221D02*
G01X0021340Y0014221D01*
G01X0021340Y0014299D02*
G01X0021540Y0014299D01*
G01X0021612Y0014378D02*
G01X0021268Y0014378D01*
G01X0021190Y0014456D02*
G01X0021690Y0014456D01*
G01X0021769Y0014535D02*
G01X0021111Y0014535D01*
G01X0020769Y0014535D02*
G01X0020111Y0014535D01*
G01X0020106Y0014540D02*
G01X0019774Y0014540D01*
G01X0019774Y0014540D02*
G01X0019540Y0014306D01*
G01X0019540Y0014306D02*
G01X0019540Y0013974D01*
G01X0019540Y0013974D02*
G01X0019774Y0013740D01*
G01X0019774Y0013740D02*
G01X0020106Y0013740D01*
G01X0020106Y0013740D02*
G01X0020340Y0013974D01*
G01X0020340Y0013974D02*
G01X0020340Y0014306D01*
G01X0020340Y0014306D02*
G01X0020106Y0014540D01*
G01X0020190Y0014456D02*
G01X0020690Y0014456D01*
G01X0020612Y0014378D02*
G01X0020268Y0014378D01*
G01X0020340Y0014299D02*
G01X0020540Y0014299D01*
G01X0020540Y0014221D02*
G01X0020340Y0014221D01*
G01X0020340Y0014142D02*
G01X0020540Y0014142D01*
G01X0020540Y0014064D02*
G01X0020340Y0014064D01*
G01X0020340Y0013985D02*
G01X0020540Y0013985D01*
G01X0020608Y0013907D02*
G01X0020272Y0013907D01*
G01X0020194Y0013828D02*
G01X0020686Y0013828D01*
G01X0020765Y0013750D02*
G01X0020115Y0013750D01*
G01X0019765Y0013750D02*
G01X0019115Y0013750D01*
G01X0019106Y0013740D02*
G01X0019340Y0013974D01*
G01X0019340Y0013974D02*
G01X0019340Y0014306D01*
G01X0019340Y0014306D02*
G01X0019106Y0014540D01*
G01X0019106Y0014540D02*
G01X0018774Y0014540D01*
G01X0018774Y0014540D02*
G01X0018540Y0014306D01*
G01X0018540Y0014306D02*
G01X0018540Y0013974D01*
G01X0018540Y0013974D02*
G01X0018774Y0013740D01*
G01X0018774Y0013740D02*
G01X0019106Y0013740D01*
G01X0019194Y0013828D02*
G01X0019686Y0013828D01*
G01X0019608Y0013907D02*
G01X0019272Y0013907D01*
G01X0019340Y0013985D02*
G01X0019540Y0013985D01*
G01X0019540Y0014064D02*
G01X0019340Y0014064D01*
G01X0019340Y0014142D02*
G01X0019540Y0014142D01*
G01X0019540Y0014221D02*
G01X0019340Y0014221D01*
G01X0019340Y0014299D02*
G01X0019540Y0014299D01*
G01X0019612Y0014378D02*
G01X0019268Y0014378D01*
G01X0019190Y0014456D02*
G01X0019690Y0014456D01*
G01X0019769Y0014535D02*
G01X0019111Y0014535D01*
G01X0018769Y0014535D02*
G01X0018111Y0014535D01*
G01X0018106Y0014540D02*
G01X0017774Y0014540D01*
G01X0017774Y0014540D02*
G01X0017540Y0014306D01*
G01X0017540Y0014306D02*
G01X0017540Y0013974D01*
G01X0017540Y0013974D02*
G01X0017774Y0013740D01*
G01X0017774Y0013740D02*
G01X0018106Y0013740D01*
G01X0018106Y0013740D02*
G01X0018340Y0013974D01*
G01X0018340Y0013974D02*
G01X0018340Y0014306D01*
G01X0018340Y0014306D02*
G01X0018106Y0014540D01*
G01X0018190Y0014456D02*
G01X0018690Y0014456D01*
G01X0018612Y0014378D02*
G01X0018268Y0014378D01*
G01X0018340Y0014299D02*
G01X0018540Y0014299D01*
G01X0018540Y0014221D02*
G01X0018340Y0014221D01*
G01X0018340Y0014142D02*
G01X0018540Y0014142D01*
G01X0018540Y0014064D02*
G01X0018340Y0014064D01*
G01X0018340Y0013985D02*
G01X0018540Y0013985D01*
G01X0018608Y0013907D02*
G01X0018272Y0013907D01*
G01X0018194Y0013828D02*
G01X0018686Y0013828D01*
G01X0018765Y0013750D02*
G01X0018115Y0013750D01*
G01X0017765Y0013750D02*
G01X0017115Y0013750D01*
G01X0017106Y0013740D02*
G01X0017340Y0013974D01*
G01X0017340Y0013974D02*
G01X0017340Y0014306D01*
G01X0017340Y0014306D02*
G01X0017106Y0014540D01*
G01X0017106Y0014540D02*
G01X0016774Y0014540D01*
G01X0016774Y0014540D02*
G01X0016540Y0014306D01*
G01X0016540Y0014306D02*
G01X0016540Y0013974D01*
G01X0016540Y0013974D02*
G01X0016774Y0013740D01*
G01X0016774Y0013740D02*
G01X0017106Y0013740D01*
G01X0017194Y0013828D02*
G01X0017686Y0013828D01*
G01X0017608Y0013907D02*
G01X0017272Y0013907D01*
G01X0017340Y0013985D02*
G01X0017540Y0013985D01*
G01X0017540Y0014064D02*
G01X0017340Y0014064D01*
G01X0017340Y0014142D02*
G01X0017540Y0014142D01*
G01X0017540Y0014221D02*
G01X0017340Y0014221D01*
G01X0017340Y0014299D02*
G01X0017540Y0014299D01*
G01X0017612Y0014378D02*
G01X0017268Y0014378D01*
G01X0017190Y0014456D02*
G01X0017690Y0014456D01*
G01X0017769Y0014535D02*
G01X0017111Y0014535D01*
G01X0016769Y0014535D02*
G01X0016111Y0014535D01*
G01X0016106Y0014540D02*
G01X0015774Y0014540D01*
G01X0015774Y0014540D02*
G01X0015540Y0014306D01*
G01X0015540Y0014306D02*
G01X0015540Y0013974D01*
G01X0015540Y0013974D02*
G01X0015774Y0013740D01*
G01X0015774Y0013740D02*
G01X0016106Y0013740D01*
G01X0016106Y0013740D02*
G01X0016340Y0013974D01*
G01X0016340Y0013974D02*
G01X0016340Y0014306D01*
G01X0016340Y0014306D02*
G01X0016106Y0014540D01*
G01X0016190Y0014456D02*
G01X0016690Y0014456D01*
G01X0016612Y0014378D02*
G01X0016268Y0014378D01*
G01X0016340Y0014299D02*
G01X0016540Y0014299D01*
G01X0016540Y0014221D02*
G01X0016340Y0014221D01*
G01X0016340Y0014142D02*
G01X0016540Y0014142D01*
G01X0016540Y0014064D02*
G01X0016340Y0014064D01*
G01X0016340Y0013985D02*
G01X0016540Y0013985D01*
G01X0016608Y0013907D02*
G01X0016272Y0013907D01*
G01X0016194Y0013828D02*
G01X0016686Y0013828D01*
G01X0016765Y0013750D02*
G01X0016115Y0013750D01*
G01X0015765Y0013750D02*
G01X0015115Y0013750D01*
G01X0015106Y0013740D02*
G01X0015340Y0013974D01*
G01X0015340Y0013974D02*
G01X0015340Y0014306D01*
G01X0015340Y0014306D02*
G01X0015106Y0014540D01*
G01X0015106Y0014540D02*
G01X0014774Y0014540D01*
G01X0014774Y0014540D02*
G01X0014540Y0014306D01*
G01X0014540Y0014306D02*
G01X0014540Y0013974D01*
G01X0014540Y0013974D02*
G01X0014774Y0013740D01*
G01X0014774Y0013740D02*
G01X0015106Y0013740D01*
G01X0015194Y0013828D02*
G01X0015686Y0013828D01*
G01X0015608Y0013907D02*
G01X0015272Y0013907D01*
G01X0015340Y0013985D02*
G01X0015540Y0013985D01*
G01X0015540Y0014064D02*
G01X0015340Y0014064D01*
G01X0015340Y0014142D02*
G01X0015540Y0014142D01*
G01X0015540Y0014221D02*
G01X0015340Y0014221D01*
G01X0015340Y0014299D02*
G01X0015540Y0014299D01*
G01X0015612Y0014378D02*
G01X0015268Y0014378D01*
G01X0015190Y0014456D02*
G01X0015690Y0014456D01*
G01X0015769Y0014535D02*
G01X0015111Y0014535D01*
G01X0014769Y0014535D02*
G01X0014111Y0014535D01*
G01X0014106Y0014540D02*
G01X0013774Y0014540D01*
G01X0013774Y0014540D02*
G01X0013540Y0014306D01*
G01X0013540Y0014306D02*
G01X0013540Y0013974D01*
G01X0013540Y0013974D02*
G01X0013774Y0013740D01*
G01X0013774Y0013740D02*
G01X0014106Y0013740D01*
G01X0014106Y0013740D02*
G01X0014340Y0013974D01*
G01X0014340Y0013974D02*
G01X0014340Y0014306D01*
G01X0014340Y0014306D02*
G01X0014106Y0014540D01*
G01X0014190Y0014456D02*
G01X0014690Y0014456D01*
G01X0014612Y0014378D02*
G01X0014268Y0014378D01*
G01X0014340Y0014299D02*
G01X0014540Y0014299D01*
G01X0014540Y0014221D02*
G01X0014340Y0014221D01*
G01X0014340Y0014142D02*
G01X0014540Y0014142D01*
G01X0014540Y0014064D02*
G01X0014340Y0014064D01*
G01X0014340Y0013985D02*
G01X0014540Y0013985D01*
G01X0014608Y0013907D02*
G01X0014272Y0013907D01*
G01X0014194Y0013828D02*
G01X0014686Y0013828D01*
G01X0014765Y0013750D02*
G01X0014115Y0013750D01*
G01X0013765Y0013750D02*
G01X0013115Y0013750D01*
G01X0013106Y0013740D02*
G01X0013340Y0013974D01*
G01X0013340Y0013974D02*
G01X0013340Y0014306D01*
G01X0013340Y0014306D02*
G01X0013106Y0014540D01*
G01X0013106Y0014540D02*
G01X0012774Y0014540D01*
G01X0012774Y0014540D02*
G01X0012540Y0014306D01*
G01X0012540Y0014306D02*
G01X0012540Y0013974D01*
G01X0012540Y0013974D02*
G01X0012774Y0013740D01*
G01X0012774Y0013740D02*
G01X0013106Y0013740D01*
G01X0013194Y0013828D02*
G01X0013686Y0013828D01*
G01X0013608Y0013907D02*
G01X0013272Y0013907D01*
G01X0013340Y0013985D02*
G01X0013540Y0013985D01*
G01X0013540Y0014064D02*
G01X0013340Y0014064D01*
G01X0013340Y0014142D02*
G01X0013540Y0014142D01*
G01X0013540Y0014221D02*
G01X0013340Y0014221D01*
G01X0013340Y0014299D02*
G01X0013540Y0014299D01*
G01X0013612Y0014378D02*
G01X0013268Y0014378D01*
G01X0013190Y0014456D02*
G01X0013690Y0014456D01*
G01X0013769Y0014535D02*
G01X0013111Y0014535D01*
G01X0012769Y0014535D02*
G01X0012111Y0014535D01*
G01X0012106Y0014540D02*
G01X0011774Y0014540D01*
G01X0011774Y0014540D02*
G01X0011540Y0014306D01*
G01X0011540Y0014306D02*
G01X0011540Y0013974D01*
G01X0011540Y0013974D02*
G01X0011774Y0013740D01*
G01X0011774Y0013740D02*
G01X0012106Y0013740D01*
G01X0012106Y0013740D02*
G01X0012340Y0013974D01*
G01X0012340Y0013974D02*
G01X0012340Y0014306D01*
G01X0012340Y0014306D02*
G01X0012106Y0014540D01*
G01X0012190Y0014456D02*
G01X0012690Y0014456D01*
G01X0012612Y0014378D02*
G01X0012268Y0014378D01*
G01X0012340Y0014299D02*
G01X0012540Y0014299D01*
G01X0012540Y0014221D02*
G01X0012340Y0014221D01*
G01X0012340Y0014142D02*
G01X0012540Y0014142D01*
G01X0012540Y0014064D02*
G01X0012340Y0014064D01*
G01X0012340Y0013985D02*
G01X0012540Y0013985D01*
G01X0012608Y0013907D02*
G01X0012272Y0013907D01*
G01X0012194Y0013828D02*
G01X0012686Y0013828D01*
G01X0012765Y0013750D02*
G01X0012115Y0013750D01*
G01X0011765Y0013750D02*
G01X0011115Y0013750D01*
G01X0011106Y0013740D02*
G01X0011340Y0013974D01*
G01X0011340Y0013974D02*
G01X0011340Y0014306D01*
G01X0011340Y0014306D02*
G01X0011106Y0014540D01*
G01X0011106Y0014540D02*
G01X0010774Y0014540D01*
G01X0010774Y0014540D02*
G01X0010540Y0014306D01*
G01X0010540Y0014306D02*
G01X0010540Y0013974D01*
G01X0010540Y0013974D02*
G01X0010774Y0013740D01*
G01X0010774Y0013740D02*
G01X0011106Y0013740D01*
G01X0011194Y0013828D02*
G01X0011686Y0013828D01*
G01X0011608Y0013907D02*
G01X0011272Y0013907D01*
G01X0011340Y0013985D02*
G01X0011540Y0013985D01*
G01X0011540Y0014064D02*
G01X0011340Y0014064D01*
G01X0011340Y0014142D02*
G01X0011540Y0014142D01*
G01X0011540Y0014221D02*
G01X0011340Y0014221D01*
G01X0011340Y0014299D02*
G01X0011540Y0014299D01*
G01X0011612Y0014378D02*
G01X0011268Y0014378D01*
G01X0011190Y0014456D02*
G01X0011690Y0014456D01*
G01X0011769Y0014535D02*
G01X0011111Y0014535D01*
G01X0010769Y0014535D02*
G01X0010111Y0014535D01*
G01X0010106Y0014540D02*
G01X0009774Y0014540D01*
G01X0009774Y0014540D02*
G01X0009540Y0014306D01*
G01X0009540Y0014306D02*
G01X0009540Y0013974D01*
G01X0009540Y0013974D02*
G01X0009774Y0013740D01*
G01X0009774Y0013740D02*
G01X0010106Y0013740D01*
G01X0010106Y0013740D02*
G01X0010340Y0013974D01*
G01X0010340Y0013974D02*
G01X0010340Y0014306D01*
G01X0010340Y0014306D02*
G01X0010106Y0014540D01*
G01X0010190Y0014456D02*
G01X0010690Y0014456D01*
G01X0010612Y0014378D02*
G01X0010268Y0014378D01*
G01X0010340Y0014299D02*
G01X0010540Y0014299D01*
G01X0010540Y0014221D02*
G01X0010340Y0014221D01*
G01X0010340Y0014142D02*
G01X0010540Y0014142D01*
G01X0010540Y0014064D02*
G01X0010340Y0014064D01*
G01X0010340Y0013985D02*
G01X0010540Y0013985D01*
G01X0010608Y0013907D02*
G01X0010272Y0013907D01*
G01X0010194Y0013828D02*
G01X0010686Y0013828D01*
G01X0010765Y0013750D02*
G01X0010115Y0013750D01*
G01X0009765Y0013750D02*
G01X0009115Y0013750D01*
G01X0009106Y0013740D02*
G01X0009340Y0013974D01*
G01X0009340Y0013974D02*
G01X0009340Y0014306D01*
G01X0009340Y0014306D02*
G01X0009106Y0014540D01*
G01X0009106Y0014540D02*
G01X0008774Y0014540D01*
G01X0008774Y0014540D02*
G01X0008540Y0014306D01*
G01X0008540Y0014306D02*
G01X0008540Y0013974D01*
G01X0008540Y0013974D02*
G01X0008774Y0013740D01*
G01X0008774Y0013740D02*
G01X0009106Y0013740D01*
G01X0009194Y0013828D02*
G01X0009686Y0013828D01*
G01X0009608Y0013907D02*
G01X0009272Y0013907D01*
G01X0009340Y0013985D02*
G01X0009540Y0013985D01*
G01X0009540Y0014064D02*
G01X0009340Y0014064D01*
G01X0009340Y0014142D02*
G01X0009540Y0014142D01*
G01X0009540Y0014221D02*
G01X0009340Y0014221D01*
G01X0009340Y0014299D02*
G01X0009540Y0014299D01*
G01X0009612Y0014378D02*
G01X0009268Y0014378D01*
G01X0009190Y0014456D02*
G01X0009690Y0014456D01*
G01X0009769Y0014535D02*
G01X0009111Y0014535D01*
G01X0008769Y0014535D02*
G01X0008111Y0014535D01*
G01X0008106Y0014540D02*
G01X0007774Y0014540D01*
G01X0007774Y0014540D02*
G01X0007540Y0014306D01*
G01X0007540Y0014306D02*
G01X0007540Y0013974D01*
G01X0007540Y0013974D02*
G01X0007774Y0013740D01*
G01X0007774Y0013740D02*
G01X0008106Y0013740D01*
G01X0008106Y0013740D02*
G01X0008340Y0013974D01*
G01X0008340Y0013974D02*
G01X0008340Y0014306D01*
G01X0008340Y0014306D02*
G01X0008106Y0014540D01*
G01X0008190Y0014456D02*
G01X0008690Y0014456D01*
G01X0008612Y0014378D02*
G01X0008268Y0014378D01*
G01X0008340Y0014299D02*
G01X0008540Y0014299D01*
G01X0008540Y0014221D02*
G01X0008340Y0014221D01*
G01X0008340Y0014142D02*
G01X0008540Y0014142D01*
G01X0008540Y0014064D02*
G01X0008340Y0014064D01*
G01X0008340Y0013985D02*
G01X0008540Y0013985D01*
G01X0008608Y0013907D02*
G01X0008272Y0013907D01*
G01X0008194Y0013828D02*
G01X0008686Y0013828D01*
G01X0008765Y0013750D02*
G01X0008115Y0013750D01*
G01X0007765Y0013750D02*
G01X0007115Y0013750D01*
G01X0007106Y0013740D02*
G01X0007340Y0013974D01*
G01X0007340Y0013974D02*
G01X0007340Y0014306D01*
G01X0007340Y0014306D02*
G01X0007106Y0014540D01*
G01X0007106Y0014540D02*
G01X0006774Y0014540D01*
G01X0006774Y0014540D02*
G01X0006540Y0014306D01*
G01X0006540Y0014306D02*
G01X0006540Y0013974D01*
G01X0006540Y0013974D02*
G01X0006774Y0013740D01*
G01X0006774Y0013740D02*
G01X0007106Y0013740D01*
G01X0007194Y0013828D02*
G01X0007686Y0013828D01*
G01X0007608Y0013907D02*
G01X0007272Y0013907D01*
G01X0007340Y0013985D02*
G01X0007540Y0013985D01*
G01X0007540Y0014064D02*
G01X0007340Y0014064D01*
G01X0007340Y0014142D02*
G01X0007540Y0014142D01*
G01X0007540Y0014221D02*
G01X0007340Y0014221D01*
G01X0007340Y0014299D02*
G01X0007540Y0014299D01*
G01X0007612Y0014378D02*
G01X0007268Y0014378D01*
G01X0007190Y0014456D02*
G01X0007690Y0014456D01*
G01X0007769Y0014535D02*
G01X0007111Y0014535D01*
G01X0006769Y0014535D02*
G01X0006111Y0014535D01*
G01X0006106Y0014540D02*
G01X0005774Y0014540D01*
G01X0005774Y0014540D02*
G01X0005540Y0014306D01*
G01X0005540Y0014306D02*
G01X0005540Y0013974D01*
G01X0005540Y0013974D02*
G01X0005774Y0013740D01*
G01X0005774Y0013740D02*
G01X0006106Y0013740D01*
G01X0006106Y0013740D02*
G01X0006340Y0013974D01*
G01X0006340Y0013974D02*
G01X0006340Y0014306D01*
G01X0006340Y0014306D02*
G01X0006106Y0014540D01*
G01X0006190Y0014456D02*
G01X0006690Y0014456D01*
G01X0006612Y0014378D02*
G01X0006268Y0014378D01*
G01X0006340Y0014299D02*
G01X0006540Y0014299D01*
G01X0006540Y0014221D02*
G01X0006340Y0014221D01*
G01X0006340Y0014142D02*
G01X0006540Y0014142D01*
G01X0006540Y0014064D02*
G01X0006340Y0014064D01*
G01X0006340Y0013985D02*
G01X0006540Y0013985D01*
G01X0006608Y0013907D02*
G01X0006272Y0013907D01*
G01X0006194Y0013828D02*
G01X0006686Y0013828D01*
G01X0006765Y0013750D02*
G01X0006115Y0013750D01*
G01X0005765Y0013750D02*
G01X0005528Y0013750D01*
G01X0005450Y0013828D02*
G01X0005686Y0013828D01*
G01X0005608Y0013907D02*
G01X0005371Y0013907D01*
G01X0005340Y0013985D02*
G01X0005540Y0013985D01*
G01X0005540Y0014064D02*
G01X0005340Y0014064D01*
G01X0005340Y0014142D02*
G01X0005540Y0014142D01*
G01X0005540Y0014221D02*
G01X0005340Y0014221D01*
G01X0005340Y0014299D02*
G01X0005540Y0014299D01*
G01X0005612Y0014378D02*
G01X0005268Y0014378D01*
G01X0005190Y0014456D02*
G01X0005690Y0014456D01*
G01X0005769Y0014535D02*
G01X0005111Y0014535D01*
G01X0004769Y0014535D02*
G01X0003214Y0014535D01*
G01X0003227Y0014456D02*
G01X0004690Y0014456D01*
G01X0004612Y0014378D02*
G01X0003240Y0014378D01*
G01X0003253Y0014299D02*
G01X0004540Y0014299D01*
G01X0004540Y0014221D02*
G01X0003267Y0014221D01*
G01X0003280Y0014142D02*
G01X0004540Y0014142D01*
G01X0004540Y0014064D02*
G01X0003267Y0014064D01*
G01X0003254Y0013985D02*
G01X0004540Y0013985D01*
G01X0004608Y0013907D02*
G01X0003241Y0013907D01*
G01X0003228Y0013828D02*
G01X0004686Y0013828D01*
G01X0004765Y0013750D02*
G01X0003215Y0013750D01*
G01X0003189Y0013671D02*
G01X0005211Y0013671D01*
G01X0005289Y0013593D02*
G01X0003147Y0013593D01*
G01X0003104Y0013514D02*
G01X0005368Y0013514D01*
G01X0005446Y0013436D02*
G01X0003062Y0013436D01*
G01X0003019Y0013357D02*
G01X0005525Y0013357D01*
G01X0005640Y0013440D02*
G01X0006240Y0013440D01*
G01X0006240Y0013440D02*
G01X0010348Y0009332D01*
G01X0010348Y0009332D02*
G01X0012814Y0009332D01*
G01X0012814Y0009332D02*
G01X0012954Y0009406D01*
G01X0012954Y0009406D02*
G01X0013733Y0009409D01*
G01X0013733Y0009409D02*
G01X0014496Y0008666D01*
G01X0014496Y0008666D02*
G01X0019296Y0008660D01*
G01X0019296Y0008660D02*
G01X0019433Y0008697D01*
G01X0019433Y0008697D02*
G01X0019615Y0008954D01*
G01X0019380Y0009040D02*
G01X0014313Y0009040D01*
G01X0014232Y0009118D02*
G01X0019426Y0009118D01*
G01X0019548Y0009197D02*
G01X0014152Y0009197D01*
G01X0014071Y0009275D02*
G01X0032321Y0009275D01*
G01X0032243Y0009354D02*
G01X0013991Y0009354D01*
G01X0013910Y0009432D02*
G01X0032209Y0009432D01*
G01X0032185Y0009511D02*
G01X0013830Y0009511D01*
G01X0013789Y0009550D02*
G01X0013789Y0009550D01*
G01X0013751Y0009197D02*
G01X0013029Y0009197D01*
G01X0012951Y0009118D02*
G01X0013831Y0009118D01*
G01X0013912Y0009040D02*
G01X0000655Y0009040D01*
G01X0000655Y0009118D02*
G01X0012677Y0009118D01*
G01X0012639Y0009511D02*
G01X0010367Y0009511D01*
G01X0010289Y0009589D02*
G01X0032185Y0009589D01*
G01X0032198Y0009668D02*
G01X0010210Y0009668D01*
G01X0010132Y0009746D02*
G01X0032231Y0009746D01*
G01X0032295Y0009825D02*
G01X0028173Y0009825D01*
G01X0028040Y0010040D02*
G01X0028040Y0011540D01*
G01X0028225Y0011709D02*
G01X0034225Y0011709D01*
G01X0034225Y0011787D02*
G01X0028097Y0011787D01*
G01X0027983Y0011787D02*
G01X0027914Y0011787D01*
G01X0027914Y0011866D02*
G01X0034225Y0011866D01*
G01X0034225Y0011944D02*
G01X0027914Y0011944D01*
G01X0027914Y0012023D02*
G01X0034225Y0012023D01*
G01X0034225Y0012101D02*
G01X0027914Y0012101D01*
G01X0027914Y0012180D02*
G01X0034225Y0012180D01*
G01X0034225Y0012258D02*
G01X0027914Y0012258D01*
G01X0027914Y0012337D02*
G01X0034225Y0012337D01*
G01X0034225Y0012415D02*
G01X0027915Y0012415D01*
G01X0027915Y0012494D02*
G01X0034225Y0012494D01*
G01X0034225Y0012572D02*
G01X0027915Y0012572D01*
G01X0027915Y0012651D02*
G01X0034225Y0012651D01*
G01X0034225Y0012729D02*
G01X0027915Y0012729D01*
G01X0027915Y0012808D02*
G01X0032818Y0012808D01*
G01X0032865Y0012808D02*
G01X0034225Y0012808D01*
G01X0034225Y0012886D02*
G01X0033372Y0012886D01*
G01X0033551Y0012965D02*
G01X0034225Y0012965D01*
G01X0034225Y0013043D02*
G01X0033700Y0013043D01*
G01X0033785Y0013122D02*
G01X0034225Y0013122D01*
G01X0034225Y0013200D02*
G01X0033870Y0013200D01*
G01X0033956Y0013279D02*
G01X0034225Y0013279D01*
G01X0034225Y0013357D02*
G01X0034019Y0013357D01*
G01X0034062Y0013436D02*
G01X0034225Y0013436D01*
G01X0034225Y0013514D02*
G01X0034104Y0013514D01*
G01X0034147Y0013593D02*
G01X0034225Y0013593D01*
G01X0034225Y0013671D02*
G01X0034189Y0013671D01*
G01X0034215Y0013750D02*
G01X0034225Y0013750D01*
G01X0032508Y0012886D02*
G01X0027915Y0012886D01*
G01X0027915Y0012965D02*
G01X0032323Y0012965D01*
G01X0032202Y0013043D02*
G01X0027916Y0013043D01*
G01X0027916Y0013122D02*
G01X0032082Y0013122D01*
G01X0031997Y0013200D02*
G01X0027916Y0013200D01*
G01X0027916Y0013279D02*
G01X0031936Y0013279D01*
G01X0031875Y0013357D02*
G01X0027916Y0013357D01*
G01X0027916Y0013436D02*
G01X0031813Y0013436D01*
G01X0031757Y0013514D02*
G01X0027916Y0013514D01*
G01X0027916Y0013593D02*
G01X0031731Y0013593D01*
G01X0031704Y0013671D02*
G01X0027917Y0013671D01*
G01X0028115Y0013750D02*
G01X0028708Y0013750D01*
G01X0028758Y0013700D02*
G01X0028500Y0013958D01*
G01X0028500Y0013958D02*
G01X0028500Y0014100D01*
G01X0028500Y0014100D02*
G01X0028900Y0014100D01*
G01X0028900Y0014100D02*
G01X0028980Y0014100D01*
G01X0028980Y0014100D02*
G01X0028980Y0014180D01*
G01X0028980Y0014180D02*
G01X0029380Y0014180D01*
G01X0029380Y0014180D02*
G01X0029380Y0014322D01*
G01X0029380Y0014322D02*
G01X0029122Y0014580D01*
G01X0029122Y0014580D02*
G01X0028980Y0014580D01*
G01X0028980Y0014580D02*
G01X0028980Y0014180D01*
G01X0028980Y0014180D02*
G01X0028900Y0014180D01*
G01X0028900Y0014180D02*
G01X0028900Y0014580D01*
G01X0028900Y0014580D02*
G01X0028758Y0014580D01*
G01X0028758Y0014580D02*
G01X0028500Y0014322D01*
G01X0028500Y0014322D02*
G01X0028500Y0014180D01*
G01X0028500Y0014180D02*
G01X0028900Y0014180D01*
G01X0028900Y0014180D02*
G01X0028900Y0014100D01*
G01X0028900Y0014100D02*
G01X0028900Y0013700D01*
G01X0028900Y0013700D02*
G01X0028758Y0013700D01*
G01X0028900Y0013750D02*
G01X0028980Y0013750D01*
G01X0028980Y0013700D02*
G01X0029122Y0013700D01*
G01X0029122Y0013700D02*
G01X0029380Y0013958D01*
G01X0029380Y0013958D02*
G01X0029380Y0014100D01*
G01X0029380Y0014100D02*
G01X0028980Y0014100D01*
G01X0028980Y0014100D02*
G01X0028980Y0013700D01*
G01X0028980Y0013828D02*
G01X0028900Y0013828D01*
G01X0028900Y0013907D02*
G01X0028980Y0013907D01*
G01X0028980Y0013985D02*
G01X0028900Y0013985D01*
G01X0028900Y0014064D02*
G01X0028980Y0014064D01*
G01X0028980Y0014142D02*
G01X0029540Y0014142D01*
G01X0029540Y0014064D02*
G01X0029380Y0014064D01*
G01X0029380Y0013985D02*
G01X0029540Y0013985D01*
G01X0029540Y0013974D02*
G01X0029774Y0013740D01*
G01X0029774Y0013740D02*
G01X0030106Y0013740D01*
G01X0030106Y0013740D02*
G01X0030340Y0013974D01*
G01X0030340Y0013974D02*
G01X0030340Y0014306D01*
G01X0030340Y0014306D02*
G01X0030106Y0014540D01*
G01X0030106Y0014540D02*
G01X0029774Y0014540D01*
G01X0029774Y0014540D02*
G01X0029540Y0014306D01*
G01X0029540Y0014306D02*
G01X0029540Y0013974D01*
G01X0029608Y0013907D02*
G01X0029329Y0013907D01*
G01X0029250Y0013828D02*
G01X0029686Y0013828D01*
G01X0029765Y0013750D02*
G01X0029172Y0013750D01*
G01X0028900Y0014142D02*
G01X0028340Y0014142D01*
G01X0028340Y0014064D02*
G01X0028500Y0014064D01*
G01X0028500Y0013985D02*
G01X0028340Y0013985D01*
G01X0028272Y0013907D02*
G01X0028551Y0013907D01*
G01X0028630Y0013828D02*
G01X0028194Y0013828D01*
G01X0027940Y0014140D02*
G01X0027777Y0013981D01*
G01X0027777Y0013981D02*
G01X0027773Y0011088D01*
G01X0027900Y0010688D02*
G01X0024495Y0010688D01*
G01X0024495Y0010610D02*
G01X0027900Y0010610D01*
G01X0027900Y0010531D02*
G01X0024516Y0010531D01*
G01X0024494Y0010553D02*
G01X0024494Y0010553D01*
G01X0024577Y0010453D02*
G01X0027900Y0010453D01*
G01X0027900Y0010374D02*
G01X0024603Y0010374D01*
G01X0024603Y0010296D02*
G01X0027900Y0010296D01*
G01X0027863Y0010217D02*
G01X0024572Y0010217D01*
G01X0024504Y0010139D02*
G01X0027810Y0010139D01*
G01X0027790Y0010060D02*
G01X0009818Y0010060D01*
G01X0009896Y0009982D02*
G01X0027794Y0009982D01*
G01X0027826Y0009903D02*
G01X0009975Y0009903D01*
G01X0010053Y0009825D02*
G01X0027907Y0009825D01*
G01X0024598Y0006842D02*
G01X0034225Y0006842D01*
G01X0034225Y0006920D02*
G01X0019593Y0006920D01*
G01X0019673Y0006842D02*
G01X0024362Y0006842D01*
G01X0024269Y0006763D02*
G01X0020551Y0006763D01*
G01X0020607Y0006685D02*
G01X0024236Y0006685D01*
G01X0024230Y0006606D02*
G01X0020630Y0006606D01*
G01X0020629Y0006528D02*
G01X0024190Y0006528D01*
G01X0024111Y0006449D02*
G01X0020596Y0006449D01*
G01X0020380Y0006580D02*
G01X0019740Y0006580D01*
G01X0019740Y0006580D02*
G01X0018976Y0007329D01*
G01X0018976Y0007329D02*
G01X0013140Y0007340D01*
G01X0013140Y0007340D02*
G01X0013040Y0007240D01*
G01X0013040Y0007240D02*
G01X0012870Y0007240D01*
G01X0012620Y0007234D02*
G01X0000655Y0007234D01*
G01X0000655Y0007156D02*
G01X0012634Y0007156D01*
G01X0012679Y0007077D02*
G01X0000655Y0007077D01*
G01X0000655Y0006999D02*
G01X0012800Y0006999D01*
G01X0012940Y0006999D02*
G01X0014480Y0006999D01*
G01X0014480Y0007077D02*
G01X0013061Y0007077D01*
G01X0013154Y0007156D02*
G01X0014507Y0007156D01*
G01X0014509Y0006920D02*
G01X0000655Y0006920D01*
G01X0000655Y0006842D02*
G01X0014575Y0006842D01*
G01X0014730Y0007040D02*
G01X0014870Y0007180D01*
G01X0014870Y0007180D02*
G01X0018870Y0007180D01*
G01X0018870Y0007180D02*
G01X0019800Y0006250D01*
G01X0019800Y0006250D02*
G01X0024110Y0006250D01*
G01X0024110Y0006250D02*
G01X0024480Y0006620D01*
G01X0024712Y0006528D02*
G01X0034225Y0006528D01*
G01X0034225Y0006606D02*
G01X0024730Y0006606D01*
G01X0024724Y0006685D02*
G01X0034225Y0006685D01*
G01X0034225Y0006763D02*
G01X0024691Y0006763D01*
G01X0024663Y0006449D02*
G01X0034225Y0006449D01*
G01X0034225Y0006371D02*
G01X0024531Y0006371D01*
G01X0024429Y0006371D02*
G01X0024429Y0006371D01*
G01X0024350Y0006292D02*
G01X0034225Y0006292D01*
G01X0034225Y0006214D02*
G01X0024272Y0006214D01*
G01X0024193Y0006135D02*
G01X0034225Y0006135D01*
G01X0034225Y0006057D02*
G01X0023563Y0006057D01*
G01X0023570Y0005978D02*
G01X0034225Y0005978D01*
G01X0034225Y0005900D02*
G01X0023553Y0005900D01*
G01X0023505Y0005821D02*
G01X0034225Y0005821D01*
G01X0034225Y0005743D02*
G01X0023376Y0005743D01*
G01X0023264Y0005743D02*
G01X0015676Y0005743D01*
G01X0015674Y0005664D02*
G01X0034225Y0005664D01*
G01X0034225Y0005586D02*
G01X0015752Y0005586D01*
G01X0015831Y0005507D02*
G01X0034225Y0005507D01*
G01X0034225Y0005429D02*
G01X0015909Y0005429D01*
G01X0015988Y0005350D02*
G01X0034225Y0005350D01*
G01X0034225Y0005272D02*
G01X0016066Y0005272D01*
G01X0016145Y0005193D02*
G01X0034225Y0005193D01*
G01X0034225Y0005115D02*
G01X0016223Y0005115D01*
G01X0016302Y0005036D02*
G01X0034225Y0005036D01*
G01X0034225Y0004958D02*
G01X0016380Y0004958D01*
G01X0016459Y0004879D02*
G01X0034225Y0004879D01*
G01X0034225Y0004801D02*
G01X0016537Y0004801D01*
G01X0016616Y0004722D02*
G01X0034225Y0004722D01*
G01X0034225Y0004644D02*
G01X0016694Y0004644D01*
G01X0016773Y0004565D02*
G01X0034225Y0004565D01*
G01X0034225Y0004487D02*
G01X0016851Y0004487D01*
G01X0016930Y0004408D02*
G01X0034225Y0004408D01*
G01X0034225Y0004330D02*
G01X0017008Y0004330D01*
G01X0017087Y0004251D02*
G01X0034225Y0004251D01*
G01X0034225Y0004173D02*
G01X0017165Y0004173D01*
G01X0017244Y0004094D02*
G01X0028633Y0004094D01*
G01X0028514Y0004016D02*
G01X0017322Y0004016D01*
G01X0017401Y0003937D02*
G01X0021741Y0003937D01*
G01X0021999Y0003937D02*
G01X0028438Y0003937D01*
G01X0028361Y0003859D02*
G01X0022083Y0003859D01*
G01X0022116Y0003780D02*
G01X0028285Y0003780D01*
G01X0028209Y0003702D02*
G01X0022120Y0003702D01*
G01X0022100Y0003623D02*
G01X0028132Y0003623D01*
G01X0028056Y0003545D02*
G01X0022048Y0003545D01*
G01X0022008Y0003466D02*
G01X0027979Y0003466D01*
G01X0027903Y0003388D02*
G01X0022060Y0003388D01*
G01X0022080Y0003309D02*
G01X0024897Y0003309D01*
G01X0024953Y0003309D02*
G01X0025966Y0003309D01*
G01X0024633Y0003231D02*
G01X0022076Y0003231D01*
G01X0022043Y0003152D02*
G01X0024558Y0003152D01*
G01X0024492Y0003074D02*
G01X0021961Y0003074D01*
G01X0021699Y0003074D02*
G01X0021276Y0003074D01*
G01X0021376Y0003152D02*
G01X0021617Y0003152D01*
G01X0021584Y0003231D02*
G01X0021412Y0003231D01*
G01X0021420Y0003309D02*
G01X0021580Y0003309D01*
G01X0021528Y0003388D02*
G01X0021404Y0003388D01*
G01X0021530Y0003580D02*
G01X0021090Y0003580D01*
G01X0021090Y0003580D02*
G01X0020950Y0003440D01*
G01X0020950Y0003440D02*
G01X0017500Y0003440D01*
G01X0017500Y0003440D02*
G01X0015090Y0005850D01*
G01X0015090Y0005850D02*
G01X0015090Y0006320D01*
G01X0014921Y0006135D02*
G01X0014803Y0006135D01*
G01X0014864Y0006214D02*
G01X0014724Y0006214D01*
G01X0014680Y0006292D02*
G01X0014840Y0006292D01*
G01X0014840Y0006371D02*
G01X0014676Y0006371D01*
G01X0014643Y0006449D02*
G01X0014873Y0006449D01*
G01X0014944Y0006528D02*
G01X0014558Y0006528D01*
G01X0014103Y0006685D02*
G01X0015332Y0006685D01*
G01X0015285Y0006763D02*
G01X0000655Y0006763D01*
G01X0000655Y0006685D02*
G01X0013977Y0006685D01*
G01X0013852Y0006606D02*
G01X0000655Y0006606D01*
G01X0000655Y0006528D02*
G01X0013806Y0006528D01*
G01X0013790Y0006449D02*
G01X0000655Y0006449D01*
G01X0000655Y0006371D02*
G01X0013798Y0006371D01*
G01X0013834Y0006292D02*
G01X0000655Y0006292D01*
G01X0000655Y0006214D02*
G01X0013900Y0006214D01*
G01X0013947Y0006135D02*
G01X0000655Y0006135D01*
G01X0000655Y0006057D02*
G01X0014025Y0006057D01*
G01X0014104Y0005978D02*
G01X0000655Y0005978D01*
G01X0000655Y0005900D02*
G01X0014182Y0005900D01*
G01X0014261Y0005821D02*
G01X0000655Y0005821D01*
G01X0000655Y0005743D02*
G01X0014599Y0005743D01*
G01X0014678Y0005664D02*
G01X0000655Y0005664D01*
G01X0000655Y0005586D02*
G01X0014756Y0005586D01*
G01X0014835Y0005507D02*
G01X0000655Y0005507D01*
G01X0000655Y0005429D02*
G01X0014913Y0005429D01*
G01X0014992Y0005350D02*
G01X0000655Y0005350D01*
G01X0000655Y0005272D02*
G01X0015070Y0005272D01*
G01X0015149Y0005193D02*
G01X0000655Y0005193D01*
G01X0000655Y0005115D02*
G01X0015227Y0005115D01*
G01X0015306Y0005036D02*
G01X0000655Y0005036D01*
G01X0000655Y0004958D02*
G01X0015384Y0004958D01*
G01X0015463Y0004879D02*
G01X0000655Y0004879D01*
G01X0000655Y0004801D02*
G01X0015541Y0004801D01*
G01X0015620Y0004722D02*
G01X0000655Y0004722D01*
G01X0000655Y0004644D02*
G01X0015698Y0004644D01*
G01X0015777Y0004565D02*
G01X0000655Y0004565D01*
G01X0000655Y0004487D02*
G01X0015855Y0004487D01*
G01X0015934Y0004408D02*
G01X0000655Y0004408D01*
G01X0000655Y0004330D02*
G01X0016012Y0004330D01*
G01X0016091Y0004251D02*
G01X0000655Y0004251D01*
G01X0000655Y0004173D02*
G01X0016169Y0004173D01*
G01X0016248Y0004094D02*
G01X0000655Y0004094D01*
G01X0000655Y0004016D02*
G01X0016326Y0004016D01*
G01X0016405Y0003937D02*
G01X0000655Y0003937D01*
G01X0000655Y0003859D02*
G01X0003714Y0003859D01*
G01X0003698Y0003852D02*
G01X0003628Y0003782D01*
G01X0003628Y0003782D02*
G01X0003590Y0003690D01*
G01X0003590Y0003690D02*
G01X0003590Y0003590D01*
G01X0003590Y0003590D02*
G01X0003628Y0003498D01*
G01X0003628Y0003498D02*
G01X0003698Y0003428D01*
G01X0003698Y0003428D02*
G01X0003790Y0003390D01*
G01X0003790Y0003390D02*
G01X0003890Y0003390D01*
G01X0003890Y0003390D02*
G01X0003982Y0003428D01*
G01X0003982Y0003428D02*
G01X0004052Y0003498D01*
G01X0004052Y0003498D02*
G01X0004090Y0003590D01*
G01X0004090Y0003590D02*
G01X0004090Y0003690D01*
G01X0004090Y0003690D02*
G01X0004052Y0003782D01*
G01X0004052Y0003782D02*
G01X0003982Y0003852D01*
G01X0003982Y0003852D02*
G01X0003890Y0003890D01*
G01X0003890Y0003890D02*
G01X0003790Y0003890D01*
G01X0003790Y0003890D02*
G01X0003698Y0003852D01*
G01X0003627Y0003780D02*
G01X0000655Y0003780D01*
G01X0000655Y0003702D02*
G01X0003595Y0003702D01*
G01X0003590Y0003623D02*
G01X0000655Y0003623D01*
G01X0000655Y0003545D02*
G01X0003609Y0003545D01*
G01X0003660Y0003466D02*
G01X0001943Y0003466D01*
G01X0001792Y0003466D02*
G01X0000655Y0003466D01*
G01X0000655Y0003388D02*
G01X0001482Y0003388D01*
G01X0001313Y0003309D02*
G01X0000655Y0003309D01*
G01X0000655Y0003231D02*
G01X0001193Y0003231D01*
G01X0001072Y0003152D02*
G01X0000655Y0003152D01*
G01X0000655Y0003074D02*
G01X0000992Y0003074D01*
G01X0000931Y0002995D02*
G01X0000655Y0002995D01*
G01X0000655Y0002917D02*
G01X0000869Y0002917D01*
G01X0000808Y0002838D02*
G01X0000655Y0002838D01*
G01X0000655Y0002760D02*
G01X0000755Y0002760D01*
G01X0000728Y0002681D02*
G01X0000655Y0002681D01*
G01X0000655Y0002603D02*
G01X0000701Y0002603D01*
G01X0000674Y0002524D02*
G01X0000655Y0002524D01*
G01X0002386Y0003388D02*
G01X0016955Y0003388D01*
G01X0017033Y0003309D02*
G01X0002565Y0003309D01*
G01X0002707Y0003231D02*
G01X0017112Y0003231D01*
G01X0017190Y0003152D02*
G01X0002792Y0003152D01*
G01X0002877Y0003074D02*
G01X0017269Y0003074D01*
G01X0017440Y0003300D02*
G01X0014430Y0006310D01*
G01X0014881Y0006057D02*
G01X0014950Y0006057D01*
G01X0015230Y0006057D02*
G01X0015303Y0006057D01*
G01X0015232Y0005978D02*
G01X0015230Y0005978D01*
G01X0015450Y0005850D02*
G01X0015440Y0005700D01*
G01X0015440Y0005700D02*
G01X0017560Y0003580D01*
G01X0017560Y0003580D02*
G01X0020890Y0003580D01*
G01X0020890Y0003580D02*
G01X0021030Y0003720D01*
G01X0021030Y0003720D02*
G01X0021870Y0003720D01*
G01X0021530Y0003580D02*
G01X0021830Y0003290D01*
G01X0021170Y0003300D02*
G01X0017440Y0003300D01*
G01X0016876Y0003466D02*
G01X0004020Y0003466D01*
G01X0004071Y0003545D02*
G01X0016798Y0003545D01*
G01X0016719Y0003623D02*
G01X0004090Y0003623D01*
G01X0004085Y0003702D02*
G01X0016640Y0003702D01*
G01X0016562Y0003780D02*
G01X0004053Y0003780D01*
G01X0003966Y0003859D02*
G01X0016483Y0003859D01*
G01X0017479Y0003859D02*
G01X0020971Y0003859D01*
G01X0020892Y0003780D02*
G01X0017558Y0003780D01*
G01X0017774Y0002540D02*
G01X0017540Y0002306D01*
G01X0017540Y0002306D02*
G01X0017540Y0001974D01*
G01X0017540Y0001974D02*
G01X0017774Y0001740D01*
G01X0017774Y0001740D02*
G01X0018106Y0001740D01*
G01X0018106Y0001740D02*
G01X0018340Y0001974D01*
G01X0018340Y0001974D02*
G01X0018340Y0002306D01*
G01X0018340Y0002306D02*
G01X0018106Y0002540D01*
G01X0018106Y0002540D02*
G01X0017774Y0002540D01*
G01X0017758Y0002524D02*
G01X0017122Y0002524D01*
G01X0017106Y0002540D02*
G01X0016774Y0002540D01*
G01X0016774Y0002540D02*
G01X0016540Y0002306D01*
G01X0016540Y0002306D02*
G01X0016540Y0001974D01*
G01X0016540Y0001974D02*
G01X0016774Y0001740D01*
G01X0016774Y0001740D02*
G01X0017106Y0001740D01*
G01X0017106Y0001740D02*
G01X0017340Y0001974D01*
G01X0017340Y0001974D02*
G01X0017340Y0002306D01*
G01X0017340Y0002306D02*
G01X0017106Y0002540D01*
G01X0017200Y0002446D02*
G01X0017680Y0002446D01*
G01X0017601Y0002367D02*
G01X0017279Y0002367D01*
G01X0017340Y0002289D02*
G01X0017540Y0002289D01*
G01X0017540Y0002210D02*
G01X0017340Y0002210D01*
G01X0017340Y0002132D02*
G01X0017540Y0002132D01*
G01X0017540Y0002053D02*
G01X0017340Y0002053D01*
G01X0017340Y0001975D02*
G01X0017540Y0001975D01*
G01X0017618Y0001896D02*
G01X0017262Y0001896D01*
G01X0017183Y0001818D02*
G01X0017697Y0001818D01*
G01X0018183Y0001818D02*
G01X0018697Y0001818D01*
G01X0018774Y0001740D02*
G01X0018540Y0001974D01*
G01X0018540Y0001974D02*
G01X0018540Y0002306D01*
G01X0018540Y0002306D02*
G01X0018774Y0002540D01*
G01X0018774Y0002540D02*
G01X0019106Y0002540D01*
G01X0019106Y0002540D02*
G01X0019340Y0002306D01*
G01X0019340Y0002306D02*
G01X0019340Y0001974D01*
G01X0019340Y0001974D02*
G01X0019106Y0001740D01*
G01X0019106Y0001740D02*
G01X0018774Y0001740D01*
G01X0018618Y0001896D02*
G01X0018262Y0001896D01*
G01X0018340Y0001975D02*
G01X0018540Y0001975D01*
G01X0018540Y0002053D02*
G01X0018340Y0002053D01*
G01X0018340Y0002132D02*
G01X0018540Y0002132D01*
G01X0018540Y0002210D02*
G01X0018340Y0002210D01*
G01X0018340Y0002289D02*
G01X0018540Y0002289D01*
G01X0018601Y0002367D02*
G01X0018279Y0002367D01*
G01X0018200Y0002446D02*
G01X0018680Y0002446D01*
G01X0018758Y0002524D02*
G01X0018122Y0002524D01*
G01X0019122Y0002524D02*
G01X0019758Y0002524D01*
G01X0019774Y0002540D02*
G01X0019540Y0002306D01*
G01X0019540Y0002306D02*
G01X0019540Y0001974D01*
G01X0019540Y0001974D02*
G01X0019774Y0001740D01*
G01X0019774Y0001740D02*
G01X0020106Y0001740D01*
G01X0020106Y0001740D02*
G01X0020340Y0001974D01*
G01X0020340Y0001974D02*
G01X0020340Y0002306D01*
G01X0020340Y0002306D02*
G01X0020106Y0002540D01*
G01X0020106Y0002540D02*
G01X0019774Y0002540D01*
G01X0019680Y0002446D02*
G01X0019200Y0002446D01*
G01X0019279Y0002367D02*
G01X0019601Y0002367D01*
G01X0019540Y0002289D02*
G01X0019340Y0002289D01*
G01X0019340Y0002210D02*
G01X0019540Y0002210D01*
G01X0019540Y0002132D02*
G01X0019340Y0002132D01*
G01X0019340Y0002053D02*
G01X0019540Y0002053D01*
G01X0019540Y0001975D02*
G01X0019340Y0001975D01*
G01X0019262Y0001896D02*
G01X0019618Y0001896D01*
G01X0019697Y0001818D02*
G01X0019183Y0001818D01*
G01X0020183Y0001818D02*
G01X0020640Y0001818D01*
G01X0020562Y0001896D02*
G01X0020262Y0001896D01*
G01X0020340Y0001975D02*
G01X0020500Y0001975D01*
G01X0020500Y0001958D02*
G01X0020758Y0001700D01*
G01X0020758Y0001700D02*
G01X0020900Y0001700D01*
G01X0020900Y0001700D02*
G01X0020900Y0002100D01*
G01X0020900Y0002100D02*
G01X0020500Y0002100D01*
G01X0020500Y0002100D02*
G01X0020500Y0001958D01*
G01X0020500Y0002053D02*
G01X0020340Y0002053D01*
G01X0020340Y0002132D02*
G01X0020900Y0002132D01*
G01X0020900Y0002100D02*
G01X0020900Y0002180D01*
G01X0020900Y0002180D02*
G01X0020900Y0002580D01*
G01X0020900Y0002580D02*
G01X0020758Y0002580D01*
G01X0020758Y0002580D02*
G01X0020500Y0002322D01*
G01X0020500Y0002322D02*
G01X0020500Y0002180D01*
G01X0020500Y0002180D02*
G01X0020900Y0002180D01*
G01X0020900Y0002180D02*
G01X0020980Y0002180D01*
G01X0020980Y0002180D02*
G01X0020980Y0002580D01*
G01X0020980Y0002580D02*
G01X0021122Y0002580D01*
G01X0021122Y0002580D02*
G01X0021380Y0002322D01*
G01X0021380Y0002322D02*
G01X0021380Y0002180D01*
G01X0021380Y0002180D02*
G01X0020980Y0002180D01*
G01X0020980Y0002180D02*
G01X0020980Y0002100D01*
G01X0020980Y0002100D02*
G01X0021380Y0002100D01*
G01X0021380Y0002100D02*
G01X0021380Y0001958D01*
G01X0021380Y0001958D02*
G01X0021122Y0001700D01*
G01X0021122Y0001700D02*
G01X0020980Y0001700D01*
G01X0020980Y0001700D02*
G01X0020980Y0002100D01*
G01X0020980Y0002100D02*
G01X0020900Y0002100D01*
G01X0020900Y0002053D02*
G01X0020980Y0002053D01*
G01X0020980Y0001975D02*
G01X0020900Y0001975D01*
G01X0020900Y0001896D02*
G01X0020980Y0001896D01*
G01X0020980Y0001818D02*
G01X0020900Y0001818D01*
G01X0020900Y0001739D02*
G01X0020980Y0001739D01*
G01X0021161Y0001739D02*
G01X0021719Y0001739D01*
G01X0021758Y0001700D02*
G01X0021500Y0001958D01*
G01X0021500Y0001958D02*
G01X0021500Y0002100D01*
G01X0021500Y0002100D02*
G01X0021900Y0002100D01*
G01X0021900Y0002100D02*
G01X0021900Y0002180D01*
G01X0021900Y0002180D02*
G01X0021900Y0002580D01*
G01X0021900Y0002580D02*
G01X0021758Y0002580D01*
G01X0021758Y0002580D02*
G01X0021500Y0002322D01*
G01X0021500Y0002322D02*
G01X0021500Y0002180D01*
G01X0021500Y0002180D02*
G01X0021900Y0002180D01*
G01X0021900Y0002180D02*
G01X0021980Y0002180D01*
G01X0021980Y0002180D02*
G01X0021980Y0002580D01*
G01X0021980Y0002580D02*
G01X0022122Y0002580D01*
G01X0022122Y0002580D02*
G01X0022380Y0002322D01*
G01X0022380Y0002322D02*
G01X0022380Y0002180D01*
G01X0022380Y0002180D02*
G01X0021980Y0002180D01*
G01X0021980Y0002180D02*
G01X0021980Y0002100D01*
G01X0021980Y0002100D02*
G01X0022380Y0002100D01*
G01X0022380Y0002100D02*
G01X0022380Y0001958D01*
G01X0022380Y0001958D02*
G01X0022122Y0001700D01*
G01X0022122Y0001700D02*
G01X0021980Y0001700D01*
G01X0021980Y0001700D02*
G01X0021980Y0002100D01*
G01X0021980Y0002100D02*
G01X0021900Y0002100D01*
G01X0021900Y0002100D02*
G01X0021900Y0001700D01*
G01X0021900Y0001700D02*
G01X0021758Y0001700D01*
G01X0021900Y0001739D02*
G01X0021980Y0001739D01*
G01X0021980Y0001818D02*
G01X0021900Y0001818D01*
G01X0021900Y0001896D02*
G01X0021980Y0001896D01*
G01X0021980Y0001975D02*
G01X0021900Y0001975D01*
G01X0021900Y0002053D02*
G01X0021980Y0002053D01*
G01X0021980Y0002132D02*
G01X0022540Y0002132D01*
G01X0022540Y0002210D02*
G01X0022380Y0002210D01*
G01X0022380Y0002289D02*
G01X0022540Y0002289D01*
G01X0022540Y0002306D02*
G01X0022540Y0001974D01*
G01X0022540Y0001974D02*
G01X0022774Y0001740D01*
G01X0022774Y0001740D02*
G01X0023106Y0001740D01*
G01X0023106Y0001740D02*
G01X0023340Y0001974D01*
G01X0023340Y0001974D02*
G01X0023340Y0002306D01*
G01X0023340Y0002306D02*
G01X0023106Y0002540D01*
G01X0023106Y0002540D02*
G01X0022774Y0002540D01*
G01X0022774Y0002540D02*
G01X0022540Y0002306D01*
G01X0022601Y0002367D02*
G01X0022335Y0002367D01*
G01X0022257Y0002446D02*
G01X0022680Y0002446D01*
G01X0022758Y0002524D02*
G01X0022178Y0002524D01*
G01X0021980Y0002524D02*
G01X0021900Y0002524D01*
G01X0021900Y0002446D02*
G01X0021980Y0002446D01*
G01X0021980Y0002367D02*
G01X0021900Y0002367D01*
G01X0021900Y0002289D02*
G01X0021980Y0002289D01*
G01X0021980Y0002210D02*
G01X0021900Y0002210D01*
G01X0021900Y0002132D02*
G01X0020980Y0002132D01*
G01X0020980Y0002210D02*
G01X0020900Y0002210D01*
G01X0020900Y0002289D02*
G01X0020980Y0002289D01*
G01X0020980Y0002367D02*
G01X0020900Y0002367D01*
G01X0020900Y0002446D02*
G01X0020980Y0002446D01*
G01X0020980Y0002524D02*
G01X0020900Y0002524D01*
G01X0020702Y0002524D02*
G01X0020122Y0002524D01*
G01X0020200Y0002446D02*
G01X0020623Y0002446D01*
G01X0020545Y0002367D02*
G01X0020279Y0002367D01*
G01X0020340Y0002289D02*
G01X0020500Y0002289D01*
G01X0020500Y0002210D02*
G01X0020340Y0002210D01*
G01X0021178Y0002524D02*
G01X0021702Y0002524D01*
G01X0021623Y0002446D02*
G01X0021257Y0002446D01*
G01X0021335Y0002367D02*
G01X0021545Y0002367D01*
G01X0021500Y0002289D02*
G01X0021380Y0002289D01*
G01X0021380Y0002210D02*
G01X0021500Y0002210D01*
G01X0021500Y0002053D02*
G01X0021380Y0002053D01*
G01X0021380Y0001975D02*
G01X0021500Y0001975D01*
G01X0021562Y0001896D02*
G01X0021318Y0001896D01*
G01X0021240Y0001818D02*
G01X0021640Y0001818D01*
G01X0022161Y0001739D02*
G01X0023811Y0001739D01*
G01X0023669Y0001818D02*
G01X0023183Y0001818D01*
G01X0023262Y0001896D02*
G01X0023590Y0001896D01*
G01X0023540Y0001975D02*
G01X0023340Y0001975D01*
G01X0023340Y0002053D02*
G01X0023521Y0002053D01*
G01X0023520Y0002132D02*
G01X0023340Y0002132D01*
G01X0023340Y0002210D02*
G01X0023520Y0002210D01*
G01X0023540Y0002289D02*
G01X0023340Y0002289D01*
G01X0023279Y0002367D02*
G01X0023579Y0002367D01*
G01X0023652Y0002446D02*
G01X0023200Y0002446D01*
G01X0023122Y0002524D02*
G01X0023758Y0002524D01*
G01X0024077Y0002603D02*
G01X0003193Y0002603D01*
G01X0003216Y0002524D02*
G01X0004758Y0002524D01*
G01X0004774Y0002540D02*
G01X0004540Y0002306D01*
G01X0004540Y0002306D02*
G01X0004540Y0001974D01*
G01X0004540Y0001974D02*
G01X0004774Y0001740D01*
G01X0004774Y0001740D02*
G01X0005106Y0001740D01*
G01X0005106Y0001740D02*
G01X0005340Y0001974D01*
G01X0005340Y0001974D02*
G01X0005340Y0002306D01*
G01X0005340Y0002306D02*
G01X0005106Y0002540D01*
G01X0005106Y0002540D02*
G01X0004774Y0002540D01*
G01X0004680Y0002446D02*
G01X0003229Y0002446D01*
G01X0003242Y0002367D02*
G01X0004601Y0002367D01*
G01X0004540Y0002289D02*
G01X0003255Y0002289D01*
G01X0003268Y0002210D02*
G01X0004540Y0002210D01*
G01X0004540Y0002132D02*
G01X0003279Y0002132D01*
G01X0003265Y0002053D02*
G01X0004540Y0002053D01*
G01X0004540Y0001975D02*
G01X0003252Y0001975D01*
G01X0003239Y0001896D02*
G01X0004618Y0001896D01*
G01X0004697Y0001818D02*
G01X0003226Y0001818D01*
G01X0003213Y0001739D02*
G01X0020719Y0001739D01*
G01X0022240Y0001818D02*
G01X0022697Y0001818D01*
G01X0022618Y0001896D02*
G01X0022318Y0001896D01*
G01X0022380Y0001975D02*
G01X0022540Y0001975D01*
G01X0022540Y0002053D02*
G01X0022380Y0002053D01*
G01X0024147Y0002681D02*
G01X0003150Y0002681D01*
G01X0003207Y0001705D02*
G01X0003207Y0001705D01*
G01X0005183Y0001818D02*
G01X0005697Y0001818D01*
G01X0005774Y0001740D02*
G01X0005540Y0001974D01*
G01X0005540Y0001974D02*
G01X0005540Y0002306D01*
G01X0005540Y0002306D02*
G01X0005774Y0002540D01*
G01X0005774Y0002540D02*
G01X0006106Y0002540D01*
G01X0006106Y0002540D02*
G01X0006340Y0002306D01*
G01X0006340Y0002306D02*
G01X0006340Y0001974D01*
G01X0006340Y0001974D02*
G01X0006106Y0001740D01*
G01X0006106Y0001740D02*
G01X0005774Y0001740D01*
G01X0005618Y0001896D02*
G01X0005262Y0001896D01*
G01X0005340Y0001975D02*
G01X0005540Y0001975D01*
G01X0005540Y0002053D02*
G01X0005340Y0002053D01*
G01X0005340Y0002132D02*
G01X0005540Y0002132D01*
G01X0005540Y0002210D02*
G01X0005340Y0002210D01*
G01X0005340Y0002289D02*
G01X0005540Y0002289D01*
G01X0005601Y0002367D02*
G01X0005279Y0002367D01*
G01X0005200Y0002446D02*
G01X0005680Y0002446D01*
G01X0005758Y0002524D02*
G01X0005122Y0002524D01*
G01X0006122Y0002524D02*
G01X0006758Y0002524D01*
G01X0006774Y0002540D02*
G01X0006540Y0002306D01*
G01X0006540Y0002306D02*
G01X0006540Y0001974D01*
G01X0006540Y0001974D02*
G01X0006774Y0001740D01*
G01X0006774Y0001740D02*
G01X0007106Y0001740D01*
G01X0007106Y0001740D02*
G01X0007340Y0001974D01*
G01X0007340Y0001974D02*
G01X0007340Y0002306D01*
G01X0007340Y0002306D02*
G01X0007106Y0002540D01*
G01X0007106Y0002540D02*
G01X0006774Y0002540D01*
G01X0006680Y0002446D02*
G01X0006200Y0002446D01*
G01X0006279Y0002367D02*
G01X0006601Y0002367D01*
G01X0006540Y0002289D02*
G01X0006340Y0002289D01*
G01X0006340Y0002210D02*
G01X0006540Y0002210D01*
G01X0006540Y0002132D02*
G01X0006340Y0002132D01*
G01X0006340Y0002053D02*
G01X0006540Y0002053D01*
G01X0006540Y0001975D02*
G01X0006340Y0001975D01*
G01X0006262Y0001896D02*
G01X0006618Y0001896D01*
G01X0006697Y0001818D02*
G01X0006183Y0001818D01*
G01X0007183Y0001818D02*
G01X0007697Y0001818D01*
G01X0007774Y0001740D02*
G01X0007540Y0001974D01*
G01X0007540Y0001974D02*
G01X0007540Y0002306D01*
G01X0007540Y0002306D02*
G01X0007774Y0002540D01*
G01X0007774Y0002540D02*
G01X0008106Y0002540D01*
G01X0008106Y0002540D02*
G01X0008340Y0002306D01*
G01X0008340Y0002306D02*
G01X0008340Y0001974D01*
G01X0008340Y0001974D02*
G01X0008106Y0001740D01*
G01X0008106Y0001740D02*
G01X0007774Y0001740D01*
G01X0007618Y0001896D02*
G01X0007262Y0001896D01*
G01X0007340Y0001975D02*
G01X0007540Y0001975D01*
G01X0007540Y0002053D02*
G01X0007340Y0002053D01*
G01X0007340Y0002132D02*
G01X0007540Y0002132D01*
G01X0007540Y0002210D02*
G01X0007340Y0002210D01*
G01X0007340Y0002289D02*
G01X0007540Y0002289D01*
G01X0007601Y0002367D02*
G01X0007279Y0002367D01*
G01X0007200Y0002446D02*
G01X0007680Y0002446D01*
G01X0007758Y0002524D02*
G01X0007122Y0002524D01*
G01X0008122Y0002524D02*
G01X0008758Y0002524D01*
G01X0008774Y0002540D02*
G01X0008540Y0002306D01*
G01X0008540Y0002306D02*
G01X0008540Y0001974D01*
G01X0008540Y0001974D02*
G01X0008774Y0001740D01*
G01X0008774Y0001740D02*
G01X0009106Y0001740D01*
G01X0009106Y0001740D02*
G01X0009340Y0001974D01*
G01X0009340Y0001974D02*
G01X0009340Y0002306D01*
G01X0009340Y0002306D02*
G01X0009106Y0002540D01*
G01X0009106Y0002540D02*
G01X0008774Y0002540D01*
G01X0008680Y0002446D02*
G01X0008200Y0002446D01*
G01X0008279Y0002367D02*
G01X0008601Y0002367D01*
G01X0008540Y0002289D02*
G01X0008340Y0002289D01*
G01X0008340Y0002210D02*
G01X0008540Y0002210D01*
G01X0008540Y0002132D02*
G01X0008340Y0002132D01*
G01X0008340Y0002053D02*
G01X0008540Y0002053D01*
G01X0008540Y0001975D02*
G01X0008340Y0001975D01*
G01X0008262Y0001896D02*
G01X0008618Y0001896D01*
G01X0008697Y0001818D02*
G01X0008183Y0001818D01*
G01X0009183Y0001818D02*
G01X0009697Y0001818D01*
G01X0009774Y0001740D02*
G01X0010106Y0001740D01*
G01X0010106Y0001740D02*
G01X0010340Y0001974D01*
G01X0010340Y0001974D02*
G01X0010340Y0002306D01*
G01X0010340Y0002306D02*
G01X0010106Y0002540D01*
G01X0010106Y0002540D02*
G01X0009774Y0002540D01*
G01X0009774Y0002540D02*
G01X0009540Y0002306D01*
G01X0009540Y0002306D02*
G01X0009540Y0001974D01*
G01X0009540Y0001974D02*
G01X0009774Y0001740D01*
G01X0009618Y0001896D02*
G01X0009262Y0001896D01*
G01X0009340Y0001975D02*
G01X0009540Y0001975D01*
G01X0009540Y0002053D02*
G01X0009340Y0002053D01*
G01X0009340Y0002132D02*
G01X0009540Y0002132D01*
G01X0009540Y0002210D02*
G01X0009340Y0002210D01*
G01X0009340Y0002289D02*
G01X0009540Y0002289D01*
G01X0009601Y0002367D02*
G01X0009279Y0002367D01*
G01X0009200Y0002446D02*
G01X0009680Y0002446D01*
G01X0009758Y0002524D02*
G01X0009122Y0002524D01*
G01X0010122Y0002524D02*
G01X0010758Y0002524D01*
G01X0010774Y0002540D02*
G01X0010540Y0002306D01*
G01X0010540Y0002306D02*
G01X0010540Y0001974D01*
G01X0010540Y0001974D02*
G01X0010774Y0001740D01*
G01X0010774Y0001740D02*
G01X0011106Y0001740D01*
G01X0011106Y0001740D02*
G01X0011340Y0001974D01*
G01X0011340Y0001974D02*
G01X0011340Y0002306D01*
G01X0011340Y0002306D02*
G01X0011106Y0002540D01*
G01X0011106Y0002540D02*
G01X0010774Y0002540D01*
G01X0010680Y0002446D02*
G01X0010200Y0002446D01*
G01X0010279Y0002367D02*
G01X0010601Y0002367D01*
G01X0010540Y0002289D02*
G01X0010340Y0002289D01*
G01X0010340Y0002210D02*
G01X0010540Y0002210D01*
G01X0010540Y0002132D02*
G01X0010340Y0002132D01*
G01X0010340Y0002053D02*
G01X0010540Y0002053D01*
G01X0010540Y0001975D02*
G01X0010340Y0001975D01*
G01X0010262Y0001896D02*
G01X0010618Y0001896D01*
G01X0010697Y0001818D02*
G01X0010183Y0001818D01*
G01X0011183Y0001818D02*
G01X0011697Y0001818D01*
G01X0011774Y0001740D02*
G01X0011540Y0001974D01*
G01X0011540Y0001974D02*
G01X0011540Y0002306D01*
G01X0011540Y0002306D02*
G01X0011774Y0002540D01*
G01X0011774Y0002540D02*
G01X0012106Y0002540D01*
G01X0012106Y0002540D02*
G01X0012340Y0002306D01*
G01X0012340Y0002306D02*
G01X0012340Y0001974D01*
G01X0012340Y0001974D02*
G01X0012106Y0001740D01*
G01X0012106Y0001740D02*
G01X0011774Y0001740D01*
G01X0011618Y0001896D02*
G01X0011262Y0001896D01*
G01X0011340Y0001975D02*
G01X0011540Y0001975D01*
G01X0011540Y0002053D02*
G01X0011340Y0002053D01*
G01X0011340Y0002132D02*
G01X0011540Y0002132D01*
G01X0011540Y0002210D02*
G01X0011340Y0002210D01*
G01X0011340Y0002289D02*
G01X0011540Y0002289D01*
G01X0011601Y0002367D02*
G01X0011279Y0002367D01*
G01X0011200Y0002446D02*
G01X0011680Y0002446D01*
G01X0011758Y0002524D02*
G01X0011122Y0002524D01*
G01X0012122Y0002524D02*
G01X0012758Y0002524D01*
G01X0012774Y0002540D02*
G01X0012540Y0002306D01*
G01X0012540Y0002306D02*
G01X0012540Y0001974D01*
G01X0012540Y0001974D02*
G01X0012774Y0001740D01*
G01X0012774Y0001740D02*
G01X0013106Y0001740D01*
G01X0013106Y0001740D02*
G01X0013340Y0001974D01*
G01X0013340Y0001974D02*
G01X0013340Y0002306D01*
G01X0013340Y0002306D02*
G01X0013106Y0002540D01*
G01X0013106Y0002540D02*
G01X0012774Y0002540D01*
G01X0012680Y0002446D02*
G01X0012200Y0002446D01*
G01X0012279Y0002367D02*
G01X0012601Y0002367D01*
G01X0012540Y0002289D02*
G01X0012340Y0002289D01*
G01X0012340Y0002210D02*
G01X0012540Y0002210D01*
G01X0012540Y0002132D02*
G01X0012340Y0002132D01*
G01X0012340Y0002053D02*
G01X0012540Y0002053D01*
G01X0012540Y0001975D02*
G01X0012340Y0001975D01*
G01X0012262Y0001896D02*
G01X0012618Y0001896D01*
G01X0012697Y0001818D02*
G01X0012183Y0001818D01*
G01X0013183Y0001818D02*
G01X0013697Y0001818D01*
G01X0013774Y0001740D02*
G01X0013540Y0001974D01*
G01X0013540Y0001974D02*
G01X0013540Y0002306D01*
G01X0013540Y0002306D02*
G01X0013774Y0002540D01*
G01X0013774Y0002540D02*
G01X0014106Y0002540D01*
G01X0014106Y0002540D02*
G01X0014340Y0002306D01*
G01X0014340Y0002306D02*
G01X0014340Y0001974D01*
G01X0014340Y0001974D02*
G01X0014106Y0001740D01*
G01X0014106Y0001740D02*
G01X0013774Y0001740D01*
G01X0013618Y0001896D02*
G01X0013262Y0001896D01*
G01X0013340Y0001975D02*
G01X0013540Y0001975D01*
G01X0013540Y0002053D02*
G01X0013340Y0002053D01*
G01X0013340Y0002132D02*
G01X0013540Y0002132D01*
G01X0013540Y0002210D02*
G01X0013340Y0002210D01*
G01X0013340Y0002289D02*
G01X0013540Y0002289D01*
G01X0013601Y0002367D02*
G01X0013279Y0002367D01*
G01X0013200Y0002446D02*
G01X0013680Y0002446D01*
G01X0013758Y0002524D02*
G01X0013122Y0002524D01*
G01X0014122Y0002524D02*
G01X0014758Y0002524D01*
G01X0014774Y0002540D02*
G01X0014540Y0002306D01*
G01X0014540Y0002306D02*
G01X0014540Y0001974D01*
G01X0014540Y0001974D02*
G01X0014774Y0001740D01*
G01X0014774Y0001740D02*
G01X0015106Y0001740D01*
G01X0015106Y0001740D02*
G01X0015340Y0001974D01*
G01X0015340Y0001974D02*
G01X0015340Y0002306D01*
G01X0015340Y0002306D02*
G01X0015106Y0002540D01*
G01X0015106Y0002540D02*
G01X0014774Y0002540D01*
G01X0014680Y0002446D02*
G01X0014200Y0002446D01*
G01X0014279Y0002367D02*
G01X0014601Y0002367D01*
G01X0014540Y0002289D02*
G01X0014340Y0002289D01*
G01X0014340Y0002210D02*
G01X0014540Y0002210D01*
G01X0014540Y0002132D02*
G01X0014340Y0002132D01*
G01X0014340Y0002053D02*
G01X0014540Y0002053D01*
G01X0014540Y0001975D02*
G01X0014340Y0001975D01*
G01X0014262Y0001896D02*
G01X0014618Y0001896D01*
G01X0014697Y0001818D02*
G01X0014183Y0001818D01*
G01X0015183Y0001818D02*
G01X0015697Y0001818D01*
G01X0015774Y0001740D02*
G01X0015540Y0001974D01*
G01X0015540Y0001974D02*
G01X0015540Y0002306D01*
G01X0015540Y0002306D02*
G01X0015774Y0002540D01*
G01X0015774Y0002540D02*
G01X0016106Y0002540D01*
G01X0016106Y0002540D02*
G01X0016340Y0002306D01*
G01X0016340Y0002306D02*
G01X0016340Y0001974D01*
G01X0016340Y0001974D02*
G01X0016106Y0001740D01*
G01X0016106Y0001740D02*
G01X0015774Y0001740D01*
G01X0015618Y0001896D02*
G01X0015262Y0001896D01*
G01X0015340Y0001975D02*
G01X0015540Y0001975D01*
G01X0015540Y0002053D02*
G01X0015340Y0002053D01*
G01X0015340Y0002132D02*
G01X0015540Y0002132D01*
G01X0015540Y0002210D02*
G01X0015340Y0002210D01*
G01X0015340Y0002289D02*
G01X0015540Y0002289D01*
G01X0015601Y0002367D02*
G01X0015279Y0002367D01*
G01X0015200Y0002446D02*
G01X0015680Y0002446D01*
G01X0015758Y0002524D02*
G01X0015122Y0002524D01*
G01X0016122Y0002524D02*
G01X0016758Y0002524D01*
G01X0016680Y0002446D02*
G01X0016200Y0002446D01*
G01X0016279Y0002367D02*
G01X0016601Y0002367D01*
G01X0016540Y0002289D02*
G01X0016340Y0002289D01*
G01X0016340Y0002210D02*
G01X0016540Y0002210D01*
G01X0016540Y0002132D02*
G01X0016340Y0002132D01*
G01X0016340Y0002053D02*
G01X0016540Y0002053D01*
G01X0016540Y0001975D02*
G01X0016340Y0001975D01*
G01X0016262Y0001896D02*
G01X0016618Y0001896D01*
G01X0016697Y0001818D02*
G01X0016183Y0001818D01*
G01X0020890Y0002995D02*
G01X0024423Y0002995D01*
G01X0025980Y0002132D02*
G01X0026540Y0002132D01*
G01X0026540Y0002210D02*
G01X0026380Y0002210D01*
G01X0026380Y0002289D02*
G01X0026540Y0002289D01*
G01X0026601Y0002367D02*
G01X0026335Y0002367D01*
G01X0026257Y0002446D02*
G01X0026680Y0002446D01*
G01X0027200Y0002446D02*
G01X0027680Y0002446D01*
G01X0027601Y0002367D02*
G01X0027279Y0002367D01*
G01X0027340Y0002289D02*
G01X0027540Y0002289D01*
G01X0027540Y0002210D02*
G01X0027340Y0002210D01*
G01X0027340Y0002132D02*
G01X0027540Y0002132D01*
G01X0027540Y0002053D02*
G01X0027340Y0002053D01*
G01X0027340Y0001975D02*
G01X0027540Y0001975D01*
G01X0027618Y0001896D02*
G01X0027262Y0001896D01*
G01X0027183Y0001818D02*
G01X0027697Y0001818D01*
G01X0028183Y0001818D02*
G01X0028697Y0001818D01*
G01X0028774Y0001740D02*
G01X0028540Y0001974D01*
G01X0028540Y0001974D02*
G01X0028540Y0002306D01*
G01X0028540Y0002306D02*
G01X0028774Y0002540D01*
G01X0028774Y0002540D02*
G01X0029106Y0002540D01*
G01X0029106Y0002540D02*
G01X0029340Y0002306D01*
G01X0029340Y0002306D02*
G01X0029340Y0001974D01*
G01X0029340Y0001974D02*
G01X0029106Y0001740D01*
G01X0029106Y0001740D02*
G01X0028774Y0001740D01*
G01X0028618Y0001896D02*
G01X0028262Y0001896D01*
G01X0028340Y0001975D02*
G01X0028540Y0001975D01*
G01X0028540Y0002053D02*
G01X0028340Y0002053D01*
G01X0028340Y0002132D02*
G01X0028540Y0002132D01*
G01X0028540Y0002210D02*
G01X0028340Y0002210D01*
G01X0028340Y0002289D02*
G01X0028540Y0002289D01*
G01X0028601Y0002367D02*
G01X0028279Y0002367D01*
G01X0028200Y0002446D02*
G01X0028680Y0002446D01*
G01X0028758Y0002524D02*
G01X0028216Y0002524D01*
G01X0028311Y0002603D02*
G01X0031701Y0002603D01*
G01X0031728Y0002681D02*
G01X0028387Y0002681D01*
G01X0028464Y0002760D02*
G01X0031755Y0002760D01*
G01X0031808Y0002838D02*
G01X0028540Y0002838D01*
G01X0028617Y0002917D02*
G01X0031869Y0002917D01*
G01X0031931Y0002995D02*
G01X0028693Y0002995D01*
G01X0028770Y0003074D02*
G01X0031992Y0003074D01*
G01X0032072Y0003152D02*
G01X0028846Y0003152D01*
G01X0028922Y0003231D02*
G01X0032193Y0003231D01*
G01X0032313Y0003309D02*
G01X0028999Y0003309D01*
G01X0029075Y0003388D02*
G01X0032482Y0003388D01*
G01X0032792Y0003466D02*
G01X0029152Y0003466D01*
G01X0029189Y0003545D02*
G01X0034225Y0003545D01*
G01X0034225Y0003623D02*
G01X0029221Y0003623D01*
G01X0029223Y0003702D02*
G01X0034225Y0003702D01*
G01X0034225Y0003780D02*
G01X0029222Y0003780D01*
G01X0029197Y0003859D02*
G01X0034225Y0003859D01*
G01X0034225Y0003937D02*
G01X0029163Y0003937D01*
G01X0029092Y0004016D02*
G01X0034225Y0004016D01*
G01X0034225Y0004094D02*
G01X0028975Y0004094D01*
G01X0029122Y0002524D02*
G01X0029758Y0002524D01*
G01X0029774Y0002540D02*
G01X0029540Y0002306D01*
G01X0029540Y0002306D02*
G01X0029540Y0001974D01*
G01X0029540Y0001974D02*
G01X0029774Y0001740D01*
G01X0029774Y0001740D02*
G01X0030106Y0001740D01*
G01X0030106Y0001740D02*
G01X0030340Y0001974D01*
G01X0030340Y0001974D02*
G01X0030340Y0002306D01*
G01X0030340Y0002306D02*
G01X0030106Y0002540D01*
G01X0030106Y0002540D02*
G01X0029774Y0002540D01*
G01X0029680Y0002446D02*
G01X0029200Y0002446D01*
G01X0029279Y0002367D02*
G01X0029601Y0002367D01*
G01X0029540Y0002289D02*
G01X0029340Y0002289D01*
G01X0029340Y0002210D02*
G01X0029540Y0002210D01*
G01X0029540Y0002132D02*
G01X0029340Y0002132D01*
G01X0029340Y0002053D02*
G01X0029540Y0002053D01*
G01X0029540Y0001975D02*
G01X0029340Y0001975D01*
G01X0029262Y0001896D02*
G01X0029618Y0001896D01*
G01X0029697Y0001818D02*
G01X0029183Y0001818D01*
G01X0030183Y0001818D02*
G01X0030697Y0001818D01*
G01X0030774Y0001740D02*
G01X0031106Y0001740D01*
G01X0031106Y0001740D02*
G01X0031340Y0001974D01*
G01X0031340Y0001974D02*
G01X0031340Y0002306D01*
G01X0031340Y0002306D02*
G01X0031106Y0002540D01*
G01X0031106Y0002540D02*
G01X0030774Y0002540D01*
G01X0030774Y0002540D02*
G01X0030540Y0002306D01*
G01X0030540Y0002306D02*
G01X0030540Y0001974D01*
G01X0030540Y0001974D02*
G01X0030774Y0001740D01*
G01X0030618Y0001896D02*
G01X0030262Y0001896D01*
G01X0030340Y0001975D02*
G01X0030540Y0001975D01*
G01X0030540Y0002053D02*
G01X0030340Y0002053D01*
G01X0030340Y0002132D02*
G01X0030540Y0002132D01*
G01X0030540Y0002210D02*
G01X0030340Y0002210D01*
G01X0030340Y0002289D02*
G01X0030540Y0002289D01*
G01X0030601Y0002367D02*
G01X0030279Y0002367D01*
G01X0030200Y0002446D02*
G01X0030680Y0002446D01*
G01X0030758Y0002524D02*
G01X0030122Y0002524D01*
G01X0031122Y0002524D02*
G01X0031674Y0002524D01*
G01X0031647Y0002446D02*
G01X0031200Y0002446D01*
G01X0031279Y0002367D02*
G01X0031620Y0002367D01*
G01X0031618Y0002289D02*
G01X0031340Y0002289D01*
G01X0031340Y0002210D02*
G01X0031618Y0002210D01*
G01X0031618Y0002132D02*
G01X0031340Y0002132D01*
G01X0031340Y0002053D02*
G01X0031618Y0002053D01*
G01X0031618Y0001975D02*
G01X0031340Y0001975D01*
G01X0031262Y0001896D02*
G01X0031626Y0001896D01*
G01X0031653Y0001818D02*
G01X0031183Y0001818D01*
G01X0033877Y0003074D02*
G01X0034225Y0003074D01*
G01X0034225Y0003152D02*
G01X0033792Y0003152D01*
G01X0033707Y0003231D02*
G01X0034225Y0003231D01*
G01X0034225Y0003309D02*
G01X0033565Y0003309D01*
G01X0033386Y0003388D02*
G01X0034225Y0003388D01*
G01X0034225Y0003466D02*
G01X0032943Y0003466D01*
G01X0033963Y0002995D02*
G01X0034225Y0002995D01*
G01X0034225Y0002917D02*
G01X0034023Y0002917D01*
G01X0034065Y0002838D02*
G01X0034225Y0002838D01*
G01X0034225Y0002760D02*
G01X0034108Y0002760D01*
G01X0034150Y0002681D02*
G01X0034225Y0002681D01*
G01X0034225Y0002603D02*
G01X0034193Y0002603D01*
G01X0034216Y0002524D02*
G01X0034225Y0002524D01*
G01X0026697Y0001818D02*
G01X0026240Y0001818D01*
G01X0026318Y0001896D02*
G01X0026618Y0001896D01*
G01X0026540Y0001975D02*
G01X0026380Y0001975D01*
G01X0026380Y0002053D02*
G01X0026540Y0002053D01*
G01X0025719Y0001739D02*
G01X0024366Y0001739D01*
G01X0024506Y0001818D02*
G01X0025640Y0001818D01*
G01X0025562Y0001896D02*
G01X0024580Y0001896D01*
G01X0024644Y0001975D02*
G01X0025500Y0001975D01*
G01X0025500Y0002053D02*
G01X0024713Y0002053D01*
G01X0021064Y0003074D02*
G01X0020890Y0003074D01*
G01X0020864Y0003152D02*
G01X0020964Y0003152D01*
G01X0023135Y0005821D02*
G01X0015700Y0005821D01*
G01X0015700Y0005900D02*
G01X0023087Y0005900D01*
G01X0023200Y0006110D02*
G01X0019730Y0006110D01*
G01X0019753Y0006763D02*
G01X0020209Y0006763D01*
G01X0020353Y0007391D02*
G01X0019452Y0007391D01*
G01X0019473Y0007470D02*
G01X0020291Y0007470D01*
G01X0020432Y0007662D02*
G01X0020515Y0007583D01*
G01X0020432Y0007662D02*
G01X0019470Y0007660D01*
G01X0019470Y0007660D02*
G01X0019315Y0007759D01*
G01X0019315Y0007759D02*
G01X0013992Y0007756D01*
G01X0013992Y0007756D02*
G01X0013874Y0007762D01*
G01X0013874Y0007762D02*
G01X0013740Y0007883D01*
G01X0013564Y0007705D02*
G01X0012744Y0007705D01*
G01X0012586Y0007510D02*
G01X0019214Y0007510D01*
G01X0019214Y0007510D02*
G01X0019223Y0007492D01*
G01X0019471Y0007976D02*
G01X0015965Y0007986D01*
G01X0015965Y0007986D02*
G01X0015750Y0008240D01*
G01X0015630Y0008019D02*
G01X0015510Y0008019D01*
G01X0015270Y0008019D02*
G01X0013954Y0008019D01*
G01X0013987Y0007941D02*
G01X0015821Y0007941D01*
G01X0016120Y0008240D02*
G01X0018700Y0008240D01*
G01X0018944Y0008176D02*
G01X0019317Y0008176D01*
G01X0019629Y0008507D02*
G01X0015601Y0008496D01*
G01X0015601Y0008496D02*
G01X0015390Y0008240D01*
G01X0015158Y0008333D02*
G01X0000655Y0008333D01*
G01X0000655Y0008255D02*
G01X0015140Y0008255D01*
G01X0015146Y0008176D02*
G01X0000655Y0008176D01*
G01X0000655Y0008098D02*
G01X0013604Y0008098D01*
G01X0013525Y0008019D02*
G01X0000655Y0008019D01*
G01X0000655Y0007941D02*
G01X0013493Y0007941D01*
G01X0013490Y0007862D02*
G01X0000655Y0007862D01*
G01X0000655Y0007784D02*
G01X0013510Y0007784D01*
G01X0013876Y0008098D02*
G01X0015179Y0008098D01*
G01X0015208Y0008412D02*
G01X0000655Y0008412D01*
G01X0000655Y0008490D02*
G01X0015415Y0008490D01*
G01X0015988Y0008804D02*
G01X0019293Y0008804D01*
G01X0019374Y0008883D02*
G01X0014474Y0008883D01*
G01X0014394Y0008961D02*
G01X0019365Y0008961D01*
G01X0015315Y0006999D02*
G01X0014980Y0006999D01*
G01X0014951Y0006920D02*
G01X0015278Y0006920D01*
G01X0015270Y0006842D02*
G01X0014885Y0006842D01*
G01X0012429Y0007313D02*
G01X0000655Y0007313D01*
G01X0000655Y0007391D02*
G01X0012364Y0007391D01*
G01X0012336Y0007470D02*
G01X0000655Y0007470D01*
G01X0000655Y0007548D02*
G01X0012336Y0007548D01*
G01X0012363Y0007627D02*
G01X0000655Y0007627D01*
G01X0000655Y0007705D02*
G01X0012427Y0007705D01*
G01X0014234Y0008726D02*
G01X0000655Y0008726D01*
G01X0000655Y0008804D02*
G01X0014153Y0008804D01*
G01X0014073Y0008883D02*
G01X0000655Y0008883D01*
G01X0000655Y0008961D02*
G01X0013992Y0008961D01*
G01X0014315Y0008647D02*
G01X0000655Y0008647D01*
G01X0000655Y0008569D02*
G01X0014395Y0008569D01*
G01X0010285Y0009197D02*
G01X0000655Y0009197D01*
G01X0000655Y0009275D02*
G01X0010207Y0009275D01*
G01X0010128Y0009354D02*
G01X0000655Y0009354D01*
G01X0000655Y0009432D02*
G01X0010050Y0009432D01*
G01X0009971Y0009511D02*
G01X0000655Y0009511D01*
G01X0000655Y0009589D02*
G01X0009893Y0009589D01*
G01X0009814Y0009668D02*
G01X0004021Y0009668D01*
G01X0004052Y0009698D02*
G01X0004090Y0009790D01*
G01X0004090Y0009790D02*
G01X0004090Y0009890D01*
G01X0004090Y0009890D02*
G01X0004052Y0009982D01*
G01X0004052Y0009982D02*
G01X0003982Y0010052D01*
G01X0003982Y0010052D02*
G01X0003890Y0010090D01*
G01X0003890Y0010090D02*
G01X0003790Y0010090D01*
G01X0003790Y0010090D02*
G01X0003698Y0010052D01*
G01X0003698Y0010052D02*
G01X0003628Y0009982D01*
G01X0003628Y0009982D02*
G01X0003590Y0009890D01*
G01X0003590Y0009890D02*
G01X0003590Y0009790D01*
G01X0003590Y0009790D02*
G01X0003628Y0009698D01*
G01X0003628Y0009698D02*
G01X0003698Y0009628D01*
G01X0003698Y0009628D02*
G01X0003790Y0009590D01*
G01X0003790Y0009590D02*
G01X0003890Y0009590D01*
G01X0003890Y0009590D02*
G01X0003982Y0009628D01*
G01X0003982Y0009628D02*
G01X0004052Y0009698D01*
G01X0004072Y0009746D02*
G01X0009736Y0009746D01*
G01X0009657Y0009825D02*
G01X0004090Y0009825D01*
G01X0004084Y0009903D02*
G01X0009579Y0009903D01*
G01X0009500Y0009982D02*
G01X0004052Y0009982D01*
G01X0003962Y0010060D02*
G01X0009422Y0010060D01*
G01X0009343Y0010139D02*
G01X0000655Y0010139D01*
G01X0000655Y0010217D02*
G01X0009265Y0010217D01*
G01X0009186Y0010296D02*
G01X0000655Y0010296D01*
G01X0000655Y0010374D02*
G01X0009108Y0010374D01*
G01X0009029Y0010453D02*
G01X0000655Y0010453D01*
G01X0000655Y0010531D02*
G01X0008951Y0010531D01*
G01X0008872Y0010610D02*
G01X0000655Y0010610D01*
G01X0000655Y0010688D02*
G01X0008794Y0010688D01*
G01X0008715Y0010767D02*
G01X0000655Y0010767D01*
G01X0000655Y0010845D02*
G01X0008637Y0010845D01*
G01X0008558Y0010924D02*
G01X0000655Y0010924D01*
G01X0000655Y0011002D02*
G01X0008480Y0011002D01*
G01X0008401Y0011081D02*
G01X0000655Y0011081D01*
G01X0000655Y0011159D02*
G01X0008323Y0011159D01*
G01X0008244Y0011238D02*
G01X0000655Y0011238D01*
G01X0000655Y0011316D02*
G01X0008166Y0011316D01*
G01X0008087Y0011395D02*
G01X0000655Y0011395D01*
G01X0000655Y0011473D02*
G01X0008009Y0011473D01*
G01X0007930Y0011552D02*
G01X0000655Y0011552D01*
G01X0000655Y0011630D02*
G01X0007852Y0011630D01*
G01X0007773Y0011709D02*
G01X0000655Y0011709D01*
G01X0000655Y0011787D02*
G01X0007695Y0011787D01*
G01X0007616Y0011866D02*
G01X0000655Y0011866D01*
G01X0000655Y0011944D02*
G01X0007538Y0011944D01*
G01X0007459Y0012023D02*
G01X0000655Y0012023D01*
G01X0000655Y0012101D02*
G01X0007381Y0012101D01*
G01X0007302Y0012180D02*
G01X0000655Y0012180D01*
G01X0000655Y0012258D02*
G01X0007224Y0012258D01*
G01X0007145Y0012337D02*
G01X0000655Y0012337D01*
G01X0000655Y0012415D02*
G01X0007067Y0012415D01*
G01X0006988Y0012494D02*
G01X0000655Y0012494D01*
G01X0000655Y0012572D02*
G01X0006910Y0012572D01*
G01X0006831Y0012651D02*
G01X0000655Y0012651D01*
G01X0000655Y0012729D02*
G01X0006753Y0012729D01*
G01X0006674Y0012808D02*
G01X0001865Y0012808D01*
G01X0001818Y0012808D02*
G01X0000655Y0012808D01*
G01X0000655Y0012886D02*
G01X0001508Y0012886D01*
G01X0001323Y0012965D02*
G01X0000655Y0012965D01*
G01X0000655Y0013043D02*
G01X0001202Y0013043D01*
G01X0001082Y0013122D02*
G01X0000655Y0013122D01*
G01X0000655Y0013200D02*
G01X0000997Y0013200D01*
G01X0000936Y0013279D02*
G01X0000655Y0013279D01*
G01X0000655Y0013357D02*
G01X0000875Y0013357D01*
G01X0000813Y0013436D02*
G01X0000655Y0013436D01*
G01X0000655Y0013514D02*
G01X0000757Y0013514D01*
G01X0000731Y0013593D02*
G01X0000655Y0013593D01*
G01X0000655Y0013671D02*
G01X0000704Y0013671D01*
G01X0000677Y0013750D02*
G01X0000655Y0013750D01*
G01X0002372Y0012886D02*
G01X0006596Y0012886D01*
G01X0006517Y0012965D02*
G01X0002551Y0012965D01*
G01X0002700Y0013043D02*
G01X0006439Y0013043D01*
G01X0006360Y0013122D02*
G01X0002785Y0013122D01*
G01X0002870Y0013200D02*
G01X0006282Y0013200D01*
G01X0006203Y0013279D02*
G01X0002956Y0013279D01*
G01X0004940Y0014140D02*
G01X0005640Y0013440D01*
G01X0005132Y0013750D02*
G01X0005115Y0013750D01*
G01X0003187Y0014613D02*
G01X0031705Y0014613D01*
G01X0031678Y0014535D02*
G01X0031111Y0014535D01*
G01X0031106Y0014540D02*
G01X0030774Y0014540D01*
G01X0030774Y0014540D02*
G01X0030540Y0014306D01*
G01X0030540Y0014306D02*
G01X0030540Y0013974D01*
G01X0030540Y0013974D02*
G01X0030774Y0013740D01*
G01X0030774Y0013740D02*
G01X0031106Y0013740D01*
G01X0031106Y0013740D02*
G01X0031340Y0013974D01*
G01X0031340Y0013974D02*
G01X0031340Y0014306D01*
G01X0031340Y0014306D02*
G01X0031106Y0014540D01*
G01X0031190Y0014456D02*
G01X0031651Y0014456D01*
G01X0031624Y0014378D02*
G01X0031268Y0014378D01*
G01X0031340Y0014299D02*
G01X0031618Y0014299D01*
G01X0031618Y0014221D02*
G01X0031340Y0014221D01*
G01X0031340Y0014142D02*
G01X0031618Y0014142D01*
G01X0031618Y0014064D02*
G01X0031340Y0014064D01*
G01X0031340Y0013985D02*
G01X0031618Y0013985D01*
G01X0031623Y0013907D02*
G01X0031272Y0013907D01*
G01X0031194Y0013828D02*
G01X0031650Y0013828D01*
G01X0031677Y0013750D02*
G01X0031115Y0013750D01*
G01X0030765Y0013750D02*
G01X0030115Y0013750D01*
G01X0030194Y0013828D02*
G01X0030686Y0013828D01*
G01X0030608Y0013907D02*
G01X0030272Y0013907D01*
G01X0030340Y0013985D02*
G01X0030540Y0013985D01*
G01X0030540Y0014064D02*
G01X0030340Y0014064D01*
G01X0030340Y0014142D02*
G01X0030540Y0014142D01*
G01X0030540Y0014221D02*
G01X0030340Y0014221D01*
G01X0030340Y0014299D02*
G01X0030540Y0014299D01*
G01X0030612Y0014378D02*
G01X0030268Y0014378D01*
G01X0030190Y0014456D02*
G01X0030690Y0014456D01*
G01X0030769Y0014535D02*
G01X0030111Y0014535D01*
G01X0029769Y0014535D02*
G01X0029168Y0014535D01*
G01X0029246Y0014456D02*
G01X0029690Y0014456D01*
G01X0029612Y0014378D02*
G01X0029325Y0014378D01*
G01X0029380Y0014299D02*
G01X0029540Y0014299D01*
G01X0029540Y0014221D02*
G01X0029380Y0014221D01*
G01X0028980Y0014221D02*
G01X0028900Y0014221D01*
G01X0028900Y0014299D02*
G01X0028980Y0014299D01*
G01X0028980Y0014378D02*
G01X0028900Y0014378D01*
G01X0028900Y0014456D02*
G01X0028980Y0014456D01*
G01X0028980Y0014535D02*
G01X0028900Y0014535D01*
G01X0028712Y0014535D02*
G01X0028111Y0014535D01*
G01X0028190Y0014456D02*
G01X0028634Y0014456D01*
G01X0028555Y0014378D02*
G01X0028268Y0014378D01*
G01X0028340Y0014299D02*
G01X0028500Y0014299D01*
G01X0028500Y0014221D02*
G01X0028340Y0014221D01*
G01X0031732Y0014692D02*
G01X0003144Y0014692D01*
G01X0003102Y0014770D02*
G01X0031759Y0014770D01*
G01X0031817Y0014849D02*
G01X0003059Y0014849D01*
G01X0003017Y0014927D02*
G01X0031878Y0014927D01*
G01X0031939Y0015006D02*
G01X0002951Y0015006D01*
G01X0002866Y0015084D02*
G01X0032000Y0015084D01*
G01X0032089Y0015163D02*
G01X0002781Y0015163D01*
G01X0002695Y0015241D02*
G01X0032209Y0015241D01*
G01X0032329Y0015320D02*
G01X0002541Y0015320D01*
G01X0002362Y0015398D02*
G01X0032524Y0015398D01*
G01X0023200Y0006110D02*
G01X0023320Y0005990D01*
G01X0003659Y0009668D02*
G01X0000655Y0009668D01*
G01X0000655Y0009746D02*
G01X0003608Y0009746D01*
G01X0003590Y0009825D02*
G01X0000655Y0009825D01*
G01X0000655Y0009903D02*
G01X0003596Y0009903D01*
G01X0003628Y0009982D02*
G01X0000655Y0009982D01*
G01X0000655Y0010060D02*
G01X0003718Y0010060D01*
G54D13*
G01X0003840Y0009840D03*
G01X0006240Y0009640D03*
G01X0008090Y0008890D03*
G01X0005840Y0007440D03*
G01X0005240Y0007440D03*
G01X0005240Y0006740D03*
G01X0005840Y0006740D03*
G01X0005840Y0006040D03*
G01X0005240Y0006040D03*
G01X0007240Y0006640D03*
G01X0011590Y0006770D03*
G01X0012870Y0007240D03*
G01X0012586Y0007510D03*
G01X0013740Y0007883D03*
G01X0015390Y0008240D03*
G01X0015750Y0008240D03*
G01X0016120Y0008240D03*
G01X0014730Y0007040D03*
G01X0015520Y0006850D03*
G01X0015090Y0006320D03*
G01X0014430Y0006310D03*
G01X0014040Y0006440D03*
G01X0015450Y0005850D03*
G01X0017897Y0004490D03*
G01X0020358Y0005045D03*
G01X0021870Y0003720D03*
G01X0021830Y0003290D03*
G01X0021170Y0003300D03*
G01X0020640Y0003040D03*
G01X0024293Y0003835D03*
G01X0024623Y0004805D03*
G01X0023320Y0005990D03*
G01X0024480Y0006620D03*
G01X0027448Y0005531D03*
G01X0030713Y0004018D03*
G01X0022286Y0008538D03*
G01X0020515Y0007583D03*
G01X0019471Y0007976D03*
G01X0019223Y0007492D03*
G01X0018700Y0008240D03*
G01X0019629Y0008507D03*
G01X0019615Y0008954D03*
G01X0022680Y0010051D03*
G01X0024353Y0010341D03*
G01X0024673Y0010932D03*
G01X0022193Y0012097D03*
G01X0020240Y0010440D03*
G01X0017607Y0012100D03*
G01X0012814Y0009332D03*
G01X0011630Y0008730D03*
G01X0011779Y0005770D03*
G01X0011269Y0004250D03*
G01X0013283Y0004215D03*
G01X0008089Y0004190D03*
G01X0006589Y0004190D03*
G01X0003840Y0003640D03*
G01X0018690Y0006771D03*
G01X0020380Y0006580D03*
G01X0026123Y0009287D03*
G01X0027793Y0008997D03*
G01X0028040Y0010040D03*
G01X0030180Y0009890D03*
G01X0027773Y0011088D03*
G01X0028040Y0011540D03*
G01X0028192Y0012148D03*
G01X0031220Y0011461D03*
G01X0011215Y0012089D03*
G01X0006329Y0012465D03*
G01X0004568Y0011084D03*
G01X0002870Y0011220D03*
G54D14*
G01X0028803Y0003710D03*
G54D15*
G01X0028803Y0003710D02*
G01X0028006Y0002892D01*
G01X0028006Y0002892D02*
G01X0024888Y0002888D01*
G01X0024888Y0002888D02*
G01X0024230Y0002140D01*
G01X0024230Y0002140D02*
G01X0023940Y0002140D01*
M02*
