M48
INCH,TZ
T10C0.016
T11C0.032
T12C0.035
T13C0.040
%
T10
X003840Y003640
X006589Y004190
X008089Y004190
X011269Y004250
X013283Y004215
X011779Y005770
X011590Y006770
X012870Y007240
X012586Y007510
X013740Y007883
X015390Y008240
X015750Y008240
X016120Y008240
X014730Y007040
X015520Y006850
X015090Y006320
X014430Y006310
X014040Y006440
X015450Y005850
X017897Y004490
X020358Y005045
X021870Y003720
X021830Y003290
X021170Y003300
X020640Y003040
X024293Y003835
X024623Y004805
X023320Y005990
X024480Y006620
X027448Y005531
X030713Y004018
X022286Y008538
X020515Y007583
X019471Y007976
X019223Y007492
X018700Y008240
X019629Y008507
X019615Y008954
X022680Y010051
X024353Y010341
X024673Y010932
X022193Y012097
X020240Y010440
X017607Y012100
X012814Y009332
X011630Y008730
X008090Y008890
X006240Y009640
X003840Y009840
X004568Y011084
X002870Y011220
X006329Y012465
X011215Y012089
X005840Y007440
X005240Y007440
X005240Y006740
X005840Y006740
X005840Y006040
X005240Y006040
X007240Y006640
X018690Y006771
X020380Y006580
X026123Y009287
X027793Y008997
X028040Y010040
X030180Y009890
X027773Y011088
X028040Y011540
X028192Y012148
X031220Y011461
T11
X028803Y003710
T12
X032551Y009563
X032551Y011295
T13
X004940Y002140
X005940Y002140
X006940Y002140
X007940Y002140
X008940Y002140
X009940Y002140
X010940Y002140
X011940Y002140
X012940Y002140
X013940Y002140
X014940Y002140
X015940Y002140
X016940Y002140
X017940Y002140
X018940Y002140
X019940Y002140
X020940Y002140
X021940Y002140
X022940Y002140
X023940Y002140
X025940Y002140
X026940Y002140
X027940Y002140
X028940Y002140
X029940Y002140
X030940Y002140
X030940Y014140
X029940Y014140
X028940Y014140
X027940Y014140
X026940Y014140
X025940Y014140
X023940Y014140
X022940Y014140
X021940Y014140
X020940Y014140
X019940Y014140
X018940Y014140
X017940Y014140
X016940Y014140
X015940Y014140
X014940Y014140
X013940Y014140
X012940Y014140
X011940Y014140
X010940Y014140
X009940Y014140
X008940Y014140
X007940Y014140
X006940Y014140
X005940Y014140
X004940Y014140
M30

