G04 This is an RS-274x file exported by *
G04 gerbv version 2.6.0 *
G04 More information is available about gerbv at *
G04 http://gerbv.gpleda.org/ *
G04 --End of header info--*
%MOIN*%
%FSLAX34Y34*%
%IPPOS*%
G04 --Define apertures--*
%ADD10R,0.0552X0.0395*%
%ADD11R,0.0395X0.0552*%
%AMMACRO12*
5,1,8,0.000000,0.000000,0.073603,22.500000*
%
%ADD12MACRO12*%
%ADD13R,0.0671X0.0178*%
%ADD14R,0.0178X0.0671*%
%ADD15R,0.0434X0.0474*%
%ADD16R,0.0474X0.0789*%
%ADD17C,0.1340*%
%ADD18R,0.0592X0.0828*%
%ADD19R,0.1640X0.1640*%
%ADD20R,0.1330X0.1330*%
%ADD21C,0.0050*%
%ADD22R,0.0474X0.0434*%
%ADD23R,0.0671X0.0671*%
%ADD24R,0.0474X0.0297*%
%ADD25R,0.0430X0.0380*%
%ADD26R,0.1025X0.0749*%
%ADD27R,0.0277X0.0395*%
%ADD28R,0.0493X0.0749*%
%ADD29R,0.0395X0.0277*%
%ADD30C,0.0611*%
%ADD31R,0.1064X0.0867*%
%ADD32R,0.1064X0.0277*%
%ADD33R,0.0380X0.0710*%
%ADD34C,0.0560*%
G04 --Start main section--*
G54D10*
G01X0010761Y0004168D03*
G01X0010761Y0004876D03*
G01X0007240Y0005536D03*
G01X0007240Y0006244D03*
G01X0007240Y0007046D03*
G01X0007240Y0007754D03*
G01X0010740Y0011386D03*
G01X0010740Y0012094D03*
G01X0004590Y0012194D03*
G01X0003630Y0012194D03*
G01X0003630Y0011486D03*
G01X0004590Y0011486D03*
G01X0017140Y0011386D03*
G01X0018090Y0011386D03*
G01X0018090Y0012094D03*
G01X0017140Y0012094D03*
G01X0020240Y0011554D03*
G01X0020240Y0010846D03*
G01X0020240Y0010054D03*
G01X0020240Y0009346D03*
G54D11*
G01X0022686Y0008540D03*
G01X0023394Y0008540D03*
G01X0021394Y0007040D03*
G01X0020686Y0007040D03*
G01X0019994Y0007040D03*
G01X0019286Y0007040D03*
G01X0017894Y0004940D03*
G01X0017186Y0004940D03*
G01X0017186Y0004040D03*
G01X0017894Y0004040D03*
G01X0013994Y0003740D03*
G01X0013286Y0003740D03*
G01X0008794Y0003740D03*
G01X0008086Y0003740D03*
G01X0007294Y0003740D03*
G01X0006586Y0003740D03*
G01X0006586Y0004640D03*
G01X0007294Y0004640D03*
G01X0008086Y0004640D03*
G01X0008794Y0004640D03*
G01X0008794Y0008440D03*
G01X0008086Y0008440D03*
G01X0008086Y0009340D03*
G01X0008794Y0009340D03*
G01X0007394Y0009640D03*
G01X0006686Y0009640D03*
G01X0006706Y0012470D03*
G01X0007414Y0012470D03*
G01X0022586Y0012140D03*
G01X0023294Y0012140D03*
G01X0027086Y0012140D03*
G01X0027794Y0012140D03*
G01X0029086Y0012140D03*
G01X0029794Y0012140D03*
G01X0029794Y0010340D03*
G01X0029086Y0010340D03*
G01X0029086Y0009440D03*
G01X0029794Y0009440D03*
G01X0027794Y0008540D03*
G01X0027086Y0008540D03*
G01X0027091Y0007640D03*
G01X0027800Y0007640D03*
G01X0027800Y0006740D03*
G01X0027091Y0006740D03*
G01X0027091Y0004340D03*
G01X0027800Y0004340D03*
G54D12*
G01X0027940Y0002140D03*
G01X0026940Y0002140D03*
G01X0025940Y0002140D03*
G01X0023940Y0002140D03*
G01X0022940Y0002140D03*
G01X0021940Y0002140D03*
G01X0020940Y0002140D03*
G01X0019940Y0002140D03*
G01X0018940Y0002140D03*
G01X0017940Y0002140D03*
G01X0016940Y0002140D03*
G01X0015940Y0002140D03*
G01X0014940Y0002140D03*
G01X0013940Y0002140D03*
G01X0012940Y0002140D03*
G01X0011940Y0002140D03*
G01X0010940Y0002140D03*
G01X0009940Y0002140D03*
G01X0008940Y0002140D03*
G01X0007940Y0002140D03*
G01X0006940Y0002140D03*
G01X0005940Y0002140D03*
G01X0004940Y0002140D03*
G01X0028940Y0002140D03*
G01X0029940Y0002140D03*
G01X0030940Y0002140D03*
G01X0030940Y0014140D03*
G01X0029940Y0014140D03*
G01X0028940Y0014140D03*
G01X0027940Y0014140D03*
G01X0026940Y0014140D03*
G01X0025940Y0014140D03*
G01X0023940Y0014140D03*
G01X0022940Y0014140D03*
G01X0021940Y0014140D03*
G01X0020940Y0014140D03*
G01X0019940Y0014140D03*
G01X0018940Y0014140D03*
G01X0017940Y0014140D03*
G01X0016940Y0014140D03*
G01X0015940Y0014140D03*
G01X0014940Y0014140D03*
G01X0013940Y0014140D03*
G01X0012940Y0014140D03*
G01X0011940Y0014140D03*
G01X0010940Y0014140D03*
G01X0009940Y0014140D03*
G01X0008940Y0014140D03*
G01X0007940Y0014140D03*
G01X0006940Y0014140D03*
G01X0005940Y0014140D03*
G01X0004940Y0014140D03*
G54D13*
G01X0010830Y0010502D03*
G01X0010830Y0010305D03*
G01X0010830Y0010109D03*
G01X0010830Y0009912D03*
G01X0010830Y0009715D03*
G01X0010830Y0009518D03*
G01X0010830Y0009321D03*
G01X0010830Y0009124D03*
G01X0010830Y0008927D03*
G01X0010830Y0008731D03*
G01X0010830Y0008534D03*
G01X0010830Y0008337D03*
G01X0010830Y0008140D03*
G01X0010830Y0007943D03*
G01X0010830Y0007746D03*
G01X0010830Y0007549D03*
G01X0010830Y0007353D03*
G01X0010830Y0007156D03*
G01X0010830Y0006959D03*
G01X0010830Y0006762D03*
G01X0010830Y0006565D03*
G01X0010830Y0006368D03*
G01X0010830Y0006171D03*
G01X0010830Y0005975D03*
G01X0010830Y0005778D03*
G01X0017050Y0005778D03*
G01X0017050Y0005975D03*
G01X0017050Y0006171D03*
G01X0017050Y0006368D03*
G01X0017050Y0006565D03*
G01X0017050Y0006762D03*
G01X0017050Y0006959D03*
G01X0017050Y0007156D03*
G01X0017050Y0007353D03*
G01X0017050Y0007549D03*
G01X0017050Y0007746D03*
G01X0017050Y0007943D03*
G01X0017050Y0008140D03*
G01X0017050Y0008337D03*
G01X0017050Y0008534D03*
G01X0017050Y0008731D03*
G01X0017050Y0008927D03*
G01X0017050Y0009124D03*
G01X0017050Y0009321D03*
G01X0017050Y0009518D03*
G01X0017050Y0009715D03*
G01X0017050Y0009912D03*
G01X0017050Y0010109D03*
G01X0017050Y0010305D03*
G01X0017050Y0010502D03*
G01X0023508Y0010438D03*
G01X0023508Y0010635D03*
G01X0023508Y0010832D03*
G01X0023508Y0011029D03*
G01X0023508Y0011226D03*
G01X0023508Y0011423D03*
G01X0023508Y0010242D03*
G01X0023508Y0010045D03*
G01X0023508Y0009848D03*
G01X0023508Y0009651D03*
G01X0023508Y0009454D03*
G01X0023508Y0009257D03*
G01X0026972Y0009257D03*
G01X0026972Y0009454D03*
G01X0026972Y0009651D03*
G01X0026972Y0009848D03*
G01X0026972Y0010045D03*
G01X0026972Y0010242D03*
G01X0026972Y0010438D03*
G01X0026972Y0010635D03*
G01X0026972Y0010832D03*
G01X0026972Y0011029D03*
G01X0026972Y0011226D03*
G01X0026972Y0011423D03*
G54D14*
G01X0026323Y0012072D03*
G01X0026126Y0012072D03*
G01X0025929Y0012072D03*
G01X0025732Y0012072D03*
G01X0025535Y0012072D03*
G01X0025338Y0012072D03*
G01X0025142Y0012072D03*
G01X0024945Y0012072D03*
G01X0024748Y0012072D03*
G01X0024551Y0012072D03*
G01X0024354Y0012072D03*
G01X0024157Y0012072D03*
G01X0024157Y0008608D03*
G01X0024354Y0008608D03*
G01X0024551Y0008608D03*
G01X0024748Y0008608D03*
G01X0024945Y0008608D03*
G01X0025142Y0008608D03*
G01X0025338Y0008608D03*
G01X0025535Y0008608D03*
G01X0025732Y0008608D03*
G01X0025929Y0008608D03*
G01X0026126Y0008608D03*
G01X0026323Y0008608D03*
G01X0016302Y0011250D03*
G01X0016105Y0011250D03*
G01X0015909Y0011250D03*
G01X0015712Y0011250D03*
G01X0015515Y0011250D03*
G01X0015318Y0011250D03*
G01X0015121Y0011250D03*
G01X0014924Y0011250D03*
G01X0014727Y0011250D03*
G01X0014531Y0011250D03*
G01X0014334Y0011250D03*
G01X0014137Y0011250D03*
G01X0013940Y0011250D03*
G01X0013743Y0011250D03*
G01X0013546Y0011250D03*
G01X0013349Y0011250D03*
G01X0013153Y0011250D03*
G01X0012956Y0011250D03*
G01X0012759Y0011250D03*
G01X0012562Y0011250D03*
G01X0012365Y0011250D03*
G01X0012168Y0011250D03*
G01X0011971Y0011250D03*
G01X0011775Y0011250D03*
G01X0011578Y0011250D03*
G01X0011578Y0005030D03*
G01X0011775Y0005030D03*
G01X0011971Y0005030D03*
G01X0012168Y0005030D03*
G01X0012365Y0005030D03*
G01X0012562Y0005030D03*
G01X0012759Y0005030D03*
G01X0012956Y0005030D03*
G01X0013153Y0005030D03*
G01X0013349Y0005030D03*
G01X0013546Y0005030D03*
G01X0013743Y0005030D03*
G01X0013940Y0005030D03*
G01X0014137Y0005030D03*
G01X0014334Y0005030D03*
G01X0014531Y0005030D03*
G01X0014727Y0005030D03*
G01X0014924Y0005030D03*
G01X0015121Y0005030D03*
G01X0015318Y0005030D03*
G01X0015515Y0005030D03*
G01X0015712Y0005030D03*
G01X0015909Y0005030D03*
G01X0016105Y0005030D03*
G01X0016302Y0005030D03*
G54D15*
G01X0029533Y0004355D03*
G01X0029533Y0003725D03*
G01X0031147Y0003725D03*
G01X0031147Y0004355D03*
G01X0002447Y0009725D03*
G01X0002447Y0010355D03*
G01X0000833Y0010355D03*
G01X0000833Y0009725D03*
G01X0000833Y0011225D03*
G01X0000833Y0011855D03*
G01X0002447Y0011855D03*
G01X0002447Y0011225D03*
G54D16*
G01X0029089Y0008440D03*
G01X0030191Y0008440D03*
G54D17*
G01X0001940Y0002140D03*
G01X0001940Y0014140D03*
G01X0032940Y0014140D03*
G01X0032940Y0002140D03*
G54D18*
G01X0008123Y0010410D03*
G01X0005957Y0010410D03*
G01X0005957Y0011670D03*
G01X0008123Y0011670D03*
G54D19*
G01X0003840Y0006740D03*
G54D20*
G01X0003840Y0003640D03*
G01X0003840Y0009840D03*
G54D21*
G01X0014052Y0012572D02*
G01X0014070Y0012505D01*
G01X0014070Y0012505D02*
G01X0014099Y0012443D01*
G01X0014099Y0012443D02*
G01X0014138Y0012387D01*
G01X0014138Y0012387D02*
G01X0014187Y0012338D01*
G01X0014187Y0012338D02*
G01X0014243Y0012299D01*
G01X0014243Y0012299D02*
G01X0014305Y0012270D01*
G01X0014305Y0012270D02*
G01X0014372Y0012252D01*
G01X0014372Y0012252D02*
G01X0014440Y0012246D01*
G01X0014440Y0012246D02*
G01X0014508Y0012252D01*
G01X0014508Y0012252D02*
G01X0014575Y0012270D01*
G01X0014575Y0012270D02*
G01X0014637Y0012299D01*
G01X0014637Y0012299D02*
G01X0014693Y0012338D01*
G01X0014693Y0012338D02*
G01X0014742Y0012387D01*
G01X0014742Y0012387D02*
G01X0014781Y0012443D01*
G01X0014781Y0012443D02*
G01X0014810Y0012505D01*
G01X0014810Y0012505D02*
G01X0014828Y0012572D01*
G01X0014828Y0012572D02*
G01X0014834Y0012640D01*
G01X0014834Y0012640D02*
G01X0014828Y0012708D01*
G01X0014828Y0012708D02*
G01X0014810Y0012775D01*
G01X0014810Y0012775D02*
G01X0014781Y0012837D01*
G01X0014781Y0012837D02*
G01X0014742Y0012893D01*
G01X0014742Y0012893D02*
G01X0014693Y0012942D01*
G01X0014693Y0012942D02*
G01X0014637Y0012981D01*
G01X0014637Y0012981D02*
G01X0014575Y0013010D01*
G01X0014575Y0013010D02*
G01X0014508Y0013028D01*
G01X0014508Y0013028D02*
G01X0014440Y0013034D01*
G01X0014440Y0013034D02*
G01X0014372Y0013028D01*
G01X0014372Y0013028D02*
G01X0014305Y0013010D01*
G01X0014305Y0013010D02*
G01X0014243Y0012981D01*
G01X0014243Y0012981D02*
G01X0014187Y0012942D01*
G01X0014187Y0012942D02*
G01X0014138Y0012893D01*
G01X0014138Y0012893D02*
G01X0014099Y0012837D01*
G01X0014099Y0012837D02*
G01X0014070Y0012775D01*
G01X0014070Y0012775D02*
G01X0014052Y0012708D01*
G01X0014052Y0012708D02*
G01X0014046Y0012640D01*
G01X0014046Y0012640D02*
G01X0014052Y0012572D01*
G01X0014052Y0012571D02*
G01X0014828Y0012571D01*
G01X0014832Y0012620D02*
G01X0014048Y0012620D01*
G01X0014049Y0012668D02*
G01X0014831Y0012668D01*
G01X0014826Y0012717D02*
G01X0014054Y0012717D01*
G01X0014067Y0012765D02*
G01X0014813Y0012765D01*
G01X0014792Y0012814D02*
G01X0014088Y0012814D01*
G01X0014117Y0012862D02*
G01X0014763Y0012862D01*
G01X0014724Y0012911D02*
G01X0014156Y0012911D01*
G01X0014212Y0012959D02*
G01X0014668Y0012959D01*
G01X0014580Y0013008D02*
G01X0014300Y0013008D01*
G01X0014065Y0012523D02*
G01X0014815Y0012523D01*
G01X0014795Y0012474D02*
G01X0014085Y0012474D01*
G01X0014111Y0012426D02*
G01X0014769Y0012426D01*
G01X0014732Y0012377D02*
G01X0014148Y0012377D01*
G01X0014201Y0012329D02*
G01X0014679Y0012329D01*
G01X0014596Y0012280D02*
G01X0014284Y0012280D01*
G01X0030046Y0012640D02*
G01X0030052Y0012708D01*
G01X0030052Y0012708D02*
G01X0030070Y0012775D01*
G01X0030070Y0012775D02*
G01X0030099Y0012837D01*
G01X0030099Y0012837D02*
G01X0030138Y0012893D01*
G01X0030138Y0012893D02*
G01X0030187Y0012942D01*
G01X0030187Y0012942D02*
G01X0030243Y0012981D01*
G01X0030243Y0012981D02*
G01X0030305Y0013010D01*
G01X0030305Y0013010D02*
G01X0030372Y0013028D01*
G01X0030372Y0013028D02*
G01X0030440Y0013034D01*
G01X0030440Y0013034D02*
G01X0030508Y0013028D01*
G01X0030508Y0013028D02*
G01X0030575Y0013010D01*
G01X0030575Y0013010D02*
G01X0030637Y0012981D01*
G01X0030637Y0012981D02*
G01X0030693Y0012942D01*
G01X0030693Y0012942D02*
G01X0030742Y0012893D01*
G01X0030742Y0012893D02*
G01X0030781Y0012837D01*
G01X0030781Y0012837D02*
G01X0030810Y0012775D01*
G01X0030810Y0012775D02*
G01X0030828Y0012708D01*
G01X0030828Y0012708D02*
G01X0030834Y0012640D01*
G01X0030834Y0012640D02*
G01X0030828Y0012572D01*
G01X0030828Y0012572D02*
G01X0030810Y0012505D01*
G01X0030810Y0012505D02*
G01X0030781Y0012443D01*
G01X0030781Y0012443D02*
G01X0030742Y0012387D01*
G01X0030742Y0012387D02*
G01X0030693Y0012338D01*
G01X0030693Y0012338D02*
G01X0030637Y0012299D01*
G01X0030637Y0012299D02*
G01X0030575Y0012270D01*
G01X0030575Y0012270D02*
G01X0030508Y0012252D01*
G01X0030508Y0012252D02*
G01X0030440Y0012246D01*
G01X0030440Y0012246D02*
G01X0030372Y0012252D01*
G01X0030372Y0012252D02*
G01X0030305Y0012270D01*
G01X0030305Y0012270D02*
G01X0030243Y0012299D01*
G01X0030243Y0012299D02*
G01X0030187Y0012338D01*
G01X0030187Y0012338D02*
G01X0030138Y0012387D01*
G01X0030138Y0012387D02*
G01X0030099Y0012443D01*
G01X0030099Y0012443D02*
G01X0030070Y0012505D01*
G01X0030070Y0012505D02*
G01X0030052Y0012572D01*
G01X0030052Y0012572D02*
G01X0030046Y0012640D01*
G01X0030048Y0012620D02*
G01X0030832Y0012620D01*
G01X0030831Y0012668D02*
G01X0030049Y0012668D01*
G01X0030054Y0012717D02*
G01X0030826Y0012717D01*
G01X0030813Y0012765D02*
G01X0030067Y0012765D01*
G01X0030088Y0012814D02*
G01X0030792Y0012814D01*
G01X0030763Y0012862D02*
G01X0030117Y0012862D01*
G01X0030156Y0012911D02*
G01X0030724Y0012911D01*
G01X0030668Y0012959D02*
G01X0030212Y0012959D01*
G01X0030300Y0013008D02*
G01X0030580Y0013008D01*
G01X0030828Y0012571D02*
G01X0030052Y0012571D01*
G01X0030065Y0012523D02*
G01X0030815Y0012523D01*
G01X0030795Y0012474D02*
G01X0030085Y0012474D01*
G01X0030111Y0012426D02*
G01X0030769Y0012426D01*
G01X0030732Y0012377D02*
G01X0030148Y0012377D01*
G01X0030201Y0012329D02*
G01X0030679Y0012329D01*
G01X0030596Y0012280D02*
G01X0030284Y0012280D01*
G01X0005810Y0003775D02*
G01X0005828Y0003708D01*
G01X0005828Y0003708D02*
G01X0005834Y0003640D01*
G01X0005834Y0003640D02*
G01X0005828Y0003572D01*
G01X0005828Y0003572D02*
G01X0005810Y0003505D01*
G01X0005810Y0003505D02*
G01X0005781Y0003443D01*
G01X0005781Y0003443D02*
G01X0005742Y0003387D01*
G01X0005742Y0003387D02*
G01X0005693Y0003338D01*
G01X0005693Y0003338D02*
G01X0005637Y0003299D01*
G01X0005637Y0003299D02*
G01X0005575Y0003270D01*
G01X0005575Y0003270D02*
G01X0005508Y0003252D01*
G01X0005508Y0003252D02*
G01X0005440Y0003246D01*
G01X0005440Y0003246D02*
G01X0005372Y0003252D01*
G01X0005372Y0003252D02*
G01X0005305Y0003270D01*
G01X0005305Y0003270D02*
G01X0005243Y0003299D01*
G01X0005243Y0003299D02*
G01X0005187Y0003338D01*
G01X0005187Y0003338D02*
G01X0005138Y0003387D01*
G01X0005138Y0003387D02*
G01X0005099Y0003443D01*
G01X0005099Y0003443D02*
G01X0005070Y0003505D01*
G01X0005070Y0003505D02*
G01X0005052Y0003572D01*
G01X0005052Y0003572D02*
G01X0005046Y0003640D01*
G01X0005046Y0003640D02*
G01X0005052Y0003708D01*
G01X0005052Y0003708D02*
G01X0005070Y0003775D01*
G01X0005070Y0003775D02*
G01X0005099Y0003837D01*
G01X0005099Y0003837D02*
G01X0005138Y0003893D01*
G01X0005138Y0003893D02*
G01X0005187Y0003942D01*
G01X0005187Y0003942D02*
G01X0005243Y0003981D01*
G01X0005243Y0003981D02*
G01X0005305Y0004010D01*
G01X0005305Y0004010D02*
G01X0005372Y0004028D01*
G01X0005372Y0004028D02*
G01X0005440Y0004034D01*
G01X0005440Y0004034D02*
G01X0005508Y0004028D01*
G01X0005508Y0004028D02*
G01X0005575Y0004010D01*
G01X0005575Y0004010D02*
G01X0005637Y0003981D01*
G01X0005637Y0003981D02*
G01X0005693Y0003942D01*
G01X0005693Y0003942D02*
G01X0005742Y0003893D01*
G01X0005742Y0003893D02*
G01X0005781Y0003837D01*
G01X0005781Y0003837D02*
G01X0005810Y0003775D01*
G01X0005802Y0003793D02*
G01X0005078Y0003793D01*
G01X0005062Y0003744D02*
G01X0005818Y0003744D01*
G01X0005829Y0003696D02*
G01X0005051Y0003696D01*
G01X0005047Y0003647D02*
G01X0005833Y0003647D01*
G01X0005830Y0003599D02*
G01X0005050Y0003599D01*
G01X0005058Y0003550D02*
G01X0005822Y0003550D01*
G01X0005808Y0003502D02*
G01X0005072Y0003502D01*
G01X0005094Y0003453D02*
G01X0005786Y0003453D01*
G01X0005754Y0003405D02*
G01X0005126Y0003405D01*
G01X0005169Y0003356D02*
G01X0005711Y0003356D01*
G01X0005649Y0003308D02*
G01X0005231Y0003308D01*
G01X0005347Y0003259D02*
G01X0005533Y0003259D01*
G01X0005778Y0003841D02*
G01X0005102Y0003841D01*
G01X0005136Y0003890D02*
G01X0005744Y0003890D01*
G01X0005697Y0003938D02*
G01X0005183Y0003938D01*
G01X0005255Y0003987D02*
G01X0005625Y0003987D01*
G54D22*
G01X0019325Y0004533D03*
G01X0019955Y0004533D03*
G01X0019955Y0006147D03*
G01X0019325Y0006147D03*
G54D23*
G01X0020940Y0005929D03*
G01X0020940Y0004751D03*
G54D24*
G01X0026914Y0005166D03*
G01X0027977Y0005166D03*
G01X0027977Y0005540D03*
G01X0027977Y0005914D03*
G01X0026914Y0005914D03*
G54D25*
G01X0029165Y0007440D03*
G01X0030115Y0007440D03*
G01X0027921Y0003440D03*
G01X0026971Y0003440D03*
G54D26*
G01X0021440Y0009712D03*
G01X0021440Y0011168D03*
G01X0008440Y0007368D03*
G01X0008440Y0005912D03*
G54D27*
G01X0024968Y0006815D03*
G01X0025283Y0006815D03*
G01X0025597Y0006815D03*
G01X0025912Y0006815D03*
G01X0025912Y0007465D03*
G01X0025597Y0007465D03*
G01X0025283Y0007465D03*
G01X0024968Y0007465D03*
G54D28*
G01X0025115Y0005871D03*
G01X0025765Y0005871D03*
G01X0025765Y0004809D03*
G01X0025115Y0004809D03*
G54D29*
G01X0029113Y0011081D03*
G01X0029763Y0011081D03*
G01X0029763Y0011396D03*
G01X0029113Y0011396D03*
G54D30*
G01X0032551Y0011295D03*
G01X0032551Y0009563D03*
G54D31*
G01X0031566Y0008657D03*
G01X0033732Y0008657D03*
G01X0033732Y0012200D03*
G01X0031566Y0012161D03*
G54D32*
G01X0031566Y0011059D03*
G01X0031566Y0010744D03*
G01X0031566Y0010429D03*
G01X0031566Y0010114D03*
G01X0031566Y0009799D03*
G54D33*
G01X0023890Y0006852D03*
G01X0023390Y0006852D03*
G01X0022890Y0006852D03*
G01X0022390Y0006852D03*
G01X0022390Y0003828D03*
G01X0022890Y0003828D03*
G01X0023390Y0003828D03*
G01X0023890Y0003828D03*
G54D34*
G01X0028803Y0003710D03*
M02*
