G04 This is an RS-274x file exported by *
G04 gerbv version 2.6.0 *
G04 More information is available about gerbv at *
G04 http://gerbv.gpleda.org/ *
G04 --End of header info--*
%MOIN*%
%FSLAX34Y34*%
%IPPOS*%
G04 --Define apertures--*
%ADD10R,0.0472X0.0315*%
%ADD11R,0.0315X0.0472*%
%ADD12R,0.0591X0.0098*%
%ADD13R,0.0098X0.0591*%
%ADD14R,0.0354X0.0394*%
%ADD15R,0.0394X0.0709*%
%ADD16R,0.0512X0.0748*%
%ADD17R,0.1560X0.1560*%
%ADD18R,0.1250X0.1250*%
%ADD19R,0.0394X0.0354*%
%ADD20R,0.0591X0.0591*%
%ADD21R,0.0394X0.0217*%
%ADD22R,0.0350X0.0300*%
%ADD23R,0.0945X0.0669*%
%ADD24R,0.0197X0.0315*%
%ADD25R,0.0413X0.0669*%
%ADD26R,0.0315X0.0197*%
%ADD27R,0.0984X0.0787*%
%ADD28R,0.0984X0.0197*%
%ADD29R,0.0300X0.0630*%
G04 --Start main section--*
G54D10*
G01X0010761Y0004168D03*
G01X0010761Y0004876D03*
G01X0007240Y0005536D03*
G01X0007240Y0006244D03*
G01X0007240Y0007046D03*
G01X0007240Y0007754D03*
G01X0010740Y0011386D03*
G01X0010740Y0012094D03*
G01X0004590Y0012194D03*
G01X0003630Y0012194D03*
G01X0003630Y0011486D03*
G01X0004590Y0011486D03*
G01X0017140Y0011386D03*
G01X0018090Y0011386D03*
G01X0018090Y0012094D03*
G01X0017140Y0012094D03*
G01X0020240Y0011554D03*
G01X0020240Y0010846D03*
G01X0020240Y0010054D03*
G01X0020240Y0009346D03*
G54D11*
G01X0022686Y0008540D03*
G01X0023394Y0008540D03*
G01X0021394Y0007040D03*
G01X0020686Y0007040D03*
G01X0019994Y0007040D03*
G01X0019286Y0007040D03*
G01X0017894Y0004940D03*
G01X0017186Y0004940D03*
G01X0017186Y0004040D03*
G01X0017894Y0004040D03*
G01X0013994Y0003740D03*
G01X0013286Y0003740D03*
G01X0008794Y0003740D03*
G01X0008086Y0003740D03*
G01X0007294Y0003740D03*
G01X0006586Y0003740D03*
G01X0006586Y0004640D03*
G01X0007294Y0004640D03*
G01X0008086Y0004640D03*
G01X0008794Y0004640D03*
G01X0008794Y0008440D03*
G01X0008086Y0008440D03*
G01X0008086Y0009340D03*
G01X0008794Y0009340D03*
G01X0007394Y0009640D03*
G01X0006686Y0009640D03*
G01X0006706Y0012470D03*
G01X0007414Y0012470D03*
G01X0022586Y0012140D03*
G01X0023294Y0012140D03*
G01X0027086Y0012140D03*
G01X0027794Y0012140D03*
G01X0029086Y0012140D03*
G01X0029794Y0012140D03*
G01X0029794Y0010340D03*
G01X0029086Y0010340D03*
G01X0029086Y0009440D03*
G01X0029794Y0009440D03*
G01X0027794Y0008540D03*
G01X0027086Y0008540D03*
G01X0027091Y0007640D03*
G01X0027800Y0007640D03*
G01X0027800Y0006740D03*
G01X0027091Y0006740D03*
G01X0027091Y0004340D03*
G01X0027800Y0004340D03*
G54D12*
G01X0026972Y0009257D03*
G01X0026972Y0009454D03*
G01X0026972Y0009651D03*
G01X0026972Y0009848D03*
G01X0026972Y0010045D03*
G01X0026972Y0010242D03*
G01X0026972Y0010438D03*
G01X0026972Y0010635D03*
G01X0026972Y0010832D03*
G01X0026972Y0011029D03*
G01X0026972Y0011226D03*
G01X0026972Y0011423D03*
G01X0023508Y0011423D03*
G01X0023508Y0011226D03*
G01X0023508Y0011029D03*
G01X0023508Y0010832D03*
G01X0023508Y0010635D03*
G01X0023508Y0010438D03*
G01X0023508Y0010242D03*
G01X0023508Y0010045D03*
G01X0023508Y0009848D03*
G01X0023508Y0009651D03*
G01X0023508Y0009454D03*
G01X0023508Y0009257D03*
G01X0017050Y0009321D03*
G01X0017050Y0009124D03*
G01X0017050Y0008927D03*
G01X0017050Y0008731D03*
G01X0017050Y0008534D03*
G01X0017050Y0008337D03*
G01X0017050Y0008140D03*
G01X0017050Y0007943D03*
G01X0017050Y0007746D03*
G01X0017050Y0007549D03*
G01X0017050Y0007353D03*
G01X0017050Y0007156D03*
G01X0017050Y0006959D03*
G01X0017050Y0006762D03*
G01X0017050Y0006565D03*
G01X0017050Y0006368D03*
G01X0017050Y0006171D03*
G01X0017050Y0005975D03*
G01X0017050Y0005778D03*
G01X0010830Y0005778D03*
G01X0010830Y0005975D03*
G01X0010830Y0006171D03*
G01X0010830Y0006368D03*
G01X0010830Y0006565D03*
G01X0010830Y0006762D03*
G01X0010830Y0006959D03*
G01X0010830Y0007156D03*
G01X0010830Y0007353D03*
G01X0010830Y0007549D03*
G01X0010830Y0007746D03*
G01X0010830Y0007943D03*
G01X0010830Y0008140D03*
G01X0010830Y0008337D03*
G01X0010830Y0008534D03*
G01X0010830Y0008731D03*
G01X0010830Y0008927D03*
G01X0010830Y0009124D03*
G01X0010830Y0009321D03*
G01X0010830Y0009518D03*
G01X0010830Y0009715D03*
G01X0010830Y0009912D03*
G01X0010830Y0010109D03*
G01X0010830Y0010305D03*
G01X0010830Y0010502D03*
G01X0017050Y0010502D03*
G01X0017050Y0010305D03*
G01X0017050Y0010109D03*
G01X0017050Y0009912D03*
G01X0017050Y0009715D03*
G01X0017050Y0009518D03*
G54D13*
G01X0016302Y0011250D03*
G01X0016105Y0011250D03*
G01X0015909Y0011250D03*
G01X0015712Y0011250D03*
G01X0015515Y0011250D03*
G01X0015318Y0011250D03*
G01X0015121Y0011250D03*
G01X0014924Y0011250D03*
G01X0014727Y0011250D03*
G01X0014531Y0011250D03*
G01X0014334Y0011250D03*
G01X0014137Y0011250D03*
G01X0013940Y0011250D03*
G01X0013743Y0011250D03*
G01X0013546Y0011250D03*
G01X0013349Y0011250D03*
G01X0013153Y0011250D03*
G01X0012956Y0011250D03*
G01X0012759Y0011250D03*
G01X0012562Y0011250D03*
G01X0012365Y0011250D03*
G01X0012168Y0011250D03*
G01X0011971Y0011250D03*
G01X0011775Y0011250D03*
G01X0011578Y0011250D03*
G01X0024157Y0012072D03*
G01X0024354Y0012072D03*
G01X0024551Y0012072D03*
G01X0024748Y0012072D03*
G01X0024945Y0012072D03*
G01X0025142Y0012072D03*
G01X0025338Y0012072D03*
G01X0025535Y0012072D03*
G01X0025732Y0012072D03*
G01X0025929Y0012072D03*
G01X0026126Y0012072D03*
G01X0026323Y0012072D03*
G01X0026323Y0008608D03*
G01X0026126Y0008608D03*
G01X0025929Y0008608D03*
G01X0025732Y0008608D03*
G01X0025535Y0008608D03*
G01X0025338Y0008608D03*
G01X0025142Y0008608D03*
G01X0024945Y0008608D03*
G01X0024748Y0008608D03*
G01X0024551Y0008608D03*
G01X0024354Y0008608D03*
G01X0024157Y0008608D03*
G01X0016302Y0005030D03*
G01X0016105Y0005030D03*
G01X0015909Y0005030D03*
G01X0015712Y0005030D03*
G01X0015515Y0005030D03*
G01X0015318Y0005030D03*
G01X0015121Y0005030D03*
G01X0014924Y0005030D03*
G01X0014727Y0005030D03*
G01X0014531Y0005030D03*
G01X0014334Y0005030D03*
G01X0014137Y0005030D03*
G01X0013940Y0005030D03*
G01X0013743Y0005030D03*
G01X0013546Y0005030D03*
G01X0013349Y0005030D03*
G01X0013153Y0005030D03*
G01X0012956Y0005030D03*
G01X0012759Y0005030D03*
G01X0012562Y0005030D03*
G01X0012365Y0005030D03*
G01X0012168Y0005030D03*
G01X0011971Y0005030D03*
G01X0011775Y0005030D03*
G01X0011578Y0005030D03*
G54D14*
G01X0002447Y0009725D03*
G01X0002447Y0010355D03*
G01X0000833Y0010355D03*
G01X0000833Y0009725D03*
G01X0000833Y0011225D03*
G01X0000833Y0011855D03*
G01X0002447Y0011855D03*
G01X0002447Y0011225D03*
G01X0029533Y0004355D03*
G01X0029533Y0003725D03*
G01X0031147Y0003725D03*
G01X0031147Y0004355D03*
G54D15*
G01X0030191Y0008440D03*
G01X0029089Y0008440D03*
G54D16*
G01X0008123Y0010410D03*
G01X0005957Y0010410D03*
G01X0005957Y0011670D03*
G01X0008123Y0011670D03*
G54D17*
G01X0003840Y0006740D03*
G54D18*
G01X0003840Y0003640D03*
G01X0003840Y0009840D03*
G54D19*
G01X0019325Y0006147D03*
G01X0019955Y0006147D03*
G01X0019955Y0004533D03*
G01X0019325Y0004533D03*
G54D20*
G01X0020940Y0004751D03*
G01X0020940Y0005929D03*
G54D21*
G01X0026914Y0005914D03*
G01X0027977Y0005914D03*
G01X0027977Y0005540D03*
G01X0027977Y0005166D03*
G01X0026914Y0005166D03*
G54D22*
G01X0026971Y0003440D03*
G01X0027921Y0003440D03*
G01X0029165Y0007440D03*
G01X0030115Y0007440D03*
G54D23*
G01X0021440Y0009712D03*
G01X0021440Y0011168D03*
G01X0008440Y0007368D03*
G01X0008440Y0005912D03*
G54D24*
G01X0024968Y0006815D03*
G01X0025283Y0006815D03*
G01X0025597Y0006815D03*
G01X0025912Y0006815D03*
G01X0025912Y0007465D03*
G01X0025597Y0007465D03*
G01X0025283Y0007465D03*
G01X0024968Y0007465D03*
G54D25*
G01X0025115Y0005871D03*
G01X0025765Y0005871D03*
G01X0025765Y0004809D03*
G01X0025115Y0004809D03*
G54D26*
G01X0029113Y0011081D03*
G01X0029763Y0011081D03*
G01X0029763Y0011396D03*
G01X0029113Y0011396D03*
G54D27*
G01X0031566Y0012161D03*
G01X0033732Y0012200D03*
G01X0033732Y0008657D03*
G01X0031566Y0008657D03*
G54D28*
G01X0031566Y0009799D03*
G01X0031566Y0010114D03*
G01X0031566Y0010429D03*
G01X0031566Y0010744D03*
G01X0031566Y0011059D03*
G54D29*
G01X0023890Y0006852D03*
G01X0023390Y0006852D03*
G01X0022890Y0006852D03*
G01X0022390Y0006852D03*
G01X0022390Y0003828D03*
G01X0022890Y0003828D03*
G01X0023390Y0003828D03*
G01X0023890Y0003828D03*
M02*
