G04 This is an RS-274x file exported by *
G04 gerbv version 2.6.0 *
G04 More information is available about gerbv at *
G04 http://gerbv.gpleda.org/ *
G04 --End of header info--*
%MOIN*%
%FSLAX34Y34*%
%IPPOS*%
G04 --Define apertures--*
%ADD10C,0.0050*%
%ADD11C,0.0030*%
%ADD12C,0.0040*%
%ADD13C,0.0020*%
%ADD14C,0.0080*%
%ADD15C,0.0060*%
%ADD16C,0.0079*%
%ADD17C,0.0000*%
%ADD18C,0.0200*%
%ADD19C,0.0100*%
G04 --Start main section--*
G54D10*
G01X0001440Y0000640D02*
G01X0033440Y0000640D01*
G01X0033440Y0000640D02*
G01X0033500Y0000642D01*
G01X0033500Y0000642D02*
G01X0033561Y0000647D01*
G01X0033561Y0000647D02*
G01X0033620Y0000656D01*
G01X0033620Y0000656D02*
G01X0033679Y0000669D01*
G01X0033679Y0000669D02*
G01X0033738Y0000685D01*
G01X0033738Y0000685D02*
G01X0033795Y0000705D01*
G01X0033795Y0000705D02*
G01X0033850Y0000728D01*
G01X0033850Y0000728D02*
G01X0033905Y0000755D01*
G01X0033905Y0000755D02*
G01X0033957Y0000784D01*
G01X0033957Y0000784D02*
G01X0034008Y0000817D01*
G01X0034008Y0000817D02*
G01X0034057Y0000853D01*
G01X0034057Y0000853D02*
G01X0034103Y0000891D01*
G01X0034103Y0000891D02*
G01X0034147Y0000933D01*
G01X0034147Y0000933D02*
G01X0034189Y0000977D01*
G01X0034189Y0000977D02*
G01X0034227Y0001023D01*
G01X0034227Y0001023D02*
G01X0034263Y0001072D01*
G01X0034263Y0001072D02*
G01X0034296Y0001123D01*
G01X0034296Y0001123D02*
G01X0034325Y0001175D01*
G01X0034325Y0001175D02*
G01X0034352Y0001230D01*
G01X0034352Y0001230D02*
G01X0034375Y0001285D01*
G01X0034375Y0001285D02*
G01X0034395Y0001342D01*
G01X0034395Y0001342D02*
G01X0034411Y0001401D01*
G01X0034411Y0001401D02*
G01X0034424Y0001460D01*
G01X0034424Y0001460D02*
G01X0034433Y0001519D01*
G01X0034433Y0001519D02*
G01X0034438Y0001580D01*
G01X0034438Y0001580D02*
G01X0034440Y0001640D01*
G01X0034440Y0001640D02*
G01X0034440Y0014640D01*
G01X0034440Y0014640D02*
G01X0034438Y0014700D01*
G01X0034438Y0014700D02*
G01X0034433Y0014761D01*
G01X0034433Y0014761D02*
G01X0034424Y0014820D01*
G01X0034424Y0014820D02*
G01X0034411Y0014879D01*
G01X0034411Y0014879D02*
G01X0034395Y0014938D01*
G01X0034395Y0014938D02*
G01X0034375Y0014995D01*
G01X0034375Y0014995D02*
G01X0034352Y0015050D01*
G01X0034352Y0015050D02*
G01X0034325Y0015105D01*
G01X0034325Y0015105D02*
G01X0034296Y0015157D01*
G01X0034296Y0015157D02*
G01X0034263Y0015208D01*
G01X0034263Y0015208D02*
G01X0034227Y0015257D01*
G01X0034227Y0015257D02*
G01X0034189Y0015303D01*
G01X0034189Y0015303D02*
G01X0034147Y0015347D01*
G01X0034147Y0015347D02*
G01X0034103Y0015389D01*
G01X0034103Y0015389D02*
G01X0034057Y0015427D01*
G01X0034057Y0015427D02*
G01X0034008Y0015463D01*
G01X0034008Y0015463D02*
G01X0033957Y0015496D01*
G01X0033957Y0015496D02*
G01X0033905Y0015525D01*
G01X0033905Y0015525D02*
G01X0033850Y0015552D01*
G01X0033850Y0015552D02*
G01X0033795Y0015575D01*
G01X0033795Y0015575D02*
G01X0033738Y0015595D01*
G01X0033738Y0015595D02*
G01X0033679Y0015611D01*
G01X0033679Y0015611D02*
G01X0033620Y0015624D01*
G01X0033620Y0015624D02*
G01X0033561Y0015633D01*
G01X0033561Y0015633D02*
G01X0033500Y0015638D01*
G01X0033500Y0015638D02*
G01X0033440Y0015640D01*
G01X0033440Y0015640D02*
G01X0001440Y0015640D01*
G01X0001440Y0015640D02*
G01X0001380Y0015638D01*
G01X0001380Y0015638D02*
G01X0001319Y0015633D01*
G01X0001319Y0015633D02*
G01X0001260Y0015624D01*
G01X0001260Y0015624D02*
G01X0001201Y0015611D01*
G01X0001201Y0015611D02*
G01X0001142Y0015595D01*
G01X0001142Y0015595D02*
G01X0001085Y0015575D01*
G01X0001085Y0015575D02*
G01X0001030Y0015552D01*
G01X0001030Y0015552D02*
G01X0000975Y0015525D01*
G01X0000975Y0015525D02*
G01X0000923Y0015496D01*
G01X0000923Y0015496D02*
G01X0000872Y0015463D01*
G01X0000872Y0015463D02*
G01X0000823Y0015427D01*
G01X0000823Y0015427D02*
G01X0000777Y0015389D01*
G01X0000777Y0015389D02*
G01X0000733Y0015347D01*
G01X0000733Y0015347D02*
G01X0000691Y0015303D01*
G01X0000691Y0015303D02*
G01X0000653Y0015257D01*
G01X0000653Y0015257D02*
G01X0000617Y0015208D01*
G01X0000617Y0015208D02*
G01X0000584Y0015157D01*
G01X0000584Y0015157D02*
G01X0000555Y0015105D01*
G01X0000555Y0015105D02*
G01X0000528Y0015050D01*
G01X0000528Y0015050D02*
G01X0000505Y0014995D01*
G01X0000505Y0014995D02*
G01X0000485Y0014938D01*
G01X0000485Y0014938D02*
G01X0000469Y0014879D01*
G01X0000469Y0014879D02*
G01X0000456Y0014820D01*
G01X0000456Y0014820D02*
G01X0000447Y0014761D01*
G01X0000447Y0014761D02*
G01X0000442Y0014700D01*
G01X0000442Y0014700D02*
G01X0000440Y0014640D01*
G01X0000440Y0014640D02*
G01X0000440Y0001640D01*
G01X0000440Y0001640D02*
G01X0000442Y0001580D01*
G01X0000442Y0001580D02*
G01X0000447Y0001519D01*
G01X0000447Y0001519D02*
G01X0000456Y0001460D01*
G01X0000456Y0001460D02*
G01X0000469Y0001401D01*
G01X0000469Y0001401D02*
G01X0000485Y0001342D01*
G01X0000485Y0001342D02*
G01X0000505Y0001285D01*
G01X0000505Y0001285D02*
G01X0000528Y0001230D01*
G01X0000528Y0001230D02*
G01X0000555Y0001175D01*
G01X0000555Y0001175D02*
G01X0000584Y0001123D01*
G01X0000584Y0001123D02*
G01X0000617Y0001072D01*
G01X0000617Y0001072D02*
G01X0000653Y0001023D01*
G01X0000653Y0001023D02*
G01X0000691Y0000977D01*
G01X0000691Y0000977D02*
G01X0000733Y0000933D01*
G01X0000733Y0000933D02*
G01X0000777Y0000891D01*
G01X0000777Y0000891D02*
G01X0000823Y0000853D01*
G01X0000823Y0000853D02*
G01X0000872Y0000817D01*
G01X0000872Y0000817D02*
G01X0000923Y0000784D01*
G01X0000923Y0000784D02*
G01X0000975Y0000755D01*
G01X0000975Y0000755D02*
G01X0001030Y0000728D01*
G01X0001030Y0000728D02*
G01X0001085Y0000705D01*
G01X0001085Y0000705D02*
G01X0001142Y0000685D01*
G01X0001142Y0000685D02*
G01X0001201Y0000669D01*
G01X0001201Y0000669D02*
G01X0001260Y0000656D01*
G01X0001260Y0000656D02*
G01X0001319Y0000647D01*
G01X0001319Y0000647D02*
G01X0001380Y0000642D01*
G01X0001380Y0000642D02*
G01X0001440Y0000640D01*
G01X0006309Y0002769D02*
G01X0006309Y0003136D01*
G01X0006309Y0003136D02*
G01X0006492Y0003319D01*
G01X0006492Y0003319D02*
G01X0006676Y0003136D01*
G01X0006676Y0003136D02*
G01X0006676Y0002769D01*
G01X0006861Y0002769D02*
G01X0006861Y0003319D01*
G01X0006861Y0003319D02*
G01X0007137Y0003319D01*
G01X0007137Y0003319D02*
G01X0007228Y0003228D01*
G01X0007228Y0003228D02*
G01X0007228Y0003044D01*
G01X0007228Y0003044D02*
G01X0007137Y0002952D01*
G01X0007137Y0002952D02*
G01X0006861Y0002952D01*
G01X0007045Y0002952D02*
G01X0007228Y0002769D01*
G01X0007414Y0002769D02*
G01X0007414Y0003319D01*
G01X0007414Y0003319D02*
G01X0007597Y0003136D01*
G01X0007597Y0003136D02*
G01X0007781Y0003319D01*
G01X0007781Y0003319D02*
G01X0007781Y0002769D01*
G01X0007966Y0002769D02*
G01X0008241Y0002769D01*
G01X0008241Y0002769D02*
G01X0008333Y0002861D01*
G01X0008333Y0002861D02*
G01X0008241Y0002952D01*
G01X0008241Y0002952D02*
G01X0008058Y0002952D01*
G01X0008058Y0002952D02*
G01X0007966Y0003044D01*
G01X0007966Y0003044D02*
G01X0008058Y0003136D01*
G01X0008058Y0003136D02*
G01X0008333Y0003136D01*
G01X0008519Y0003136D02*
G01X0008702Y0003136D01*
G01X0008610Y0003228D02*
G01X0008610Y0002861D01*
G01X0008610Y0002861D02*
G01X0008702Y0002769D01*
G01X0008887Y0002769D02*
G01X0008887Y0003136D01*
G01X0009071Y0003136D02*
G01X0009162Y0003136D01*
G01X0009071Y0003136D02*
G01X0008887Y0002952D01*
G01X0009347Y0002861D02*
G01X0009439Y0002952D01*
G01X0009439Y0002952D02*
G01X0009714Y0002952D01*
G01X0009714Y0003044D02*
G01X0009714Y0002769D01*
G01X0009714Y0002769D02*
G01X0009439Y0002769D01*
G01X0009439Y0002769D02*
G01X0009347Y0002861D01*
G01X0009623Y0003136D02*
G01X0009714Y0003044D01*
G01X0009623Y0003136D02*
G01X0009439Y0003136D01*
G01X0009900Y0003136D02*
G01X0010175Y0003136D01*
G01X0010175Y0003136D02*
G01X0010267Y0003044D01*
G01X0010267Y0003044D02*
G01X0010267Y0002861D01*
G01X0010267Y0002861D02*
G01X0010175Y0002769D01*
G01X0010175Y0002769D02*
G01X0009900Y0002769D01*
G01X0009900Y0002585D02*
G01X0009900Y0003136D01*
G01X0010378Y0003553D02*
G01X0010437Y0003495D01*
G01X0010437Y0003495D02*
G01X0010553Y0003495D01*
G01X0010553Y0003495D02*
G01X0010612Y0003553D01*
G01X0010747Y0003670D02*
G01X0010980Y0003670D01*
G01X0010922Y0003495D02*
G01X0010922Y0003845D01*
G01X0010922Y0003845D02*
G01X0010747Y0003670D01*
G01X0010612Y0003786D02*
G01X0010553Y0003845D01*
G01X0010553Y0003845D02*
G01X0010437Y0003845D01*
G01X0010437Y0003845D02*
G01X0010378Y0003786D01*
G01X0010378Y0003786D02*
G01X0010378Y0003553D01*
G01X0011005Y0003319D02*
G01X0011005Y0002769D01*
G01X0011005Y0002769D02*
G01X0011372Y0002769D01*
G01X0011557Y0002769D02*
G01X0011557Y0003136D01*
G01X0011557Y0003136D02*
G01X0011741Y0003319D01*
G01X0011741Y0003319D02*
G01X0011924Y0003136D01*
G01X0011924Y0003136D02*
G01X0011924Y0002769D01*
G01X0012110Y0002861D02*
G01X0012202Y0002769D01*
G01X0012202Y0002769D02*
G01X0012385Y0002769D01*
G01X0012385Y0002769D02*
G01X0012477Y0002861D01*
G01X0012477Y0002861D02*
G01X0012477Y0003044D01*
G01X0012477Y0003044D02*
G01X0012293Y0003044D01*
G01X0012110Y0002861D02*
G01X0012110Y0003228D01*
G01X0012110Y0003228D02*
G01X0012202Y0003319D01*
G01X0012202Y0003319D02*
G01X0012385Y0003319D01*
G01X0012385Y0003319D02*
G01X0012477Y0003228D01*
G01X0012662Y0003319D02*
G01X0012662Y0002769D01*
G01X0012662Y0002769D02*
G01X0013029Y0002769D01*
G01X0013215Y0002769D02*
G01X0013582Y0002769D01*
G01X0013398Y0003044D02*
G01X0013215Y0003044D01*
G01X0013215Y0003319D02*
G01X0013215Y0002769D01*
G01X0013215Y0003319D02*
G01X0013582Y0003319D01*
G01X0014382Y0003560D02*
G01X0014382Y0003911D01*
G01X0014382Y0003911D02*
G01X0014557Y0003911D01*
G01X0014557Y0003911D02*
G01X0014615Y0003852D01*
G01X0014615Y0003852D02*
G01X0014615Y0003735D01*
G01X0014615Y0003735D02*
G01X0014557Y0003677D01*
G01X0014557Y0003677D02*
G01X0014382Y0003677D01*
G01X0014499Y0003677D02*
G01X0014615Y0003560D01*
G01X0014750Y0003560D02*
G01X0014984Y0003560D01*
G01X0014867Y0003560D02*
G01X0014867Y0003911D01*
G01X0014867Y0003911D02*
G01X0014750Y0003794D01*
G01X0014337Y0004364D02*
G01X0014337Y0004634D01*
G01X0013353Y0004634D02*
G01X0013353Y0004364D01*
G01X0012369Y0004364D02*
G01X0012369Y0004634D01*
G01X0011581Y0004634D02*
G01X0011581Y0004364D01*
G01X0011372Y0003319D02*
G01X0011005Y0003319D01*
G01X0011005Y0003044D02*
G01X0011188Y0003044D01*
G01X0011557Y0003044D02*
G01X0011924Y0003044D01*
G01X0015322Y0004364D02*
G01X0015322Y0004634D01*
G01X0016306Y0004634D02*
G01X0016306Y0004364D01*
G01X0018271Y0004151D02*
G01X0018271Y0003917D01*
G01X0018271Y0003917D02*
G01X0018329Y0003859D01*
G01X0018329Y0003859D02*
G01X0018446Y0003859D01*
G01X0018446Y0003859D02*
G01X0018504Y0003917D01*
G01X0018639Y0003917D02*
G01X0018697Y0003859D01*
G01X0018697Y0003859D02*
G01X0018814Y0003859D01*
G01X0018814Y0003859D02*
G01X0018872Y0003917D01*
G01X0018872Y0003917D02*
G01X0018872Y0003976D01*
G01X0018872Y0003976D02*
G01X0018814Y0004034D01*
G01X0018814Y0004034D02*
G01X0018697Y0004034D01*
G01X0018697Y0004034D02*
G01X0018639Y0004092D01*
G01X0018639Y0004092D02*
G01X0018639Y0004151D01*
G01X0018639Y0004151D02*
G01X0018697Y0004209D01*
G01X0018697Y0004209D02*
G01X0018814Y0004209D01*
G01X0018814Y0004209D02*
G01X0018872Y0004151D01*
G01X0018872Y0004151D02*
G01X0018872Y0004092D01*
G01X0018872Y0004092D02*
G01X0018814Y0004034D01*
G01X0018697Y0004034D02*
G01X0018639Y0003976D01*
G01X0018639Y0003976D02*
G01X0018639Y0003917D01*
G01X0018504Y0004151D02*
G01X0018446Y0004209D01*
G01X0018446Y0004209D02*
G01X0018329Y0004209D01*
G01X0018329Y0004209D02*
G01X0018271Y0004151D01*
G01X0018338Y0004728D02*
G01X0018455Y0004728D01*
G01X0018455Y0004728D02*
G01X0018514Y0004786D01*
G01X0018648Y0004728D02*
G01X0018882Y0004961D01*
G01X0018882Y0004961D02*
G01X0018882Y0005020D01*
G01X0018882Y0005020D02*
G01X0018824Y0005078D01*
G01X0018824Y0005078D02*
G01X0018707Y0005078D01*
G01X0018707Y0005078D02*
G01X0018648Y0005020D01*
G01X0018514Y0005020D02*
G01X0018455Y0005078D01*
G01X0018455Y0005078D02*
G01X0018338Y0005078D01*
G01X0018338Y0005078D02*
G01X0018280Y0005020D01*
G01X0018280Y0005020D02*
G01X0018280Y0004786D01*
G01X0018280Y0004786D02*
G01X0018338Y0004728D01*
G01X0018648Y0004728D02*
G01X0018882Y0004728D01*
G01X0019246Y0004846D02*
G01X0019246Y0005340D01*
G01X0019246Y0005340D02*
G01X0019364Y0005340D01*
G01X0019246Y0005340D02*
G01X0019246Y0005834D01*
G01X0020034Y0005834D02*
G01X0020034Y0005340D01*
G01X0020034Y0005340D02*
G01X0019916Y0005340D01*
G01X0019916Y0005340D02*
G01X0019522Y0004946D01*
G01X0020034Y0004846D02*
G01X0020034Y0005340D01*
G01X0020704Y0005401D02*
G01X0020940Y0005164D01*
G01X0020940Y0005164D02*
G01X0021176Y0005401D01*
G01X0021176Y0005401D02*
G01X0020704Y0005401D01*
G01X0020704Y0005164D02*
G01X0020940Y0005164D01*
G01X0020940Y0005164D02*
G01X0021176Y0005164D01*
G01X0022140Y0005140D02*
G01X0022140Y0004307D01*
G01X0022140Y0004307D02*
G01X0024140Y0004307D01*
G01X0024140Y0004307D02*
G01X0024140Y0006373D01*
G01X0024140Y0006373D02*
G01X0022140Y0006373D01*
G01X0022140Y0006373D02*
G01X0022140Y0005540D01*
G01X0022140Y0005540D02*
G01X0022167Y0005538D01*
G01X0022167Y0005538D02*
G01X0022194Y0005533D01*
G01X0022194Y0005533D02*
G01X0022220Y0005523D01*
G01X0022220Y0005523D02*
G01X0022244Y0005511D01*
G01X0022244Y0005511D02*
G01X0022266Y0005495D01*
G01X0022266Y0005495D02*
G01X0022286Y0005477D01*
G01X0022286Y0005477D02*
G01X0022303Y0005455D01*
G01X0022303Y0005455D02*
G01X0022318Y0005432D01*
G01X0022318Y0005432D02*
G01X0022328Y0005407D01*
G01X0022328Y0005407D02*
G01X0022336Y0005381D01*
G01X0022336Y0005381D02*
G01X0022340Y0005354D01*
G01X0022340Y0005354D02*
G01X0022340Y0005326D01*
G01X0022340Y0005326D02*
G01X0022336Y0005299D01*
G01X0022336Y0005299D02*
G01X0022328Y0005273D01*
G01X0022328Y0005273D02*
G01X0022318Y0005248D01*
G01X0022318Y0005248D02*
G01X0022303Y0005225D01*
G01X0022303Y0005225D02*
G01X0022286Y0005203D01*
G01X0022286Y0005203D02*
G01X0022266Y0005185D01*
G01X0022266Y0005185D02*
G01X0022244Y0005169D01*
G01X0022244Y0005169D02*
G01X0022220Y0005157D01*
G01X0022220Y0005157D02*
G01X0022194Y0005147D01*
G01X0022194Y0005147D02*
G01X0022167Y0005142D01*
G01X0022167Y0005142D02*
G01X0022140Y0005140D01*
G01X0021334Y0004356D02*
G01X0020546Y0004356D01*
G01X0020546Y0004356D02*
G01X0020546Y0004356D01*
G01X0020546Y0004356D02*
G01X0020546Y0006314D01*
G01X0020546Y0006314D02*
G01X0020786Y0006314D01*
G01X0020786Y0006314D02*
G01X0021334Y0006314D01*
G01X0021334Y0006314D02*
G01X0021334Y0004356D01*
G01X0020546Y0004356D02*
G01X0020546Y0004356D01*
G01X0017698Y0005774D02*
G01X0017428Y0005774D01*
G01X0016578Y0005571D02*
G01X0016489Y0005492D01*
G01X0016489Y0005492D02*
G01X0011391Y0005492D01*
G01X0011391Y0005492D02*
G01X0011292Y0005581D01*
G01X0011292Y0005581D02*
G01X0011292Y0010209D01*
G01X0011292Y0010209D02*
G01X0011871Y0010788D01*
G01X0011871Y0010788D02*
G01X0016500Y0010788D01*
G01X0016500Y0010788D02*
G01X0016578Y0010710D01*
G01X0016578Y0010710D02*
G01X0016578Y0005571D01*
G01X0017428Y0006562D02*
G01X0017698Y0006562D01*
G01X0017698Y0007546D02*
G01X0017428Y0007546D01*
G01X0017428Y0008530D02*
G01X0017698Y0008530D01*
G01X0017698Y0009514D02*
G01X0017428Y0009514D01*
G01X0017428Y0010499D02*
G01X0017698Y0010499D01*
G01X0016306Y0011628D02*
G01X0016306Y0011898D01*
G01X0015518Y0011898D02*
G01X0015518Y0011628D01*
G01X0014534Y0011628D02*
G01X0014534Y0011898D01*
G01X0013550Y0011898D02*
G01X0013550Y0011628D01*
G01X0012566Y0011628D02*
G01X0012566Y0011898D01*
G01X0011581Y0011898D02*
G01X0011581Y0011628D01*
G01X0010857Y0012465D02*
G01X0010623Y0012465D01*
G01X0010623Y0012465D02*
G01X0010565Y0012523D01*
G01X0010565Y0012523D02*
G01X0010565Y0012640D01*
G01X0010565Y0012640D02*
G01X0010623Y0012699D01*
G01X0010681Y0012833D02*
G01X0010565Y0012950D01*
G01X0010565Y0012950D02*
G01X0010915Y0012950D01*
G01X0010915Y0012833D02*
G01X0010915Y0013067D01*
G01X0010857Y0012699D02*
G01X0010915Y0012640D01*
G01X0010915Y0012640D02*
G01X0010915Y0012523D01*
G01X0010915Y0012523D02*
G01X0010857Y0012465D01*
G01X0008595Y0011768D02*
G01X0008452Y0011768D01*
G01X0008595Y0011768D02*
G01X0008596Y0010312D01*
G01X0008596Y0010312D02*
G01X0008450Y0010311D01*
G01X0007788Y0010312D02*
G01X0006296Y0010312D01*
G01X0005626Y0010310D02*
G01X0005483Y0010308D01*
G01X0005483Y0010308D02*
G01X0005486Y0011770D01*
G01X0005486Y0011770D02*
G01X0005631Y0011769D01*
G01X0006294Y0011770D02*
G01X0007792Y0011770D01*
G01X0007788Y0011434D02*
G01X0007434Y0011434D01*
G01X0007434Y0011434D02*
G01X0007434Y0011237D01*
G01X0007434Y0011237D02*
G01X0007237Y0011237D01*
G01X0007237Y0011119D02*
G01X0007631Y0011119D01*
G01X0007631Y0011119D02*
G01X0007631Y0010961D01*
G01X0007631Y0010961D02*
G01X0007237Y0010961D01*
G01X0007237Y0010961D02*
G01X0007237Y0011119D01*
G01X0007434Y0011237D02*
G01X0007631Y0011237D01*
G01X0007631Y0010843D02*
G01X0007434Y0010843D01*
G01X0007434Y0010843D02*
G01X0007237Y0010843D01*
G01X0007434Y0010843D02*
G01X0007434Y0010646D01*
G01X0007434Y0010646D02*
G01X0007789Y0010647D01*
G01X0006646Y0010646D02*
G01X0006646Y0011434D01*
G01X0006646Y0011434D02*
G01X0006292Y0011434D01*
G01X0006292Y0010646D02*
G01X0006646Y0010646D01*
G01X0005140Y0009140D02*
G01X0006340Y0007940D01*
G01X0006340Y0007940D02*
G01X0006340Y0005540D01*
G01X0006340Y0005540D02*
G01X0005140Y0004340D01*
G01X0005140Y0004340D02*
G01X0002140Y0004340D01*
G01X0002140Y0004340D02*
G01X0002092Y0004361D01*
G01X0002092Y0004361D02*
G01X0002046Y0004385D01*
G01X0002046Y0004385D02*
G01X0002002Y0004412D01*
G01X0002002Y0004412D02*
G01X0001960Y0004443D01*
G01X0001960Y0004443D02*
G01X0001920Y0004477D01*
G01X0001920Y0004477D02*
G01X0001883Y0004513D01*
G01X0001883Y0004513D02*
G01X0001849Y0004552D01*
G01X0001849Y0004552D02*
G01X0001818Y0004594D01*
G01X0001818Y0004594D02*
G01X0001790Y0004638D01*
G01X0001790Y0004638D02*
G01X0001765Y0004684D01*
G01X0001765Y0004684D02*
G01X0001744Y0004731D01*
G01X0001744Y0004731D02*
G01X0001726Y0004780D01*
G01X0001726Y0004780D02*
G01X0001713Y0004830D01*
G01X0001713Y0004830D02*
G01X0001702Y0004882D01*
G01X0001702Y0004882D02*
G01X0001696Y0004933D01*
G01X0001696Y0004933D02*
G01X0001694Y0004985D01*
G01X0001694Y0004985D02*
G01X0001696Y0005037D01*
G01X0001696Y0005037D02*
G01X0001701Y0005089D01*
G01X0001701Y0005089D02*
G01X0001710Y0005140D01*
G01X0001710Y0005140D02*
G01X0001724Y0005191D01*
G01X0001724Y0005191D02*
G01X0001740Y0005240D01*
G01X0001740Y0005240D02*
G01X0001809Y0005313D01*
G01X0001809Y0005313D02*
G01X0001876Y0005390D01*
G01X0001876Y0005390D02*
G01X0001938Y0005469D01*
G01X0001938Y0005469D02*
G01X0001997Y0005551D01*
G01X0001997Y0005551D02*
G01X0002051Y0005636D01*
G01X0002051Y0005636D02*
G01X0002102Y0005724D01*
G01X0002102Y0005724D02*
G01X0002148Y0005813D01*
G01X0002148Y0005813D02*
G01X0002190Y0005905D01*
G01X0002190Y0005905D02*
G01X0002227Y0005999D01*
G01X0002227Y0005999D02*
G01X0002260Y0006094D01*
G01X0002260Y0006094D02*
G01X0002289Y0006191D01*
G01X0002289Y0006191D02*
G01X0002313Y0006289D01*
G01X0002313Y0006289D02*
G01X0002332Y0006388D01*
G01X0002332Y0006388D02*
G01X0002346Y0006488D01*
G01X0002346Y0006488D02*
G01X0002356Y0006589D01*
G01X0002356Y0006589D02*
G01X0002360Y0006690D01*
G01X0002360Y0006690D02*
G01X0002360Y0006790D01*
G01X0002360Y0006790D02*
G01X0002356Y0006891D01*
G01X0002356Y0006891D02*
G01X0002346Y0006992D01*
G01X0002346Y0006992D02*
G01X0002332Y0007092D01*
G01X0002332Y0007092D02*
G01X0002313Y0007191D01*
G01X0002313Y0007191D02*
G01X0002289Y0007289D01*
G01X0002289Y0007289D02*
G01X0002260Y0007386D01*
G01X0002260Y0007386D02*
G01X0002227Y0007481D01*
G01X0002227Y0007481D02*
G01X0002190Y0007575D01*
G01X0002190Y0007575D02*
G01X0002148Y0007667D01*
G01X0002148Y0007667D02*
G01X0002102Y0007756D01*
G01X0002102Y0007756D02*
G01X0002051Y0007844D01*
G01X0002051Y0007844D02*
G01X0001997Y0007929D01*
G01X0001997Y0007929D02*
G01X0001938Y0008011D01*
G01X0001938Y0008011D02*
G01X0001876Y0008090D01*
G01X0001876Y0008090D02*
G01X0001809Y0008167D01*
G01X0001809Y0008167D02*
G01X0001740Y0008240D01*
G01X0001740Y0008240D02*
G01X0001724Y0008289D01*
G01X0001724Y0008289D02*
G01X0001710Y0008340D01*
G01X0001710Y0008340D02*
G01X0001701Y0008391D01*
G01X0001701Y0008391D02*
G01X0001696Y0008443D01*
G01X0001696Y0008443D02*
G01X0001694Y0008495D01*
G01X0001694Y0008495D02*
G01X0001696Y0008547D01*
G01X0001696Y0008547D02*
G01X0001702Y0008598D01*
G01X0001702Y0008598D02*
G01X0001713Y0008650D01*
G01X0001713Y0008650D02*
G01X0001726Y0008700D01*
G01X0001726Y0008700D02*
G01X0001744Y0008749D01*
G01X0001744Y0008749D02*
G01X0001765Y0008796D01*
G01X0001765Y0008796D02*
G01X0001790Y0008842D01*
G01X0001790Y0008842D02*
G01X0001818Y0008886D01*
G01X0001818Y0008886D02*
G01X0001849Y0008928D01*
G01X0001849Y0008928D02*
G01X0001883Y0008967D01*
G01X0001883Y0008967D02*
G01X0001920Y0009003D01*
G01X0001920Y0009003D02*
G01X0001960Y0009037D01*
G01X0001960Y0009037D02*
G01X0002002Y0009068D01*
G01X0002002Y0009068D02*
G01X0002046Y0009095D01*
G01X0002046Y0009095D02*
G01X0002092Y0009119D01*
G01X0002092Y0009119D02*
G01X0002140Y0009140D01*
G01X0002140Y0009140D02*
G01X0005140Y0009140D01*
G01X0002134Y0009646D02*
G01X0001640Y0009646D01*
G01X0001640Y0009646D02*
G01X0001640Y0009764D01*
G01X0001640Y0009764D02*
G01X0001246Y0010158D01*
G01X0001640Y0010316D02*
G01X0001640Y0010434D01*
G01X0001640Y0010434D02*
G01X0001146Y0010434D01*
G01X0001640Y0010434D02*
G01X0002134Y0010434D01*
G01X0002134Y0011146D02*
G01X0001640Y0011146D01*
G01X0001640Y0011146D02*
G01X0001640Y0011264D01*
G01X0001640Y0011146D02*
G01X0001146Y0011146D01*
G01X0001640Y0011816D02*
G01X0002034Y0011422D01*
G01X0001640Y0011816D02*
G01X0001640Y0011934D01*
G01X0001640Y0011934D02*
G01X0002134Y0011934D01*
G01X0001640Y0011934D02*
G01X0001146Y0011934D01*
G01X0001146Y0009646D02*
G01X0001640Y0009646D01*
G01X0006435Y0007667D02*
G01X0006493Y0007550D01*
G01X0006493Y0007550D02*
G01X0006610Y0007433D01*
G01X0006610Y0007433D02*
G01X0006610Y0007608D01*
G01X0006610Y0007608D02*
G01X0006668Y0007667D01*
G01X0006668Y0007667D02*
G01X0006727Y0007667D01*
G01X0006727Y0007667D02*
G01X0006785Y0007608D01*
G01X0006785Y0007608D02*
G01X0006785Y0007492D01*
G01X0006785Y0007492D02*
G01X0006727Y0007433D01*
G01X0006727Y0007433D02*
G01X0006610Y0007433D01*
G01X0006727Y0007299D02*
G01X0006785Y0007240D01*
G01X0006785Y0007240D02*
G01X0006785Y0007123D01*
G01X0006785Y0007123D02*
G01X0006727Y0007065D01*
G01X0006727Y0007065D02*
G01X0006493Y0007065D01*
G01X0006493Y0007065D02*
G01X0006435Y0007123D01*
G01X0006435Y0007123D02*
G01X0006435Y0007240D01*
G01X0006435Y0007240D02*
G01X0006493Y0007299D01*
G01X0007810Y0007640D02*
G01X0007812Y0007640D01*
G01X0007812Y0007640D02*
G01X0007890Y0007640D01*
G01X0007890Y0007640D02*
G01X0007812Y0007640D01*
G01X0007812Y0007640D02*
G01X0007812Y0005661D01*
G01X0007810Y0005660D02*
G01X0007890Y0005660D01*
G01X0008990Y0005660D02*
G01X0009070Y0005660D01*
G01X0009068Y0005661D02*
G01X0009068Y0007640D01*
G01X0009068Y0007640D02*
G01X0008990Y0007640D01*
G01X0008990Y0007640D02*
G01X0009068Y0007640D01*
G01X0009068Y0007640D02*
G01X0009070Y0007640D01*
G01X0009070Y0007640D02*
G01X0009071Y0007640D01*
G01X0009070Y0007640D02*
G01X0009068Y0007640D01*
G01X0008740Y0006840D02*
G01X0008140Y0006840D01*
G01X0008140Y0006740D02*
G01X0008740Y0006740D01*
G01X0008740Y0006740D02*
G01X0008740Y0006540D01*
G01X0008740Y0006540D02*
G01X0008140Y0006540D01*
G01X0008140Y0006540D02*
G01X0008140Y0006740D01*
G01X0008440Y0006840D02*
G01X0008440Y0006940D01*
G01X0008440Y0006440D02*
G01X0008440Y0006340D01*
G01X0008740Y0006440D02*
G01X0008140Y0006440D01*
G01X0006773Y0005939D02*
G01X0006714Y0005939D01*
G01X0006714Y0005939D02*
G01X0006481Y0006173D01*
G01X0006481Y0006173D02*
G01X0006422Y0006173D01*
G01X0006422Y0006173D02*
G01X0006422Y0005939D01*
G01X0006481Y0005805D02*
G01X0006422Y0005746D01*
G01X0006422Y0005746D02*
G01X0006422Y0005630D01*
G01X0006422Y0005630D02*
G01X0006481Y0005571D01*
G01X0006481Y0005571D02*
G01X0006714Y0005571D01*
G01X0006714Y0005571D02*
G01X0006773Y0005630D01*
G01X0006773Y0005630D02*
G01X0006773Y0005746D01*
G01X0006773Y0005746D02*
G01X0006714Y0005805D01*
G01X0010164Y0005774D02*
G01X0010434Y0005774D01*
G01X0010434Y0006758D02*
G01X0010164Y0006758D01*
G01X0010164Y0007743D02*
G01X0010434Y0007743D01*
G01X0010434Y0008727D02*
G01X0010164Y0008727D01*
G01X0010164Y0009711D02*
G01X0010434Y0009711D01*
G01X0011857Y0010034D02*
G01X0011859Y0010061D01*
G01X0011859Y0010061D02*
G01X0011865Y0010087D01*
G01X0011865Y0010087D02*
G01X0011874Y0010113D01*
G01X0011874Y0010113D02*
G01X0011887Y0010136D01*
G01X0011887Y0010136D02*
G01X0011903Y0010158D01*
G01X0011903Y0010158D02*
G01X0011922Y0010177D01*
G01X0011922Y0010177D02*
G01X0011944Y0010193D01*
G01X0011944Y0010193D02*
G01X0011967Y0010206D01*
G01X0011967Y0010206D02*
G01X0011993Y0010215D01*
G01X0011993Y0010215D02*
G01X0012019Y0010221D01*
G01X0012019Y0010221D02*
G01X0012046Y0010223D01*
G01X0012046Y0010223D02*
G01X0012073Y0010221D01*
G01X0012073Y0010221D02*
G01X0012099Y0010215D01*
G01X0012099Y0010215D02*
G01X0012125Y0010206D01*
G01X0012125Y0010206D02*
G01X0012148Y0010193D01*
G01X0012148Y0010193D02*
G01X0012170Y0010177D01*
G01X0012170Y0010177D02*
G01X0012189Y0010158D01*
G01X0012189Y0010158D02*
G01X0012205Y0010136D01*
G01X0012205Y0010136D02*
G01X0012218Y0010113D01*
G01X0012218Y0010113D02*
G01X0012227Y0010087D01*
G01X0012227Y0010087D02*
G01X0012233Y0010061D01*
G01X0012233Y0010061D02*
G01X0012235Y0010034D01*
G01X0012235Y0010034D02*
G01X0012233Y0010007D01*
G01X0012233Y0010007D02*
G01X0012227Y0009981D01*
G01X0012227Y0009981D02*
G01X0012218Y0009955D01*
G01X0012218Y0009955D02*
G01X0012205Y0009932D01*
G01X0012205Y0009932D02*
G01X0012189Y0009910D01*
G01X0012189Y0009910D02*
G01X0012170Y0009891D01*
G01X0012170Y0009891D02*
G01X0012148Y0009875D01*
G01X0012148Y0009875D02*
G01X0012125Y0009862D01*
G01X0012125Y0009862D02*
G01X0012099Y0009853D01*
G01X0012099Y0009853D02*
G01X0012073Y0009847D01*
G01X0012073Y0009847D02*
G01X0012046Y0009845D01*
G01X0012046Y0009845D02*
G01X0012019Y0009847D01*
G01X0012019Y0009847D02*
G01X0011993Y0009853D01*
G01X0011993Y0009853D02*
G01X0011967Y0009862D01*
G01X0011967Y0009862D02*
G01X0011944Y0009875D01*
G01X0011944Y0009875D02*
G01X0011922Y0009891D01*
G01X0011922Y0009891D02*
G01X0011903Y0009910D01*
G01X0011903Y0009910D02*
G01X0011887Y0009932D01*
G01X0011887Y0009932D02*
G01X0011874Y0009955D01*
G01X0011874Y0009955D02*
G01X0011865Y0009981D01*
G01X0011865Y0009981D02*
G01X0011859Y0010007D01*
G01X0011859Y0010007D02*
G01X0011857Y0010034D01*
G01X0016965Y0012523D02*
G01X0017023Y0012465D01*
G01X0017023Y0012465D02*
G01X0017257Y0012465D01*
G01X0017257Y0012465D02*
G01X0017315Y0012523D01*
G01X0017315Y0012523D02*
G01X0017315Y0012640D01*
G01X0017315Y0012640D02*
G01X0017257Y0012699D01*
G01X0017257Y0012833D02*
G01X0017315Y0012892D01*
G01X0017315Y0012892D02*
G01X0017315Y0013008D01*
G01X0017315Y0013008D02*
G01X0017257Y0013067D01*
G01X0017257Y0013067D02*
G01X0017198Y0013067D01*
G01X0017198Y0013067D02*
G01X0017140Y0013008D01*
G01X0017140Y0013008D02*
G01X0017140Y0012950D01*
G01X0017140Y0013008D02*
G01X0017081Y0013067D01*
G01X0017081Y0013067D02*
G01X0017023Y0013067D01*
G01X0017023Y0013067D02*
G01X0016965Y0013008D01*
G01X0016965Y0013008D02*
G01X0016965Y0012892D01*
G01X0016965Y0012892D02*
G01X0017023Y0012833D01*
G01X0017023Y0012699D02*
G01X0016965Y0012640D01*
G01X0016965Y0012640D02*
G01X0016965Y0012523D01*
G01X0017965Y0012523D02*
G01X0018023Y0012465D01*
G01X0018023Y0012465D02*
G01X0018257Y0012465D01*
G01X0018257Y0012465D02*
G01X0018315Y0012523D01*
G01X0018315Y0012523D02*
G01X0018315Y0012640D01*
G01X0018315Y0012640D02*
G01X0018257Y0012699D01*
G01X0018257Y0012833D02*
G01X0018315Y0012892D01*
G01X0018315Y0012892D02*
G01X0018315Y0013008D01*
G01X0018315Y0013008D02*
G01X0018257Y0013067D01*
G01X0018257Y0013067D02*
G01X0018023Y0013067D01*
G01X0018023Y0013067D02*
G01X0017965Y0013008D01*
G01X0017965Y0013008D02*
G01X0017965Y0012892D01*
G01X0017965Y0012892D02*
G01X0018023Y0012833D01*
G01X0018023Y0012833D02*
G01X0018081Y0012833D01*
G01X0018081Y0012833D02*
G01X0018140Y0012892D01*
G01X0018140Y0012892D02*
G01X0018140Y0013067D01*
G01X0018023Y0012699D02*
G01X0017965Y0012640D01*
G01X0017965Y0012640D02*
G01X0017965Y0012523D01*
G01X0020810Y0011440D02*
G01X0020812Y0011440D01*
G01X0020812Y0011440D02*
G01X0020890Y0011440D01*
G01X0020890Y0011440D02*
G01X0020812Y0011440D01*
G01X0020812Y0011440D02*
G01X0020812Y0009461D01*
G01X0020810Y0009460D02*
G01X0020890Y0009460D01*
G01X0021990Y0009460D02*
G01X0022070Y0009460D01*
G01X0022068Y0009461D02*
G01X0022068Y0011440D01*
G01X0022068Y0011440D02*
G01X0021990Y0011440D01*
G01X0021990Y0011440D02*
G01X0022068Y0011440D01*
G01X0022068Y0011440D02*
G01X0022070Y0011440D01*
G01X0022070Y0011440D02*
G01X0022071Y0011440D01*
G01X0022070Y0011440D02*
G01X0022068Y0011440D01*
G01X0021740Y0010640D02*
G01X0021140Y0010640D01*
G01X0021140Y0010540D02*
G01X0021740Y0010540D01*
G01X0021740Y0010540D02*
G01X0021740Y0010340D01*
G01X0021740Y0010340D02*
G01X0021140Y0010340D01*
G01X0021140Y0010340D02*
G01X0021140Y0010540D01*
G01X0021440Y0010640D02*
G01X0021440Y0010740D01*
G01X0021440Y0010240D02*
G01X0021440Y0010140D01*
G01X0021740Y0010240D02*
G01X0021140Y0010240D01*
G01X0022831Y0009262D02*
G01X0023131Y0009262D01*
G01X0023874Y0009055D02*
G01X0023954Y0008974D01*
G01X0023954Y0008974D02*
G01X0026500Y0008974D01*
G01X0026500Y0008974D02*
G01X0026593Y0009068D01*
G01X0026593Y0009068D02*
G01X0026593Y0011625D01*
G01X0026593Y0011625D02*
G01X0026526Y0011693D01*
G01X0026526Y0011693D02*
G01X0024073Y0011693D01*
G01X0024073Y0011693D02*
G01X0023882Y0011502D01*
G01X0023874Y0011494D02*
G01X0023874Y0009055D01*
G01X0024155Y0008233D02*
G01X0024155Y0007933D01*
G01X0024849Y0007219D02*
G01X0024849Y0007061D01*
G01X0026031Y0007061D02*
G01X0026031Y0007219D01*
G01X0026322Y0007929D02*
G01X0026322Y0008229D01*
G01X0027347Y0009262D02*
G01X0027647Y0009262D01*
G01X0028910Y0007670D02*
G01X0029850Y0007670D01*
G01X0029850Y0007670D02*
G01X0029850Y0007210D01*
G01X0029850Y0007210D02*
G01X0028910Y0007210D01*
G01X0028910Y0007210D02*
G01X0028910Y0007670D01*
G01X0029850Y0007670D02*
G01X0030370Y0007670D01*
G01X0030370Y0007670D02*
G01X0030370Y0007210D01*
G01X0030370Y0007210D02*
G01X0029850Y0007210D01*
G01X0027642Y0006052D02*
G01X0027642Y0005225D01*
G01X0027642Y0005225D02*
G01X0027446Y0005028D01*
G01X0027446Y0005028D02*
G01X0027249Y0005028D01*
G01X0027249Y0005028D02*
G01X0027249Y0006052D01*
G01X0027249Y0006052D02*
G01X0027642Y0006052D01*
G01X0026060Y0006300D02*
G01X0026060Y0004380D01*
G01X0026060Y0004380D02*
G01X0024820Y0004380D01*
G01X0024820Y0004380D02*
G01X0024820Y0006300D01*
G01X0024820Y0006300D02*
G01X0026060Y0006300D01*
G01X0025588Y0005438D02*
G01X0025292Y0005438D01*
G01X0025292Y0005438D02*
G01X0025440Y0005242D01*
G01X0025440Y0005242D02*
G01X0025588Y0005242D01*
G01X0025440Y0005242D02*
G01X0025588Y0005438D01*
G01X0025440Y0005242D02*
G01X0025292Y0005242D01*
G01X0026716Y0003670D02*
G01X0026716Y0003210D01*
G01X0026716Y0003210D02*
G01X0027236Y0003210D01*
G01X0027236Y0003210D02*
G01X0027236Y0003670D01*
G01X0027236Y0003670D02*
G01X0028176Y0003670D01*
G01X0028176Y0003670D02*
G01X0028176Y0003210D01*
G01X0028176Y0003210D02*
G01X0027236Y0003210D01*
G01X0027236Y0003670D02*
G01X0026716Y0003670D01*
G01X0029846Y0003646D02*
G01X0030340Y0003646D01*
G01X0030340Y0003646D02*
G01X0030340Y0003764D01*
G01X0030340Y0003764D02*
G01X0029946Y0004158D01*
G01X0030340Y0004316D02*
G01X0030340Y0004434D01*
G01X0030340Y0004434D02*
G01X0029846Y0004434D01*
G01X0030340Y0004434D02*
G01X0030834Y0004434D01*
G01X0030834Y0003646D02*
G01X0030340Y0003646D01*
G01X0033368Y0009179D02*
G01X0034368Y0009304D01*
G01X0034368Y0009304D02*
G01X0034368Y0009554D01*
G01X0034368Y0009554D02*
G01X0033368Y0009679D01*
G01X0033118Y0010179D02*
G01X0033118Y0010679D01*
G01X0033118Y0010679D02*
G01X0034368Y0010929D01*
G01X0034368Y0011304D02*
G01X0033368Y0011179D01*
G01X0033368Y0011679D02*
G01X0034368Y0011554D01*
G01X0034368Y0011554D02*
G01X0034368Y0011304D01*
G01X0034368Y0009929D02*
G01X0033118Y0010179D01*
G01X0029519Y0010925D02*
G01X0029361Y0010925D01*
G01X0029361Y0011555D02*
G01X0029519Y0011555D01*
G01X0027654Y0011420D02*
G01X0027354Y0011420D01*
G01X0026316Y0012449D02*
G01X0026316Y0012749D01*
G01X0024156Y0012742D02*
G01X0024156Y0012442D01*
G01X0024084Y0011283D02*
G01X0024086Y0011311D01*
G01X0024086Y0011311D02*
G01X0024092Y0011338D01*
G01X0024092Y0011338D02*
G01X0024101Y0011364D01*
G01X0024101Y0011364D02*
G01X0024114Y0011389D01*
G01X0024114Y0011389D02*
G01X0024131Y0011412D01*
G01X0024131Y0011412D02*
G01X0024150Y0011432D01*
G01X0024150Y0011432D02*
G01X0024172Y0011449D01*
G01X0024172Y0011449D02*
G01X0024196Y0011463D01*
G01X0024196Y0011463D02*
G01X0024222Y0011473D01*
G01X0024222Y0011473D02*
G01X0024249Y0011480D01*
G01X0024249Y0011480D02*
G01X0024277Y0011483D01*
G01X0024277Y0011483D02*
G01X0024305Y0011482D01*
G01X0024305Y0011482D02*
G01X0024332Y0011477D01*
G01X0024332Y0011477D02*
G01X0024359Y0011468D01*
G01X0024359Y0011468D02*
G01X0024384Y0011456D01*
G01X0024384Y0011456D02*
G01X0024407Y0011441D01*
G01X0024407Y0011441D02*
G01X0024428Y0011422D01*
G01X0024428Y0011422D02*
G01X0024446Y0011401D01*
G01X0024446Y0011401D02*
G01X0024461Y0011377D01*
G01X0024461Y0011377D02*
G01X0024472Y0011351D01*
G01X0024472Y0011351D02*
G01X0024480Y0011325D01*
G01X0024480Y0011325D02*
G01X0024484Y0011297D01*
G01X0024484Y0011297D02*
G01X0024484Y0011269D01*
G01X0024484Y0011269D02*
G01X0024480Y0011241D01*
G01X0024480Y0011241D02*
G01X0024472Y0011215D01*
G01X0024472Y0011215D02*
G01X0024461Y0011189D01*
G01X0024461Y0011189D02*
G01X0024446Y0011165D01*
G01X0024446Y0011165D02*
G01X0024428Y0011144D01*
G01X0024428Y0011144D02*
G01X0024407Y0011125D01*
G01X0024407Y0011125D02*
G01X0024384Y0011110D01*
G01X0024384Y0011110D02*
G01X0024359Y0011098D01*
G01X0024359Y0011098D02*
G01X0024332Y0011089D01*
G01X0024332Y0011089D02*
G01X0024305Y0011084D01*
G01X0024305Y0011084D02*
G01X0024277Y0011083D01*
G01X0024277Y0011083D02*
G01X0024249Y0011086D01*
G01X0024249Y0011086D02*
G01X0024222Y0011093D01*
G01X0024222Y0011093D02*
G01X0024196Y0011103D01*
G01X0024196Y0011103D02*
G01X0024172Y0011117D01*
G01X0024172Y0011117D02*
G01X0024150Y0011134D01*
G01X0024150Y0011134D02*
G01X0024131Y0011154D01*
G01X0024131Y0011154D02*
G01X0024114Y0011177D01*
G01X0024114Y0011177D02*
G01X0024101Y0011202D01*
G01X0024101Y0011202D02*
G01X0024092Y0011228D01*
G01X0024092Y0011228D02*
G01X0024086Y0011255D01*
G01X0024086Y0011255D02*
G01X0024084Y0011283D01*
G01X0006676Y0003044D02*
G01X0006309Y0003044D01*
G54D11*
G01X0006164Y0004115D02*
G01X0005917Y0004115D01*
G01X0005917Y0004115D02*
G01X0006164Y0004362D01*
G01X0006164Y0004362D02*
G01X0006164Y0004424D01*
G01X0006164Y0004424D02*
G01X0006102Y0004485D01*
G01X0006102Y0004485D02*
G01X0005978Y0004485D01*
G01X0005978Y0004485D02*
G01X0005917Y0004424D01*
G01X0005795Y0004424D02*
G01X0005734Y0004485D01*
G01X0005734Y0004485D02*
G01X0005610Y0004485D01*
G01X0005610Y0004485D02*
G01X0005548Y0004424D01*
G01X0005427Y0004424D02*
G01X0005365Y0004485D01*
G01X0005365Y0004485D02*
G01X0005242Y0004485D01*
G01X0005242Y0004485D02*
G01X0005180Y0004424D01*
G01X0005180Y0004424D02*
G01X0005180Y0004177D01*
G01X0005180Y0004177D02*
G01X0005242Y0004115D01*
G01X0005242Y0004115D02*
G01X0005365Y0004115D01*
G01X0005365Y0004115D02*
G01X0005427Y0004177D01*
G01X0005548Y0004115D02*
G01X0005795Y0004362D01*
G01X0005795Y0004362D02*
G01X0005795Y0004424D01*
G01X0005795Y0004655D02*
G01X0005548Y0004655D01*
G01X0005548Y0004655D02*
G01X0005795Y0004902D01*
G01X0005795Y0004902D02*
G01X0005795Y0004964D01*
G01X0005795Y0004964D02*
G01X0005734Y0005025D01*
G01X0005734Y0005025D02*
G01X0005610Y0005025D01*
G01X0005610Y0005025D02*
G01X0005548Y0004964D01*
G01X0005427Y0004964D02*
G01X0005365Y0005025D01*
G01X0005365Y0005025D02*
G01X0005242Y0005025D01*
G01X0005242Y0005025D02*
G01X0005180Y0004964D01*
G01X0005180Y0004964D02*
G01X0005180Y0004717D01*
G01X0005180Y0004717D02*
G01X0005242Y0004655D01*
G01X0005242Y0004655D02*
G01X0005365Y0004655D01*
G01X0005365Y0004655D02*
G01X0005427Y0004717D01*
G01X0005917Y0004840D02*
G01X0006164Y0004840D01*
G01X0006102Y0004655D02*
G01X0006102Y0005025D01*
G01X0006102Y0005025D02*
G01X0005917Y0004840D01*
G01X0005795Y0004115D02*
G01X0005548Y0004115D01*
G01X0009155Y0003864D02*
G01X0009155Y0003617D01*
G01X0009155Y0003617D02*
G01X0009217Y0003555D01*
G01X0009217Y0003555D02*
G01X0009340Y0003555D01*
G01X0009340Y0003555D02*
G01X0009402Y0003617D01*
G01X0009523Y0003555D02*
G01X0009770Y0003802D01*
G01X0009770Y0003802D02*
G01X0009770Y0003864D01*
G01X0009770Y0003864D02*
G01X0009708Y0003925D01*
G01X0009708Y0003925D02*
G01X0009585Y0003925D01*
G01X0009585Y0003925D02*
G01X0009523Y0003864D01*
G01X0009402Y0003864D02*
G01X0009340Y0003925D01*
G01X0009340Y0003925D02*
G01X0009217Y0003925D01*
G01X0009217Y0003925D02*
G01X0009155Y0003864D01*
G01X0009523Y0003555D02*
G01X0009770Y0003555D01*
G01X0009892Y0003555D02*
G01X0010139Y0003555D01*
G01X0010015Y0003555D02*
G01X0010015Y0003925D01*
G01X0010015Y0003925D02*
G01X0009892Y0003802D01*
G01X0009953Y0004455D02*
G01X0009892Y0004517D01*
G01X0009953Y0004455D02*
G01X0010077Y0004455D01*
G01X0010077Y0004455D02*
G01X0010139Y0004517D01*
G01X0010139Y0004517D02*
G01X0010139Y0004578D01*
G01X0010139Y0004578D02*
G01X0010077Y0004640D01*
G01X0010077Y0004640D02*
G01X0010015Y0004640D01*
G01X0010077Y0004640D02*
G01X0010139Y0004702D01*
G01X0010139Y0004702D02*
G01X0010139Y0004764D01*
G01X0010139Y0004764D02*
G01X0010077Y0004825D01*
G01X0010077Y0004825D02*
G01X0009953Y0004825D01*
G01X0009953Y0004825D02*
G01X0009892Y0004764D01*
G01X0009770Y0004764D02*
G01X0009770Y0004702D01*
G01X0009770Y0004702D02*
G01X0009523Y0004455D01*
G01X0009523Y0004455D02*
G01X0009770Y0004455D01*
G01X0009402Y0004517D02*
G01X0009340Y0004455D01*
G01X0009340Y0004455D02*
G01X0009217Y0004455D01*
G01X0009217Y0004455D02*
G01X0009155Y0004517D01*
G01X0009155Y0004517D02*
G01X0009155Y0004764D01*
G01X0009155Y0004764D02*
G01X0009217Y0004825D01*
G01X0009217Y0004825D02*
G01X0009340Y0004825D01*
G01X0009340Y0004825D02*
G01X0009402Y0004764D01*
G01X0009523Y0004764D02*
G01X0009585Y0004825D01*
G01X0009585Y0004825D02*
G01X0009708Y0004825D01*
G01X0009708Y0004825D02*
G01X0009770Y0004764D01*
G01X0009261Y0006355D02*
G01X0009384Y0006478D01*
G01X0009384Y0006478D02*
G01X0009569Y0006478D01*
G01X0009384Y0006478D02*
G01X0009261Y0006602D01*
G01X0009261Y0006602D02*
G01X0009199Y0006602D01*
G01X0009322Y0006723D02*
G01X0009199Y0006847D01*
G01X0009199Y0006847D02*
G01X0009569Y0006847D01*
G01X0009569Y0006970D02*
G01X0009569Y0006723D01*
G01X0009261Y0006355D02*
G01X0009199Y0006355D01*
G01X0009247Y0008305D02*
G01X0009370Y0008305D01*
G01X0009370Y0008305D02*
G01X0009432Y0008367D01*
G01X0009553Y0008305D02*
G01X0009800Y0008305D01*
G01X0009677Y0008305D02*
G01X0009677Y0008675D01*
G01X0009677Y0008675D02*
G01X0009553Y0008552D01*
G01X0009432Y0008614D02*
G01X0009370Y0008675D01*
G01X0009370Y0008675D02*
G01X0009247Y0008675D01*
G01X0009247Y0008675D02*
G01X0009185Y0008614D01*
G01X0009185Y0008614D02*
G01X0009185Y0008367D01*
G01X0009185Y0008367D02*
G01X0009247Y0008305D01*
G01X0009922Y0008367D02*
G01X0009983Y0008305D01*
G01X0009983Y0008305D02*
G01X0010107Y0008305D01*
G01X0010107Y0008305D02*
G01X0010169Y0008367D01*
G01X0010169Y0008367D02*
G01X0010169Y0008614D01*
G01X0010169Y0008614D02*
G01X0010107Y0008675D01*
G01X0010107Y0008675D02*
G01X0009983Y0008675D01*
G01X0009983Y0008675D02*
G01X0009922Y0008614D01*
G01X0009922Y0008614D02*
G01X0009922Y0008552D01*
G01X0009922Y0008552D02*
G01X0009983Y0008490D01*
G01X0009983Y0008490D02*
G01X0010169Y0008490D01*
G01X0010087Y0009155D02*
G01X0010149Y0009217D01*
G01X0010149Y0009217D02*
G01X0010149Y0009278D01*
G01X0010149Y0009278D02*
G01X0010087Y0009340D01*
G01X0010087Y0009340D02*
G01X0009902Y0009340D01*
G01X0009902Y0009340D02*
G01X0009902Y0009217D01*
G01X0009902Y0009217D02*
G01X0009963Y0009155D01*
G01X0009963Y0009155D02*
G01X0010087Y0009155D01*
G01X0009902Y0009340D02*
G01X0010025Y0009464D01*
G01X0010025Y0009464D02*
G01X0010149Y0009525D01*
G01X0009657Y0009525D02*
G01X0009533Y0009402D01*
G01X0009412Y0009464D02*
G01X0009350Y0009525D01*
G01X0009350Y0009525D02*
G01X0009227Y0009525D01*
G01X0009227Y0009525D02*
G01X0009165Y0009464D01*
G01X0009165Y0009464D02*
G01X0009165Y0009217D01*
G01X0009165Y0009217D02*
G01X0009227Y0009155D01*
G01X0009227Y0009155D02*
G01X0009350Y0009155D01*
G01X0009350Y0009155D02*
G01X0009412Y0009217D01*
G01X0009533Y0009155D02*
G01X0009780Y0009155D01*
G01X0009657Y0009155D02*
G01X0009657Y0009525D01*
G01X0007438Y0009131D02*
G01X0007438Y0008884D01*
G01X0007438Y0008884D02*
G01X0007376Y0008822D01*
G01X0007376Y0008822D02*
G01X0007253Y0008822D01*
G01X0007253Y0008822D02*
G01X0007191Y0008884D01*
G01X0007191Y0008884D02*
G01X0007438Y0009131D01*
G01X0007438Y0009131D02*
G01X0007376Y0009193D01*
G01X0007376Y0009193D02*
G01X0007253Y0009193D01*
G01X0007253Y0009193D02*
G01X0007191Y0009131D01*
G01X0007191Y0009131D02*
G01X0007191Y0008884D01*
G01X0007069Y0008822D02*
G01X0006823Y0008822D01*
G01X0006823Y0008822D02*
G01X0007069Y0009069D01*
G01X0007069Y0009069D02*
G01X0007069Y0009131D01*
G01X0007069Y0009131D02*
G01X0007008Y0009193D01*
G01X0007008Y0009193D02*
G01X0006884Y0009193D01*
G01X0006884Y0009193D02*
G01X0006823Y0009131D01*
G01X0006701Y0009131D02*
G01X0006639Y0009193D01*
G01X0006639Y0009193D02*
G01X0006516Y0009193D01*
G01X0006516Y0009193D02*
G01X0006454Y0009131D01*
G01X0006454Y0009131D02*
G01X0006454Y0008884D01*
G01X0006454Y0008884D02*
G01X0006516Y0008822D01*
G01X0006516Y0008822D02*
G01X0006639Y0008822D01*
G01X0006639Y0008822D02*
G01X0006701Y0008884D01*
G01X0005101Y0010732D02*
G01X0005225Y0010855D01*
G01X0005225Y0010855D02*
G01X0005410Y0010855D01*
G01X0005225Y0010855D02*
G01X0005101Y0010979D01*
G01X0005101Y0010979D02*
G01X0005039Y0010979D01*
G01X0005101Y0011100D02*
G01X0005039Y0011162D01*
G01X0005039Y0011162D02*
G01X0005039Y0011285D01*
G01X0005039Y0011285D02*
G01X0005101Y0011347D01*
G01X0005101Y0011347D02*
G01X0005163Y0011347D01*
G01X0005163Y0011347D02*
G01X0005225Y0011285D01*
G01X0005225Y0011285D02*
G01X0005286Y0011347D01*
G01X0005286Y0011347D02*
G01X0005348Y0011347D01*
G01X0005348Y0011347D02*
G01X0005410Y0011285D01*
G01X0005410Y0011285D02*
G01X0005410Y0011162D01*
G01X0005410Y0011162D02*
G01X0005348Y0011100D01*
G01X0005225Y0011224D02*
G01X0005225Y0011285D01*
G01X0005101Y0010732D02*
G01X0005039Y0010732D01*
G01X0003185Y0011420D02*
G01X0003123Y0011358D01*
G01X0003185Y0011420D02*
G01X0003185Y0011544D01*
G01X0003185Y0011544D02*
G01X0003123Y0011605D01*
G01X0003123Y0011605D02*
G01X0003062Y0011605D01*
G01X0003062Y0011605D02*
G01X0003000Y0011544D01*
G01X0003000Y0011544D02*
G01X0003000Y0011420D01*
G01X0003000Y0011420D02*
G01X0002938Y0011358D01*
G01X0002938Y0011358D02*
G01X0002876Y0011358D01*
G01X0002876Y0011358D02*
G01X0002815Y0011420D01*
G01X0002815Y0011420D02*
G01X0002815Y0011544D01*
G01X0002815Y0011544D02*
G01X0002876Y0011605D01*
G01X0002876Y0011727D02*
G01X0002815Y0011788D01*
G01X0002815Y0011788D02*
G01X0002815Y0011912D01*
G01X0002815Y0011912D02*
G01X0002876Y0011974D01*
G01X0002876Y0011974D02*
G01X0002938Y0011974D01*
G01X0002938Y0011974D02*
G01X0003185Y0011727D01*
G01X0003185Y0011727D02*
G01X0003185Y0011974D01*
G01X0002252Y0012255D02*
G01X0002252Y0012625D01*
G01X0002375Y0012625D02*
G01X0002128Y0012625D01*
G01X0002007Y0012625D02*
G01X0001760Y0012625D01*
G01X0001760Y0012625D02*
G01X0001760Y0012255D01*
G01X0001760Y0012255D02*
G01X0002007Y0012255D01*
G01X0001883Y0012440D02*
G01X0001760Y0012440D01*
G01X0001639Y0012378D02*
G01X0001639Y0012317D01*
G01X0001639Y0012317D02*
G01X0001577Y0012255D01*
G01X0001577Y0012255D02*
G01X0001453Y0012255D01*
G01X0001453Y0012255D02*
G01X0001392Y0012317D01*
G01X0001270Y0012255D02*
G01X0001023Y0012255D01*
G01X0001023Y0012255D02*
G01X0001023Y0012625D01*
G01X0001023Y0012625D02*
G01X0001270Y0012625D01*
G01X0001392Y0012564D02*
G01X0001392Y0012502D01*
G01X0001392Y0012502D02*
G01X0001453Y0012440D01*
G01X0001453Y0012440D02*
G01X0001577Y0012440D01*
G01X0001577Y0012440D02*
G01X0001639Y0012378D01*
G01X0001639Y0012564D02*
G01X0001577Y0012625D01*
G01X0001577Y0012625D02*
G01X0001453Y0012625D01*
G01X0001453Y0012625D02*
G01X0001392Y0012564D01*
G01X0001147Y0012440D02*
G01X0001023Y0012440D01*
G01X0000902Y0012440D02*
G01X0000840Y0012378D01*
G01X0000840Y0012378D02*
G01X0000655Y0012378D01*
G01X0000655Y0012255D02*
G01X0000655Y0012625D01*
G01X0000655Y0012625D02*
G01X0000840Y0012625D01*
G01X0000840Y0012625D02*
G01X0000902Y0012564D01*
G01X0000902Y0012564D02*
G01X0000902Y0012440D01*
G01X0000778Y0012378D02*
G01X0000902Y0012255D01*
G01X0003431Y0012559D02*
G01X0003431Y0012744D01*
G01X0003431Y0012744D02*
G01X0003493Y0012805D01*
G01X0003493Y0012805D02*
G01X0003617Y0012805D01*
G01X0003617Y0012805D02*
G01X0003678Y0012744D01*
G01X0003678Y0012744D02*
G01X0003678Y0012559D01*
G01X0003678Y0012682D02*
G01X0003802Y0012805D01*
G01X0003802Y0012927D02*
G01X0003555Y0013174D01*
G01X0003555Y0013174D02*
G01X0003493Y0013174D01*
G01X0003493Y0013174D02*
G01X0003431Y0013112D01*
G01X0003431Y0013112D02*
G01X0003431Y0012989D01*
G01X0003431Y0012989D02*
G01X0003493Y0012927D01*
G01X0003802Y0012927D02*
G01X0003802Y0013174D01*
G01X0004414Y0013106D02*
G01X0004414Y0012983D01*
G01X0004414Y0012983D02*
G01X0004476Y0012921D01*
G01X0004476Y0012800D02*
G01X0004599Y0012800D01*
G01X0004599Y0012800D02*
G01X0004661Y0012738D01*
G01X0004661Y0012738D02*
G01X0004661Y0012553D01*
G01X0004661Y0012676D02*
G01X0004784Y0012800D01*
G01X0004723Y0012921D02*
G01X0004784Y0012983D01*
G01X0004784Y0012983D02*
G01X0004784Y0013106D01*
G01X0004784Y0013106D02*
G01X0004723Y0013168D01*
G01X0004723Y0013168D02*
G01X0004661Y0013168D01*
G01X0004661Y0013168D02*
G01X0004599Y0013106D01*
G01X0004599Y0013106D02*
G01X0004599Y0013045D01*
G01X0004599Y0013106D02*
G01X0004538Y0013168D01*
G01X0004538Y0013168D02*
G01X0004476Y0013168D01*
G01X0004476Y0013168D02*
G01X0004414Y0013106D01*
G01X0004476Y0012800D02*
G01X0004414Y0012738D01*
G01X0004414Y0012738D02*
G01X0004414Y0012553D01*
G01X0004414Y0012553D02*
G01X0004784Y0012553D01*
G01X0003802Y0012559D02*
G01X0003431Y0012559D01*
G01X0006595Y0012977D02*
G01X0006657Y0012915D01*
G01X0006657Y0012915D02*
G01X0006780Y0012915D01*
G01X0006780Y0012915D02*
G01X0006842Y0012977D01*
G01X0006963Y0012915D02*
G01X0007210Y0012915D01*
G01X0007087Y0012915D02*
G01X0007087Y0013285D01*
G01X0007087Y0013285D02*
G01X0006963Y0013162D01*
G01X0006842Y0013224D02*
G01X0006780Y0013285D01*
G01X0006780Y0013285D02*
G01X0006657Y0013285D01*
G01X0006657Y0013285D02*
G01X0006595Y0013224D01*
G01X0006595Y0013224D02*
G01X0006595Y0012977D01*
G01X0007332Y0012977D02*
G01X0007332Y0013224D01*
G01X0007332Y0013224D02*
G01X0007393Y0013285D01*
G01X0007393Y0013285D02*
G01X0007517Y0013285D01*
G01X0007517Y0013285D02*
G01X0007579Y0013224D01*
G01X0007579Y0013224D02*
G01X0007332Y0012977D01*
G01X0007332Y0012977D02*
G01X0007393Y0012915D01*
G01X0007393Y0012915D02*
G01X0007517Y0012915D01*
G01X0007517Y0012915D02*
G01X0007579Y0012977D01*
G01X0007579Y0012977D02*
G01X0007579Y0013224D01*
G01X0007712Y0014752D02*
G01X0007712Y0014937D01*
G01X0007712Y0014937D02*
G01X0007774Y0014998D01*
G01X0007774Y0014998D02*
G01X0007835Y0014998D01*
G01X0007835Y0014998D02*
G01X0007897Y0014937D01*
G01X0007897Y0014937D02*
G01X0007897Y0014752D01*
G01X0007897Y0014937D02*
G01X0007959Y0014998D01*
G01X0007959Y0014998D02*
G01X0008021Y0014998D01*
G01X0008021Y0014998D02*
G01X0008082Y0014937D01*
G01X0008082Y0014937D02*
G01X0008082Y0014752D01*
G01X0008082Y0014752D02*
G01X0007712Y0014752D01*
G01X0007712Y0015120D02*
G01X0007712Y0015367D01*
G01X0007712Y0015367D02*
G01X0007774Y0015367D01*
G01X0007774Y0015367D02*
G01X0008021Y0015120D01*
G01X0008021Y0015120D02*
G01X0008082Y0015120D01*
G01X0008712Y0014937D02*
G01X0008774Y0014998D01*
G01X0008774Y0014998D02*
G01X0008835Y0014998D01*
G01X0008835Y0014998D02*
G01X0008897Y0014937D01*
G01X0008897Y0014937D02*
G01X0008897Y0014752D01*
G01X0008897Y0014937D02*
G01X0008959Y0014998D01*
G01X0008959Y0014998D02*
G01X0009021Y0014998D01*
G01X0009021Y0014998D02*
G01X0009082Y0014937D01*
G01X0009082Y0014937D02*
G01X0009082Y0014752D01*
G01X0009082Y0014752D02*
G01X0008712Y0014752D01*
G01X0008712Y0014752D02*
G01X0008712Y0014937D01*
G01X0008897Y0015120D02*
G01X0008897Y0015305D01*
G01X0008897Y0015305D02*
G01X0008959Y0015367D01*
G01X0008959Y0015367D02*
G01X0009021Y0015367D01*
G01X0009021Y0015367D02*
G01X0009082Y0015305D01*
G01X0009082Y0015305D02*
G01X0009082Y0015182D01*
G01X0009082Y0015182D02*
G01X0009021Y0015120D01*
G01X0009021Y0015120D02*
G01X0008897Y0015120D01*
G01X0008897Y0015120D02*
G01X0008774Y0015243D01*
G01X0008774Y0015243D02*
G01X0008712Y0015367D01*
G01X0009712Y0015367D02*
G01X0009712Y0015120D01*
G01X0009712Y0015120D02*
G01X0009897Y0015120D01*
G01X0009897Y0015120D02*
G01X0009835Y0015243D01*
G01X0009835Y0015243D02*
G01X0009835Y0015305D01*
G01X0009835Y0015305D02*
G01X0009897Y0015367D01*
G01X0009897Y0015367D02*
G01X0010021Y0015367D01*
G01X0010021Y0015367D02*
G01X0010082Y0015305D01*
G01X0010082Y0015305D02*
G01X0010082Y0015182D01*
G01X0010082Y0015182D02*
G01X0010021Y0015120D01*
G01X0010021Y0014998D02*
G01X0010082Y0014937D01*
G01X0010082Y0014937D02*
G01X0010082Y0014752D01*
G01X0010082Y0014752D02*
G01X0009712Y0014752D01*
G01X0009712Y0014752D02*
G01X0009712Y0014937D01*
G01X0009712Y0014937D02*
G01X0009774Y0014998D01*
G01X0009774Y0014998D02*
G01X0009835Y0014998D01*
G01X0009835Y0014998D02*
G01X0009897Y0014937D01*
G01X0009897Y0014937D02*
G01X0009897Y0014752D01*
G01X0009897Y0014937D02*
G01X0009959Y0014998D01*
G01X0009959Y0014998D02*
G01X0010021Y0014998D01*
G01X0010712Y0014937D02*
G01X0010712Y0014752D01*
G01X0010712Y0014752D02*
G01X0011082Y0014752D01*
G01X0011082Y0014752D02*
G01X0011082Y0014937D01*
G01X0011082Y0014937D02*
G01X0011021Y0014998D01*
G01X0011021Y0014998D02*
G01X0010959Y0014998D01*
G01X0010959Y0014998D02*
G01X0010897Y0014937D01*
G01X0010897Y0014937D02*
G01X0010897Y0014752D01*
G01X0010897Y0014937D02*
G01X0010835Y0014998D01*
G01X0010835Y0014998D02*
G01X0010774Y0014998D01*
G01X0010774Y0014998D02*
G01X0010712Y0014937D01*
G01X0010897Y0015120D02*
G01X0010897Y0015367D01*
G01X0011082Y0015305D02*
G01X0010712Y0015305D01*
G01X0010712Y0015305D02*
G01X0010897Y0015120D01*
G01X0011712Y0015182D02*
G01X0011712Y0015305D01*
G01X0011712Y0015305D02*
G01X0011774Y0015367D01*
G01X0011774Y0015367D02*
G01X0011835Y0015367D01*
G01X0011835Y0015367D02*
G01X0012082Y0015120D01*
G01X0012082Y0015120D02*
G01X0012082Y0015367D01*
G01X0011774Y0015120D02*
G01X0011712Y0015182D01*
G01X0011774Y0014998D02*
G01X0011712Y0014937D01*
G01X0011712Y0014937D02*
G01X0011712Y0014752D01*
G01X0011712Y0014752D02*
G01X0012082Y0014752D01*
G01X0012082Y0014752D02*
G01X0012082Y0014937D01*
G01X0012082Y0014937D02*
G01X0012021Y0014998D01*
G01X0012021Y0014998D02*
G01X0011774Y0014998D01*
G01X0007082Y0014937D02*
G01X0007082Y0014752D01*
G01X0007082Y0014752D02*
G01X0006712Y0014752D01*
G01X0006712Y0014752D02*
G01X0006712Y0014937D01*
G01X0006712Y0014937D02*
G01X0006774Y0014998D01*
G01X0006774Y0014998D02*
G01X0006835Y0014998D01*
G01X0006835Y0014998D02*
G01X0006897Y0014937D01*
G01X0006897Y0014937D02*
G01X0006897Y0014752D01*
G01X0006897Y0014937D02*
G01X0006959Y0014998D01*
G01X0006959Y0014998D02*
G01X0007021Y0014998D01*
G01X0007021Y0014998D02*
G01X0007082Y0014937D01*
G01X0007021Y0015120D02*
G01X0006959Y0015120D01*
G01X0006959Y0015120D02*
G01X0006897Y0015182D01*
G01X0006897Y0015182D02*
G01X0006897Y0015305D01*
G01X0006897Y0015305D02*
G01X0006959Y0015367D01*
G01X0006959Y0015367D02*
G01X0007021Y0015367D01*
G01X0007021Y0015367D02*
G01X0007082Y0015305D01*
G01X0007082Y0015305D02*
G01X0007082Y0015182D01*
G01X0007082Y0015182D02*
G01X0007021Y0015120D01*
G01X0006897Y0015182D02*
G01X0006835Y0015120D01*
G01X0006835Y0015120D02*
G01X0006774Y0015120D01*
G01X0006774Y0015120D02*
G01X0006712Y0015182D01*
G01X0006712Y0015182D02*
G01X0006712Y0015305D01*
G01X0006712Y0015305D02*
G01X0006774Y0015367D01*
G01X0006774Y0015367D02*
G01X0006835Y0015367D01*
G01X0006835Y0015367D02*
G01X0006897Y0015305D01*
G01X0006082Y0015305D02*
G01X0006082Y0015182D01*
G01X0006082Y0015182D02*
G01X0006021Y0015120D01*
G01X0006021Y0014998D02*
G01X0006082Y0014937D01*
G01X0006082Y0014937D02*
G01X0006082Y0014752D01*
G01X0006082Y0014752D02*
G01X0005712Y0014752D01*
G01X0005712Y0014752D02*
G01X0005712Y0014937D01*
G01X0005712Y0014937D02*
G01X0005774Y0014998D01*
G01X0005774Y0014998D02*
G01X0005835Y0014998D01*
G01X0005835Y0014998D02*
G01X0005897Y0014937D01*
G01X0005897Y0014937D02*
G01X0005897Y0014752D01*
G01X0005897Y0014937D02*
G01X0005959Y0014998D01*
G01X0005959Y0014998D02*
G01X0006021Y0014998D01*
G01X0005897Y0015182D02*
G01X0005897Y0015367D01*
G01X0005774Y0015367D02*
G01X0005712Y0015305D01*
G01X0005712Y0015305D02*
G01X0005712Y0015182D01*
G01X0005712Y0015182D02*
G01X0005774Y0015120D01*
G01X0005774Y0015120D02*
G01X0005835Y0015120D01*
G01X0005835Y0015120D02*
G01X0005897Y0015182D01*
G01X0006021Y0015367D02*
G01X0005774Y0015367D01*
G01X0006021Y0015367D02*
G01X0006082Y0015305D01*
G01X0003053Y0010234D02*
G01X0003115Y0010172D01*
G01X0003115Y0010172D02*
G01X0003115Y0010048D01*
G01X0003115Y0010048D02*
G01X0003053Y0009987D01*
G01X0003053Y0009865D02*
G01X0003115Y0009804D01*
G01X0003115Y0009804D02*
G01X0003115Y0009680D01*
G01X0003115Y0009680D02*
G01X0003053Y0009618D01*
G01X0002930Y0009680D02*
G01X0002930Y0009804D01*
G01X0002930Y0009804D02*
G01X0002992Y0009865D01*
G01X0002992Y0009865D02*
G01X0003053Y0009865D01*
G01X0002930Y0009680D02*
G01X0002868Y0009618D01*
G01X0002868Y0009618D02*
G01X0002806Y0009618D01*
G01X0002806Y0009618D02*
G01X0002745Y0009680D01*
G01X0002745Y0009680D02*
G01X0002745Y0009804D01*
G01X0002745Y0009804D02*
G01X0002806Y0009865D01*
G01X0002806Y0009987D02*
G01X0002745Y0010048D01*
G01X0002745Y0010048D02*
G01X0002745Y0010172D01*
G01X0002745Y0010172D02*
G01X0002806Y0010234D01*
G01X0002806Y0010234D02*
G01X0002868Y0010234D01*
G01X0002868Y0010234D02*
G01X0002930Y0010172D01*
G01X0002930Y0010172D02*
G01X0002992Y0010234D01*
G01X0002992Y0010234D02*
G01X0003053Y0010234D01*
G01X0002930Y0010172D02*
G01X0002930Y0010110D01*
G01X0001554Y0009418D02*
G01X0001184Y0009418D01*
G01X0001184Y0009418D02*
G01X0001184Y0009232D01*
G01X0001184Y0009232D02*
G01X0001245Y0009171D01*
G01X0001245Y0009171D02*
G01X0001492Y0009171D01*
G01X0001492Y0009171D02*
G01X0001554Y0009232D01*
G01X0001554Y0009232D02*
G01X0001554Y0009418D01*
G01X0001554Y0009049D02*
G01X0001184Y0009049D01*
G01X0001369Y0009049D02*
G01X0001369Y0008926D01*
G01X0001554Y0009049D02*
G01X0001554Y0008802D01*
G01X0001554Y0008681D02*
G01X0001245Y0008681D01*
G01X0001245Y0008681D02*
G01X0001184Y0008619D01*
G01X0001184Y0008619D02*
G01X0001184Y0008496D01*
G01X0001184Y0008496D02*
G01X0001245Y0008434D01*
G01X0001245Y0008434D02*
G01X0001554Y0008434D01*
G01X0001078Y0008259D02*
G01X0001016Y0008259D01*
G01X0000892Y0008259D02*
G01X0000646Y0008259D01*
G01X0000646Y0008320D02*
G01X0000646Y0008197D01*
G01X0000707Y0008075D02*
G01X0000646Y0008013D01*
G01X0000646Y0008013D02*
G01X0000646Y0007828D01*
G01X0000584Y0007828D02*
G01X0000892Y0007828D01*
G01X0000892Y0007828D02*
G01X0000892Y0008013D01*
G01X0000892Y0008013D02*
G01X0000831Y0008075D01*
G01X0000831Y0008075D02*
G01X0000707Y0008075D01*
G01X0000522Y0007951D02*
G01X0000522Y0007890D01*
G01X0000522Y0007890D02*
G01X0000584Y0007828D01*
G01X0000646Y0007707D02*
G01X0000892Y0007707D01*
G01X0000892Y0007707D02*
G01X0000892Y0007521D01*
G01X0000892Y0007521D02*
G01X0000831Y0007460D01*
G01X0000831Y0007460D02*
G01X0000646Y0007460D01*
G01X0000707Y0007338D02*
G01X0000646Y0007276D01*
G01X0000646Y0007276D02*
G01X0000646Y0007153D01*
G01X0000769Y0007091D02*
G01X0000769Y0007338D01*
G01X0000831Y0007338D02*
G01X0000892Y0007276D01*
G01X0000892Y0007276D02*
G01X0000892Y0007153D01*
G01X0000892Y0007153D02*
G01X0000831Y0007091D01*
G01X0000831Y0007091D02*
G01X0000769Y0007091D01*
G01X0000831Y0006970D02*
G01X0000892Y0006908D01*
G01X0000892Y0006908D02*
G01X0000892Y0006723D01*
G01X0001016Y0006723D02*
G01X0000646Y0006723D01*
G01X0000646Y0006723D02*
G01X0000646Y0006908D01*
G01X0000646Y0006908D02*
G01X0000707Y0006970D01*
G01X0000707Y0006970D02*
G01X0000831Y0006970D01*
G01X0000831Y0007338D02*
G01X0000707Y0007338D01*
G01X0000892Y0008259D02*
G01X0000892Y0008320D01*
G01X0000892Y0008442D02*
G01X0000892Y0008627D01*
G01X0000892Y0008627D02*
G01X0000831Y0008689D01*
G01X0000831Y0008689D02*
G01X0000769Y0008627D01*
G01X0000769Y0008627D02*
G01X0000769Y0008504D01*
G01X0000769Y0008504D02*
G01X0000707Y0008442D01*
G01X0000707Y0008442D02*
G01X0000646Y0008504D01*
G01X0000646Y0008504D02*
G01X0000646Y0008689D01*
G01X0000769Y0008810D02*
G01X0000769Y0009057D01*
G01X0000831Y0009057D02*
G01X0000892Y0008995D01*
G01X0000892Y0008995D02*
G01X0000892Y0008872D01*
G01X0000892Y0008872D02*
G01X0000831Y0008810D01*
G01X0000831Y0008810D02*
G01X0000769Y0008810D01*
G01X0000646Y0008872D02*
G01X0000646Y0008995D01*
G01X0000646Y0008995D02*
G01X0000707Y0009057D01*
G01X0000707Y0009057D02*
G01X0000831Y0009057D01*
G01X0000954Y0009178D02*
G01X0001016Y0009240D01*
G01X0001016Y0009240D02*
G01X0001016Y0009425D01*
G01X0001016Y0009425D02*
G01X0000646Y0009425D01*
G01X0000646Y0009425D02*
G01X0000646Y0009240D01*
G01X0000646Y0009240D02*
G01X0000707Y0009178D01*
G01X0000707Y0009178D02*
G01X0000954Y0009178D01*
G01X0000892Y0006233D02*
G01X0000892Y0006172D01*
G01X0000892Y0006172D02*
G01X0000646Y0006172D01*
G01X0000646Y0006233D02*
G01X0000646Y0006110D01*
G01X0000646Y0005988D02*
G01X0000892Y0005988D01*
G01X0000892Y0005988D02*
G01X0000892Y0005803D01*
G01X0000892Y0005803D02*
G01X0000831Y0005741D01*
G01X0000831Y0005741D02*
G01X0000646Y0005741D01*
G01X0001016Y0006172D02*
G01X0001078Y0006172D01*
G01X0000892Y0005251D02*
G01X0000646Y0005251D01*
G01X0000831Y0005251D02*
G01X0000831Y0005004D01*
G01X0000892Y0005004D02*
G01X0000646Y0005004D01*
G01X0000707Y0004883D02*
G01X0000646Y0004821D01*
G01X0000646Y0004821D02*
G01X0000646Y0004636D01*
G01X0000646Y0004636D02*
G01X0000892Y0004636D01*
G01X0000831Y0004514D02*
G01X0000892Y0004453D01*
G01X0000892Y0004453D02*
G01X0000892Y0004268D01*
G01X0000892Y0004146D02*
G01X0000892Y0004023D01*
G01X0000954Y0004084D02*
G01X0000707Y0004084D01*
G01X0000707Y0004084D02*
G01X0000646Y0004023D01*
G01X0000646Y0003901D02*
G01X0000646Y0003777D01*
G01X0000646Y0003839D02*
G01X0000892Y0003839D01*
G01X0000892Y0003839D02*
G01X0000892Y0003901D01*
G01X0001016Y0003839D02*
G01X0001078Y0003839D01*
G01X0000892Y0003655D02*
G01X0000892Y0003470D01*
G01X0000892Y0003470D02*
G01X0000831Y0003408D01*
G01X0000831Y0003408D02*
G01X0000646Y0003408D01*
G01X0000522Y0003287D02*
G01X0000646Y0003163D01*
G01X0000646Y0003163D02*
G01X0000646Y0003225D01*
G01X0000646Y0003225D02*
G01X0000707Y0003225D01*
G01X0000707Y0003225D02*
G01X0000707Y0003163D01*
G01X0000707Y0003163D02*
G01X0000646Y0003163D01*
G01X0001016Y0003041D02*
G01X0001016Y0002794D01*
G01X0001016Y0002918D02*
G01X0000646Y0002918D01*
G01X0000707Y0002673D02*
G01X0000646Y0002611D01*
G01X0000646Y0002611D02*
G01X0000646Y0002488D01*
G01X0000769Y0002426D02*
G01X0000769Y0002673D01*
G01X0000831Y0002673D02*
G01X0000892Y0002611D01*
G01X0000892Y0002611D02*
G01X0000892Y0002488D01*
G01X0000892Y0002488D02*
G01X0000831Y0002426D01*
G01X0000831Y0002426D02*
G01X0000769Y0002426D01*
G01X0000892Y0002305D02*
G01X0000646Y0002058D01*
G01X0000707Y0001936D02*
G01X0000646Y0001875D01*
G01X0000646Y0001875D02*
G01X0000646Y0001689D01*
G01X0000646Y0001689D02*
G01X0000831Y0001689D01*
G01X0000831Y0001689D02*
G01X0000892Y0001751D01*
G01X0000892Y0001751D02*
G01X0000892Y0001875D01*
G01X0000769Y0001875D02*
G01X0000769Y0001689D01*
G01X0000831Y0001568D02*
G01X0000892Y0001506D01*
G01X0000892Y0001506D02*
G01X0000892Y0001321D01*
G01X0000769Y0001383D02*
G01X0000769Y0001506D01*
G01X0000769Y0001506D02*
G01X0000831Y0001568D01*
G01X0000646Y0001568D02*
G01X0000646Y0001383D01*
G01X0000646Y0001383D02*
G01X0000707Y0001321D01*
G01X0000707Y0001321D02*
G01X0000769Y0001383D01*
G01X0000769Y0001875D02*
G01X0000707Y0001936D01*
G01X0000892Y0002058D02*
G01X0000646Y0002305D01*
G01X0000707Y0002673D02*
G01X0000831Y0002673D01*
G01X0000892Y0003655D02*
G01X0000646Y0003655D01*
G01X0000707Y0004268D02*
G01X0000646Y0004329D01*
G01X0000646Y0004329D02*
G01X0000646Y0004514D01*
G01X0000769Y0004453D02*
G01X0000769Y0004329D01*
G01X0000769Y0004329D02*
G01X0000707Y0004268D01*
G01X0000769Y0004453D02*
G01X0000831Y0004514D01*
G01X0000892Y0004883D02*
G01X0000707Y0004883D01*
G01X0000892Y0005004D02*
G01X0001016Y0005128D01*
G01X0001016Y0005128D02*
G01X0000892Y0005251D01*
G01X0004797Y0001375D02*
G01X0004859Y0001437D01*
G01X0004859Y0001437D02*
G01X0005106Y0001190D01*
G01X0005106Y0001190D02*
G01X0005168Y0001252D01*
G01X0005168Y0001252D02*
G01X0005168Y0001375D01*
G01X0005168Y0001375D02*
G01X0005106Y0001437D01*
G01X0005106Y0001437D02*
G01X0004859Y0001437D01*
G01X0004797Y0001375D02*
G01X0004797Y0001252D01*
G01X0004797Y0001252D02*
G01X0004859Y0001190D01*
G01X0004859Y0001190D02*
G01X0005106Y0001190D01*
G01X0005168Y0001069D02*
G01X0004921Y0001069D01*
G01X0004921Y0001069D02*
G01X0004797Y0000945D01*
G01X0004797Y0000945D02*
G01X0004921Y0000822D01*
G01X0004921Y0000822D02*
G01X0005168Y0000822D01*
G01X0004983Y0000822D02*
G01X0004983Y0001069D01*
G01X0005797Y0000945D02*
G01X0005921Y0001069D01*
G01X0005921Y0001069D02*
G01X0006168Y0001069D01*
G01X0006168Y0001190D02*
G01X0006168Y0001437D01*
G01X0006168Y0001314D02*
G01X0005797Y0001314D01*
G01X0005797Y0001314D02*
G01X0005921Y0001190D01*
G01X0005983Y0001069D02*
G01X0005983Y0000822D01*
G01X0005921Y0000822D02*
G01X0006168Y0000822D01*
G01X0005921Y0000822D02*
G01X0005797Y0000945D01*
G01X0006797Y0000945D02*
G01X0006921Y0001069D01*
G01X0006921Y0001069D02*
G01X0007168Y0001069D01*
G01X0007168Y0001190D02*
G01X0006921Y0001437D01*
G01X0006921Y0001437D02*
G01X0006859Y0001437D01*
G01X0006859Y0001437D02*
G01X0006797Y0001375D01*
G01X0006797Y0001375D02*
G01X0006797Y0001252D01*
G01X0006797Y0001252D02*
G01X0006859Y0001190D01*
G01X0006983Y0001069D02*
G01X0006983Y0000822D01*
G01X0006921Y0000822D02*
G01X0006797Y0000945D01*
G01X0006921Y0000822D02*
G01X0007168Y0000822D01*
G01X0007168Y0001190D02*
G01X0007168Y0001437D01*
G01X0007797Y0001375D02*
G01X0007797Y0001252D01*
G01X0007797Y0001252D02*
G01X0007859Y0001190D01*
G01X0007921Y0001069D02*
G01X0008168Y0001069D01*
G01X0008106Y0001190D02*
G01X0008168Y0001252D01*
G01X0008168Y0001252D02*
G01X0008168Y0001375D01*
G01X0008168Y0001375D02*
G01X0008106Y0001437D01*
G01X0008106Y0001437D02*
G01X0008044Y0001437D01*
G01X0008044Y0001437D02*
G01X0007983Y0001375D01*
G01X0007983Y0001375D02*
G01X0007983Y0001314D01*
G01X0007983Y0001375D02*
G01X0007921Y0001437D01*
G01X0007921Y0001437D02*
G01X0007859Y0001437D01*
G01X0007859Y0001437D02*
G01X0007797Y0001375D01*
G01X0007921Y0001069D02*
G01X0007797Y0000945D01*
G01X0007797Y0000945D02*
G01X0007921Y0000822D01*
G01X0007921Y0000822D02*
G01X0008168Y0000822D01*
G01X0007983Y0000822D02*
G01X0007983Y0001069D01*
G01X0008797Y0000945D02*
G01X0008921Y0001069D01*
G01X0008921Y0001069D02*
G01X0009168Y0001069D01*
G01X0008983Y0001069D02*
G01X0008983Y0000822D01*
G01X0008921Y0000822D02*
G01X0008797Y0000945D01*
G01X0008921Y0000822D02*
G01X0009168Y0000822D01*
G01X0009797Y0000945D02*
G01X0009921Y0001069D01*
G01X0009921Y0001069D02*
G01X0010168Y0001069D01*
G01X0010106Y0001190D02*
G01X0010168Y0001252D01*
G01X0010168Y0001252D02*
G01X0010168Y0001375D01*
G01X0010168Y0001375D02*
G01X0010106Y0001437D01*
G01X0010106Y0001437D02*
G01X0009983Y0001437D01*
G01X0009983Y0001437D02*
G01X0009921Y0001375D01*
G01X0009921Y0001375D02*
G01X0009921Y0001314D01*
G01X0009921Y0001314D02*
G01X0009983Y0001190D01*
G01X0009983Y0001190D02*
G01X0009797Y0001190D01*
G01X0009797Y0001190D02*
G01X0009797Y0001437D01*
G01X0009168Y0001375D02*
G01X0008797Y0001375D01*
G01X0008797Y0001375D02*
G01X0008983Y0001190D01*
G01X0008983Y0001190D02*
G01X0008983Y0001437D01*
G01X0009797Y0000945D02*
G01X0009921Y0000822D01*
G01X0009921Y0000822D02*
G01X0010168Y0000822D01*
G01X0009983Y0000822D02*
G01X0009983Y0001069D01*
G01X0010797Y0000945D02*
G01X0010921Y0001069D01*
G01X0010921Y0001069D02*
G01X0011168Y0001069D01*
G01X0011106Y0001190D02*
G01X0011168Y0001252D01*
G01X0011168Y0001252D02*
G01X0011168Y0001375D01*
G01X0011168Y0001375D02*
G01X0011106Y0001437D01*
G01X0011106Y0001437D02*
G01X0011044Y0001437D01*
G01X0011044Y0001437D02*
G01X0010983Y0001375D01*
G01X0010983Y0001375D02*
G01X0010983Y0001190D01*
G01X0010983Y0001190D02*
G01X0011106Y0001190D01*
G01X0010983Y0001190D02*
G01X0010859Y0001314D01*
G01X0010859Y0001314D02*
G01X0010797Y0001437D01*
G01X0010983Y0001069D02*
G01X0010983Y0000822D01*
G01X0010921Y0000822D02*
G01X0010797Y0000945D01*
G01X0010921Y0000822D02*
G01X0011168Y0000822D01*
G01X0011797Y0000945D02*
G01X0011921Y0001069D01*
G01X0011921Y0001069D02*
G01X0012168Y0001069D01*
G01X0012168Y0001190D02*
G01X0012106Y0001190D01*
G01X0012106Y0001190D02*
G01X0011859Y0001437D01*
G01X0011859Y0001437D02*
G01X0011797Y0001437D01*
G01X0011797Y0001437D02*
G01X0011797Y0001190D01*
G01X0011983Y0001069D02*
G01X0011983Y0000822D01*
G01X0011921Y0000822D02*
G01X0011797Y0000945D01*
G01X0011921Y0000822D02*
G01X0012168Y0000822D01*
G01X0012797Y0000822D02*
G01X0012797Y0001007D01*
G01X0012797Y0001007D02*
G01X0012859Y0001069D01*
G01X0012859Y0001069D02*
G01X0012921Y0001069D01*
G01X0012921Y0001069D02*
G01X0012983Y0001007D01*
G01X0012983Y0001007D02*
G01X0012983Y0000822D01*
G01X0013168Y0000822D02*
G01X0013168Y0001007D01*
G01X0013168Y0001007D02*
G01X0013106Y0001069D01*
G01X0013106Y0001069D02*
G01X0013044Y0001069D01*
G01X0013044Y0001069D02*
G01X0012983Y0001007D01*
G01X0013106Y0001190D02*
G01X0012859Y0001190D01*
G01X0012859Y0001190D02*
G01X0012797Y0001252D01*
G01X0012797Y0001252D02*
G01X0012797Y0001375D01*
G01X0012797Y0001375D02*
G01X0012859Y0001437D01*
G01X0012859Y0001437D02*
G01X0013106Y0001190D01*
G01X0013106Y0001190D02*
G01X0013168Y0001252D01*
G01X0013168Y0001252D02*
G01X0013168Y0001375D01*
G01X0013168Y0001375D02*
G01X0013106Y0001437D01*
G01X0013106Y0001437D02*
G01X0012859Y0001437D01*
G01X0012797Y0000822D02*
G01X0013168Y0000822D01*
G01X0013797Y0000822D02*
G01X0013797Y0001007D01*
G01X0013797Y0001007D02*
G01X0013859Y0001069D01*
G01X0013859Y0001069D02*
G01X0013921Y0001069D01*
G01X0013921Y0001069D02*
G01X0013983Y0001007D01*
G01X0013983Y0001007D02*
G01X0013983Y0000822D01*
G01X0014168Y0000822D02*
G01X0013797Y0000822D01*
G01X0013983Y0001007D02*
G01X0014044Y0001069D01*
G01X0014044Y0001069D02*
G01X0014106Y0001069D01*
G01X0014106Y0001069D02*
G01X0014168Y0001007D01*
G01X0014168Y0001007D02*
G01X0014168Y0000822D01*
G01X0014168Y0001190D02*
G01X0014168Y0001437D01*
G01X0014168Y0001314D02*
G01X0013797Y0001314D01*
G01X0013797Y0001314D02*
G01X0013921Y0001190D01*
G01X0019427Y0003765D02*
G01X0019489Y0003703D01*
G01X0019489Y0003703D02*
G01X0019612Y0003703D01*
G01X0019612Y0003703D02*
G01X0019674Y0003765D01*
G01X0019674Y0003765D02*
G01X0019674Y0004074D01*
G01X0019796Y0004012D02*
G01X0019857Y0004074D01*
G01X0019857Y0004074D02*
G01X0019981Y0004074D01*
G01X0019981Y0004074D02*
G01X0020042Y0004012D01*
G01X0020164Y0004074D02*
G01X0020164Y0003703D01*
G01X0020164Y0003703D02*
G01X0020411Y0003703D01*
G01X0020532Y0003703D02*
G01X0020532Y0004074D01*
G01X0020532Y0004074D02*
G01X0020717Y0004074D01*
G01X0020717Y0004074D02*
G01X0020779Y0004012D01*
G01X0020779Y0004012D02*
G01X0020779Y0003889D01*
G01X0020779Y0003889D02*
G01X0020717Y0003827D01*
G01X0020717Y0003827D02*
G01X0020532Y0003827D01*
G01X0020656Y0003827D02*
G01X0020779Y0003703D01*
G01X0020287Y0003889D02*
G01X0020164Y0003889D01*
G01X0020042Y0003827D02*
G01X0020042Y0003765D01*
G01X0020042Y0003765D02*
G01X0019981Y0003703D01*
G01X0019981Y0003703D02*
G01X0019857Y0003703D01*
G01X0019857Y0003703D02*
G01X0019796Y0003765D01*
G01X0019857Y0003889D02*
G01X0019981Y0003889D01*
G01X0019981Y0003889D02*
G01X0020042Y0003827D01*
G01X0019857Y0003889D02*
G01X0019796Y0003950D01*
G01X0019796Y0003950D02*
G01X0019796Y0004012D01*
G01X0020164Y0004074D02*
G01X0020411Y0004074D01*
G01X0019427Y0004074D02*
G01X0019427Y0003765D01*
G01X0018903Y0005173D02*
G01X0018964Y0005234D01*
G01X0018964Y0005234D02*
G01X0018964Y0005358D01*
G01X0018964Y0005358D02*
G01X0018903Y0005419D01*
G01X0018903Y0005419D02*
G01X0018841Y0005419D01*
G01X0018841Y0005419D02*
G01X0018779Y0005358D01*
G01X0018779Y0005358D02*
G01X0018779Y0005234D01*
G01X0018779Y0005234D02*
G01X0018718Y0005173D01*
G01X0018718Y0005173D02*
G01X0018656Y0005173D01*
G01X0018656Y0005173D02*
G01X0018594Y0005234D01*
G01X0018594Y0005234D02*
G01X0018594Y0005358D01*
G01X0018594Y0005358D02*
G01X0018656Y0005419D01*
G01X0018779Y0005541D02*
G01X0018779Y0005788D01*
G01X0018594Y0005726D02*
G01X0018779Y0005541D01*
G01X0018964Y0005726D02*
G01X0018594Y0005726D01*
G01X0019578Y0007390D02*
G01X0019578Y0007760D01*
G01X0019578Y0007760D02*
G01X0019764Y0007760D01*
G01X0019764Y0007760D02*
G01X0019825Y0007698D01*
G01X0019825Y0007698D02*
G01X0019825Y0007575D01*
G01X0019825Y0007575D02*
G01X0019764Y0007513D01*
G01X0019764Y0007513D02*
G01X0019578Y0007513D01*
G01X0019702Y0007513D02*
G01X0019825Y0007390D01*
G01X0019947Y0007575D02*
G01X0020194Y0007575D01*
G01X0020132Y0007390D02*
G01X0020132Y0007760D01*
G01X0020132Y0007760D02*
G01X0019947Y0007575D01*
G01X0020908Y0007536D02*
G01X0021094Y0007536D01*
G01X0021094Y0007536D02*
G01X0021155Y0007597D01*
G01X0021155Y0007597D02*
G01X0021155Y0007721D01*
G01X0021155Y0007721D02*
G01X0021094Y0007783D01*
G01X0021094Y0007783D02*
G01X0020908Y0007783D01*
G01X0020908Y0007783D02*
G01X0020908Y0007412D01*
G01X0021032Y0007536D02*
G01X0021155Y0007412D01*
G01X0021277Y0007474D02*
G01X0021338Y0007412D01*
G01X0021338Y0007412D02*
G01X0021462Y0007412D01*
G01X0021462Y0007412D02*
G01X0021524Y0007474D01*
G01X0021524Y0007474D02*
G01X0021524Y0007597D01*
G01X0021524Y0007597D02*
G01X0021462Y0007659D01*
G01X0021462Y0007659D02*
G01X0021400Y0007659D01*
G01X0021400Y0007659D02*
G01X0021277Y0007597D01*
G01X0021277Y0007597D02*
G01X0021277Y0007783D01*
G01X0021277Y0007783D02*
G01X0021524Y0007783D01*
G01X0022450Y0007817D02*
G01X0022512Y0007755D01*
G01X0022512Y0007755D02*
G01X0022635Y0007755D01*
G01X0022635Y0007755D02*
G01X0022697Y0007817D01*
G01X0022818Y0007755D02*
G01X0023065Y0007755D01*
G01X0022942Y0007755D02*
G01X0022942Y0008125D01*
G01X0022942Y0008125D02*
G01X0022818Y0008002D01*
G01X0022697Y0008064D02*
G01X0022635Y0008125D01*
G01X0022635Y0008125D02*
G01X0022512Y0008125D01*
G01X0022512Y0008125D02*
G01X0022450Y0008064D01*
G01X0022450Y0008064D02*
G01X0022450Y0007817D01*
G01X0023187Y0007940D02*
G01X0023434Y0007940D01*
G01X0023372Y0007755D02*
G01X0023372Y0008125D01*
G01X0023372Y0008125D02*
G01X0023187Y0007940D01*
G01X0019725Y0009317D02*
G01X0019663Y0009255D01*
G01X0019663Y0009255D02*
G01X0019416Y0009255D01*
G01X0019416Y0009255D02*
G01X0019355Y0009317D01*
G01X0019355Y0009317D02*
G01X0019355Y0009440D01*
G01X0019355Y0009440D02*
G01X0019416Y0009502D01*
G01X0019478Y0009623D02*
G01X0019355Y0009747D01*
G01X0019355Y0009747D02*
G01X0019725Y0009747D01*
G01X0019725Y0009870D02*
G01X0019725Y0009623D01*
G01X0019663Y0009502D02*
G01X0019725Y0009440D01*
G01X0019725Y0009440D02*
G01X0019725Y0009317D01*
G01X0019663Y0009992D02*
G01X0019602Y0009992D01*
G01X0019602Y0009992D02*
G01X0019540Y0010053D01*
G01X0019540Y0010053D02*
G01X0019540Y0010177D01*
G01X0019540Y0010177D02*
G01X0019602Y0010239D01*
G01X0019602Y0010239D02*
G01X0019663Y0010239D01*
G01X0019663Y0010239D02*
G01X0019725Y0010177D01*
G01X0019725Y0010177D02*
G01X0019725Y0010053D01*
G01X0019725Y0010053D02*
G01X0019663Y0009992D01*
G01X0019540Y0010053D02*
G01X0019478Y0009992D01*
G01X0019478Y0009992D02*
G01X0019416Y0009992D01*
G01X0019416Y0009992D02*
G01X0019355Y0010053D01*
G01X0019355Y0010053D02*
G01X0019355Y0010177D01*
G01X0019355Y0010177D02*
G01X0019416Y0010239D01*
G01X0019416Y0010239D02*
G01X0019478Y0010239D01*
G01X0019478Y0010239D02*
G01X0019540Y0010177D01*
G01X0019663Y0010755D02*
G01X0019416Y0010755D01*
G01X0019416Y0010755D02*
G01X0019355Y0010817D01*
G01X0019355Y0010817D02*
G01X0019355Y0010940D01*
G01X0019355Y0010940D02*
G01X0019416Y0011002D01*
G01X0019478Y0011123D02*
G01X0019355Y0011247D01*
G01X0019355Y0011247D02*
G01X0019725Y0011247D01*
G01X0019725Y0011370D02*
G01X0019725Y0011123D01*
G01X0019663Y0011002D02*
G01X0019725Y0010940D01*
G01X0019725Y0010940D02*
G01X0019725Y0010817D01*
G01X0019725Y0010817D02*
G01X0019663Y0010755D01*
G01X0019663Y0011492D02*
G01X0019725Y0011492D01*
G01X0019663Y0011492D02*
G01X0019416Y0011739D01*
G01X0019416Y0011739D02*
G01X0019355Y0011739D01*
G01X0019355Y0011739D02*
G01X0019355Y0011492D01*
G01X0022210Y0010541D02*
G01X0022210Y0010418D01*
G01X0022210Y0010418D02*
G01X0022272Y0010356D01*
G01X0022272Y0010235D02*
G01X0022210Y0010235D01*
G01X0022272Y0010235D02*
G01X0022395Y0010111D01*
G01X0022395Y0010111D02*
G01X0022580Y0010111D01*
G01X0022395Y0010111D02*
G01X0022272Y0009988D01*
G01X0022272Y0009988D02*
G01X0022210Y0009988D01*
G01X0022580Y0010356D02*
G01X0022333Y0010603D01*
G01X0022333Y0010603D02*
G01X0022272Y0010603D01*
G01X0022272Y0010603D02*
G01X0022210Y0010541D01*
G01X0022580Y0010603D02*
G01X0022580Y0010356D01*
G01X0022640Y0012555D02*
G01X0022702Y0012617D01*
G01X0022640Y0012555D02*
G01X0022517Y0012555D01*
G01X0022517Y0012555D02*
G01X0022455Y0012617D01*
G01X0022455Y0012617D02*
G01X0022455Y0012864D01*
G01X0022455Y0012864D02*
G01X0022517Y0012925D01*
G01X0022517Y0012925D02*
G01X0022640Y0012925D01*
G01X0022640Y0012925D02*
G01X0022702Y0012864D01*
G01X0022823Y0012802D02*
G01X0022947Y0012925D01*
G01X0022947Y0012925D02*
G01X0022947Y0012555D01*
G01X0023070Y0012555D02*
G01X0022823Y0012555D01*
G01X0023192Y0012617D02*
G01X0023253Y0012555D01*
G01X0023253Y0012555D02*
G01X0023377Y0012555D01*
G01X0023377Y0012555D02*
G01X0023439Y0012617D01*
G01X0023439Y0012617D02*
G01X0023439Y0012740D01*
G01X0023439Y0012740D02*
G01X0023377Y0012802D01*
G01X0023377Y0012802D02*
G01X0023315Y0012802D01*
G01X0023315Y0012802D02*
G01X0023192Y0012740D01*
G01X0023192Y0012740D02*
G01X0023192Y0012925D01*
G01X0023192Y0012925D02*
G01X0023439Y0012925D01*
G01X0026955Y0012864D02*
G01X0026955Y0012617D01*
G01X0026955Y0012617D02*
G01X0027017Y0012555D01*
G01X0027017Y0012555D02*
G01X0027140Y0012555D01*
G01X0027140Y0012555D02*
G01X0027202Y0012617D01*
G01X0027323Y0012555D02*
G01X0027570Y0012555D01*
G01X0027447Y0012555D02*
G01X0027447Y0012925D01*
G01X0027447Y0012925D02*
G01X0027323Y0012802D01*
G01X0027202Y0012864D02*
G01X0027140Y0012925D01*
G01X0027140Y0012925D02*
G01X0027017Y0012925D01*
G01X0027017Y0012925D02*
G01X0026955Y0012864D01*
G01X0027692Y0012864D02*
G01X0027753Y0012925D01*
G01X0027753Y0012925D02*
G01X0027877Y0012925D01*
G01X0027877Y0012925D02*
G01X0027939Y0012864D01*
G01X0027939Y0012864D02*
G01X0027939Y0012802D01*
G01X0027939Y0012802D02*
G01X0027877Y0012740D01*
G01X0027877Y0012740D02*
G01X0027939Y0012678D01*
G01X0027939Y0012678D02*
G01X0027939Y0012617D01*
G01X0027939Y0012617D02*
G01X0027877Y0012555D01*
G01X0027877Y0012555D02*
G01X0027753Y0012555D01*
G01X0027753Y0012555D02*
G01X0027692Y0012617D01*
G01X0027815Y0012740D02*
G01X0027877Y0012740D01*
G01X0030155Y0012125D02*
G01X0030155Y0011755D01*
G01X0030155Y0011878D02*
G01X0030340Y0011878D01*
G01X0030340Y0011878D02*
G01X0030402Y0011940D01*
G01X0030402Y0011940D02*
G01X0030402Y0012064D01*
G01X0030402Y0012064D02*
G01X0030340Y0012125D01*
G01X0030340Y0012125D02*
G01X0030155Y0012125D01*
G01X0030523Y0012064D02*
G01X0030523Y0012002D01*
G01X0030523Y0012002D02*
G01X0030585Y0011940D01*
G01X0030585Y0011940D02*
G01X0030770Y0011940D01*
G01X0030770Y0011817D02*
G01X0030770Y0012064D01*
G01X0030770Y0012064D02*
G01X0030708Y0012125D01*
G01X0030708Y0012125D02*
G01X0030585Y0012125D01*
G01X0030585Y0012125D02*
G01X0030523Y0012064D01*
G01X0030523Y0011817D02*
G01X0030585Y0011755D01*
G01X0030585Y0011755D02*
G01X0030708Y0011755D01*
G01X0030708Y0011755D02*
G01X0030770Y0011817D01*
G01X0030402Y0011755D02*
G01X0030278Y0011878D01*
G01X0030290Y0011325D02*
G01X0030335Y0011280D01*
G01X0030335Y0011280D02*
G01X0030335Y0011190D01*
G01X0030335Y0011190D02*
G01X0030290Y0011145D01*
G01X0030290Y0011145D02*
G01X0030155Y0011145D01*
G01X0030155Y0011055D02*
G01X0030155Y0011325D01*
G01X0030155Y0011325D02*
G01X0030290Y0011325D01*
G01X0030431Y0011325D02*
G01X0030611Y0011055D01*
G01X0030611Y0011055D02*
G01X0030611Y0011325D01*
G01X0030707Y0011235D02*
G01X0030798Y0011325D01*
G01X0030798Y0011325D02*
G01X0030798Y0011055D01*
G01X0030888Y0011055D02*
G01X0030707Y0011055D01*
G01X0030431Y0011055D02*
G01X0030431Y0011325D01*
G01X0030245Y0011145D02*
G01X0030335Y0011055D01*
G01X0032260Y0012116D02*
G01X0032506Y0012486D01*
G01X0032628Y0012363D02*
G01X0032751Y0012486D01*
G01X0032751Y0012486D02*
G01X0032751Y0012116D01*
G01X0032628Y0012116D02*
G01X0032875Y0012116D01*
G01X0032506Y0012116D02*
G01X0032260Y0012486D01*
G01X0030913Y0009603D02*
G01X0030790Y0009480D01*
G01X0030913Y0009603D02*
G01X0030913Y0009233D01*
G01X0030790Y0009233D02*
G01X0031036Y0009233D01*
G01X0030668Y0009233D02*
G01X0030421Y0009233D01*
G01X0030300Y0009233D02*
G01X0030176Y0009356D01*
G01X0030238Y0009356D02*
G01X0030053Y0009356D01*
G01X0030053Y0009233D02*
G01X0030053Y0009603D01*
G01X0030053Y0009603D02*
G01X0030238Y0009603D01*
G01X0030238Y0009603D02*
G01X0030300Y0009541D01*
G01X0030300Y0009541D02*
G01X0030300Y0009418D01*
G01X0030300Y0009418D02*
G01X0030238Y0009356D01*
G01X0030421Y0009480D02*
G01X0030545Y0009603D01*
G01X0030545Y0009603D02*
G01X0030545Y0009233D01*
G01X0028602Y0009153D02*
G01X0028355Y0009400D01*
G01X0028355Y0009400D02*
G01X0028293Y0009400D01*
G01X0028293Y0009400D02*
G01X0028231Y0009338D01*
G01X0028231Y0009338D02*
G01X0028231Y0009214D01*
G01X0028231Y0009214D02*
G01X0028293Y0009153D01*
G01X0028602Y0009153D02*
G01X0028602Y0009400D01*
G01X0028602Y0009031D02*
G01X0028602Y0008784D01*
G01X0028602Y0008908D02*
G01X0028231Y0008908D01*
G01X0028231Y0008908D02*
G01X0028355Y0008784D01*
G01X0028293Y0008663D02*
G01X0028231Y0008601D01*
G01X0028231Y0008601D02*
G01X0028231Y0008478D01*
G01X0028231Y0008478D02*
G01X0028293Y0008416D01*
G01X0028293Y0008416D02*
G01X0028540Y0008416D01*
G01X0028540Y0008416D02*
G01X0028602Y0008478D01*
G01X0028602Y0008478D02*
G01X0028602Y0008601D01*
G01X0028602Y0008601D02*
G01X0028540Y0008663D01*
G01X0028425Y0008132D02*
G01X0028425Y0007885D01*
G01X0028425Y0007885D02*
G01X0028240Y0008070D01*
G01X0028240Y0008070D02*
G01X0028610Y0008070D01*
G01X0028610Y0007764D02*
G01X0028610Y0007517D01*
G01X0028610Y0007395D02*
G01X0028487Y0007272D01*
G01X0028487Y0007334D02*
G01X0028487Y0007149D01*
G01X0028610Y0007149D02*
G01X0028240Y0007149D01*
G01X0028240Y0007149D02*
G01X0028240Y0007334D01*
G01X0028240Y0007334D02*
G01X0028301Y0007395D01*
G01X0028301Y0007395D02*
G01X0028425Y0007395D01*
G01X0028425Y0007395D02*
G01X0028487Y0007334D01*
G01X0028363Y0007517D02*
G01X0028240Y0007640D01*
G01X0028240Y0007640D02*
G01X0028610Y0007640D01*
G01X0028513Y0006920D02*
G01X0028513Y0006735D01*
G01X0028513Y0006735D02*
G01X0028636Y0006797D01*
G01X0028636Y0006797D02*
G01X0028698Y0006797D01*
G01X0028698Y0006797D02*
G01X0028759Y0006735D01*
G01X0028759Y0006735D02*
G01X0028759Y0006612D01*
G01X0028759Y0006612D02*
G01X0028698Y0006550D01*
G01X0028698Y0006550D02*
G01X0028574Y0006550D01*
G01X0028574Y0006550D02*
G01X0028513Y0006612D01*
G01X0028391Y0006612D02*
G01X0028329Y0006550D01*
G01X0028329Y0006550D02*
G01X0028206Y0006550D01*
G01X0028206Y0006550D02*
G01X0028144Y0006612D01*
G01X0028144Y0006612D02*
G01X0028144Y0006859D01*
G01X0028144Y0006859D02*
G01X0028206Y0006920D01*
G01X0028206Y0006920D02*
G01X0028329Y0006920D01*
G01X0028329Y0006920D02*
G01X0028391Y0006859D01*
G01X0028513Y0006920D02*
G01X0028759Y0006920D01*
G01X0030478Y0007152D02*
G01X0030664Y0007152D01*
G01X0030664Y0007152D02*
G01X0030725Y0007214D01*
G01X0030725Y0007214D02*
G01X0030725Y0007461D01*
G01X0030725Y0007461D02*
G01X0030664Y0007523D01*
G01X0030664Y0007523D02*
G01X0030478Y0007523D01*
G01X0030478Y0007523D02*
G01X0030478Y0007152D01*
G01X0030847Y0007152D02*
G01X0031094Y0007152D01*
G01X0030970Y0007152D02*
G01X0030970Y0007523D01*
G01X0030970Y0007523D02*
G01X0030847Y0007399D01*
G01X0030894Y0007758D02*
G01X0031140Y0007758D01*
G01X0031017Y0007758D02*
G01X0031017Y0008128D01*
G01X0031017Y0008128D02*
G01X0030894Y0008004D01*
G01X0030772Y0008128D02*
G01X0030525Y0008128D01*
G01X0030525Y0008128D02*
G01X0030525Y0007758D01*
G01X0030525Y0007943D02*
G01X0030649Y0007943D01*
G01X0028687Y0005837D02*
G01X0028749Y0005775D01*
G01X0028749Y0005775D02*
G01X0028749Y0005652D01*
G01X0028749Y0005652D02*
G01X0028687Y0005590D01*
G01X0028687Y0005469D02*
G01X0028379Y0005469D01*
G01X0028441Y0005590D02*
G01X0028379Y0005652D01*
G01X0028379Y0005652D02*
G01X0028379Y0005775D01*
G01X0028379Y0005775D02*
G01X0028441Y0005837D01*
G01X0028441Y0005837D02*
G01X0028502Y0005837D01*
G01X0028502Y0005837D02*
G01X0028564Y0005775D01*
G01X0028564Y0005775D02*
G01X0028626Y0005837D01*
G01X0028626Y0005837D02*
G01X0028687Y0005837D01*
G01X0028564Y0005775D02*
G01X0028564Y0005713D01*
G01X0028687Y0005469D02*
G01X0028749Y0005407D01*
G01X0028749Y0005407D02*
G01X0028749Y0005283D01*
G01X0028749Y0005283D02*
G01X0028687Y0005222D01*
G01X0028687Y0005222D02*
G01X0028379Y0005222D01*
G01X0028310Y0004514D02*
G01X0028187Y0004514D01*
G01X0028187Y0004514D02*
G01X0028125Y0004452D01*
G01X0028125Y0004452D02*
G01X0028125Y0004205D01*
G01X0028125Y0004205D02*
G01X0028187Y0004143D01*
G01X0028187Y0004143D02*
G01X0028310Y0004143D01*
G01X0028310Y0004143D02*
G01X0028372Y0004205D01*
G01X0028494Y0004143D02*
G01X0028740Y0004143D01*
G01X0028862Y0004143D02*
G01X0029109Y0004143D01*
G01X0028985Y0004143D02*
G01X0028985Y0004514D01*
G01X0028985Y0004514D02*
G01X0028862Y0004390D01*
G01X0028617Y0004514D02*
G01X0028617Y0004143D01*
G01X0028494Y0004390D02*
G01X0028617Y0004514D01*
G01X0028372Y0004452D02*
G01X0028310Y0004514D01*
G01X0025925Y0004164D02*
G01X0025925Y0003917D01*
G01X0025925Y0003917D02*
G01X0025555Y0003917D01*
G01X0025555Y0003917D02*
G01X0025555Y0004164D01*
G01X0025740Y0004040D02*
G01X0025740Y0003917D01*
G01X0025925Y0003795D02*
G01X0025925Y0003548D01*
G01X0025925Y0003548D02*
G01X0025555Y0003548D01*
G01X0025616Y0003427D02*
G01X0025555Y0003365D01*
G01X0025555Y0003365D02*
G01X0025555Y0003180D01*
G01X0025555Y0003180D02*
G01X0025925Y0003180D01*
G01X0025925Y0003180D02*
G01X0025925Y0003365D01*
G01X0025925Y0003365D02*
G01X0025863Y0003427D01*
G01X0025863Y0003427D02*
G01X0025616Y0003427D01*
G01X0025324Y0003364D02*
G01X0025263Y0003425D01*
G01X0025263Y0003425D02*
G01X0024954Y0003425D01*
G01X0025016Y0003547D02*
G01X0025078Y0003547D01*
G01X0025078Y0003547D02*
G01X0025139Y0003609D01*
G01X0025139Y0003609D02*
G01X0025139Y0003732D01*
G01X0025139Y0003732D02*
G01X0025201Y0003794D01*
G01X0025201Y0003794D02*
G01X0025263Y0003794D01*
G01X0025263Y0003794D02*
G01X0025324Y0003732D01*
G01X0025324Y0003732D02*
G01X0025324Y0003609D01*
G01X0025324Y0003609D02*
G01X0025263Y0003547D01*
G01X0025324Y0003364D02*
G01X0025324Y0003240D01*
G01X0025324Y0003240D02*
G01X0025263Y0003178D01*
G01X0025263Y0003178D02*
G01X0024954Y0003178D01*
G01X0025016Y0003057D02*
G01X0025078Y0003057D01*
G01X0025078Y0003057D02*
G01X0025139Y0002995D01*
G01X0025139Y0002995D02*
G01X0025139Y0002810D01*
G01X0024954Y0002810D02*
G01X0024954Y0002995D01*
G01X0024954Y0002995D02*
G01X0025016Y0003057D01*
G01X0025139Y0002995D02*
G01X0025201Y0003057D01*
G01X0025201Y0003057D02*
G01X0025263Y0003057D01*
G01X0025263Y0003057D02*
G01X0025324Y0002995D01*
G01X0025324Y0002995D02*
G01X0025324Y0002810D01*
G01X0025324Y0002810D02*
G01X0024954Y0002810D01*
G01X0025555Y0002935D02*
G01X0025555Y0003058D01*
G01X0025555Y0002996D02*
G01X0025925Y0002996D01*
G01X0025925Y0002935D02*
G01X0025925Y0003058D01*
G01X0025258Y0002536D02*
G01X0025073Y0002350D01*
G01X0025135Y0002289D02*
G01X0024888Y0002536D01*
G01X0024888Y0002289D02*
G01X0025258Y0002289D01*
G01X0025258Y0002167D02*
G01X0025258Y0001920D01*
G01X0025258Y0001920D02*
G01X0024888Y0001920D01*
G01X0024949Y0001799D02*
G01X0025011Y0001799D01*
G01X0025011Y0001799D02*
G01X0025073Y0001737D01*
G01X0025073Y0001737D02*
G01X0025073Y0001552D01*
G01X0025258Y0001552D02*
G01X0024888Y0001552D01*
G01X0024888Y0001552D02*
G01X0024888Y0001737D01*
G01X0024888Y0001737D02*
G01X0024949Y0001799D01*
G01X0025073Y0001737D02*
G01X0025135Y0001799D01*
G01X0025135Y0001799D02*
G01X0025196Y0001799D01*
G01X0025196Y0001799D02*
G01X0025258Y0001737D01*
G01X0025258Y0001737D02*
G01X0025258Y0001552D01*
G01X0024168Y0001314D02*
G01X0024044Y0001437D01*
G01X0024044Y0001437D02*
G01X0023797Y0001437D01*
G01X0023797Y0001190D02*
G01X0024044Y0001190D01*
G01X0024044Y0001190D02*
G01X0024168Y0001314D01*
G01X0024106Y0001069D02*
G01X0024168Y0001007D01*
G01X0024168Y0001007D02*
G01X0024168Y0000884D01*
G01X0024168Y0000884D02*
G01X0024106Y0000822D01*
G01X0023983Y0000822D02*
G01X0023921Y0000945D01*
G01X0023921Y0000945D02*
G01X0023921Y0001007D01*
G01X0023921Y0001007D02*
G01X0023983Y0001069D01*
G01X0023983Y0001069D02*
G01X0024106Y0001069D01*
G01X0023983Y0000822D02*
G01X0023797Y0000822D01*
G01X0023797Y0000822D02*
G01X0023797Y0001069D01*
G01X0023168Y0001007D02*
G01X0023168Y0000884D01*
G01X0023168Y0000884D02*
G01X0023106Y0000822D01*
G01X0022983Y0000945D02*
G01X0022983Y0001007D01*
G01X0022983Y0001007D02*
G01X0023044Y0001069D01*
G01X0023044Y0001069D02*
G01X0023106Y0001069D01*
G01X0023106Y0001069D02*
G01X0023168Y0001007D01*
G01X0022983Y0001007D02*
G01X0022921Y0001069D01*
G01X0022921Y0001069D02*
G01X0022859Y0001069D01*
G01X0022859Y0001069D02*
G01X0022797Y0001007D01*
G01X0022797Y0001007D02*
G01X0022797Y0000884D01*
G01X0022797Y0000884D02*
G01X0022859Y0000822D01*
G01X0022797Y0001190D02*
G01X0023044Y0001190D01*
G01X0023044Y0001190D02*
G01X0023168Y0001314D01*
G01X0023168Y0001314D02*
G01X0023044Y0001437D01*
G01X0023044Y0001437D02*
G01X0022797Y0001437D01*
G01X0027110Y0002750D02*
G01X0027295Y0002750D01*
G01X0027295Y0002750D02*
G01X0027357Y0002812D01*
G01X0027357Y0002812D02*
G01X0027357Y0003059D01*
G01X0027357Y0003059D02*
G01X0027295Y0003121D01*
G01X0027295Y0003121D02*
G01X0027110Y0003121D01*
G01X0027110Y0003121D02*
G01X0027110Y0002750D01*
G01X0027478Y0002750D02*
G01X0027725Y0002997D01*
G01X0027725Y0002997D02*
G01X0027725Y0003059D01*
G01X0027725Y0003059D02*
G01X0027663Y0003121D01*
G01X0027663Y0003121D02*
G01X0027540Y0003121D01*
G01X0027540Y0003121D02*
G01X0027478Y0003059D01*
G01X0027478Y0002750D02*
G01X0027725Y0002750D01*
G01X0028817Y0001437D02*
G01X0029188Y0001190D01*
G01X0029188Y0001069D02*
G01X0029064Y0000945D01*
G01X0029064Y0001007D02*
G01X0029064Y0000822D01*
G01X0029188Y0000822D02*
G01X0028817Y0000822D01*
G01X0028817Y0000822D02*
G01X0028817Y0001007D01*
G01X0028817Y0001007D02*
G01X0028879Y0001069D01*
G01X0028879Y0001069D02*
G01X0029003Y0001069D01*
G01X0029003Y0001069D02*
G01X0029064Y0001007D01*
G01X0028817Y0001190D02*
G01X0029188Y0001437D01*
G01X0029817Y0001437D02*
G01X0030188Y0001190D01*
G01X0030188Y0001437D02*
G01X0029817Y0001190D01*
G01X0029817Y0001069D02*
G01X0029817Y0000822D01*
G01X0029817Y0000945D02*
G01X0030188Y0000945D01*
G01X0031654Y0001712D02*
G01X0031716Y0001651D01*
G01X0031716Y0001651D02*
G01X0031963Y0001651D01*
G01X0031963Y0001651D02*
G01X0032024Y0001712D01*
G01X0032024Y0001712D02*
G01X0032024Y0001836D01*
G01X0032024Y0001836D02*
G01X0031963Y0001898D01*
G01X0031963Y0001898D02*
G01X0031839Y0001898D01*
G01X0031839Y0001898D02*
G01X0031839Y0001774D01*
G01X0031716Y0001898D02*
G01X0031654Y0001836D01*
G01X0031654Y0001836D02*
G01X0031654Y0001712D01*
G01X0031654Y0002019D02*
G01X0031654Y0002204D01*
G01X0031654Y0002204D02*
G01X0031716Y0002266D01*
G01X0031716Y0002266D02*
G01X0031839Y0002266D01*
G01X0031839Y0002266D02*
G01X0031901Y0002204D01*
G01X0031901Y0002204D02*
G01X0031901Y0002019D01*
G01X0031901Y0002142D02*
G01X0032024Y0002266D01*
G01X0032024Y0002387D02*
G01X0031654Y0002387D01*
G01X0031654Y0002387D02*
G01X0032024Y0002634D01*
G01X0032024Y0002634D02*
G01X0031654Y0002634D01*
G01X0031654Y0002019D02*
G01X0032024Y0002019D01*
G01X0031863Y0003618D02*
G01X0031925Y0003680D01*
G01X0031925Y0003680D02*
G01X0031925Y0003804D01*
G01X0031925Y0003804D02*
G01X0031863Y0003865D01*
G01X0031863Y0003865D02*
G01X0031802Y0003865D01*
G01X0031802Y0003865D02*
G01X0031740Y0003804D01*
G01X0031740Y0003804D02*
G01X0031740Y0003680D01*
G01X0031740Y0003680D02*
G01X0031678Y0003618D01*
G01X0031678Y0003618D02*
G01X0031616Y0003618D01*
G01X0031616Y0003618D02*
G01X0031555Y0003680D01*
G01X0031555Y0003680D02*
G01X0031555Y0003804D01*
G01X0031555Y0003804D02*
G01X0031616Y0003865D01*
G01X0031678Y0003987D02*
G01X0031555Y0004110D01*
G01X0031555Y0004110D02*
G01X0031925Y0004110D01*
G01X0031925Y0003987D02*
G01X0031925Y0004234D01*
G01X0025324Y0004039D02*
G01X0025139Y0004039D01*
G01X0025139Y0004039D02*
G01X0025016Y0004162D01*
G01X0025016Y0004162D02*
G01X0024954Y0004162D01*
G01X0025139Y0004039D02*
G01X0025016Y0003915D01*
G01X0025016Y0003915D02*
G01X0024954Y0003915D01*
G01X0025016Y0003794D02*
G01X0024954Y0003732D01*
G01X0024954Y0003732D02*
G01X0024954Y0003609D01*
G01X0024954Y0003609D02*
G01X0025016Y0003547D01*
G01X0024021Y0014752D02*
G01X0023774Y0014752D01*
G01X0023774Y0014752D02*
G01X0023712Y0014813D01*
G01X0023712Y0014813D02*
G01X0023712Y0014937D01*
G01X0023712Y0014937D02*
G01X0023774Y0014998D01*
G01X0023897Y0015120D02*
G01X0023774Y0015243D01*
G01X0023774Y0015243D02*
G01X0023712Y0015367D01*
G01X0023897Y0015305D02*
G01X0023897Y0015120D01*
G01X0023897Y0015120D02*
G01X0024021Y0015120D01*
G01X0024021Y0015120D02*
G01X0024082Y0015182D01*
G01X0024082Y0015182D02*
G01X0024082Y0015305D01*
G01X0024082Y0015305D02*
G01X0024021Y0015367D01*
G01X0024021Y0015367D02*
G01X0023959Y0015367D01*
G01X0023959Y0015367D02*
G01X0023897Y0015305D01*
G01X0024021Y0014998D02*
G01X0024082Y0014937D01*
G01X0024082Y0014937D02*
G01X0024082Y0014813D01*
G01X0024082Y0014813D02*
G01X0024021Y0014752D01*
G01X0023082Y0014813D02*
G01X0023082Y0014937D01*
G01X0023082Y0014937D02*
G01X0023021Y0014998D01*
G01X0023021Y0015120D02*
G01X0023082Y0015120D01*
G01X0023021Y0015120D02*
G01X0022774Y0015367D01*
G01X0022774Y0015367D02*
G01X0022712Y0015367D01*
G01X0022712Y0015367D02*
G01X0022712Y0015120D01*
G01X0022774Y0014998D02*
G01X0022712Y0014937D01*
G01X0022712Y0014937D02*
G01X0022712Y0014813D01*
G01X0022712Y0014813D02*
G01X0022774Y0014752D01*
G01X0022774Y0014752D02*
G01X0023021Y0014752D01*
G01X0023021Y0014752D02*
G01X0023082Y0014813D01*
G01X0022082Y0014813D02*
G01X0022082Y0014937D01*
G01X0022082Y0014937D02*
G01X0022021Y0014998D01*
G01X0022021Y0015120D02*
G01X0021959Y0015120D01*
G01X0021959Y0015120D02*
G01X0021897Y0015182D01*
G01X0021897Y0015182D02*
G01X0021897Y0015305D01*
G01X0021897Y0015305D02*
G01X0021959Y0015367D01*
G01X0021959Y0015367D02*
G01X0022021Y0015367D01*
G01X0022021Y0015367D02*
G01X0022082Y0015305D01*
G01X0022082Y0015305D02*
G01X0022082Y0015182D01*
G01X0022082Y0015182D02*
G01X0022021Y0015120D01*
G01X0021897Y0015182D02*
G01X0021835Y0015120D01*
G01X0021835Y0015120D02*
G01X0021774Y0015120D01*
G01X0021774Y0015120D02*
G01X0021712Y0015182D01*
G01X0021712Y0015182D02*
G01X0021712Y0015305D01*
G01X0021712Y0015305D02*
G01X0021774Y0015367D01*
G01X0021774Y0015367D02*
G01X0021835Y0015367D01*
G01X0021835Y0015367D02*
G01X0021897Y0015305D01*
G01X0021774Y0014998D02*
G01X0021712Y0014937D01*
G01X0021712Y0014937D02*
G01X0021712Y0014813D01*
G01X0021712Y0014813D02*
G01X0021774Y0014752D01*
G01X0021774Y0014752D02*
G01X0022021Y0014752D01*
G01X0022021Y0014752D02*
G01X0022082Y0014813D01*
G01X0021082Y0014813D02*
G01X0021082Y0014937D01*
G01X0021082Y0014937D02*
G01X0021021Y0014998D01*
G01X0021021Y0015120D02*
G01X0021082Y0015182D01*
G01X0021082Y0015182D02*
G01X0021082Y0015305D01*
G01X0021082Y0015305D02*
G01X0021021Y0015367D01*
G01X0021021Y0015367D02*
G01X0020774Y0015367D01*
G01X0020774Y0015367D02*
G01X0020712Y0015305D01*
G01X0020712Y0015305D02*
G01X0020712Y0015182D01*
G01X0020712Y0015182D02*
G01X0020774Y0015120D01*
G01X0020774Y0015120D02*
G01X0020835Y0015120D01*
G01X0020835Y0015120D02*
G01X0020897Y0015182D01*
G01X0020897Y0015182D02*
G01X0020897Y0015367D01*
G01X0020774Y0014998D02*
G01X0020712Y0014937D01*
G01X0020712Y0014937D02*
G01X0020712Y0014813D01*
G01X0020712Y0014813D02*
G01X0020774Y0014752D01*
G01X0020774Y0014752D02*
G01X0021021Y0014752D01*
G01X0021021Y0014752D02*
G01X0021082Y0014813D01*
G01X0020082Y0014752D02*
G01X0019835Y0014752D01*
G01X0019835Y0014752D02*
G01X0019712Y0014875D01*
G01X0019712Y0014875D02*
G01X0019835Y0014998D01*
G01X0019835Y0014998D02*
G01X0020082Y0014998D01*
G01X0020021Y0015120D02*
G01X0019959Y0015120D01*
G01X0019959Y0015120D02*
G01X0019897Y0015182D01*
G01X0019897Y0015182D02*
G01X0019897Y0015305D01*
G01X0019897Y0015305D02*
G01X0019959Y0015367D01*
G01X0019959Y0015367D02*
G01X0020021Y0015367D01*
G01X0020021Y0015367D02*
G01X0020082Y0015305D01*
G01X0020082Y0015305D02*
G01X0020082Y0015182D01*
G01X0020082Y0015182D02*
G01X0020021Y0015120D01*
G01X0019897Y0015182D02*
G01X0019835Y0015120D01*
G01X0019835Y0015120D02*
G01X0019774Y0015120D01*
G01X0019774Y0015120D02*
G01X0019712Y0015182D01*
G01X0019712Y0015182D02*
G01X0019712Y0015305D01*
G01X0019712Y0015305D02*
G01X0019774Y0015367D01*
G01X0019774Y0015367D02*
G01X0019835Y0015367D01*
G01X0019835Y0015367D02*
G01X0019897Y0015305D01*
G01X0019897Y0014998D02*
G01X0019897Y0014752D01*
G01X0019082Y0014752D02*
G01X0018835Y0014752D01*
G01X0018835Y0014752D02*
G01X0018712Y0014875D01*
G01X0018712Y0014875D02*
G01X0018835Y0014998D01*
G01X0018835Y0014998D02*
G01X0019082Y0014998D01*
G01X0019021Y0015120D02*
G01X0019082Y0015182D01*
G01X0019082Y0015182D02*
G01X0019082Y0015305D01*
G01X0019082Y0015305D02*
G01X0019021Y0015367D01*
G01X0019021Y0015367D02*
G01X0018774Y0015367D01*
G01X0018774Y0015367D02*
G01X0018712Y0015305D01*
G01X0018712Y0015305D02*
G01X0018712Y0015182D01*
G01X0018712Y0015182D02*
G01X0018774Y0015120D01*
G01X0018774Y0015120D02*
G01X0018835Y0015120D01*
G01X0018835Y0015120D02*
G01X0018897Y0015182D01*
G01X0018897Y0015182D02*
G01X0018897Y0015367D01*
G01X0018897Y0014998D02*
G01X0018897Y0014752D01*
G54D12*
G01X0024760Y0010620D02*
G01X0024760Y0010237D01*
G01X0024760Y0010237D02*
G01X0024837Y0010160D01*
G01X0024837Y0010160D02*
G01X0024990Y0010160D01*
G01X0024990Y0010160D02*
G01X0025067Y0010237D01*
G01X0025067Y0010237D02*
G01X0025067Y0010620D01*
G01X0025220Y0010544D02*
G01X0025297Y0010620D01*
G01X0025297Y0010620D02*
G01X0025451Y0010620D01*
G01X0025451Y0010620D02*
G01X0025527Y0010544D01*
G01X0025527Y0010544D02*
G01X0025527Y0010467D01*
G01X0025527Y0010467D02*
G01X0025220Y0010160D01*
G01X0025220Y0010160D02*
G01X0025527Y0010160D01*
G01X0026228Y0007357D02*
G01X0026168Y0007297D01*
G01X0026168Y0007297D02*
G01X0026168Y0007177D01*
G01X0026168Y0007177D02*
G01X0026228Y0007117D01*
G01X0026168Y0006989D02*
G01X0026529Y0006989D01*
G01X0026529Y0006989D02*
G01X0026168Y0006749D01*
G01X0026168Y0006749D02*
G01X0026529Y0006749D01*
G01X0026529Y0006621D02*
G01X0026409Y0006501D01*
G01X0026409Y0006561D02*
G01X0026409Y0006380D01*
G01X0026529Y0006380D02*
G01X0026168Y0006380D01*
G01X0026168Y0006380D02*
G01X0026168Y0006561D01*
G01X0026168Y0006561D02*
G01X0026228Y0006621D01*
G01X0026228Y0006621D02*
G01X0026349Y0006621D01*
G01X0026349Y0006621D02*
G01X0026409Y0006561D01*
G01X0026529Y0007117D02*
G01X0026288Y0007357D01*
G01X0026288Y0007357D02*
G01X0026228Y0007357D01*
G01X0026529Y0007357D02*
G01X0026529Y0007117D01*
G01X0028321Y0003269D02*
G01X0028628Y0003269D01*
G01X0028781Y0003269D02*
G01X0029088Y0003269D01*
G01X0028935Y0003269D02*
G01X0028935Y0002808D01*
G01X0029242Y0002808D02*
G01X0029472Y0002808D01*
G01X0029472Y0002808D02*
G01X0029548Y0002885D01*
G01X0029548Y0002885D02*
G01X0029548Y0003192D01*
G01X0029548Y0003192D02*
G01X0029472Y0003269D01*
G01X0029472Y0003269D02*
G01X0029242Y0003269D01*
G01X0029242Y0003269D02*
G01X0029242Y0002808D01*
G01X0029702Y0002808D02*
G01X0029855Y0002808D01*
G01X0029779Y0002808D02*
G01X0029779Y0003269D01*
G01X0029855Y0003269D02*
G01X0029702Y0003269D01*
G01X0030469Y0003192D02*
G01X0030546Y0003269D01*
G01X0030546Y0003269D02*
G01X0030699Y0003269D01*
G01X0030699Y0003269D02*
G01X0030776Y0003192D01*
G01X0030776Y0003192D02*
G01X0030776Y0003115D01*
G01X0030776Y0003115D02*
G01X0030699Y0003038D01*
G01X0030699Y0003038D02*
G01X0030776Y0002962D01*
G01X0030776Y0002962D02*
G01X0030776Y0002885D01*
G01X0030776Y0002885D02*
G01X0030699Y0002808D01*
G01X0030699Y0002808D02*
G01X0030546Y0002808D01*
G01X0030546Y0002808D02*
G01X0030469Y0002885D01*
G01X0030623Y0003038D02*
G01X0030699Y0003038D01*
G01X0030930Y0003115D02*
G01X0031083Y0002808D01*
G01X0031083Y0002808D02*
G01X0031237Y0003115D01*
G01X0031390Y0003192D02*
G01X0031467Y0003269D01*
G01X0031467Y0003269D02*
G01X0031620Y0003269D01*
G01X0031620Y0003269D02*
G01X0031697Y0003192D01*
G01X0031697Y0003192D02*
G01X0031697Y0003115D01*
G01X0031697Y0003115D02*
G01X0031620Y0003038D01*
G01X0031620Y0003038D02*
G01X0031697Y0002962D01*
G01X0031697Y0002962D02*
G01X0031697Y0002885D01*
G01X0031697Y0002885D02*
G01X0031620Y0002808D01*
G01X0031620Y0002808D02*
G01X0031467Y0002808D01*
G01X0031467Y0002808D02*
G01X0031390Y0002885D01*
G01X0031543Y0003038D02*
G01X0031620Y0003038D01*
G01X0028474Y0003038D02*
G01X0028321Y0003038D01*
G01X0028321Y0002808D02*
G01X0028321Y0003269D01*
G01X0015948Y0003144D02*
G01X0015948Y0002837D01*
G01X0015948Y0002837D02*
G01X0015871Y0002760D01*
G01X0015871Y0002760D02*
G01X0015718Y0002760D01*
G01X0015718Y0002760D02*
G01X0015641Y0002837D01*
G01X0015641Y0002837D02*
G01X0015948Y0003144D01*
G01X0015948Y0003144D02*
G01X0015871Y0003220D01*
G01X0015871Y0003220D02*
G01X0015718Y0003220D01*
G01X0015718Y0003220D02*
G01X0015641Y0003144D01*
G01X0015641Y0003144D02*
G01X0015641Y0002837D01*
G01X0015488Y0002837D02*
G01X0015488Y0002760D01*
G01X0015488Y0002760D02*
G01X0015411Y0002760D01*
G01X0015411Y0002760D02*
G01X0015411Y0002837D01*
G01X0015411Y0002837D02*
G01X0015488Y0002837D01*
G01X0015258Y0002837D02*
G01X0015181Y0002760D01*
G01X0015181Y0002760D02*
G01X0015027Y0002760D01*
G01X0015027Y0002760D02*
G01X0014951Y0002837D01*
G01X0014951Y0002837D02*
G01X0015258Y0003144D01*
G01X0015258Y0003144D02*
G01X0015258Y0002837D01*
G01X0014951Y0002837D02*
G01X0014951Y0003144D01*
G01X0014951Y0003144D02*
G01X0015027Y0003220D01*
G01X0015027Y0003220D02*
G01X0015181Y0003220D01*
G01X0015181Y0003220D02*
G01X0015258Y0003144D01*
G01X0014797Y0002837D02*
G01X0014797Y0002760D01*
G01X0014797Y0002760D02*
G01X0014720Y0002760D01*
G01X0014720Y0002760D02*
G01X0014720Y0002837D01*
G01X0014720Y0002837D02*
G01X0014797Y0002837D01*
G01X0014567Y0002760D02*
G01X0014260Y0002760D01*
G01X0014413Y0002760D02*
G01X0014413Y0003220D01*
G01X0014413Y0003220D02*
G01X0014260Y0003067D01*
G01X0014271Y0008401D02*
G01X0013964Y0008401D01*
G01X0014118Y0008401D02*
G01X0014118Y0008861D01*
G01X0014118Y0008861D02*
G01X0013964Y0008708D01*
G01X0013811Y0008861D02*
G01X0013811Y0008477D01*
G01X0013811Y0008477D02*
G01X0013734Y0008401D01*
G01X0013734Y0008401D02*
G01X0013580Y0008401D01*
G01X0013580Y0008401D02*
G01X0013504Y0008477D01*
G01X0013504Y0008477D02*
G01X0013504Y0008861D01*
G01X0028101Y0013029D02*
G01X0028178Y0012953D01*
G01X0028178Y0012953D02*
G01X0028331Y0012953D01*
G01X0028331Y0012953D02*
G01X0028408Y0013029D01*
G01X0028408Y0013029D02*
G01X0028408Y0013106D01*
G01X0028408Y0013106D02*
G01X0028331Y0013183D01*
G01X0028331Y0013183D02*
G01X0028178Y0013183D01*
G01X0028178Y0013183D02*
G01X0028101Y0013260D01*
G01X0028101Y0013260D02*
G01X0028101Y0013336D01*
G01X0028101Y0013336D02*
G01X0028178Y0013413D01*
G01X0028178Y0013413D02*
G01X0028331Y0013413D01*
G01X0028331Y0013413D02*
G01X0028408Y0013336D01*
G01X0028561Y0013413D02*
G01X0028561Y0012953D01*
G01X0028561Y0012953D02*
G01X0028715Y0013106D01*
G01X0028715Y0013106D02*
G01X0028868Y0012953D01*
G01X0028868Y0012953D02*
G01X0028868Y0013413D01*
G01X0029022Y0013413D02*
G01X0029252Y0013413D01*
G01X0029252Y0013413D02*
G01X0029329Y0013336D01*
G01X0029329Y0013336D02*
G01X0029329Y0013029D01*
G01X0029329Y0013029D02*
G01X0029252Y0012953D01*
G01X0029252Y0012953D02*
G01X0029022Y0012953D01*
G01X0029022Y0012953D02*
G01X0029022Y0013413D01*
G54D13*
G01X0029041Y0014747D02*
G01X0029087Y0014793D01*
G01X0029087Y0014793D02*
G01X0029087Y0014887D01*
G01X0029087Y0014887D02*
G01X0029041Y0014933D01*
G01X0029041Y0014933D02*
G01X0028947Y0014933D01*
G01X0028947Y0014933D02*
G01X0028947Y0014840D01*
G01X0028854Y0014933D02*
G01X0028807Y0014887D01*
G01X0028807Y0014887D02*
G01X0028807Y0014793D01*
G01X0028807Y0014793D02*
G01X0028854Y0014747D01*
G01X0028854Y0014747D02*
G01X0029041Y0014747D01*
G01X0029087Y0015023D02*
G01X0028807Y0015023D01*
G01X0028807Y0015023D02*
G01X0029087Y0015210D01*
G01X0029087Y0015210D02*
G01X0028807Y0015210D01*
G01X0028807Y0015299D02*
G01X0028807Y0015439D01*
G01X0028807Y0015439D02*
G01X0028854Y0015486D01*
G01X0028854Y0015486D02*
G01X0029041Y0015486D01*
G01X0029041Y0015486D02*
G01X0029087Y0015439D01*
G01X0029087Y0015439D02*
G01X0029087Y0015299D01*
G01X0029087Y0015299D02*
G01X0028807Y0015299D01*
G01X0028087Y0015299D02*
G01X0028087Y0015439D01*
G01X0028087Y0015439D02*
G01X0028041Y0015486D01*
G01X0028041Y0015486D02*
G01X0027854Y0015486D01*
G01X0027854Y0015486D02*
G01X0027807Y0015439D01*
G01X0027807Y0015439D02*
G01X0027807Y0015299D01*
G01X0027807Y0015299D02*
G01X0028087Y0015299D01*
G01X0028087Y0015210D02*
G01X0027807Y0015210D01*
G01X0027807Y0015023D02*
G01X0028087Y0015023D01*
G01X0028087Y0015023D02*
G01X0027994Y0015116D01*
G01X0027994Y0015116D02*
G01X0028087Y0015210D01*
G01X0028041Y0014933D02*
G01X0027994Y0014933D01*
G01X0027994Y0014933D02*
G01X0027947Y0014887D01*
G01X0027947Y0014887D02*
G01X0027947Y0014793D01*
G01X0027947Y0014793D02*
G01X0027900Y0014747D01*
G01X0027900Y0014747D02*
G01X0027854Y0014747D01*
G01X0027854Y0014747D02*
G01X0027807Y0014793D01*
G01X0027807Y0014793D02*
G01X0027807Y0014887D01*
G01X0027807Y0014887D02*
G01X0027854Y0014933D01*
G01X0028041Y0014933D02*
G01X0028087Y0014887D01*
G01X0028087Y0014887D02*
G01X0028087Y0014793D01*
G01X0028087Y0014793D02*
G01X0028041Y0014747D01*
G01X0027087Y0014747D02*
G01X0026807Y0014747D01*
G01X0026807Y0014747D02*
G01X0026807Y0014887D01*
G01X0026807Y0014887D02*
G01X0026854Y0014933D01*
G01X0026854Y0014933D02*
G01X0026947Y0014933D01*
G01X0026947Y0014933D02*
G01X0026994Y0014887D01*
G01X0026994Y0014887D02*
G01X0026994Y0014747D01*
G01X0026994Y0014840D02*
G01X0027087Y0014933D01*
G01X0027041Y0015023D02*
G01X0027087Y0015070D01*
G01X0027087Y0015070D02*
G01X0027087Y0015163D01*
G01X0027087Y0015163D02*
G01X0027041Y0015210D01*
G01X0027041Y0015210D02*
G01X0026994Y0015210D01*
G01X0026994Y0015210D02*
G01X0026947Y0015163D01*
G01X0026947Y0015163D02*
G01X0026947Y0015070D01*
G01X0026947Y0015070D02*
G01X0026900Y0015023D01*
G01X0026900Y0015023D02*
G01X0026854Y0015023D01*
G01X0026854Y0015023D02*
G01X0026807Y0015070D01*
G01X0026807Y0015070D02*
G01X0026807Y0015163D01*
G01X0026807Y0015163D02*
G01X0026854Y0015210D01*
G01X0026807Y0015299D02*
G01X0026807Y0015486D01*
G01X0026807Y0015392D02*
G01X0027087Y0015392D01*
G01X0026087Y0015346D02*
G01X0026041Y0015299D01*
G01X0026041Y0015299D02*
G01X0025854Y0015299D01*
G01X0025854Y0015299D02*
G01X0025807Y0015346D01*
G01X0025807Y0015346D02*
G01X0025807Y0015439D01*
G01X0025807Y0015439D02*
G01X0025854Y0015486D01*
G01X0025854Y0015486D02*
G01X0026041Y0015486D01*
G01X0026041Y0015486D02*
G01X0026087Y0015439D01*
G01X0026087Y0015439D02*
G01X0026087Y0015346D01*
G01X0026087Y0015210D02*
G01X0025807Y0015210D01*
G01X0025807Y0015023D02*
G01X0026087Y0015023D01*
G01X0026087Y0015023D02*
G01X0025994Y0015116D01*
G01X0025994Y0015116D02*
G01X0026087Y0015210D01*
G01X0026041Y0014933D02*
G01X0026087Y0014887D01*
G01X0026087Y0014887D02*
G01X0026087Y0014793D01*
G01X0026087Y0014793D02*
G01X0026041Y0014747D01*
G01X0025947Y0014793D02*
G01X0025947Y0014887D01*
G01X0025947Y0014887D02*
G01X0025994Y0014933D01*
G01X0025994Y0014933D02*
G01X0026041Y0014933D01*
G01X0025947Y0014793D02*
G01X0025900Y0014747D01*
G01X0025900Y0014747D02*
G01X0025854Y0014747D01*
G01X0025854Y0014747D02*
G01X0025807Y0014793D01*
G01X0025807Y0014793D02*
G01X0025807Y0014887D01*
G01X0025807Y0014887D02*
G01X0025854Y0014933D01*
G01X0029807Y0014887D02*
G01X0029807Y0014793D01*
G01X0029807Y0014793D02*
G01X0029854Y0014747D01*
G01X0029854Y0014747D02*
G01X0029900Y0014747D01*
G01X0029900Y0014747D02*
G01X0029947Y0014793D01*
G01X0029947Y0014793D02*
G01X0029947Y0014887D01*
G01X0029947Y0014887D02*
G01X0029994Y0014933D01*
G01X0029994Y0014933D02*
G01X0030041Y0014933D01*
G01X0030041Y0014933D02*
G01X0030087Y0014887D01*
G01X0030087Y0014887D02*
G01X0030087Y0014793D01*
G01X0030087Y0014793D02*
G01X0030041Y0014747D01*
G01X0029854Y0014933D02*
G01X0029807Y0014887D01*
G01X0029807Y0015023D02*
G01X0030087Y0015023D01*
G01X0030087Y0015023D02*
G01X0029994Y0015116D01*
G01X0029994Y0015116D02*
G01X0030087Y0015210D01*
G01X0030087Y0015210D02*
G01X0029807Y0015210D01*
G01X0029854Y0015299D02*
G01X0030041Y0015299D01*
G01X0030041Y0015299D02*
G01X0030087Y0015346D01*
G01X0030087Y0015346D02*
G01X0030087Y0015439D01*
G01X0030087Y0015439D02*
G01X0030041Y0015486D01*
G01X0029854Y0015486D02*
G01X0029807Y0015439D01*
G01X0029807Y0015439D02*
G01X0029807Y0015346D01*
G01X0029807Y0015346D02*
G01X0029854Y0015299D01*
G01X0030807Y0015623D02*
G01X0030854Y0015576D01*
G01X0030854Y0015576D02*
G01X0031087Y0015576D01*
G01X0030947Y0015529D02*
G01X0030947Y0015623D01*
G01X0030947Y0015440D02*
G01X0030994Y0015440D01*
G01X0030994Y0015440D02*
G01X0030994Y0015253D01*
G01X0031041Y0015253D02*
G01X0030947Y0015253D01*
G01X0030947Y0015253D02*
G01X0030900Y0015300D01*
G01X0030900Y0015300D02*
G01X0030900Y0015393D01*
G01X0030900Y0015393D02*
G01X0030947Y0015440D01*
G01X0031087Y0015393D02*
G01X0031087Y0015300D01*
G01X0031087Y0015300D02*
G01X0031041Y0015253D01*
G01X0030900Y0015163D02*
G01X0030900Y0015116D01*
G01X0030900Y0015116D02*
G01X0030994Y0015023D01*
G01X0030994Y0014933D02*
G01X0030807Y0014933D01*
G01X0030900Y0015023D02*
G01X0031087Y0015023D01*
G01X0030994Y0014933D02*
G01X0031087Y0014840D01*
G01X0031087Y0014840D02*
G01X0030994Y0014747D01*
G01X0030994Y0014747D02*
G01X0030807Y0014747D01*
G01X0030804Y0010518D02*
G01X0030851Y0010471D01*
G01X0030851Y0010471D02*
G01X0030664Y0010284D01*
G01X0030664Y0010284D02*
G01X0030711Y0010237D01*
G01X0030711Y0010237D02*
G01X0030804Y0010237D01*
G01X0030804Y0010237D02*
G01X0030851Y0010284D01*
G01X0030851Y0010284D02*
G01X0030851Y0010471D01*
G01X0030804Y0010518D02*
G01X0030711Y0010518D01*
G01X0030711Y0010518D02*
G01X0030664Y0010471D01*
G01X0030664Y0010471D02*
G01X0030664Y0010284D01*
G01X0030575Y0010237D02*
G01X0030388Y0010237D01*
G01X0030298Y0010237D02*
G01X0030205Y0010331D01*
G01X0030252Y0010331D02*
G01X0030112Y0010331D01*
G01X0030112Y0010237D02*
G01X0030112Y0010518D01*
G01X0030112Y0010518D02*
G01X0030252Y0010518D01*
G01X0030252Y0010518D02*
G01X0030298Y0010471D01*
G01X0030298Y0010471D02*
G01X0030298Y0010378D01*
G01X0030298Y0010378D02*
G01X0030252Y0010331D01*
G01X0030388Y0010424D02*
G01X0030481Y0010518D01*
G01X0030481Y0010518D02*
G01X0030481Y0010237D01*
G01X0025847Y0006515D02*
G01X0025817Y0006545D01*
G01X0025817Y0006545D02*
G01X0025757Y0006545D01*
G01X0025757Y0006545D02*
G01X0025727Y0006515D01*
G01X0025663Y0006515D02*
G01X0025633Y0006545D01*
G01X0025633Y0006545D02*
G01X0025543Y0006545D01*
G01X0025543Y0006545D02*
G01X0025543Y0006365D01*
G01X0025543Y0006365D02*
G01X0025633Y0006365D01*
G01X0025633Y0006365D02*
G01X0025663Y0006395D01*
G01X0025663Y0006395D02*
G01X0025663Y0006515D01*
G01X0025727Y0006365D02*
G01X0025847Y0006485D01*
G01X0025847Y0006485D02*
G01X0025847Y0006515D01*
G01X0025847Y0006365D02*
G01X0025727Y0006365D01*
G01X0025479Y0006365D02*
G01X0025358Y0006365D01*
G01X0025358Y0006365D02*
G01X0025358Y0006545D01*
G01X0025358Y0006545D02*
G01X0025479Y0006545D01*
G01X0025419Y0006455D02*
G01X0025358Y0006455D01*
G01X0025294Y0006365D02*
G01X0025174Y0006365D01*
G01X0025174Y0006365D02*
G01X0025174Y0006545D01*
G01X0023987Y0006118D02*
G01X0023987Y0005932D01*
G01X0023987Y0005842D02*
G01X0023707Y0005842D01*
G01X0023800Y0005932D02*
G01X0023707Y0006025D01*
G01X0023707Y0006025D02*
G01X0023987Y0006025D01*
G01X0023847Y0005842D02*
G01X0023847Y0005655D01*
G01X0023894Y0005566D02*
G01X0023940Y0005566D01*
G01X0023940Y0005566D02*
G01X0023987Y0005519D01*
G01X0023987Y0005519D02*
G01X0023987Y0005426D01*
G01X0023987Y0005426D02*
G01X0023940Y0005379D01*
G01X0023987Y0005290D02*
G01X0023800Y0005290D01*
G01X0023800Y0005290D02*
G01X0023707Y0005196D01*
G01X0023707Y0005196D02*
G01X0023800Y0005103D01*
G01X0023800Y0005103D02*
G01X0023987Y0005103D01*
G01X0023987Y0005014D02*
G01X0023987Y0004827D01*
G01X0023987Y0004827D02*
G01X0023707Y0004827D01*
G01X0023707Y0004737D02*
G01X0023707Y0004550D01*
G01X0023707Y0004550D02*
G01X0023987Y0004550D01*
G01X0023847Y0004550D02*
G01X0023847Y0004644D01*
G01X0023847Y0005103D02*
G01X0023847Y0005290D01*
G01X0023800Y0005379D02*
G01X0023847Y0005426D01*
G01X0023847Y0005426D02*
G01X0023847Y0005519D01*
G01X0023847Y0005519D02*
G01X0023894Y0005566D01*
G01X0023987Y0005655D02*
G01X0023707Y0005655D01*
G01X0023753Y0005566D02*
G01X0023707Y0005519D01*
G01X0023707Y0005519D02*
G01X0023707Y0005426D01*
G01X0023707Y0005426D02*
G01X0023753Y0005379D01*
G01X0023753Y0005379D02*
G01X0023800Y0005379D01*
G01X0021273Y0006419D02*
G01X0021243Y0006389D01*
G01X0021243Y0006389D02*
G01X0021183Y0006389D01*
G01X0021183Y0006389D02*
G01X0021153Y0006419D01*
G01X0021089Y0006419D02*
G01X0021089Y0006539D01*
G01X0021089Y0006539D02*
G01X0021059Y0006569D01*
G01X0021059Y0006569D02*
G01X0020969Y0006569D01*
G01X0020969Y0006569D02*
G01X0020969Y0006389D01*
G01X0020969Y0006389D02*
G01X0021059Y0006389D01*
G01X0021059Y0006389D02*
G01X0021089Y0006419D01*
G01X0021153Y0006539D02*
G01X0021183Y0006569D01*
G01X0021183Y0006569D02*
G01X0021243Y0006569D01*
G01X0021243Y0006569D02*
G01X0021273Y0006539D01*
G01X0021273Y0006539D02*
G01X0021273Y0006509D01*
G01X0021273Y0006509D02*
G01X0021243Y0006479D01*
G01X0021243Y0006479D02*
G01X0021273Y0006449D01*
G01X0021273Y0006449D02*
G01X0021273Y0006419D01*
G01X0021243Y0006479D02*
G01X0021213Y0006479D01*
G01X0020905Y0006569D02*
G01X0020785Y0006569D01*
G01X0020785Y0006569D02*
G01X0020785Y0006389D01*
G01X0020785Y0006389D02*
G01X0020905Y0006389D01*
G01X0020845Y0006479D02*
G01X0020785Y0006479D01*
G01X0020720Y0006389D02*
G01X0020600Y0006389D01*
G01X0020600Y0006389D02*
G01X0020600Y0006569D01*
G01X0023880Y0003347D02*
G01X0023927Y0003394D01*
G01X0023927Y0003394D02*
G01X0024067Y0003394D01*
G01X0024067Y0003207D02*
G01X0023880Y0003207D01*
G01X0023880Y0003207D02*
G01X0023880Y0003347D01*
G01X0024067Y0003116D02*
G01X0024067Y0003023D01*
G01X0024067Y0003070D02*
G01X0023880Y0003070D01*
G01X0023880Y0003070D02*
G01X0023880Y0003023D01*
G01X0023787Y0003070D02*
G01X0023740Y0003070D01*
G01X0023787Y0002933D02*
G01X0023974Y0002933D01*
G01X0023974Y0002933D02*
G01X0024067Y0002840D01*
G01X0024067Y0002840D02*
G01X0023974Y0002747D01*
G01X0023974Y0002747D02*
G01X0023787Y0002747D01*
G01X0022073Y0001417D02*
G01X0022026Y0001464D01*
G01X0022026Y0001464D02*
G01X0021839Y0001464D01*
G01X0021839Y0001464D02*
G01X0021793Y0001417D01*
G01X0021793Y0001417D02*
G01X0021793Y0001277D01*
G01X0021793Y0001277D02*
G01X0022073Y0001277D01*
G01X0022073Y0001277D02*
G01X0022073Y0001417D01*
G01X0022073Y0001188D02*
G01X0021793Y0001188D01*
G01X0021793Y0001001D02*
G01X0022073Y0001188D01*
G01X0022073Y0001001D02*
G01X0021793Y0001001D01*
G01X0021839Y0000912D02*
G01X0021793Y0000865D01*
G01X0021793Y0000865D02*
G01X0021793Y0000771D01*
G01X0021793Y0000771D02*
G01X0021839Y0000725D01*
G01X0021839Y0000725D02*
G01X0022026Y0000725D01*
G01X0022026Y0000725D02*
G01X0022073Y0000771D01*
G01X0022073Y0000771D02*
G01X0022073Y0000865D01*
G01X0022073Y0000865D02*
G01X0022026Y0000912D01*
G01X0022026Y0000912D02*
G01X0021933Y0000912D01*
G01X0021933Y0000912D02*
G01X0021933Y0000818D01*
G01X0021073Y0000771D02*
G01X0021073Y0000865D01*
G01X0021073Y0000865D02*
G01X0021026Y0000912D01*
G01X0021026Y0000912D02*
G01X0020933Y0000912D01*
G01X0020933Y0000912D02*
G01X0020933Y0000818D01*
G01X0021026Y0000725D02*
G01X0020839Y0000725D01*
G01X0020839Y0000725D02*
G01X0020793Y0000771D01*
G01X0020793Y0000771D02*
G01X0020793Y0000865D01*
G01X0020793Y0000865D02*
G01X0020839Y0000912D01*
G01X0020793Y0001001D02*
G01X0021073Y0001188D01*
G01X0021073Y0001188D02*
G01X0020793Y0001188D01*
G01X0020793Y0001277D02*
G01X0020793Y0001417D01*
G01X0020793Y0001417D02*
G01X0020839Y0001464D01*
G01X0020839Y0001464D02*
G01X0021026Y0001464D01*
G01X0021026Y0001464D02*
G01X0021073Y0001417D01*
G01X0021073Y0001417D02*
G01X0021073Y0001277D01*
G01X0021073Y0001277D02*
G01X0020793Y0001277D01*
G01X0020793Y0001001D02*
G01X0021073Y0001001D01*
G01X0021073Y0000771D02*
G01X0021026Y0000725D01*
G01X0020073Y0000725D02*
G01X0020073Y0000865D01*
G01X0020073Y0000865D02*
G01X0020026Y0000912D01*
G01X0020026Y0000912D02*
G01X0019979Y0000912D01*
G01X0019979Y0000912D02*
G01X0019933Y0000865D01*
G01X0019933Y0000865D02*
G01X0019933Y0000725D01*
G01X0020073Y0000725D02*
G01X0019793Y0000725D01*
G01X0019793Y0000725D02*
G01X0019793Y0000865D01*
G01X0019793Y0000865D02*
G01X0019839Y0000912D01*
G01X0019839Y0000912D02*
G01X0019886Y0000912D01*
G01X0019886Y0000912D02*
G01X0019933Y0000865D01*
G01X0019886Y0001001D02*
G01X0019793Y0001094D01*
G01X0019793Y0001094D02*
G01X0020073Y0001094D01*
G01X0020073Y0001001D02*
G01X0020073Y0001188D01*
G01X0020026Y0001277D02*
G01X0020073Y0001324D01*
G01X0020073Y0001324D02*
G01X0020073Y0001417D01*
G01X0020073Y0001417D02*
G01X0020026Y0001464D01*
G01X0020026Y0001464D02*
G01X0019933Y0001464D01*
G01X0019933Y0001464D02*
G01X0019886Y0001417D01*
G01X0019886Y0001417D02*
G01X0019886Y0001371D01*
G01X0019886Y0001371D02*
G01X0019933Y0001277D01*
G01X0019933Y0001277D02*
G01X0019793Y0001277D01*
G01X0019793Y0001277D02*
G01X0019793Y0001464D01*
G01X0019073Y0001417D02*
G01X0018793Y0001417D01*
G01X0018793Y0001417D02*
G01X0018933Y0001277D01*
G01X0018933Y0001277D02*
G01X0018933Y0001464D01*
G01X0019073Y0001188D02*
G01X0019073Y0001001D01*
G01X0019073Y0001094D02*
G01X0018793Y0001094D01*
G01X0018793Y0001094D02*
G01X0018886Y0001001D01*
G01X0018886Y0000912D02*
G01X0018933Y0000865D01*
G01X0018933Y0000865D02*
G01X0018933Y0000725D01*
G01X0019073Y0000725D02*
G01X0019073Y0000865D01*
G01X0019073Y0000865D02*
G01X0019026Y0000912D01*
G01X0019026Y0000912D02*
G01X0018979Y0000912D01*
G01X0018979Y0000912D02*
G01X0018933Y0000865D01*
G01X0018886Y0000912D02*
G01X0018839Y0000912D01*
G01X0018839Y0000912D02*
G01X0018793Y0000865D01*
G01X0018793Y0000865D02*
G01X0018793Y0000725D01*
G01X0018793Y0000725D02*
G01X0019073Y0000725D01*
G01X0018073Y0000725D02*
G01X0018073Y0000865D01*
G01X0018073Y0000865D02*
G01X0018026Y0000912D01*
G01X0018026Y0000912D02*
G01X0017979Y0000912D01*
G01X0017979Y0000912D02*
G01X0017933Y0000865D01*
G01X0017933Y0000865D02*
G01X0017933Y0000725D01*
G01X0018073Y0000725D02*
G01X0017793Y0000725D01*
G01X0017793Y0000725D02*
G01X0017793Y0000865D01*
G01X0017793Y0000865D02*
G01X0017839Y0000912D01*
G01X0017839Y0000912D02*
G01X0017886Y0000912D01*
G01X0017886Y0000912D02*
G01X0017933Y0000865D01*
G01X0017886Y0001001D02*
G01X0017793Y0001094D01*
G01X0017793Y0001094D02*
G01X0018073Y0001094D01*
G01X0018073Y0001001D02*
G01X0018073Y0001188D01*
G01X0018026Y0001277D02*
G01X0018073Y0001324D01*
G01X0018073Y0001324D02*
G01X0018073Y0001417D01*
G01X0018073Y0001417D02*
G01X0018026Y0001464D01*
G01X0018026Y0001464D02*
G01X0017979Y0001464D01*
G01X0017979Y0001464D02*
G01X0017933Y0001417D01*
G01X0017933Y0001417D02*
G01X0017933Y0001371D01*
G01X0017933Y0001417D02*
G01X0017886Y0001464D01*
G01X0017886Y0001464D02*
G01X0017839Y0001464D01*
G01X0017839Y0001464D02*
G01X0017793Y0001417D01*
G01X0017793Y0001417D02*
G01X0017793Y0001324D01*
G01X0017793Y0001324D02*
G01X0017839Y0001277D01*
G01X0017073Y0001277D02*
G01X0016886Y0001464D01*
G01X0016886Y0001464D02*
G01X0016839Y0001464D01*
G01X0016839Y0001464D02*
G01X0016793Y0001417D01*
G01X0016793Y0001417D02*
G01X0016793Y0001324D01*
G01X0016793Y0001324D02*
G01X0016839Y0001277D01*
G01X0016793Y0001094D02*
G01X0017073Y0001094D01*
G01X0017073Y0001001D02*
G01X0017073Y0001188D01*
G01X0017073Y0001277D02*
G01X0017073Y0001464D01*
G01X0016793Y0001094D02*
G01X0016886Y0001001D01*
G01X0016886Y0000912D02*
G01X0016933Y0000865D01*
G01X0016933Y0000865D02*
G01X0016933Y0000725D01*
G01X0017073Y0000725D02*
G01X0017073Y0000865D01*
G01X0017073Y0000865D02*
G01X0017026Y0000912D01*
G01X0017026Y0000912D02*
G01X0016979Y0000912D01*
G01X0016979Y0000912D02*
G01X0016933Y0000865D01*
G01X0016886Y0000912D02*
G01X0016839Y0000912D01*
G01X0016839Y0000912D02*
G01X0016793Y0000865D01*
G01X0016793Y0000865D02*
G01X0016793Y0000725D01*
G01X0016793Y0000725D02*
G01X0017073Y0000725D01*
G01X0016073Y0000725D02*
G01X0016073Y0000865D01*
G01X0016073Y0000865D02*
G01X0016026Y0000912D01*
G01X0016026Y0000912D02*
G01X0015979Y0000912D01*
G01X0015979Y0000912D02*
G01X0015933Y0000865D01*
G01X0015933Y0000865D02*
G01X0015933Y0000725D01*
G01X0016073Y0000725D02*
G01X0015793Y0000725D01*
G01X0015793Y0000725D02*
G01X0015793Y0000865D01*
G01X0015793Y0000865D02*
G01X0015839Y0000912D01*
G01X0015839Y0000912D02*
G01X0015886Y0000912D01*
G01X0015886Y0000912D02*
G01X0015933Y0000865D01*
G01X0015886Y0001001D02*
G01X0015793Y0001094D01*
G01X0015793Y0001094D02*
G01X0016073Y0001094D01*
G01X0016073Y0001001D02*
G01X0016073Y0001188D01*
G01X0016073Y0001277D02*
G01X0016073Y0001464D01*
G01X0016073Y0001371D02*
G01X0015793Y0001371D01*
G01X0015793Y0001371D02*
G01X0015886Y0001277D01*
G01X0015073Y0001324D02*
G01X0015026Y0001277D01*
G01X0015026Y0001277D02*
G01X0014839Y0001464D01*
G01X0014839Y0001464D02*
G01X0015026Y0001464D01*
G01X0015026Y0001464D02*
G01X0015073Y0001417D01*
G01X0015073Y0001417D02*
G01X0015073Y0001324D01*
G01X0015026Y0001277D02*
G01X0014839Y0001277D01*
G01X0014839Y0001277D02*
G01X0014793Y0001324D01*
G01X0014793Y0001324D02*
G01X0014793Y0001417D01*
G01X0014793Y0001417D02*
G01X0014839Y0001464D01*
G01X0015073Y0001188D02*
G01X0015073Y0001001D01*
G01X0015073Y0001094D02*
G01X0014793Y0001094D01*
G01X0014793Y0001094D02*
G01X0014886Y0001001D01*
G01X0014886Y0000912D02*
G01X0014933Y0000865D01*
G01X0014933Y0000865D02*
G01X0014933Y0000725D01*
G01X0015073Y0000725D02*
G01X0014793Y0000725D01*
G01X0014793Y0000725D02*
G01X0014793Y0000865D01*
G01X0014793Y0000865D02*
G01X0014839Y0000912D01*
G01X0014839Y0000912D02*
G01X0014886Y0000912D01*
G01X0014933Y0000865D02*
G01X0014979Y0000912D01*
G01X0014979Y0000912D02*
G01X0015026Y0000912D01*
G01X0015026Y0000912D02*
G01X0015073Y0000865D01*
G01X0015073Y0000865D02*
G01X0015073Y0000725D01*
G01X0005540Y0005590D02*
G01X0005540Y0005680D01*
G01X0005540Y0005680D02*
G01X0005600Y0005740D01*
G01X0005600Y0005740D02*
G01X0005600Y0005770D01*
G01X0005540Y0005680D02*
G01X0005480Y0005740D01*
G01X0005480Y0005740D02*
G01X0005480Y0005770D01*
G01X0005416Y0005740D02*
G01X0005416Y0005680D01*
G01X0005416Y0005680D02*
G01X0005386Y0005650D01*
G01X0005386Y0005650D02*
G01X0005296Y0005650D01*
G01X0005356Y0005650D02*
G01X0005416Y0005590D01*
G01X0005296Y0005590D02*
G01X0005296Y0005770D01*
G01X0005296Y0005770D02*
G01X0005386Y0005770D01*
G01X0005386Y0005770D02*
G01X0005416Y0005740D01*
G01X0005232Y0005770D02*
G01X0005111Y0005770D01*
G01X0005111Y0005770D02*
G01X0005111Y0005590D01*
G01X0005111Y0005590D02*
G01X0005232Y0005590D01*
G01X0005172Y0005680D02*
G01X0005111Y0005680D01*
G01X0005047Y0005770D02*
G01X0004927Y0005770D01*
G01X0004987Y0005770D02*
G01X0004987Y0005590D01*
G01X0004803Y0005590D02*
G01X0004803Y0005770D01*
G01X0004743Y0005770D02*
G01X0004863Y0005770D01*
G01X0004679Y0005710D02*
G01X0004679Y0005590D01*
G01X0004679Y0005680D02*
G01X0004559Y0005680D01*
G01X0004559Y0005710D02*
G01X0004559Y0005590D01*
G01X0004495Y0005620D02*
G01X0004465Y0005590D01*
G01X0004465Y0005590D02*
G01X0004375Y0005590D01*
G01X0004375Y0005590D02*
G01X0004375Y0005770D01*
G01X0004375Y0005770D02*
G01X0004465Y0005770D01*
G01X0004465Y0005770D02*
G01X0004495Y0005740D01*
G01X0004495Y0005740D02*
G01X0004495Y0005710D01*
G01X0004495Y0005710D02*
G01X0004465Y0005680D01*
G01X0004465Y0005680D02*
G01X0004375Y0005680D01*
G01X0004465Y0005680D02*
G01X0004495Y0005650D01*
G01X0004495Y0005650D02*
G01X0004495Y0005620D01*
G01X0004559Y0005710D02*
G01X0004619Y0005770D01*
G01X0004619Y0005770D02*
G01X0004679Y0005710D01*
G01X0004311Y0005770D02*
G01X0004311Y0005590D01*
G01X0004311Y0005590D02*
G01X0004191Y0005770D01*
G01X0004191Y0005770D02*
G01X0004191Y0005590D01*
G01X0004128Y0005590D02*
G01X0004068Y0005590D01*
G01X0004098Y0005590D02*
G01X0004098Y0005770D01*
G01X0004068Y0005770D02*
G01X0004128Y0005770D01*
G01X0004004Y0005740D02*
G01X0003974Y0005770D01*
G01X0003974Y0005770D02*
G01X0003914Y0005770D01*
G01X0003914Y0005770D02*
G01X0003884Y0005740D01*
G01X0003884Y0005740D02*
G01X0003884Y0005620D01*
G01X0003884Y0005620D02*
G01X0003914Y0005590D01*
G01X0003914Y0005590D02*
G01X0003974Y0005590D01*
G01X0003974Y0005590D02*
G01X0004004Y0005620D01*
G01X0004004Y0005620D02*
G01X0004004Y0005740D01*
G01X0003820Y0005740D02*
G01X0003790Y0005770D01*
G01X0003790Y0005770D02*
G01X0003730Y0005770D01*
G01X0003730Y0005770D02*
G01X0003700Y0005740D01*
G01X0003700Y0005740D02*
G01X0003700Y0005620D01*
G01X0003700Y0005620D02*
G01X0003730Y0005590D01*
G01X0003730Y0005590D02*
G01X0003790Y0005590D01*
G01X0003790Y0005590D02*
G01X0003820Y0005620D01*
G01X0002141Y0005972D02*
G01X0002094Y0006065D01*
G01X0002094Y0006065D02*
G01X0002001Y0006159D01*
G01X0002001Y0006159D02*
G01X0002001Y0006018D01*
G01X0002001Y0006018D02*
G01X0001954Y0005972D01*
G01X0001954Y0005972D02*
G01X0001907Y0005972D01*
G01X0001907Y0005972D02*
G01X0001861Y0006018D01*
G01X0001861Y0006018D02*
G01X0001861Y0006112D01*
G01X0001861Y0006112D02*
G01X0001907Y0006159D01*
G01X0001907Y0006159D02*
G01X0002001Y0006159D01*
G01X0001861Y0006248D02*
G01X0001861Y0006435D01*
G01X0001861Y0006524D02*
G01X0001861Y0006711D01*
G01X0001861Y0006711D02*
G01X0002047Y0006524D01*
G01X0002047Y0006524D02*
G01X0002094Y0006524D01*
G01X0002094Y0006524D02*
G01X0002141Y0006571D01*
G01X0002141Y0006571D02*
G01X0002141Y0006664D01*
G01X0002141Y0006664D02*
G01X0002094Y0006711D01*
G01X0002141Y0006894D02*
G01X0001861Y0006894D01*
G01X0001861Y0006987D02*
G01X0001861Y0006800D01*
G01X0002047Y0006987D02*
G01X0002141Y0006894D01*
G01X0002094Y0007077D02*
G01X0002001Y0007077D01*
G01X0002001Y0007077D02*
G01X0001954Y0007123D01*
G01X0001954Y0007123D02*
G01X0001954Y0007264D01*
G01X0001861Y0007264D02*
G01X0002141Y0007264D01*
G01X0002141Y0007264D02*
G01X0002141Y0007123D01*
G01X0002141Y0007123D02*
G01X0002094Y0007077D01*
G01X0001954Y0007170D02*
G01X0001861Y0007077D01*
G01X0001907Y0007353D02*
G01X0001861Y0007400D01*
G01X0001861Y0007400D02*
G01X0001861Y0007493D01*
G01X0001861Y0007493D02*
G01X0001907Y0007540D01*
G01X0001907Y0007540D02*
G01X0002094Y0007540D01*
G01X0002094Y0007540D02*
G01X0002141Y0007493D01*
G01X0002141Y0007493D02*
G01X0002141Y0007400D01*
G01X0002141Y0007400D02*
G01X0002094Y0007353D01*
G01X0002047Y0006435D02*
G01X0002141Y0006341D01*
G01X0002141Y0006341D02*
G01X0001861Y0006341D01*
G01X0004807Y0014747D02*
G01X0004807Y0014887D01*
G01X0004807Y0014887D02*
G01X0004854Y0014933D01*
G01X0004854Y0014933D02*
G01X0004947Y0014933D01*
G01X0004947Y0014933D02*
G01X0004994Y0014887D01*
G01X0004994Y0014887D02*
G01X0004994Y0014747D01*
G01X0004994Y0014840D02*
G01X0005087Y0014933D01*
G01X0005041Y0015023D02*
G01X0005087Y0015070D01*
G01X0005087Y0015070D02*
G01X0005087Y0015163D01*
G01X0005087Y0015163D02*
G01X0005041Y0015210D01*
G01X0005041Y0015210D02*
G01X0004994Y0015210D01*
G01X0004994Y0015210D02*
G01X0004947Y0015163D01*
G01X0004947Y0015163D02*
G01X0004947Y0015070D01*
G01X0004947Y0015070D02*
G01X0004900Y0015023D01*
G01X0004900Y0015023D02*
G01X0004854Y0015023D01*
G01X0004854Y0015023D02*
G01X0004807Y0015070D01*
G01X0004807Y0015070D02*
G01X0004807Y0015163D01*
G01X0004807Y0015163D02*
G01X0004854Y0015210D01*
G01X0004807Y0015299D02*
G01X0004807Y0015486D01*
G01X0004807Y0015392D02*
G01X0005087Y0015392D01*
G01X0005087Y0014747D02*
G01X0004807Y0014747D01*
G01X0012807Y0014793D02*
G01X0012854Y0014747D01*
G01X0012854Y0014747D02*
G01X0013041Y0014747D01*
G01X0013041Y0014747D02*
G01X0013087Y0014793D01*
G01X0013087Y0014793D02*
G01X0013087Y0014887D01*
G01X0013087Y0014887D02*
G01X0013041Y0014933D01*
G01X0013087Y0015023D02*
G01X0013087Y0015210D01*
G01X0013087Y0015299D02*
G01X0012900Y0015486D01*
G01X0012900Y0015486D02*
G01X0012854Y0015486D01*
G01X0012854Y0015486D02*
G01X0012807Y0015439D01*
G01X0012807Y0015439D02*
G01X0012807Y0015346D01*
G01X0012807Y0015346D02*
G01X0012854Y0015299D01*
G01X0012807Y0015116D02*
G01X0013087Y0015116D01*
G01X0013087Y0015299D02*
G01X0013087Y0015486D01*
G01X0013807Y0015392D02*
G01X0013900Y0015299D01*
G01X0013807Y0015392D02*
G01X0014087Y0015392D01*
G01X0014087Y0015299D02*
G01X0014087Y0015486D01*
G01X0014087Y0015210D02*
G01X0014087Y0015023D01*
G01X0014087Y0015116D02*
G01X0013807Y0015116D01*
G01X0013807Y0015116D02*
G01X0013900Y0015023D01*
G01X0013854Y0014933D02*
G01X0013807Y0014887D01*
G01X0013807Y0014887D02*
G01X0013807Y0014793D01*
G01X0013807Y0014793D02*
G01X0013854Y0014747D01*
G01X0013854Y0014747D02*
G01X0014041Y0014747D01*
G01X0014041Y0014747D02*
G01X0014087Y0014793D01*
G01X0014087Y0014793D02*
G01X0014087Y0014887D01*
G01X0014087Y0014887D02*
G01X0014041Y0014933D01*
G01X0014807Y0014887D02*
G01X0014807Y0014793D01*
G01X0014807Y0014793D02*
G01X0014854Y0014747D01*
G01X0014854Y0014747D02*
G01X0015041Y0014747D01*
G01X0015041Y0014747D02*
G01X0015087Y0014793D01*
G01X0015087Y0014793D02*
G01X0015087Y0014887D01*
G01X0015087Y0014887D02*
G01X0015041Y0014933D01*
G01X0015087Y0015023D02*
G01X0015087Y0015210D01*
G01X0015087Y0015116D02*
G01X0014807Y0015116D01*
G01X0014807Y0015116D02*
G01X0014900Y0015023D01*
G01X0014854Y0014933D02*
G01X0014807Y0014887D01*
G01X0014854Y0015299D02*
G01X0014807Y0015346D01*
G01X0014807Y0015346D02*
G01X0014807Y0015439D01*
G01X0014807Y0015439D02*
G01X0014854Y0015486D01*
G01X0014854Y0015486D02*
G01X0015041Y0015299D01*
G01X0015041Y0015299D02*
G01X0015087Y0015346D01*
G01X0015087Y0015346D02*
G01X0015087Y0015439D01*
G01X0015087Y0015439D02*
G01X0015041Y0015486D01*
G01X0015041Y0015486D02*
G01X0014854Y0015486D01*
G01X0014854Y0015299D02*
G01X0015041Y0015299D01*
G01X0015807Y0015346D02*
G01X0015854Y0015299D01*
G01X0015807Y0015346D02*
G01X0015807Y0015439D01*
G01X0015807Y0015439D02*
G01X0015854Y0015486D01*
G01X0015854Y0015486D02*
G01X0015900Y0015486D01*
G01X0015900Y0015486D02*
G01X0016087Y0015299D01*
G01X0016087Y0015299D02*
G01X0016087Y0015486D01*
G01X0016087Y0015210D02*
G01X0016087Y0015023D01*
G01X0016087Y0014933D02*
G01X0015900Y0014933D01*
G01X0015900Y0014933D02*
G01X0015807Y0014840D01*
G01X0015807Y0014840D02*
G01X0015900Y0014747D01*
G01X0015900Y0014747D02*
G01X0016087Y0014747D01*
G01X0015947Y0014747D02*
G01X0015947Y0014933D01*
G01X0015900Y0015023D02*
G01X0015807Y0015116D01*
G01X0015807Y0015116D02*
G01X0016087Y0015116D01*
G01X0016807Y0015116D02*
G01X0017087Y0015116D01*
G01X0017087Y0015023D02*
G01X0017087Y0015210D01*
G01X0017087Y0015299D02*
G01X0017087Y0015486D01*
G01X0017087Y0015392D02*
G01X0016807Y0015392D01*
G01X0016807Y0015392D02*
G01X0016900Y0015299D01*
G01X0016807Y0015116D02*
G01X0016900Y0015023D01*
G01X0016900Y0014933D02*
G01X0016807Y0014840D01*
G01X0016807Y0014840D02*
G01X0016900Y0014747D01*
G01X0016900Y0014747D02*
G01X0017087Y0014747D01*
G01X0016947Y0014747D02*
G01X0016947Y0014933D01*
G01X0016900Y0014933D02*
G01X0017087Y0014933D01*
G01X0017807Y0014840D02*
G01X0017900Y0014933D01*
G01X0017900Y0014933D02*
G01X0018087Y0014933D01*
G01X0018087Y0015023D02*
G01X0018087Y0015210D01*
G01X0018087Y0015116D02*
G01X0017807Y0015116D01*
G01X0017807Y0015116D02*
G01X0017900Y0015023D01*
G01X0017947Y0014933D02*
G01X0017947Y0014747D01*
G01X0017900Y0014747D02*
G01X0017807Y0014840D01*
G01X0017900Y0014747D02*
G01X0018087Y0014747D01*
G01X0018041Y0015299D02*
G01X0017854Y0015299D01*
G01X0017854Y0015299D02*
G01X0017807Y0015346D01*
G01X0017807Y0015346D02*
G01X0017807Y0015439D01*
G01X0017807Y0015439D02*
G01X0017854Y0015486D01*
G01X0017854Y0015486D02*
G01X0018041Y0015299D01*
G01X0018041Y0015299D02*
G01X0018087Y0015346D01*
G01X0018087Y0015346D02*
G01X0018087Y0015439D01*
G01X0018087Y0015439D02*
G01X0018041Y0015486D01*
G01X0018041Y0015486D02*
G01X0017854Y0015486D01*
G01X0012900Y0015023D02*
G01X0012807Y0015116D01*
G01X0012854Y0014933D02*
G01X0012807Y0014887D01*
G01X0012807Y0014887D02*
G01X0012807Y0014793D01*
G01X0025859Y0001464D02*
G01X0025813Y0001417D01*
G01X0025813Y0001417D02*
G01X0025813Y0001277D01*
G01X0025813Y0001277D02*
G01X0026093Y0001277D01*
G01X0026093Y0001277D02*
G01X0026093Y0001417D01*
G01X0026093Y0001417D02*
G01X0026046Y0001464D01*
G01X0026046Y0001464D02*
G01X0025859Y0001464D01*
G01X0025813Y0001188D02*
G01X0026093Y0001188D01*
G01X0026093Y0001188D02*
G01X0025813Y0001001D01*
G01X0025813Y0001001D02*
G01X0026093Y0001001D01*
G01X0026046Y0000912D02*
G01X0025953Y0000912D01*
G01X0025953Y0000912D02*
G01X0025953Y0000818D01*
G01X0026046Y0000725D02*
G01X0025859Y0000725D01*
G01X0025859Y0000725D02*
G01X0025813Y0000771D01*
G01X0025813Y0000771D02*
G01X0025813Y0000865D01*
G01X0025813Y0000865D02*
G01X0025859Y0000912D01*
G01X0026046Y0000912D02*
G01X0026093Y0000865D01*
G01X0026093Y0000865D02*
G01X0026093Y0000771D01*
G01X0026093Y0000771D02*
G01X0026046Y0000725D01*
G54D14*
G01X0029390Y0008140D02*
G01X0029890Y0008140D01*
G01X0029890Y0008740D02*
G01X0029390Y0008740D01*
G01X0030787Y0013224D02*
G01X0030953Y0013602D01*
G01X0030953Y0013602D02*
G01X0031113Y0013224D01*
G01X0031113Y0013224D02*
G01X0030787Y0013224D01*
G01X0030811Y0013279D02*
G01X0031090Y0013279D01*
G01X0031057Y0013357D02*
G01X0030845Y0013357D01*
G01X0030880Y0013436D02*
G01X0031023Y0013436D01*
G01X0030990Y0013514D02*
G01X0030914Y0013514D01*
G01X0030948Y0013593D02*
G01X0030957Y0013593D01*
G54D15*
G01X0031190Y0013640D02*
G01X0030690Y0013640D01*
G01X0030690Y0013640D02*
G01X0030440Y0013890D01*
G01X0030440Y0013890D02*
G01X0030190Y0013640D01*
G01X0030190Y0013640D02*
G01X0029690Y0013640D01*
G01X0029690Y0013640D02*
G01X0029440Y0013890D01*
G01X0029440Y0013890D02*
G01X0029190Y0013640D01*
G01X0029190Y0013640D02*
G01X0028690Y0013640D01*
G01X0028690Y0013640D02*
G01X0028440Y0013890D01*
G01X0028440Y0013890D02*
G01X0028190Y0013640D01*
G01X0028190Y0013640D02*
G01X0027690Y0013640D01*
G01X0027690Y0013640D02*
G01X0027440Y0013890D01*
G01X0027440Y0013890D02*
G01X0027190Y0013640D01*
G01X0027190Y0013640D02*
G01X0026690Y0013640D01*
G01X0026690Y0013640D02*
G01X0026440Y0013890D01*
G01X0026440Y0013890D02*
G01X0026190Y0013640D01*
G01X0026190Y0013640D02*
G01X0025690Y0013640D01*
G01X0025690Y0013640D02*
G01X0025440Y0013890D01*
G01X0025440Y0013890D02*
G01X0025440Y0014390D01*
G01X0025440Y0014390D02*
G01X0025690Y0014640D01*
G01X0025690Y0014640D02*
G01X0026190Y0014640D01*
G01X0026190Y0014640D02*
G01X0026440Y0014390D01*
G01X0026440Y0014390D02*
G01X0026440Y0013890D01*
G01X0026440Y0013890D02*
G01X0026440Y0014390D01*
G01X0026440Y0014390D02*
G01X0026690Y0014640D01*
G01X0026690Y0014640D02*
G01X0027190Y0014640D01*
G01X0027190Y0014640D02*
G01X0027440Y0014390D01*
G01X0027440Y0014390D02*
G01X0027440Y0013890D01*
G01X0027440Y0013890D02*
G01X0027440Y0014390D01*
G01X0027440Y0014390D02*
G01X0027690Y0014640D01*
G01X0027690Y0014640D02*
G01X0028190Y0014640D01*
G01X0028190Y0014640D02*
G01X0028440Y0014390D01*
G01X0028440Y0014390D02*
G01X0028440Y0013890D01*
G01X0028440Y0013890D02*
G01X0028440Y0014390D01*
G01X0028440Y0014390D02*
G01X0028690Y0014640D01*
G01X0028690Y0014640D02*
G01X0029190Y0014640D01*
G01X0029190Y0014640D02*
G01X0029440Y0014390D01*
G01X0029440Y0014390D02*
G01X0029440Y0013890D01*
G01X0029440Y0013890D02*
G01X0029440Y0014390D01*
G01X0029440Y0014390D02*
G01X0029690Y0014640D01*
G01X0029690Y0014640D02*
G01X0030190Y0014640D01*
G01X0030190Y0014640D02*
G01X0030440Y0014390D01*
G01X0030440Y0014390D02*
G01X0030440Y0013890D01*
G01X0030440Y0013890D02*
G01X0030440Y0014390D01*
G01X0030440Y0014390D02*
G01X0030690Y0014640D01*
G01X0030690Y0014640D02*
G01X0031190Y0014640D01*
G01X0031190Y0014640D02*
G01X0031440Y0014390D01*
G01X0031440Y0014390D02*
G01X0031440Y0013890D01*
G01X0031440Y0013890D02*
G01X0031190Y0013640D01*
G01X0029558Y0012376D02*
G01X0029322Y0012376D01*
G01X0029322Y0011904D02*
G01X0029558Y0011904D01*
G01X0027558Y0011904D02*
G01X0027322Y0011904D01*
G01X0027322Y0012376D02*
G01X0027558Y0012376D01*
G01X0024440Y0013890D02*
G01X0024190Y0013640D01*
G01X0024190Y0013640D02*
G01X0023690Y0013640D01*
G01X0023690Y0013640D02*
G01X0023440Y0013890D01*
G01X0023440Y0013890D02*
G01X0023190Y0013640D01*
G01X0023190Y0013640D02*
G01X0022690Y0013640D01*
G01X0022690Y0013640D02*
G01X0022440Y0013890D01*
G01X0022440Y0013890D02*
G01X0022190Y0013640D01*
G01X0022190Y0013640D02*
G01X0021690Y0013640D01*
G01X0021690Y0013640D02*
G01X0021440Y0013890D01*
G01X0021440Y0013890D02*
G01X0021190Y0013640D01*
G01X0021190Y0013640D02*
G01X0020690Y0013640D01*
G01X0020690Y0013640D02*
G01X0020440Y0013890D01*
G01X0020440Y0013890D02*
G01X0020190Y0013640D01*
G01X0020190Y0013640D02*
G01X0019690Y0013640D01*
G01X0019690Y0013640D02*
G01X0019440Y0013890D01*
G01X0019440Y0013890D02*
G01X0019190Y0013640D01*
G01X0019190Y0013640D02*
G01X0018690Y0013640D01*
G01X0018690Y0013640D02*
G01X0018440Y0013890D01*
G01X0018440Y0013890D02*
G01X0018190Y0013640D01*
G01X0018190Y0013640D02*
G01X0017690Y0013640D01*
G01X0017690Y0013640D02*
G01X0017440Y0013890D01*
G01X0017440Y0013890D02*
G01X0017190Y0013640D01*
G01X0017190Y0013640D02*
G01X0016690Y0013640D01*
G01X0016690Y0013640D02*
G01X0016440Y0013890D01*
G01X0016440Y0013890D02*
G01X0016190Y0013640D01*
G01X0016190Y0013640D02*
G01X0015690Y0013640D01*
G01X0015690Y0013640D02*
G01X0015440Y0013890D01*
G01X0015440Y0013890D02*
G01X0015190Y0013640D01*
G01X0015190Y0013640D02*
G01X0014690Y0013640D01*
G01X0014690Y0013640D02*
G01X0014440Y0013890D01*
G01X0014440Y0013890D02*
G01X0014190Y0013640D01*
G01X0014190Y0013640D02*
G01X0013690Y0013640D01*
G01X0013690Y0013640D02*
G01X0013440Y0013890D01*
G01X0013440Y0013890D02*
G01X0013190Y0013640D01*
G01X0013190Y0013640D02*
G01X0012690Y0013640D01*
G01X0012690Y0013640D02*
G01X0012440Y0013890D01*
G01X0012440Y0013890D02*
G01X0012190Y0013640D01*
G01X0012190Y0013640D02*
G01X0011690Y0013640D01*
G01X0011690Y0013640D02*
G01X0011440Y0013890D01*
G01X0011440Y0013890D02*
G01X0011190Y0013640D01*
G01X0011190Y0013640D02*
G01X0010690Y0013640D01*
G01X0010690Y0013640D02*
G01X0010440Y0013890D01*
G01X0010440Y0013890D02*
G01X0010190Y0013640D01*
G01X0010190Y0013640D02*
G01X0009690Y0013640D01*
G01X0009690Y0013640D02*
G01X0009440Y0013890D01*
G01X0009440Y0013890D02*
G01X0009190Y0013640D01*
G01X0009190Y0013640D02*
G01X0008690Y0013640D01*
G01X0008690Y0013640D02*
G01X0008440Y0013890D01*
G01X0008440Y0013890D02*
G01X0008190Y0013640D01*
G01X0008190Y0013640D02*
G01X0007690Y0013640D01*
G01X0007690Y0013640D02*
G01X0007440Y0013890D01*
G01X0007440Y0013890D02*
G01X0007190Y0013640D01*
G01X0007190Y0013640D02*
G01X0006690Y0013640D01*
G01X0006690Y0013640D02*
G01X0006440Y0013890D01*
G01X0006440Y0013890D02*
G01X0006190Y0013640D01*
G01X0006190Y0013640D02*
G01X0005690Y0013640D01*
G01X0005690Y0013640D02*
G01X0005440Y0013890D01*
G01X0005440Y0013890D02*
G01X0005190Y0013640D01*
G01X0005190Y0013640D02*
G01X0004690Y0013640D01*
G01X0004690Y0013640D02*
G01X0004440Y0013890D01*
G01X0004440Y0013890D02*
G01X0004440Y0014390D01*
G01X0004440Y0014390D02*
G01X0004690Y0014640D01*
G01X0004690Y0014640D02*
G01X0005190Y0014640D01*
G01X0005190Y0014640D02*
G01X0005440Y0014390D01*
G01X0005440Y0014390D02*
G01X0005440Y0013890D01*
G01X0005440Y0013890D02*
G01X0005440Y0014390D01*
G01X0005440Y0014390D02*
G01X0005690Y0014640D01*
G01X0005690Y0014640D02*
G01X0006190Y0014640D01*
G01X0006190Y0014640D02*
G01X0006440Y0014390D01*
G01X0006440Y0014390D02*
G01X0006440Y0013890D01*
G01X0006440Y0013890D02*
G01X0006440Y0014390D01*
G01X0006440Y0014390D02*
G01X0006690Y0014640D01*
G01X0006690Y0014640D02*
G01X0007190Y0014640D01*
G01X0007190Y0014640D02*
G01X0007440Y0014390D01*
G01X0007440Y0014390D02*
G01X0007440Y0013890D01*
G01X0007440Y0013890D02*
G01X0007440Y0014390D01*
G01X0007440Y0014390D02*
G01X0007690Y0014640D01*
G01X0007690Y0014640D02*
G01X0008190Y0014640D01*
G01X0008190Y0014640D02*
G01X0008440Y0014390D01*
G01X0008440Y0014390D02*
G01X0008440Y0013890D01*
G01X0008440Y0013890D02*
G01X0008440Y0014390D01*
G01X0008440Y0014390D02*
G01X0008690Y0014640D01*
G01X0008690Y0014640D02*
G01X0009190Y0014640D01*
G01X0009190Y0014640D02*
G01X0009440Y0014390D01*
G01X0009440Y0014390D02*
G01X0009440Y0013890D01*
G01X0009440Y0013890D02*
G01X0009440Y0014390D01*
G01X0009440Y0014390D02*
G01X0009690Y0014640D01*
G01X0009690Y0014640D02*
G01X0010190Y0014640D01*
G01X0010190Y0014640D02*
G01X0010440Y0014390D01*
G01X0010440Y0014390D02*
G01X0010440Y0013890D01*
G01X0010440Y0013890D02*
G01X0010440Y0014390D01*
G01X0010440Y0014390D02*
G01X0010690Y0014640D01*
G01X0010690Y0014640D02*
G01X0011190Y0014640D01*
G01X0011190Y0014640D02*
G01X0011440Y0014390D01*
G01X0011440Y0014390D02*
G01X0011440Y0013890D01*
G01X0011440Y0013890D02*
G01X0011440Y0014390D01*
G01X0011440Y0014390D02*
G01X0011690Y0014640D01*
G01X0011690Y0014640D02*
G01X0012190Y0014640D01*
G01X0012190Y0014640D02*
G01X0012440Y0014390D01*
G01X0012440Y0014390D02*
G01X0012440Y0013890D01*
G01X0012440Y0013890D02*
G01X0012440Y0014390D01*
G01X0012440Y0014390D02*
G01X0012690Y0014640D01*
G01X0012690Y0014640D02*
G01X0013190Y0014640D01*
G01X0013190Y0014640D02*
G01X0013440Y0014390D01*
G01X0013440Y0014390D02*
G01X0013440Y0013890D01*
G01X0013440Y0013890D02*
G01X0013440Y0014390D01*
G01X0013440Y0014390D02*
G01X0013690Y0014640D01*
G01X0013690Y0014640D02*
G01X0014190Y0014640D01*
G01X0014190Y0014640D02*
G01X0014440Y0014390D01*
G01X0014440Y0014390D02*
G01X0014440Y0013890D01*
G01X0014440Y0013890D02*
G01X0014440Y0014390D01*
G01X0014440Y0014390D02*
G01X0014690Y0014640D01*
G01X0014690Y0014640D02*
G01X0015190Y0014640D01*
G01X0015190Y0014640D02*
G01X0015440Y0014390D01*
G01X0015440Y0014390D02*
G01X0015440Y0013890D01*
G01X0015440Y0013890D02*
G01X0015440Y0014390D01*
G01X0015440Y0014390D02*
G01X0015690Y0014640D01*
G01X0015690Y0014640D02*
G01X0016190Y0014640D01*
G01X0016190Y0014640D02*
G01X0016440Y0014390D01*
G01X0016440Y0014390D02*
G01X0016440Y0013890D01*
G01X0016440Y0013890D02*
G01X0016440Y0014390D01*
G01X0016440Y0014390D02*
G01X0016690Y0014640D01*
G01X0016690Y0014640D02*
G01X0017190Y0014640D01*
G01X0017190Y0014640D02*
G01X0017440Y0014390D01*
G01X0017440Y0014390D02*
G01X0017440Y0013890D01*
G01X0017440Y0013890D02*
G01X0017440Y0014390D01*
G01X0017440Y0014390D02*
G01X0017690Y0014640D01*
G01X0017690Y0014640D02*
G01X0018190Y0014640D01*
G01X0018190Y0014640D02*
G01X0018440Y0014390D01*
G01X0018440Y0014390D02*
G01X0018440Y0013890D01*
G01X0018440Y0013890D02*
G01X0018440Y0014390D01*
G01X0018440Y0014390D02*
G01X0018690Y0014640D01*
G01X0018690Y0014640D02*
G01X0019190Y0014640D01*
G01X0019190Y0014640D02*
G01X0019440Y0014390D01*
G01X0019440Y0014390D02*
G01X0019440Y0013890D01*
G01X0019440Y0013890D02*
G01X0019440Y0014390D01*
G01X0019440Y0014390D02*
G01X0019690Y0014640D01*
G01X0019690Y0014640D02*
G01X0020190Y0014640D01*
G01X0020190Y0014640D02*
G01X0020440Y0014390D01*
G01X0020440Y0014390D02*
G01X0020440Y0013890D01*
G01X0020440Y0013890D02*
G01X0020440Y0014390D01*
G01X0020440Y0014390D02*
G01X0020690Y0014640D01*
G01X0020690Y0014640D02*
G01X0021190Y0014640D01*
G01X0021190Y0014640D02*
G01X0021440Y0014390D01*
G01X0021440Y0014390D02*
G01X0021440Y0013890D01*
G01X0021440Y0013890D02*
G01X0021440Y0014390D01*
G01X0021440Y0014390D02*
G01X0021690Y0014640D01*
G01X0021690Y0014640D02*
G01X0022190Y0014640D01*
G01X0022190Y0014640D02*
G01X0022440Y0014390D01*
G01X0022440Y0014390D02*
G01X0022440Y0013890D01*
G01X0022440Y0013890D02*
G01X0022440Y0014390D01*
G01X0022440Y0014390D02*
G01X0022690Y0014640D01*
G01X0022690Y0014640D02*
G01X0023190Y0014640D01*
G01X0023190Y0014640D02*
G01X0023440Y0014390D01*
G01X0023440Y0014390D02*
G01X0023440Y0013890D01*
G01X0023440Y0013890D02*
G01X0023440Y0014390D01*
G01X0023440Y0014390D02*
G01X0023690Y0014640D01*
G01X0023690Y0014640D02*
G01X0024190Y0014640D01*
G01X0024190Y0014640D02*
G01X0024440Y0014390D01*
G01X0024440Y0014390D02*
G01X0024440Y0013890D01*
G01X0023058Y0012376D02*
G01X0022822Y0012376D01*
G01X0022822Y0011904D02*
G01X0023058Y0011904D01*
G01X0020476Y0011318D02*
G01X0020476Y0011082D01*
G01X0020004Y0011082D02*
G01X0020004Y0011318D01*
G01X0018326Y0011622D02*
G01X0018326Y0011858D01*
G01X0017854Y0011858D02*
G01X0017854Y0011622D01*
G01X0017376Y0011622D02*
G01X0017376Y0011858D01*
G01X0016904Y0011858D02*
G01X0016904Y0011622D01*
G01X0020004Y0009818D02*
G01X0020004Y0009582D01*
G01X0020476Y0009582D02*
G01X0020476Y0009818D01*
G01X0022922Y0008776D02*
G01X0023158Y0008776D01*
G01X0023158Y0008304D02*
G01X0022922Y0008304D01*
G01X0021158Y0007276D02*
G01X0020922Y0007276D01*
G01X0020922Y0006804D02*
G01X0021158Y0006804D01*
G01X0019758Y0006804D02*
G01X0019522Y0006804D01*
G01X0019522Y0007276D02*
G01X0019758Y0007276D01*
G01X0017658Y0005176D02*
G01X0017422Y0005176D01*
G01X0017422Y0004704D02*
G01X0017658Y0004704D01*
G01X0017658Y0004276D02*
G01X0017422Y0004276D01*
G01X0017422Y0003804D02*
G01X0017658Y0003804D01*
G01X0019062Y0003571D02*
G01X0021306Y0003571D01*
G01X0021313Y0003595D02*
G01X0021313Y0004219D01*
G01X0021306Y0004231D02*
G01X0019062Y0004231D01*
G01X0019062Y0004231D02*
G01X0019062Y0003571D01*
G01X0019190Y0002640D02*
G01X0018690Y0002640D01*
G01X0018690Y0002640D02*
G01X0018440Y0002390D01*
G01X0018440Y0002390D02*
G01X0018440Y0001890D01*
G01X0018440Y0001890D02*
G01X0018690Y0001640D01*
G01X0018690Y0001640D02*
G01X0019190Y0001640D01*
G01X0019190Y0001640D02*
G01X0019440Y0001890D01*
G01X0019440Y0001890D02*
G01X0019690Y0001640D01*
G01X0019690Y0001640D02*
G01X0020190Y0001640D01*
G01X0020190Y0001640D02*
G01X0020440Y0001890D01*
G01X0020440Y0001890D02*
G01X0020690Y0001640D01*
G01X0020690Y0001640D02*
G01X0021190Y0001640D01*
G01X0021190Y0001640D02*
G01X0021440Y0001890D01*
G01X0021440Y0001890D02*
G01X0021690Y0001640D01*
G01X0021690Y0001640D02*
G01X0022190Y0001640D01*
G01X0022190Y0001640D02*
G01X0022440Y0001890D01*
G01X0022440Y0001890D02*
G01X0022690Y0001640D01*
G01X0022690Y0001640D02*
G01X0023190Y0001640D01*
G01X0023190Y0001640D02*
G01X0023440Y0001890D01*
G01X0023440Y0001890D02*
G01X0023690Y0001640D01*
G01X0023690Y0001640D02*
G01X0024190Y0001640D01*
G01X0024190Y0001640D02*
G01X0024440Y0001890D01*
G01X0024440Y0001890D02*
G01X0024440Y0002390D01*
G01X0024440Y0002390D02*
G01X0024190Y0002640D01*
G01X0024190Y0002640D02*
G01X0023690Y0002640D01*
G01X0023690Y0002640D02*
G01X0023440Y0002390D01*
G01X0023440Y0002390D02*
G01X0023440Y0001890D01*
G01X0023440Y0001890D02*
G01X0023440Y0002390D01*
G01X0023440Y0002390D02*
G01X0023190Y0002640D01*
G01X0023190Y0002640D02*
G01X0022690Y0002640D01*
G01X0022690Y0002640D02*
G01X0022440Y0002390D01*
G01X0022440Y0002390D02*
G01X0022440Y0001890D01*
G01X0022440Y0001890D02*
G01X0022440Y0002390D01*
G01X0022440Y0002390D02*
G01X0022190Y0002640D01*
G01X0022190Y0002640D02*
G01X0021690Y0002640D01*
G01X0021690Y0002640D02*
G01X0021440Y0002390D01*
G01X0021440Y0002390D02*
G01X0021440Y0001890D01*
G01X0021440Y0001890D02*
G01X0021440Y0002390D01*
G01X0021440Y0002390D02*
G01X0021190Y0002640D01*
G01X0021190Y0002640D02*
G01X0020690Y0002640D01*
G01X0020690Y0002640D02*
G01X0020440Y0002390D01*
G01X0020440Y0002390D02*
G01X0020440Y0001890D01*
G01X0020440Y0001890D02*
G01X0020440Y0002390D01*
G01X0020440Y0002390D02*
G01X0020190Y0002640D01*
G01X0020190Y0002640D02*
G01X0019690Y0002640D01*
G01X0019690Y0002640D02*
G01X0019440Y0002390D01*
G01X0019440Y0002390D02*
G01X0019440Y0001890D01*
G01X0019440Y0001890D02*
G01X0019440Y0002390D01*
G01X0019440Y0002390D02*
G01X0019190Y0002640D01*
G01X0018440Y0002390D02*
G01X0018440Y0001890D01*
G01X0018440Y0001890D02*
G01X0018190Y0001640D01*
G01X0018190Y0001640D02*
G01X0017690Y0001640D01*
G01X0017690Y0001640D02*
G01X0017440Y0001890D01*
G01X0017440Y0001890D02*
G01X0017440Y0002390D01*
G01X0017440Y0002390D02*
G01X0017690Y0002640D01*
G01X0017690Y0002640D02*
G01X0018190Y0002640D01*
G01X0018190Y0002640D02*
G01X0018440Y0002390D01*
G01X0017440Y0002390D02*
G01X0017440Y0001890D01*
G01X0017440Y0001890D02*
G01X0017190Y0001640D01*
G01X0017190Y0001640D02*
G01X0016690Y0001640D01*
G01X0016690Y0001640D02*
G01X0016440Y0001890D01*
G01X0016440Y0001890D02*
G01X0016440Y0002390D01*
G01X0016440Y0002390D02*
G01X0016690Y0002640D01*
G01X0016690Y0002640D02*
G01X0017190Y0002640D01*
G01X0017190Y0002640D02*
G01X0017440Y0002390D01*
G01X0016440Y0002390D02*
G01X0016440Y0001890D01*
G01X0016440Y0001890D02*
G01X0016190Y0001640D01*
G01X0016190Y0001640D02*
G01X0015690Y0001640D01*
G01X0015690Y0001640D02*
G01X0015440Y0001890D01*
G01X0015440Y0001890D02*
G01X0015440Y0002390D01*
G01X0015440Y0002390D02*
G01X0015690Y0002640D01*
G01X0015690Y0002640D02*
G01X0016190Y0002640D01*
G01X0016190Y0002640D02*
G01X0016440Y0002390D01*
G01X0015440Y0002390D02*
G01X0015440Y0001890D01*
G01X0015440Y0001890D02*
G01X0015190Y0001640D01*
G01X0015190Y0001640D02*
G01X0014690Y0001640D01*
G01X0014690Y0001640D02*
G01X0014440Y0001890D01*
G01X0014440Y0001890D02*
G01X0014440Y0002390D01*
G01X0014440Y0002390D02*
G01X0014690Y0002640D01*
G01X0014690Y0002640D02*
G01X0015190Y0002640D01*
G01X0015190Y0002640D02*
G01X0015440Y0002390D01*
G01X0014440Y0002390D02*
G01X0014440Y0001890D01*
G01X0014440Y0001890D02*
G01X0014190Y0001640D01*
G01X0014190Y0001640D02*
G01X0013690Y0001640D01*
G01X0013690Y0001640D02*
G01X0013440Y0001890D01*
G01X0013440Y0001890D02*
G01X0013440Y0002390D01*
G01X0013440Y0002390D02*
G01X0013690Y0002640D01*
G01X0013690Y0002640D02*
G01X0014190Y0002640D01*
G01X0014190Y0002640D02*
G01X0014440Y0002390D01*
G01X0013440Y0002390D02*
G01X0013440Y0001890D01*
G01X0013440Y0001890D02*
G01X0013190Y0001640D01*
G01X0013190Y0001640D02*
G01X0012690Y0001640D01*
G01X0012690Y0001640D02*
G01X0012440Y0001890D01*
G01X0012440Y0001890D02*
G01X0012440Y0002390D01*
G01X0012440Y0002390D02*
G01X0012690Y0002640D01*
G01X0012690Y0002640D02*
G01X0013190Y0002640D01*
G01X0013190Y0002640D02*
G01X0013440Y0002390D01*
G01X0012440Y0002390D02*
G01X0012440Y0001890D01*
G01X0012440Y0001890D02*
G01X0012190Y0001640D01*
G01X0012190Y0001640D02*
G01X0011690Y0001640D01*
G01X0011690Y0001640D02*
G01X0011440Y0001890D01*
G01X0011440Y0001890D02*
G01X0011440Y0002390D01*
G01X0011440Y0002390D02*
G01X0011690Y0002640D01*
G01X0011690Y0002640D02*
G01X0012190Y0002640D01*
G01X0012190Y0002640D02*
G01X0012440Y0002390D01*
G01X0011440Y0002390D02*
G01X0011440Y0001890D01*
G01X0011440Y0001890D02*
G01X0011190Y0001640D01*
G01X0011190Y0001640D02*
G01X0010690Y0001640D01*
G01X0010690Y0001640D02*
G01X0010440Y0001890D01*
G01X0010440Y0001890D02*
G01X0010440Y0002390D01*
G01X0010440Y0002390D02*
G01X0010690Y0002640D01*
G01X0010690Y0002640D02*
G01X0011190Y0002640D01*
G01X0011190Y0002640D02*
G01X0011440Y0002390D01*
G01X0010440Y0002390D02*
G01X0010440Y0001890D01*
G01X0010440Y0001890D02*
G01X0010190Y0001640D01*
G01X0010190Y0001640D02*
G01X0009690Y0001640D01*
G01X0009690Y0001640D02*
G01X0009440Y0001890D01*
G01X0009440Y0001890D02*
G01X0009440Y0002390D01*
G01X0009440Y0002390D02*
G01X0009690Y0002640D01*
G01X0009690Y0002640D02*
G01X0010190Y0002640D01*
G01X0010190Y0002640D02*
G01X0010440Y0002390D01*
G01X0009440Y0002390D02*
G01X0009440Y0001890D01*
G01X0009440Y0001890D02*
G01X0009190Y0001640D01*
G01X0009190Y0001640D02*
G01X0008690Y0001640D01*
G01X0008690Y0001640D02*
G01X0008440Y0001890D01*
G01X0008440Y0001890D02*
G01X0008440Y0002390D01*
G01X0008440Y0002390D02*
G01X0008690Y0002640D01*
G01X0008690Y0002640D02*
G01X0009190Y0002640D01*
G01X0009190Y0002640D02*
G01X0009440Y0002390D01*
G01X0008440Y0002390D02*
G01X0008440Y0001890D01*
G01X0008440Y0001890D02*
G01X0008190Y0001640D01*
G01X0008190Y0001640D02*
G01X0007690Y0001640D01*
G01X0007690Y0001640D02*
G01X0007440Y0001890D01*
G01X0007440Y0001890D02*
G01X0007440Y0002390D01*
G01X0007440Y0002390D02*
G01X0007690Y0002640D01*
G01X0007690Y0002640D02*
G01X0008190Y0002640D01*
G01X0008190Y0002640D02*
G01X0008440Y0002390D01*
G01X0007440Y0002390D02*
G01X0007440Y0001890D01*
G01X0007440Y0001890D02*
G01X0007190Y0001640D01*
G01X0007190Y0001640D02*
G01X0006690Y0001640D01*
G01X0006690Y0001640D02*
G01X0006440Y0001890D01*
G01X0006440Y0001890D02*
G01X0006440Y0002390D01*
G01X0006440Y0002390D02*
G01X0006690Y0002640D01*
G01X0006690Y0002640D02*
G01X0007190Y0002640D01*
G01X0007190Y0002640D02*
G01X0007440Y0002390D01*
G01X0006440Y0002390D02*
G01X0006440Y0001890D01*
G01X0006440Y0001890D02*
G01X0006190Y0001640D01*
G01X0006190Y0001640D02*
G01X0005690Y0001640D01*
G01X0005690Y0001640D02*
G01X0005440Y0001890D01*
G01X0005440Y0001890D02*
G01X0005440Y0002390D01*
G01X0005440Y0002390D02*
G01X0005690Y0002640D01*
G01X0005690Y0002640D02*
G01X0006190Y0002640D01*
G01X0006190Y0002640D02*
G01X0006440Y0002390D01*
G01X0005440Y0002390D02*
G01X0005440Y0001890D01*
G01X0005440Y0001890D02*
G01X0005190Y0001640D01*
G01X0005190Y0001640D02*
G01X0004690Y0001640D01*
G01X0004690Y0001640D02*
G01X0004440Y0001890D01*
G01X0004440Y0001890D02*
G01X0004440Y0002390D01*
G01X0004440Y0002390D02*
G01X0004690Y0002640D01*
G01X0004690Y0002640D02*
G01X0005190Y0002640D01*
G01X0005190Y0002640D02*
G01X0005440Y0002390D01*
G01X0006822Y0003504D02*
G01X0007058Y0003504D01*
G01X0007058Y0003976D02*
G01X0006822Y0003976D01*
G01X0006822Y0004404D02*
G01X0007058Y0004404D01*
G01X0007058Y0004876D02*
G01X0006822Y0004876D01*
G01X0008322Y0004876D02*
G01X0008558Y0004876D01*
G01X0008558Y0004404D02*
G01X0008322Y0004404D01*
G01X0008322Y0003976D02*
G01X0008558Y0003976D01*
G01X0008558Y0003504D02*
G01X0008322Y0003504D01*
G01X0010524Y0004404D02*
G01X0010524Y0004640D01*
G01X0010997Y0004640D02*
G01X0010997Y0004404D01*
G01X0013522Y0003976D02*
G01X0013758Y0003976D01*
G01X0013758Y0003504D02*
G01X0013522Y0003504D01*
G01X0007476Y0005772D02*
G01X0007476Y0006008D01*
G01X0007004Y0006008D02*
G01X0007004Y0005772D01*
G01X0007004Y0007282D02*
G01X0007004Y0007518D01*
G01X0007476Y0007518D02*
G01X0007476Y0007282D01*
G01X0008322Y0008204D02*
G01X0008558Y0008204D01*
G01X0008558Y0008676D02*
G01X0008322Y0008676D01*
G01X0008322Y0009104D02*
G01X0008558Y0009104D01*
G01X0008558Y0009576D02*
G01X0008322Y0009576D01*
G01X0007158Y0009404D02*
G01X0006922Y0009404D01*
G01X0006922Y0009876D02*
G01X0007158Y0009876D01*
G01X0010504Y0011622D02*
G01X0010504Y0011858D01*
G01X0010976Y0011858D02*
G01X0010976Y0011622D01*
G01X0007178Y0012234D02*
G01X0006942Y0012234D01*
G01X0006942Y0012706D02*
G01X0007178Y0012706D01*
G01X0004826Y0011958D02*
G01X0004826Y0011722D01*
G01X0004354Y0011722D02*
G01X0004354Y0011958D01*
G01X0003866Y0011958D02*
G01X0003866Y0011722D01*
G01X0003394Y0011722D02*
G01X0003394Y0011958D01*
G01X0024840Y0004340D02*
G01X0024840Y0002640D01*
G01X0024840Y0002640D02*
G01X0025440Y0002640D01*
G01X0025440Y0002640D02*
G01X0025440Y0004340D01*
G01X0025440Y0004340D02*
G01X0024840Y0004340D01*
G01X0025440Y0004340D02*
G01X0026040Y0004340D01*
G01X0026040Y0004340D02*
G01X0026040Y0002640D01*
G01X0026040Y0002640D02*
G01X0025440Y0002640D01*
G01X0025690Y0002640D02*
G01X0025440Y0002390D01*
G01X0025440Y0002390D02*
G01X0025440Y0001890D01*
G01X0025440Y0001890D02*
G01X0025690Y0001640D01*
G01X0025690Y0001640D02*
G01X0026190Y0001640D01*
G01X0026190Y0001640D02*
G01X0026440Y0001890D01*
G01X0026440Y0001890D02*
G01X0026690Y0001640D01*
G01X0026690Y0001640D02*
G01X0027190Y0001640D01*
G01X0027190Y0001640D02*
G01X0027440Y0001890D01*
G01X0027440Y0001890D02*
G01X0027690Y0001640D01*
G01X0027690Y0001640D02*
G01X0028190Y0001640D01*
G01X0028190Y0001640D02*
G01X0028440Y0001890D01*
G01X0028440Y0001890D02*
G01X0028690Y0001640D01*
G01X0028690Y0001640D02*
G01X0029190Y0001640D01*
G01X0029190Y0001640D02*
G01X0029440Y0001890D01*
G01X0029440Y0001890D02*
G01X0029690Y0001640D01*
G01X0029690Y0001640D02*
G01X0030190Y0001640D01*
G01X0030190Y0001640D02*
G01X0030440Y0001890D01*
G01X0030440Y0001890D02*
G01X0030690Y0001640D01*
G01X0030690Y0001640D02*
G01X0031190Y0001640D01*
G01X0031190Y0001640D02*
G01X0031440Y0001890D01*
G01X0031440Y0001890D02*
G01X0031440Y0002390D01*
G01X0031440Y0002390D02*
G01X0031190Y0002640D01*
G01X0031190Y0002640D02*
G01X0030690Y0002640D01*
G01X0030690Y0002640D02*
G01X0030440Y0002390D01*
G01X0030440Y0002390D02*
G01X0030440Y0001890D01*
G01X0030440Y0001890D02*
G01X0030440Y0002390D01*
G01X0030440Y0002390D02*
G01X0030190Y0002640D01*
G01X0030190Y0002640D02*
G01X0029690Y0002640D01*
G01X0029690Y0002640D02*
G01X0029440Y0002390D01*
G01X0029440Y0002390D02*
G01X0029440Y0001890D01*
G01X0029440Y0001890D02*
G01X0029440Y0002390D01*
G01X0029440Y0002390D02*
G01X0029190Y0002640D01*
G01X0029190Y0002640D02*
G01X0028690Y0002640D01*
G01X0028690Y0002640D02*
G01X0028440Y0002390D01*
G01X0028440Y0002390D02*
G01X0028440Y0001890D01*
G01X0028440Y0001890D02*
G01X0028440Y0002390D01*
G01X0028440Y0002390D02*
G01X0028190Y0002640D01*
G01X0028190Y0002640D02*
G01X0027690Y0002640D01*
G01X0027690Y0002640D02*
G01X0027440Y0002390D01*
G01X0027440Y0002390D02*
G01X0027440Y0001890D01*
G01X0027440Y0001890D02*
G01X0027440Y0002390D01*
G01X0027440Y0002390D02*
G01X0027190Y0002640D01*
G01X0027190Y0002640D02*
G01X0026690Y0002640D01*
G01X0026690Y0002640D02*
G01X0026440Y0002390D01*
G01X0026440Y0002390D02*
G01X0026440Y0001890D01*
G01X0026440Y0001890D02*
G01X0026440Y0002390D01*
G01X0026440Y0002390D02*
G01X0026190Y0002640D01*
G01X0026190Y0002640D02*
G01X0025690Y0002640D01*
G01X0027327Y0004104D02*
G01X0027564Y0004104D01*
G01X0027564Y0004576D02*
G01X0027327Y0004576D01*
G01X0027327Y0006504D02*
G01X0027564Y0006504D01*
G01X0027564Y0006976D02*
G01X0027327Y0006976D01*
G01X0027327Y0007404D02*
G01X0027564Y0007404D01*
G01X0027564Y0007876D02*
G01X0027327Y0007876D01*
G01X0027322Y0008304D02*
G01X0027558Y0008304D01*
G01X0027558Y0008776D02*
G01X0027322Y0008776D01*
G01X0029322Y0009204D02*
G01X0029558Y0009204D01*
G01X0029558Y0009676D02*
G01X0029322Y0009676D01*
G01X0029322Y0010104D02*
G01X0029558Y0010104D01*
G01X0029558Y0010576D02*
G01X0029322Y0010576D01*
G54D16*
G01X0022859Y0011431D02*
G01X0022861Y0011443D01*
G01X0022861Y0011443D02*
G01X0022867Y0011455D01*
G01X0022867Y0011455D02*
G01X0022875Y0011463D01*
G01X0022875Y0011463D02*
G01X0022887Y0011469D01*
G01X0022887Y0011469D02*
G01X0022899Y0011471D01*
G01X0022899Y0011471D02*
G01X0022911Y0011469D01*
G01X0022911Y0011469D02*
G01X0022923Y0011463D01*
G01X0022923Y0011463D02*
G01X0022931Y0011455D01*
G01X0022931Y0011455D02*
G01X0022937Y0011443D01*
G01X0022937Y0011443D02*
G01X0022939Y0011431D01*
G01X0022939Y0011431D02*
G01X0022937Y0011419D01*
G01X0022937Y0011419D02*
G01X0022931Y0011407D01*
G01X0022931Y0011407D02*
G01X0022923Y0011399D01*
G01X0022923Y0011399D02*
G01X0022911Y0011393D01*
G01X0022911Y0011393D02*
G01X0022899Y0011391D01*
G01X0022899Y0011391D02*
G01X0022887Y0011393D01*
G01X0022887Y0011393D02*
G01X0022875Y0011399D01*
G01X0022875Y0011399D02*
G01X0022867Y0011407D01*
G01X0022867Y0011407D02*
G01X0022861Y0011419D01*
G01X0022861Y0011419D02*
G01X0022859Y0011431D01*
G01X0010328Y0010502D02*
G01X0010330Y0010514D01*
G01X0010330Y0010514D02*
G01X0010335Y0010525D01*
G01X0010335Y0010525D02*
G01X0010344Y0010534D01*
G01X0010344Y0010534D02*
G01X0010355Y0010539D01*
G01X0010355Y0010539D02*
G01X0010367Y0010541D01*
G01X0010367Y0010541D02*
G01X0010379Y0010539D01*
G01X0010379Y0010539D02*
G01X0010390Y0010534D01*
G01X0010390Y0010534D02*
G01X0010399Y0010525D01*
G01X0010399Y0010525D02*
G01X0010404Y0010514D01*
G01X0010404Y0010514D02*
G01X0010406Y0010502D01*
G01X0010406Y0010502D02*
G01X0010404Y0010490D01*
G01X0010404Y0010490D02*
G01X0010399Y0010479D01*
G01X0010399Y0010479D02*
G01X0010390Y0010470D01*
G01X0010390Y0010470D02*
G01X0010379Y0010465D01*
G01X0010379Y0010465D02*
G01X0010367Y0010463D01*
G01X0010367Y0010463D02*
G01X0010355Y0010465D01*
G01X0010355Y0010465D02*
G01X0010344Y0010470D01*
G01X0010344Y0010470D02*
G01X0010335Y0010479D01*
G01X0010335Y0010479D02*
G01X0010330Y0010490D01*
G01X0010330Y0010490D02*
G01X0010328Y0010502D01*
G54D17*
G01X0001310Y0014140D02*
G01X0001312Y0014190D01*
G01X0001312Y0014190D02*
G01X0001318Y0014240D01*
G01X0001318Y0014240D02*
G01X0001328Y0014289D01*
G01X0001328Y0014289D02*
G01X0001342Y0014337D01*
G01X0001342Y0014337D02*
G01X0001359Y0014384D01*
G01X0001359Y0014384D02*
G01X0001380Y0014429D01*
G01X0001380Y0014429D02*
G01X0001405Y0014473D01*
G01X0001405Y0014473D02*
G01X0001433Y0014514D01*
G01X0001433Y0014514D02*
G01X0001465Y0014553D01*
G01X0001465Y0014553D02*
G01X0001499Y0014590D01*
G01X0001499Y0014590D02*
G01X0001536Y0014624D01*
G01X0001536Y0014624D02*
G01X0001576Y0014654D01*
G01X0001576Y0014654D02*
G01X0001618Y0014681D01*
G01X0001618Y0014681D02*
G01X0001662Y0014705D01*
G01X0001662Y0014705D02*
G01X0001708Y0014726D01*
G01X0001708Y0014726D02*
G01X0001755Y0014742D01*
G01X0001755Y0014742D02*
G01X0001803Y0014755D01*
G01X0001803Y0014755D02*
G01X0001853Y0014764D01*
G01X0001853Y0014764D02*
G01X0001902Y0014769D01*
G01X0001902Y0014769D02*
G01X0001953Y0014770D01*
G01X0001953Y0014770D02*
G01X0002003Y0014767D01*
G01X0002003Y0014767D02*
G01X0002052Y0014760D01*
G01X0002052Y0014760D02*
G01X0002101Y0014749D01*
G01X0002101Y0014749D02*
G01X0002149Y0014734D01*
G01X0002149Y0014734D02*
G01X0002195Y0014716D01*
G01X0002195Y0014716D02*
G01X0002240Y0014694D01*
G01X0002240Y0014694D02*
G01X0002283Y0014668D01*
G01X0002283Y0014668D02*
G01X0002324Y0014639D01*
G01X0002324Y0014639D02*
G01X0002363Y0014607D01*
G01X0002363Y0014607D02*
G01X0002399Y0014572D01*
G01X0002399Y0014572D02*
G01X0002431Y0014534D01*
G01X0002431Y0014534D02*
G01X0002461Y0014494D01*
G01X0002461Y0014494D02*
G01X0002488Y0014451D01*
G01X0002488Y0014451D02*
G01X0002511Y0014407D01*
G01X0002511Y0014407D02*
G01X0002530Y0014361D01*
G01X0002530Y0014361D02*
G01X0002546Y0014313D01*
G01X0002546Y0014313D02*
G01X0002558Y0014264D01*
G01X0002558Y0014264D02*
G01X0002566Y0014215D01*
G01X0002566Y0014215D02*
G01X0002570Y0014165D01*
G01X0002570Y0014165D02*
G01X0002570Y0014115D01*
G01X0002570Y0014115D02*
G01X0002566Y0014065D01*
G01X0002566Y0014065D02*
G01X0002558Y0014016D01*
G01X0002558Y0014016D02*
G01X0002546Y0013967D01*
G01X0002546Y0013967D02*
G01X0002530Y0013919D01*
G01X0002530Y0013919D02*
G01X0002511Y0013873D01*
G01X0002511Y0013873D02*
G01X0002488Y0013829D01*
G01X0002488Y0013829D02*
G01X0002461Y0013786D01*
G01X0002461Y0013786D02*
G01X0002431Y0013746D01*
G01X0002431Y0013746D02*
G01X0002399Y0013708D01*
G01X0002399Y0013708D02*
G01X0002363Y0013673D01*
G01X0002363Y0013673D02*
G01X0002324Y0013641D01*
G01X0002324Y0013641D02*
G01X0002283Y0013612D01*
G01X0002283Y0013612D02*
G01X0002240Y0013586D01*
G01X0002240Y0013586D02*
G01X0002195Y0013564D01*
G01X0002195Y0013564D02*
G01X0002149Y0013546D01*
G01X0002149Y0013546D02*
G01X0002101Y0013531D01*
G01X0002101Y0013531D02*
G01X0002052Y0013520D01*
G01X0002052Y0013520D02*
G01X0002003Y0013513D01*
G01X0002003Y0013513D02*
G01X0001953Y0013510D01*
G01X0001953Y0013510D02*
G01X0001902Y0013511D01*
G01X0001902Y0013511D02*
G01X0001853Y0013516D01*
G01X0001853Y0013516D02*
G01X0001803Y0013525D01*
G01X0001803Y0013525D02*
G01X0001755Y0013538D01*
G01X0001755Y0013538D02*
G01X0001708Y0013554D01*
G01X0001708Y0013554D02*
G01X0001662Y0013575D01*
G01X0001662Y0013575D02*
G01X0001618Y0013599D01*
G01X0001618Y0013599D02*
G01X0001576Y0013626D01*
G01X0001576Y0013626D02*
G01X0001536Y0013656D01*
G01X0001536Y0013656D02*
G01X0001499Y0013690D01*
G01X0001499Y0013690D02*
G01X0001465Y0013727D01*
G01X0001465Y0013727D02*
G01X0001433Y0013766D01*
G01X0001433Y0013766D02*
G01X0001405Y0013807D01*
G01X0001405Y0013807D02*
G01X0001380Y0013851D01*
G01X0001380Y0013851D02*
G01X0001359Y0013896D01*
G01X0001359Y0013896D02*
G01X0001342Y0013943D01*
G01X0001342Y0013943D02*
G01X0001328Y0013991D01*
G01X0001328Y0013991D02*
G01X0001318Y0014040D01*
G01X0001318Y0014040D02*
G01X0001312Y0014090D01*
G01X0001312Y0014090D02*
G01X0001310Y0014140D01*
G01X0001310Y0002140D02*
G01X0001312Y0002190D01*
G01X0001312Y0002190D02*
G01X0001318Y0002240D01*
G01X0001318Y0002240D02*
G01X0001328Y0002289D01*
G01X0001328Y0002289D02*
G01X0001342Y0002337D01*
G01X0001342Y0002337D02*
G01X0001359Y0002384D01*
G01X0001359Y0002384D02*
G01X0001380Y0002429D01*
G01X0001380Y0002429D02*
G01X0001405Y0002473D01*
G01X0001405Y0002473D02*
G01X0001433Y0002514D01*
G01X0001433Y0002514D02*
G01X0001465Y0002553D01*
G01X0001465Y0002553D02*
G01X0001499Y0002590D01*
G01X0001499Y0002590D02*
G01X0001536Y0002624D01*
G01X0001536Y0002624D02*
G01X0001576Y0002654D01*
G01X0001576Y0002654D02*
G01X0001618Y0002681D01*
G01X0001618Y0002681D02*
G01X0001662Y0002705D01*
G01X0001662Y0002705D02*
G01X0001708Y0002726D01*
G01X0001708Y0002726D02*
G01X0001755Y0002742D01*
G01X0001755Y0002742D02*
G01X0001803Y0002755D01*
G01X0001803Y0002755D02*
G01X0001853Y0002764D01*
G01X0001853Y0002764D02*
G01X0001902Y0002769D01*
G01X0001902Y0002769D02*
G01X0001953Y0002770D01*
G01X0001953Y0002770D02*
G01X0002003Y0002767D01*
G01X0002003Y0002767D02*
G01X0002052Y0002760D01*
G01X0002052Y0002760D02*
G01X0002101Y0002749D01*
G01X0002101Y0002749D02*
G01X0002149Y0002734D01*
G01X0002149Y0002734D02*
G01X0002195Y0002716D01*
G01X0002195Y0002716D02*
G01X0002240Y0002694D01*
G01X0002240Y0002694D02*
G01X0002283Y0002668D01*
G01X0002283Y0002668D02*
G01X0002324Y0002639D01*
G01X0002324Y0002639D02*
G01X0002363Y0002607D01*
G01X0002363Y0002607D02*
G01X0002399Y0002572D01*
G01X0002399Y0002572D02*
G01X0002431Y0002534D01*
G01X0002431Y0002534D02*
G01X0002461Y0002494D01*
G01X0002461Y0002494D02*
G01X0002488Y0002451D01*
G01X0002488Y0002451D02*
G01X0002511Y0002407D01*
G01X0002511Y0002407D02*
G01X0002530Y0002361D01*
G01X0002530Y0002361D02*
G01X0002546Y0002313D01*
G01X0002546Y0002313D02*
G01X0002558Y0002264D01*
G01X0002558Y0002264D02*
G01X0002566Y0002215D01*
G01X0002566Y0002215D02*
G01X0002570Y0002165D01*
G01X0002570Y0002165D02*
G01X0002570Y0002115D01*
G01X0002570Y0002115D02*
G01X0002566Y0002065D01*
G01X0002566Y0002065D02*
G01X0002558Y0002016D01*
G01X0002558Y0002016D02*
G01X0002546Y0001967D01*
G01X0002546Y0001967D02*
G01X0002530Y0001919D01*
G01X0002530Y0001919D02*
G01X0002511Y0001873D01*
G01X0002511Y0001873D02*
G01X0002488Y0001829D01*
G01X0002488Y0001829D02*
G01X0002461Y0001786D01*
G01X0002461Y0001786D02*
G01X0002431Y0001746D01*
G01X0002431Y0001746D02*
G01X0002399Y0001708D01*
G01X0002399Y0001708D02*
G01X0002363Y0001673D01*
G01X0002363Y0001673D02*
G01X0002324Y0001641D01*
G01X0002324Y0001641D02*
G01X0002283Y0001612D01*
G01X0002283Y0001612D02*
G01X0002240Y0001586D01*
G01X0002240Y0001586D02*
G01X0002195Y0001564D01*
G01X0002195Y0001564D02*
G01X0002149Y0001546D01*
G01X0002149Y0001546D02*
G01X0002101Y0001531D01*
G01X0002101Y0001531D02*
G01X0002052Y0001520D01*
G01X0002052Y0001520D02*
G01X0002003Y0001513D01*
G01X0002003Y0001513D02*
G01X0001953Y0001510D01*
G01X0001953Y0001510D02*
G01X0001902Y0001511D01*
G01X0001902Y0001511D02*
G01X0001853Y0001516D01*
G01X0001853Y0001516D02*
G01X0001803Y0001525D01*
G01X0001803Y0001525D02*
G01X0001755Y0001538D01*
G01X0001755Y0001538D02*
G01X0001708Y0001554D01*
G01X0001708Y0001554D02*
G01X0001662Y0001575D01*
G01X0001662Y0001575D02*
G01X0001618Y0001599D01*
G01X0001618Y0001599D02*
G01X0001576Y0001626D01*
G01X0001576Y0001626D02*
G01X0001536Y0001656D01*
G01X0001536Y0001656D02*
G01X0001499Y0001690D01*
G01X0001499Y0001690D02*
G01X0001465Y0001727D01*
G01X0001465Y0001727D02*
G01X0001433Y0001766D01*
G01X0001433Y0001766D02*
G01X0001405Y0001807D01*
G01X0001405Y0001807D02*
G01X0001380Y0001851D01*
G01X0001380Y0001851D02*
G01X0001359Y0001896D01*
G01X0001359Y0001896D02*
G01X0001342Y0001943D01*
G01X0001342Y0001943D02*
G01X0001328Y0001991D01*
G01X0001328Y0001991D02*
G01X0001318Y0002040D01*
G01X0001318Y0002040D02*
G01X0001312Y0002090D01*
G01X0001312Y0002090D02*
G01X0001310Y0002140D01*
G01X0032310Y0002140D02*
G01X0032312Y0002190D01*
G01X0032312Y0002190D02*
G01X0032318Y0002240D01*
G01X0032318Y0002240D02*
G01X0032328Y0002289D01*
G01X0032328Y0002289D02*
G01X0032342Y0002337D01*
G01X0032342Y0002337D02*
G01X0032359Y0002384D01*
G01X0032359Y0002384D02*
G01X0032380Y0002429D01*
G01X0032380Y0002429D02*
G01X0032405Y0002473D01*
G01X0032405Y0002473D02*
G01X0032433Y0002514D01*
G01X0032433Y0002514D02*
G01X0032465Y0002553D01*
G01X0032465Y0002553D02*
G01X0032499Y0002590D01*
G01X0032499Y0002590D02*
G01X0032536Y0002624D01*
G01X0032536Y0002624D02*
G01X0032576Y0002654D01*
G01X0032576Y0002654D02*
G01X0032618Y0002681D01*
G01X0032618Y0002681D02*
G01X0032662Y0002705D01*
G01X0032662Y0002705D02*
G01X0032708Y0002726D01*
G01X0032708Y0002726D02*
G01X0032755Y0002742D01*
G01X0032755Y0002742D02*
G01X0032803Y0002755D01*
G01X0032803Y0002755D02*
G01X0032853Y0002764D01*
G01X0032853Y0002764D02*
G01X0032902Y0002769D01*
G01X0032902Y0002769D02*
G01X0032953Y0002770D01*
G01X0032953Y0002770D02*
G01X0033003Y0002767D01*
G01X0033003Y0002767D02*
G01X0033052Y0002760D01*
G01X0033052Y0002760D02*
G01X0033101Y0002749D01*
G01X0033101Y0002749D02*
G01X0033149Y0002734D01*
G01X0033149Y0002734D02*
G01X0033195Y0002716D01*
G01X0033195Y0002716D02*
G01X0033240Y0002694D01*
G01X0033240Y0002694D02*
G01X0033283Y0002668D01*
G01X0033283Y0002668D02*
G01X0033324Y0002639D01*
G01X0033324Y0002639D02*
G01X0033363Y0002607D01*
G01X0033363Y0002607D02*
G01X0033399Y0002572D01*
G01X0033399Y0002572D02*
G01X0033431Y0002534D01*
G01X0033431Y0002534D02*
G01X0033461Y0002494D01*
G01X0033461Y0002494D02*
G01X0033488Y0002451D01*
G01X0033488Y0002451D02*
G01X0033511Y0002407D01*
G01X0033511Y0002407D02*
G01X0033530Y0002361D01*
G01X0033530Y0002361D02*
G01X0033546Y0002313D01*
G01X0033546Y0002313D02*
G01X0033558Y0002264D01*
G01X0033558Y0002264D02*
G01X0033566Y0002215D01*
G01X0033566Y0002215D02*
G01X0033570Y0002165D01*
G01X0033570Y0002165D02*
G01X0033570Y0002115D01*
G01X0033570Y0002115D02*
G01X0033566Y0002065D01*
G01X0033566Y0002065D02*
G01X0033558Y0002016D01*
G01X0033558Y0002016D02*
G01X0033546Y0001967D01*
G01X0033546Y0001967D02*
G01X0033530Y0001919D01*
G01X0033530Y0001919D02*
G01X0033511Y0001873D01*
G01X0033511Y0001873D02*
G01X0033488Y0001829D01*
G01X0033488Y0001829D02*
G01X0033461Y0001786D01*
G01X0033461Y0001786D02*
G01X0033431Y0001746D01*
G01X0033431Y0001746D02*
G01X0033399Y0001708D01*
G01X0033399Y0001708D02*
G01X0033363Y0001673D01*
G01X0033363Y0001673D02*
G01X0033324Y0001641D01*
G01X0033324Y0001641D02*
G01X0033283Y0001612D01*
G01X0033283Y0001612D02*
G01X0033240Y0001586D01*
G01X0033240Y0001586D02*
G01X0033195Y0001564D01*
G01X0033195Y0001564D02*
G01X0033149Y0001546D01*
G01X0033149Y0001546D02*
G01X0033101Y0001531D01*
G01X0033101Y0001531D02*
G01X0033052Y0001520D01*
G01X0033052Y0001520D02*
G01X0033003Y0001513D01*
G01X0033003Y0001513D02*
G01X0032953Y0001510D01*
G01X0032953Y0001510D02*
G01X0032902Y0001511D01*
G01X0032902Y0001511D02*
G01X0032853Y0001516D01*
G01X0032853Y0001516D02*
G01X0032803Y0001525D01*
G01X0032803Y0001525D02*
G01X0032755Y0001538D01*
G01X0032755Y0001538D02*
G01X0032708Y0001554D01*
G01X0032708Y0001554D02*
G01X0032662Y0001575D01*
G01X0032662Y0001575D02*
G01X0032618Y0001599D01*
G01X0032618Y0001599D02*
G01X0032576Y0001626D01*
G01X0032576Y0001626D02*
G01X0032536Y0001656D01*
G01X0032536Y0001656D02*
G01X0032499Y0001690D01*
G01X0032499Y0001690D02*
G01X0032465Y0001727D01*
G01X0032465Y0001727D02*
G01X0032433Y0001766D01*
G01X0032433Y0001766D02*
G01X0032405Y0001807D01*
G01X0032405Y0001807D02*
G01X0032380Y0001851D01*
G01X0032380Y0001851D02*
G01X0032359Y0001896D01*
G01X0032359Y0001896D02*
G01X0032342Y0001943D01*
G01X0032342Y0001943D02*
G01X0032328Y0001991D01*
G01X0032328Y0001991D02*
G01X0032318Y0002040D01*
G01X0032318Y0002040D02*
G01X0032312Y0002090D01*
G01X0032312Y0002090D02*
G01X0032310Y0002140D01*
G01X0032310Y0014140D02*
G01X0032312Y0014190D01*
G01X0032312Y0014190D02*
G01X0032318Y0014240D01*
G01X0032318Y0014240D02*
G01X0032328Y0014289D01*
G01X0032328Y0014289D02*
G01X0032342Y0014337D01*
G01X0032342Y0014337D02*
G01X0032359Y0014384D01*
G01X0032359Y0014384D02*
G01X0032380Y0014429D01*
G01X0032380Y0014429D02*
G01X0032405Y0014473D01*
G01X0032405Y0014473D02*
G01X0032433Y0014514D01*
G01X0032433Y0014514D02*
G01X0032465Y0014553D01*
G01X0032465Y0014553D02*
G01X0032499Y0014590D01*
G01X0032499Y0014590D02*
G01X0032536Y0014624D01*
G01X0032536Y0014624D02*
G01X0032576Y0014654D01*
G01X0032576Y0014654D02*
G01X0032618Y0014681D01*
G01X0032618Y0014681D02*
G01X0032662Y0014705D01*
G01X0032662Y0014705D02*
G01X0032708Y0014726D01*
G01X0032708Y0014726D02*
G01X0032755Y0014742D01*
G01X0032755Y0014742D02*
G01X0032803Y0014755D01*
G01X0032803Y0014755D02*
G01X0032853Y0014764D01*
G01X0032853Y0014764D02*
G01X0032902Y0014769D01*
G01X0032902Y0014769D02*
G01X0032953Y0014770D01*
G01X0032953Y0014770D02*
G01X0033003Y0014767D01*
G01X0033003Y0014767D02*
G01X0033052Y0014760D01*
G01X0033052Y0014760D02*
G01X0033101Y0014749D01*
G01X0033101Y0014749D02*
G01X0033149Y0014734D01*
G01X0033149Y0014734D02*
G01X0033195Y0014716D01*
G01X0033195Y0014716D02*
G01X0033240Y0014694D01*
G01X0033240Y0014694D02*
G01X0033283Y0014668D01*
G01X0033283Y0014668D02*
G01X0033324Y0014639D01*
G01X0033324Y0014639D02*
G01X0033363Y0014607D01*
G01X0033363Y0014607D02*
G01X0033399Y0014572D01*
G01X0033399Y0014572D02*
G01X0033431Y0014534D01*
G01X0033431Y0014534D02*
G01X0033461Y0014494D01*
G01X0033461Y0014494D02*
G01X0033488Y0014451D01*
G01X0033488Y0014451D02*
G01X0033511Y0014407D01*
G01X0033511Y0014407D02*
G01X0033530Y0014361D01*
G01X0033530Y0014361D02*
G01X0033546Y0014313D01*
G01X0033546Y0014313D02*
G01X0033558Y0014264D01*
G01X0033558Y0014264D02*
G01X0033566Y0014215D01*
G01X0033566Y0014215D02*
G01X0033570Y0014165D01*
G01X0033570Y0014165D02*
G01X0033570Y0014115D01*
G01X0033570Y0014115D02*
G01X0033566Y0014065D01*
G01X0033566Y0014065D02*
G01X0033558Y0014016D01*
G01X0033558Y0014016D02*
G01X0033546Y0013967D01*
G01X0033546Y0013967D02*
G01X0033530Y0013919D01*
G01X0033530Y0013919D02*
G01X0033511Y0013873D01*
G01X0033511Y0013873D02*
G01X0033488Y0013829D01*
G01X0033488Y0013829D02*
G01X0033461Y0013786D01*
G01X0033461Y0013786D02*
G01X0033431Y0013746D01*
G01X0033431Y0013746D02*
G01X0033399Y0013708D01*
G01X0033399Y0013708D02*
G01X0033363Y0013673D01*
G01X0033363Y0013673D02*
G01X0033324Y0013641D01*
G01X0033324Y0013641D02*
G01X0033283Y0013612D01*
G01X0033283Y0013612D02*
G01X0033240Y0013586D01*
G01X0033240Y0013586D02*
G01X0033195Y0013564D01*
G01X0033195Y0013564D02*
G01X0033149Y0013546D01*
G01X0033149Y0013546D02*
G01X0033101Y0013531D01*
G01X0033101Y0013531D02*
G01X0033052Y0013520D01*
G01X0033052Y0013520D02*
G01X0033003Y0013513D01*
G01X0033003Y0013513D02*
G01X0032953Y0013510D01*
G01X0032953Y0013510D02*
G01X0032902Y0013511D01*
G01X0032902Y0013511D02*
G01X0032853Y0013516D01*
G01X0032853Y0013516D02*
G01X0032803Y0013525D01*
G01X0032803Y0013525D02*
G01X0032755Y0013538D01*
G01X0032755Y0013538D02*
G01X0032708Y0013554D01*
G01X0032708Y0013554D02*
G01X0032662Y0013575D01*
G01X0032662Y0013575D02*
G01X0032618Y0013599D01*
G01X0032618Y0013599D02*
G01X0032576Y0013626D01*
G01X0032576Y0013626D02*
G01X0032536Y0013656D01*
G01X0032536Y0013656D02*
G01X0032499Y0013690D01*
G01X0032499Y0013690D02*
G01X0032465Y0013727D01*
G01X0032465Y0013727D02*
G01X0032433Y0013766D01*
G01X0032433Y0013766D02*
G01X0032405Y0013807D01*
G01X0032405Y0013807D02*
G01X0032380Y0013851D01*
G01X0032380Y0013851D02*
G01X0032359Y0013896D01*
G01X0032359Y0013896D02*
G01X0032342Y0013943D01*
G01X0032342Y0013943D02*
G01X0032328Y0013991D01*
G01X0032328Y0013991D02*
G01X0032318Y0014040D01*
G01X0032318Y0014040D02*
G01X0032312Y0014090D01*
G01X0032312Y0014090D02*
G01X0032310Y0014140D01*
G54D18*
G01X0008318Y0012417D02*
G01X0008318Y0012417D01*
G01X0008318Y0012417D02*
G01X0008318Y0012417D01*
G01X0008318Y0012417D02*
G01X0008318Y0012417D01*
G01X0008318Y0012417D02*
G01X0008318Y0012417D01*
G01X0008318Y0012417D02*
G01X0008318Y0012417D01*
G01X0008318Y0012417D02*
G01X0008318Y0012417D01*
G01X0008318Y0012417D02*
G01X0008318Y0012417D01*
G01X0008318Y0012417D02*
G01X0008318Y0012417D01*
G54D19*
G01X0022329Y0003249D02*
G01X0022331Y0003262D01*
G01X0022331Y0003262D02*
G01X0022336Y0003275D01*
G01X0022336Y0003275D02*
G01X0022345Y0003286D01*
G01X0022345Y0003286D02*
G01X0022356Y0003293D01*
G01X0022356Y0003293D02*
G01X0022369Y0003298D01*
G01X0022369Y0003298D02*
G01X0022382Y0003299D01*
G01X0022382Y0003299D02*
G01X0022396Y0003296D01*
G01X0022396Y0003296D02*
G01X0022408Y0003290D01*
G01X0022408Y0003290D02*
G01X0022418Y0003281D01*
G01X0022418Y0003281D02*
G01X0022425Y0003269D01*
G01X0022425Y0003269D02*
G01X0022429Y0003256D01*
G01X0022429Y0003256D02*
G01X0022429Y0003242D01*
G01X0022429Y0003242D02*
G01X0022425Y0003229D01*
G01X0022425Y0003229D02*
G01X0022418Y0003217D01*
G01X0022418Y0003217D02*
G01X0022408Y0003208D01*
G01X0022408Y0003208D02*
G01X0022396Y0003202D01*
G01X0022396Y0003202D02*
G01X0022382Y0003199D01*
G01X0022382Y0003199D02*
G01X0022369Y0003200D01*
G01X0022369Y0003200D02*
G01X0022356Y0003205D01*
G01X0022356Y0003205D02*
G01X0022345Y0003212D01*
G01X0022345Y0003212D02*
G01X0022336Y0003223D01*
G01X0022336Y0003223D02*
G01X0022331Y0003236D01*
G01X0022331Y0003236D02*
G01X0022329Y0003249D01*
M02*
