G75*
G70*
%OFA0B0*%
%FSLAX24Y24*%
%IPPOS*%
%LPD*%
%AMOC8*
5,1,8,0,0,1.08239X$1,22.5*
%
%ADD10OC8,0.0600*%
%ADD11C,0.0531*%
%ADD12C,0.0080*%
%ADD13C,0.0300*%
%ADD14C,0.0480*%
%ADD15C,0.0640*%
D10*
X004940Y002140D03*
X005940Y002140D03*
X006940Y002140D03*
X007940Y002140D03*
X008940Y002140D03*
X009940Y002140D03*
X010940Y002140D03*
X011940Y002140D03*
X012940Y002140D03*
X013940Y002140D03*
X014940Y002140D03*
X015940Y002140D03*
X016940Y002140D03*
X017940Y002140D03*
X018940Y002140D03*
X019940Y002140D03*
X020940Y002140D03*
X021940Y002140D03*
X022940Y002140D03*
X023940Y002140D03*
X025940Y002140D03*
X026940Y002140D03*
X027940Y002140D03*
X028940Y002140D03*
X029940Y002140D03*
X030940Y002140D03*
X030940Y014140D03*
X029940Y014140D03*
X028940Y014140D03*
X027940Y014140D03*
X026940Y014140D03*
X025940Y014140D03*
X023940Y014140D03*
X022940Y014140D03*
X021940Y014140D03*
X020940Y014140D03*
X019940Y014140D03*
X018940Y014140D03*
X017940Y014140D03*
X016940Y014140D03*
X015940Y014140D03*
X014940Y014140D03*
X013940Y014140D03*
X012940Y014140D03*
X011940Y014140D03*
X010940Y014140D03*
X009940Y014140D03*
X008940Y014140D03*
X007940Y014140D03*
X006940Y014140D03*
X005940Y014140D03*
X004940Y014140D03*
D11*
X032551Y011295D03*
X032551Y009563D03*
D12*
X002673Y001018D02*
X002301Y000855D01*
X032630Y000855D01*
X032402Y000913D01*
X032402Y000913D01*
X032032Y001154D01*
X032032Y001154D01*
X031762Y001502D01*
X031762Y001502D01*
X031618Y001919D01*
X031618Y002361D01*
X031762Y002778D01*
X031762Y002778D01*
X032032Y003126D01*
X032032Y003126D01*
X032032Y003126D01*
X032402Y003367D01*
X032402Y003367D01*
X032829Y003475D01*
X032829Y003475D01*
X033269Y003439D01*
X033269Y003439D01*
X033673Y003262D01*
X033673Y003262D01*
X033997Y002963D01*
X033997Y002963D01*
X034207Y002575D01*
X034207Y002575D01*
X034225Y002470D01*
X034225Y013810D01*
X034207Y013705D01*
X034207Y013705D01*
X033997Y013317D01*
X033997Y013317D01*
X033673Y013018D01*
X033673Y013018D01*
X033269Y012841D01*
X033269Y012841D01*
X032829Y012805D01*
X032829Y012805D01*
X032402Y012913D01*
X032402Y012913D01*
X032032Y013154D01*
X032032Y013154D01*
X032032Y013154D01*
X031762Y013502D01*
X031762Y013502D01*
X031618Y013919D01*
X031618Y014361D01*
X031762Y014778D01*
X031762Y014778D01*
X032032Y015126D01*
X032032Y015126D01*
X032032Y015126D01*
X032402Y015367D01*
X032402Y015367D01*
X032630Y015425D01*
X002301Y015425D01*
X002673Y015262D01*
X002673Y015262D01*
X002997Y014963D01*
X002997Y014963D01*
X002997Y014963D01*
X003207Y014575D01*
X003207Y014575D01*
X003280Y014140D01*
X003207Y013705D01*
X003207Y013705D01*
X002997Y013317D01*
X002997Y013317D01*
X002673Y013018D01*
X002673Y013018D01*
X002269Y012841D01*
X002269Y012841D01*
X001829Y012805D01*
X001829Y012805D01*
X001402Y012913D01*
X001402Y012913D01*
X001032Y013154D01*
X001032Y013154D01*
X001032Y013154D01*
X000762Y013502D01*
X000762Y013502D01*
X000655Y013812D01*
X000655Y002468D01*
X000762Y002778D01*
X000762Y002778D01*
X001032Y003126D01*
X001032Y003126D01*
X001032Y003126D01*
X001402Y003367D01*
X001402Y003367D01*
X001829Y003475D01*
X001829Y003475D01*
X002269Y003439D01*
X002269Y003439D01*
X002673Y003262D01*
X002673Y003262D01*
X002997Y002963D01*
X002997Y002963D01*
X003207Y002575D01*
X003207Y002575D01*
X003280Y002140D01*
X003207Y001705D01*
X002997Y001317D01*
X002997Y001317D01*
X002673Y001018D01*
X002673Y001018D01*
X002688Y001033D02*
X032219Y001033D01*
X032339Y000954D02*
X002527Y000954D01*
X002348Y000876D02*
X032549Y000876D01*
X032098Y001111D02*
X002774Y001111D01*
X002859Y001190D02*
X032005Y001190D01*
X031944Y001268D02*
X002944Y001268D01*
X003013Y001347D02*
X031883Y001347D01*
X031822Y001425D02*
X003056Y001425D01*
X003098Y001504D02*
X031761Y001504D01*
X031734Y001582D02*
X003141Y001582D01*
X003183Y001661D02*
X031707Y001661D01*
X031680Y001739D02*
X026161Y001739D01*
X026122Y001700D02*
X026380Y001958D01*
X026380Y002100D01*
X025980Y002100D01*
X025980Y002180D01*
X026380Y002180D01*
X026380Y002322D01*
X026233Y002469D01*
X026704Y002470D01*
X026540Y002306D01*
X026540Y001974D01*
X026774Y001740D01*
X027106Y001740D01*
X027340Y001974D01*
X027340Y002306D01*
X027175Y002471D01*
X027706Y002471D01*
X027540Y002306D01*
X027540Y001974D01*
X027774Y001740D01*
X028106Y001740D01*
X028340Y001974D01*
X028340Y002306D01*
X028150Y002496D01*
X028170Y002505D01*
X028245Y002536D01*
X028247Y002538D01*
X028249Y002539D01*
X028306Y002597D01*
X028363Y002654D01*
X028364Y002657D01*
X029162Y003477D01*
X029224Y003632D01*
X029222Y003799D01*
X029156Y003953D01*
X029036Y004069D01*
X028881Y004131D01*
X028714Y004129D01*
X028561Y004063D01*
X027829Y003312D01*
X024957Y003308D01*
X024944Y003312D01*
X024874Y003308D01*
X024803Y003307D01*
X024791Y003302D01*
X024777Y003301D01*
X024714Y003270D01*
X024649Y003243D01*
X024640Y003234D01*
X024627Y003228D01*
X024581Y003175D01*
X024531Y003125D01*
X024526Y003112D01*
X024040Y002560D01*
X023856Y002560D01*
X023808Y002540D01*
X023774Y002540D01*
X023750Y002516D01*
X023702Y002496D01*
X023584Y002378D01*
X023564Y002330D01*
X023540Y002306D01*
X023540Y002272D01*
X023520Y002224D01*
X023520Y002056D01*
X023540Y002008D01*
X023540Y001974D01*
X023564Y001950D01*
X023584Y001902D01*
X023702Y001784D01*
X023750Y001764D01*
X023774Y001740D01*
X023808Y001740D01*
X023856Y001720D01*
X024160Y001720D01*
X024173Y001716D01*
X024243Y001720D01*
X024314Y001720D01*
X024326Y001725D01*
X024340Y001726D01*
X024403Y001757D01*
X024468Y001784D01*
X024478Y001794D01*
X024490Y001800D01*
X024536Y001853D01*
X024586Y001902D01*
X024591Y001915D01*
X025078Y002468D01*
X025646Y002469D01*
X025500Y002322D01*
X025500Y002180D01*
X025900Y002180D01*
X025900Y002100D01*
X025980Y002100D01*
X025980Y001700D01*
X026122Y001700D01*
X025980Y001739D02*
X025900Y001739D01*
X025900Y001700D02*
X025900Y002100D01*
X025500Y002100D01*
X025500Y001958D01*
X025758Y001700D01*
X025900Y001700D01*
X025900Y001818D02*
X025980Y001818D01*
X025980Y001896D02*
X025900Y001896D01*
X025900Y001975D02*
X025980Y001975D01*
X025980Y002053D02*
X025900Y002053D01*
X025900Y002132D02*
X024782Y002132D01*
X024851Y002210D02*
X025500Y002210D01*
X025500Y002289D02*
X024920Y002289D01*
X024989Y002367D02*
X025545Y002367D01*
X025623Y002446D02*
X025058Y002446D01*
X024354Y002917D02*
X020859Y002917D01*
X020852Y002898D02*
X020890Y002990D01*
X020890Y003090D01*
X020861Y003160D01*
X020957Y003160D01*
X020958Y003158D01*
X021028Y003088D01*
X021120Y003050D01*
X021220Y003050D01*
X021312Y003088D01*
X021382Y003158D01*
X021420Y003250D01*
X021420Y003350D01*
X021383Y003440D01*
X021473Y003440D01*
X021580Y003337D01*
X021580Y003240D01*
X021618Y003148D01*
X021688Y003078D01*
X021780Y003040D01*
X021880Y003040D01*
X021972Y003078D01*
X022042Y003148D01*
X022080Y003240D01*
X022080Y003340D01*
X022042Y003432D01*
X021979Y003495D01*
X022012Y003508D01*
X022082Y003578D01*
X022120Y003670D01*
X022120Y003770D01*
X022082Y003862D01*
X022012Y003932D01*
X021920Y003970D01*
X021820Y003970D01*
X021728Y003932D01*
X021658Y003862D01*
X021657Y003860D01*
X020972Y003860D01*
X020890Y003778D01*
X020832Y003720D01*
X017618Y003720D01*
X015646Y005692D01*
X015662Y005708D01*
X015700Y005800D01*
X015700Y005900D01*
X015662Y005992D01*
X015592Y006062D01*
X015500Y006100D01*
X015400Y006100D01*
X015308Y006062D01*
X015238Y005992D01*
X015230Y005972D01*
X015230Y006107D01*
X015232Y006108D01*
X015302Y006178D01*
X015340Y006270D01*
X015340Y006370D01*
X015302Y006462D01*
X015232Y006532D01*
X015140Y006570D01*
X015040Y006570D01*
X014948Y006532D01*
X014878Y006462D01*
X014840Y006370D01*
X014840Y006270D01*
X014878Y006178D01*
X014948Y006108D01*
X014950Y006107D01*
X014950Y005988D01*
X014679Y006259D01*
X014680Y006260D01*
X014680Y006360D01*
X014642Y006452D01*
X014572Y006522D01*
X014480Y006560D01*
X014380Y006560D01*
X014288Y006522D01*
X014280Y006514D01*
X014252Y006582D01*
X014182Y006652D01*
X014090Y006690D01*
X013990Y006690D01*
X013898Y006652D01*
X013828Y006582D01*
X013790Y006490D01*
X013790Y006390D01*
X013828Y006298D01*
X013898Y006228D01*
X013900Y006227D01*
X013900Y006182D01*
X014200Y005882D01*
X014282Y005800D01*
X014542Y005800D01*
X017240Y003102D01*
X017322Y003020D01*
X020390Y003020D01*
X020390Y002990D01*
X020428Y002898D01*
X020498Y002828D01*
X020590Y002790D01*
X020690Y002790D01*
X020782Y002828D01*
X020852Y002898D01*
X020792Y002838D02*
X024285Y002838D01*
X024216Y002760D02*
X003108Y002760D01*
X003065Y002838D02*
X020488Y002838D01*
X020421Y002917D02*
X003023Y002917D01*
X002963Y002995D02*
X020390Y002995D01*
X020520Y003160D02*
X020640Y003040D01*
X020520Y003160D02*
X017380Y003160D01*
X014600Y005940D01*
X014340Y005940D01*
X014040Y006240D01*
X014040Y006440D01*
X014274Y006528D02*
X014302Y006528D01*
X014228Y006606D02*
X015456Y006606D01*
X015470Y006600D02*
X015570Y006600D01*
X015662Y006638D01*
X015732Y006708D01*
X015770Y006800D01*
X015770Y006881D01*
X018210Y006900D01*
X018742Y006900D01*
X019672Y005970D01*
X023070Y005970D01*
X023070Y005940D01*
X023108Y005848D01*
X023178Y005778D01*
X023270Y005740D01*
X023370Y005740D01*
X023462Y005778D01*
X023532Y005848D01*
X023570Y005940D01*
X023570Y006040D01*
X023541Y006110D01*
X024168Y006110D01*
X024429Y006371D01*
X024430Y006370D01*
X024530Y006370D01*
X024622Y006408D01*
X024692Y006478D01*
X024730Y006570D01*
X024730Y006670D01*
X024692Y006762D01*
X024622Y006832D01*
X024530Y006870D01*
X024430Y006870D01*
X024338Y006832D01*
X024268Y006762D01*
X024230Y006670D01*
X024230Y006570D01*
X024231Y006569D01*
X024052Y006390D01*
X020544Y006390D01*
X020592Y006438D01*
X020630Y006530D01*
X020630Y006630D01*
X020592Y006722D01*
X020522Y006792D01*
X020430Y006830D01*
X020330Y006830D01*
X020238Y006792D01*
X020168Y006722D01*
X020167Y006720D01*
X019797Y006720D01*
X019265Y007242D01*
X019273Y007242D01*
X019365Y007280D01*
X019435Y007351D01*
X019473Y007443D01*
X019473Y007517D01*
X019485Y007520D01*
X020270Y007522D01*
X020303Y007441D01*
X020373Y007371D01*
X020465Y007333D01*
X020565Y007333D01*
X020656Y007371D01*
X020727Y007441D01*
X020765Y007533D01*
X020765Y007633D01*
X020727Y007725D01*
X020656Y007795D01*
X020565Y007833D01*
X020465Y007833D01*
X020391Y007802D01*
X019648Y007800D01*
X019683Y007835D01*
X019721Y007927D01*
X019721Y008026D01*
X019683Y008118D01*
X019612Y008188D01*
X019520Y008226D01*
X019421Y008226D01*
X019329Y008188D01*
X019259Y008118D01*
X019258Y008117D01*
X018920Y008118D01*
X018950Y008190D01*
X018950Y008290D01*
X018919Y008365D01*
X019417Y008366D01*
X019417Y008365D01*
X019487Y008295D01*
X019579Y008257D01*
X019679Y008257D01*
X019771Y008295D01*
X019841Y008365D01*
X019879Y008457D01*
X019879Y008556D01*
X019841Y008648D01*
X019771Y008719D01*
X019736Y008733D01*
X019756Y008742D01*
X019827Y008812D01*
X019865Y008904D01*
X019865Y009003D01*
X019827Y009095D01*
X019756Y009165D01*
X019665Y009204D01*
X019565Y009204D01*
X019473Y009165D01*
X019403Y009095D01*
X019365Y009003D01*
X019365Y008904D01*
X019381Y008865D01*
X019348Y008819D01*
X019277Y008800D01*
X014553Y008806D01*
X013831Y009509D01*
X013790Y009550D01*
X013789Y009550D01*
X013732Y009549D01*
X012974Y009546D01*
X012939Y009557D01*
X012932Y009553D01*
X012864Y009582D01*
X012764Y009582D01*
X012672Y009544D01*
X012602Y009473D01*
X012601Y009472D01*
X010406Y009472D01*
X006298Y013580D01*
X005698Y013580D01*
X005322Y013956D01*
X005340Y013974D01*
X005340Y014306D01*
X005106Y014540D01*
X004774Y014540D01*
X004540Y014306D01*
X004540Y013974D01*
X004774Y013740D01*
X005106Y013740D01*
X005124Y013758D01*
X005500Y013382D01*
X005582Y013300D01*
X006182Y013300D01*
X010208Y009274D01*
X010290Y009192D01*
X012601Y009192D01*
X012602Y009190D01*
X012672Y009120D01*
X012764Y009082D01*
X012864Y009082D01*
X012956Y009120D01*
X013026Y009190D01*
X013058Y009267D01*
X013676Y009269D01*
X014397Y008567D01*
X014437Y008526D01*
X014439Y008526D01*
X014439Y008525D01*
X014496Y008526D01*
X015443Y008525D01*
X015414Y008490D01*
X015340Y008490D01*
X015248Y008452D01*
X015178Y008382D01*
X015140Y008290D01*
X015140Y008190D01*
X015178Y008098D01*
X015248Y008028D01*
X015340Y007990D01*
X015440Y007990D01*
X015532Y008028D01*
X015570Y008066D01*
X015608Y008028D01*
X015700Y007990D01*
X015779Y007990D01*
X015825Y007935D01*
X015825Y007929D01*
X015856Y007897D01*
X013996Y007896D01*
X013990Y007897D01*
X013990Y007933D01*
X013952Y008025D01*
X013881Y008095D01*
X013789Y008133D01*
X013690Y008133D01*
X013598Y008095D01*
X013528Y008025D01*
X013490Y007933D01*
X013490Y007834D01*
X013528Y007742D01*
X013598Y007671D01*
X013650Y007650D01*
X012798Y007650D01*
X012797Y007651D01*
X012727Y007721D01*
X012635Y007760D01*
X012536Y007760D01*
X012444Y007721D01*
X012374Y007651D01*
X012336Y007559D01*
X012336Y007460D01*
X012374Y007368D01*
X012444Y007298D01*
X012536Y007260D01*
X012620Y007260D01*
X012620Y007190D01*
X012658Y007098D01*
X012728Y007028D01*
X012820Y006990D01*
X012920Y006990D01*
X013012Y007028D01*
X013082Y007098D01*
X013083Y007100D01*
X013098Y007100D01*
X013198Y007200D01*
X014534Y007197D01*
X014518Y007182D01*
X014480Y007090D01*
X014480Y006990D01*
X014518Y006898D01*
X014588Y006828D01*
X014680Y006790D01*
X014780Y006790D01*
X014872Y006828D01*
X014942Y006898D01*
X014980Y006990D01*
X014980Y007040D01*
X015356Y007040D01*
X015308Y006992D01*
X015270Y006900D01*
X015270Y006800D01*
X015308Y006708D01*
X015378Y006638D01*
X015470Y006600D01*
X015584Y006606D02*
X019036Y006606D01*
X019114Y006528D02*
X015236Y006528D01*
X015307Y006449D02*
X019193Y006449D01*
X019271Y006371D02*
X015340Y006371D01*
X015340Y006292D02*
X019350Y006292D01*
X019428Y006214D02*
X015316Y006214D01*
X015259Y006135D02*
X019507Y006135D01*
X019585Y006057D02*
X015597Y006057D01*
X015668Y005978D02*
X019664Y005978D01*
X019730Y006110D02*
X018800Y007040D01*
X018210Y007040D01*
X015690Y007020D01*
X015520Y006850D01*
X015770Y006842D02*
X018800Y006842D01*
X018879Y006763D02*
X015755Y006763D01*
X015708Y006685D02*
X018957Y006685D01*
X019513Y006999D02*
X034225Y006999D01*
X034225Y007077D02*
X019433Y007077D01*
X019353Y007156D02*
X034225Y007156D01*
X034225Y007234D02*
X019273Y007234D01*
X019397Y007313D02*
X034225Y007313D01*
X034225Y007391D02*
X020676Y007391D01*
X020738Y007470D02*
X034225Y007470D01*
X034225Y007548D02*
X020765Y007548D01*
X020765Y007627D02*
X034225Y007627D01*
X034225Y007705D02*
X020735Y007705D01*
X020668Y007784D02*
X034225Y007784D01*
X034225Y007862D02*
X019694Y007862D01*
X019721Y007941D02*
X034225Y007941D01*
X034225Y008019D02*
X019721Y008019D01*
X019691Y008098D02*
X034225Y008098D01*
X034225Y008176D02*
X019625Y008176D01*
X019449Y008333D02*
X018932Y008333D01*
X018950Y008255D02*
X034225Y008255D01*
X034225Y008333D02*
X019809Y008333D01*
X019860Y008412D02*
X034225Y008412D01*
X034225Y008490D02*
X019879Y008490D01*
X019874Y008569D02*
X034225Y008569D01*
X034225Y008647D02*
X019841Y008647D01*
X019754Y008726D02*
X034225Y008726D01*
X034225Y008804D02*
X019819Y008804D01*
X019856Y008883D02*
X034225Y008883D01*
X034225Y008961D02*
X019865Y008961D01*
X019850Y009040D02*
X034225Y009040D01*
X034225Y009118D02*
X019804Y009118D01*
X019682Y009197D02*
X034225Y009197D01*
X034225Y009275D02*
X032780Y009275D01*
X032758Y009253D02*
X032861Y009355D01*
X032916Y009490D01*
X032916Y009635D01*
X032861Y009770D01*
X032758Y009873D01*
X032623Y009928D01*
X032478Y009928D01*
X032343Y009873D01*
X032241Y009770D01*
X032185Y009635D01*
X032185Y009490D01*
X032241Y009355D01*
X032343Y009253D01*
X032478Y009197D01*
X032623Y009197D01*
X032758Y009253D01*
X032859Y009354D02*
X034225Y009354D01*
X034225Y009432D02*
X032892Y009432D01*
X032916Y009511D02*
X034225Y009511D01*
X034225Y009589D02*
X032916Y009589D01*
X032903Y009668D02*
X034225Y009668D01*
X034225Y009746D02*
X032871Y009746D01*
X032806Y009825D02*
X034225Y009825D01*
X034225Y009903D02*
X032685Y009903D01*
X032417Y009903D02*
X028254Y009903D01*
X028252Y009898D02*
X028290Y009990D01*
X028290Y010090D01*
X028252Y010182D01*
X028182Y010252D01*
X028180Y010253D01*
X028180Y011327D01*
X028182Y011328D01*
X028252Y011398D01*
X028290Y011490D01*
X028290Y011590D01*
X028252Y011682D01*
X028182Y011752D01*
X028090Y011790D01*
X027990Y011790D01*
X027914Y011758D01*
X027917Y013740D01*
X028106Y013740D01*
X028340Y013974D01*
X028340Y014306D01*
X028106Y014540D01*
X027774Y014540D01*
X027540Y014306D01*
X027540Y013974D01*
X027637Y013877D01*
X027633Y011300D01*
X027631Y011300D01*
X027561Y011229D01*
X027523Y011137D01*
X027523Y011038D01*
X027561Y010946D01*
X027631Y010876D01*
X027723Y010838D01*
X027822Y010838D01*
X027900Y010870D01*
X027900Y010253D01*
X027898Y010252D01*
X027828Y010182D01*
X027790Y010090D01*
X027790Y009990D01*
X027828Y009898D01*
X027898Y009828D01*
X027990Y009790D01*
X028090Y009790D01*
X028182Y009828D01*
X028252Y009898D01*
X028286Y009982D02*
X034225Y009982D01*
X034225Y010060D02*
X028290Y010060D01*
X028270Y010139D02*
X034225Y010139D01*
X034225Y010217D02*
X028217Y010217D01*
X028180Y010296D02*
X034225Y010296D01*
X034225Y010374D02*
X028180Y010374D01*
X028180Y010453D02*
X034225Y010453D01*
X034225Y010531D02*
X028180Y010531D01*
X028180Y010610D02*
X034225Y010610D01*
X034225Y010688D02*
X028180Y010688D01*
X028180Y010767D02*
X034225Y010767D01*
X034225Y010845D02*
X028180Y010845D01*
X028180Y010924D02*
X034225Y010924D01*
X034225Y011002D02*
X032775Y011002D01*
X032758Y010985D02*
X032861Y011088D01*
X032916Y011222D01*
X032916Y011368D01*
X032861Y011502D01*
X032758Y011605D01*
X032623Y011661D01*
X032478Y011661D01*
X032343Y011605D01*
X032241Y011502D01*
X032185Y011368D01*
X032185Y011222D01*
X032241Y011088D01*
X032343Y010985D01*
X032478Y010929D01*
X032623Y010929D01*
X032758Y010985D01*
X032853Y011081D02*
X034225Y011081D01*
X034225Y011159D02*
X032890Y011159D01*
X032916Y011238D02*
X034225Y011238D01*
X034225Y011316D02*
X032916Y011316D01*
X032905Y011395D02*
X034225Y011395D01*
X034225Y011473D02*
X032873Y011473D01*
X032811Y011552D02*
X034225Y011552D01*
X034225Y011630D02*
X032697Y011630D01*
X032404Y011630D02*
X028273Y011630D01*
X028290Y011552D02*
X032290Y011552D01*
X032229Y011473D02*
X028283Y011473D01*
X028248Y011395D02*
X032196Y011395D01*
X032185Y011316D02*
X028180Y011316D01*
X028180Y011238D02*
X032185Y011238D01*
X032211Y011159D02*
X028180Y011159D01*
X028180Y011081D02*
X032248Y011081D01*
X032326Y011002D02*
X028180Y011002D01*
X027900Y010845D02*
X027840Y010845D01*
X027900Y010767D02*
X024496Y010767D01*
X024496Y010845D02*
X027705Y010845D01*
X027583Y010924D02*
X024497Y010924D01*
X024498Y011002D02*
X027538Y011002D01*
X027523Y011081D02*
X024498Y011081D01*
X024499Y011159D02*
X027532Y011159D01*
X027569Y011238D02*
X024499Y011238D01*
X024500Y011316D02*
X027633Y011316D01*
X027633Y011395D02*
X024543Y011395D01*
X024500Y011349D02*
X026764Y013750D01*
X026765Y013750D01*
X026764Y013750D02*
X026774Y013740D01*
X027106Y013740D01*
X027340Y013974D01*
X027340Y014306D01*
X027106Y014540D01*
X026774Y014540D01*
X026540Y014306D01*
X026540Y013974D01*
X026566Y013948D01*
X024260Y011503D01*
X024221Y011464D01*
X024221Y011461D01*
X024219Y011459D01*
X024220Y011403D01*
X024214Y010554D01*
X024211Y010553D01*
X024141Y010482D01*
X024103Y010391D01*
X024103Y010291D01*
X024141Y010199D01*
X024211Y010129D01*
X024303Y010091D01*
X024403Y010091D01*
X024494Y010129D01*
X024565Y010199D01*
X024603Y010291D01*
X024603Y010391D01*
X024565Y010482D01*
X024494Y010553D01*
X024500Y011349D01*
X024360Y011405D02*
X026940Y014140D01*
X026540Y014142D02*
X026340Y014142D01*
X026340Y014064D02*
X026540Y014064D01*
X026540Y013985D02*
X026340Y013985D01*
X026340Y013974D02*
X026106Y013740D01*
X025774Y013740D01*
X025540Y013974D01*
X025540Y014306D01*
X025774Y014540D01*
X026106Y014540D01*
X026340Y014306D01*
X026340Y013974D01*
X026272Y013907D02*
X026527Y013907D01*
X026453Y013828D02*
X026194Y013828D01*
X026115Y013750D02*
X026379Y013750D01*
X026305Y013671D02*
X005607Y013671D01*
X005685Y013593D02*
X026231Y013593D01*
X026157Y013514D02*
X006364Y013514D01*
X006442Y013436D02*
X026083Y013436D01*
X026009Y013357D02*
X006521Y013357D01*
X006599Y013279D02*
X025935Y013279D01*
X025861Y013200D02*
X006678Y013200D01*
X006756Y013122D02*
X025787Y013122D01*
X025713Y013043D02*
X006835Y013043D01*
X006913Y012965D02*
X025639Y012965D01*
X025565Y012886D02*
X006992Y012886D01*
X007070Y012808D02*
X025491Y012808D01*
X025417Y012729D02*
X007149Y012729D01*
X007227Y012651D02*
X025343Y012651D01*
X025269Y012572D02*
X007306Y012572D01*
X007384Y012494D02*
X025195Y012494D01*
X025121Y012415D02*
X007463Y012415D01*
X007541Y012337D02*
X025047Y012337D01*
X024973Y012258D02*
X007620Y012258D01*
X007698Y012180D02*
X024899Y012180D01*
X024825Y012101D02*
X007777Y012101D01*
X007855Y012023D02*
X024750Y012023D01*
X024676Y011944D02*
X007934Y011944D01*
X008012Y011866D02*
X024602Y011866D01*
X024528Y011787D02*
X008091Y011787D01*
X008169Y011709D02*
X024454Y011709D01*
X024380Y011630D02*
X008248Y011630D01*
X008326Y011552D02*
X024306Y011552D01*
X024230Y011473D02*
X008405Y011473D01*
X008483Y011395D02*
X024220Y011395D01*
X024220Y011316D02*
X008562Y011316D01*
X008640Y011238D02*
X024219Y011238D01*
X024219Y011159D02*
X008719Y011159D01*
X008797Y011081D02*
X024218Y011081D01*
X024218Y011002D02*
X008876Y011002D01*
X008954Y010924D02*
X024217Y010924D01*
X024216Y010845D02*
X009033Y010845D01*
X009111Y010767D02*
X024216Y010767D01*
X024215Y010688D02*
X009190Y010688D01*
X009268Y010610D02*
X024215Y010610D01*
X024190Y010531D02*
X009347Y010531D01*
X009425Y010453D02*
X024129Y010453D01*
X024103Y010374D02*
X009504Y010374D01*
X009582Y010296D02*
X024103Y010296D01*
X024134Y010217D02*
X009661Y010217D01*
X009739Y010139D02*
X024202Y010139D01*
X024353Y010341D02*
X024360Y011405D01*
X024617Y011473D02*
X027633Y011473D01*
X027633Y011552D02*
X024691Y011552D01*
X024765Y011630D02*
X027633Y011630D01*
X027634Y011709D02*
X024839Y011709D01*
X024913Y011787D02*
X027634Y011787D01*
X027634Y011866D02*
X024987Y011866D01*
X025061Y011944D02*
X027634Y011944D01*
X027634Y012023D02*
X025135Y012023D01*
X025209Y012101D02*
X027634Y012101D01*
X027634Y012180D02*
X025283Y012180D01*
X025357Y012258D02*
X027634Y012258D01*
X027634Y012337D02*
X025432Y012337D01*
X025506Y012415D02*
X027635Y012415D01*
X027635Y012494D02*
X025580Y012494D01*
X025654Y012572D02*
X027635Y012572D01*
X027635Y012651D02*
X025728Y012651D01*
X025802Y012729D02*
X027635Y012729D01*
X027635Y012808D02*
X025876Y012808D01*
X025950Y012886D02*
X027635Y012886D01*
X027635Y012965D02*
X026024Y012965D01*
X026098Y013043D02*
X027636Y013043D01*
X027636Y013122D02*
X026172Y013122D01*
X026246Y013200D02*
X027636Y013200D01*
X027636Y013279D02*
X026320Y013279D01*
X026394Y013357D02*
X027636Y013357D01*
X027636Y013436D02*
X026468Y013436D01*
X026542Y013514D02*
X027636Y013514D01*
X027636Y013593D02*
X026616Y013593D01*
X026690Y013671D02*
X027637Y013671D01*
X027637Y013750D02*
X027115Y013750D01*
X027194Y013828D02*
X027637Y013828D01*
X027608Y013907D02*
X027272Y013907D01*
X027340Y013985D02*
X027540Y013985D01*
X027540Y014064D02*
X027340Y014064D01*
X027340Y014142D02*
X027540Y014142D01*
X027540Y014221D02*
X027340Y014221D01*
X027340Y014299D02*
X027540Y014299D01*
X027612Y014378D02*
X027268Y014378D01*
X027190Y014456D02*
X027690Y014456D01*
X027769Y014535D02*
X027111Y014535D01*
X026769Y014535D02*
X026111Y014535D01*
X026190Y014456D02*
X026690Y014456D01*
X026612Y014378D02*
X026268Y014378D01*
X026340Y014299D02*
X026540Y014299D01*
X026540Y014221D02*
X026340Y014221D01*
X025769Y014535D02*
X024111Y014535D01*
X024106Y014540D02*
X023774Y014540D01*
X023540Y014306D01*
X023540Y013974D01*
X023774Y013740D01*
X024106Y013740D01*
X024340Y013974D01*
X024340Y014306D01*
X024106Y014540D01*
X024190Y014456D02*
X025690Y014456D01*
X025612Y014378D02*
X024268Y014378D01*
X024340Y014299D02*
X025540Y014299D01*
X025540Y014221D02*
X024340Y014221D01*
X024340Y014142D02*
X025540Y014142D01*
X025540Y014064D02*
X024340Y014064D01*
X024340Y013985D02*
X025540Y013985D01*
X025608Y013907D02*
X024272Y013907D01*
X024194Y013828D02*
X025686Y013828D01*
X025765Y013750D02*
X024115Y013750D01*
X023765Y013750D02*
X023115Y013750D01*
X023106Y013740D02*
X023340Y013974D01*
X023340Y014306D01*
X023106Y014540D01*
X022774Y014540D01*
X022540Y014306D01*
X022540Y013974D01*
X022774Y013740D01*
X023106Y013740D01*
X023194Y013828D02*
X023686Y013828D01*
X023608Y013907D02*
X023272Y013907D01*
X023340Y013985D02*
X023540Y013985D01*
X023540Y014064D02*
X023340Y014064D01*
X023340Y014142D02*
X023540Y014142D01*
X023540Y014221D02*
X023340Y014221D01*
X023340Y014299D02*
X023540Y014299D01*
X023612Y014378D02*
X023268Y014378D01*
X023190Y014456D02*
X023690Y014456D01*
X023769Y014535D02*
X023111Y014535D01*
X022769Y014535D02*
X022111Y014535D01*
X022106Y014540D02*
X021774Y014540D01*
X021540Y014306D01*
X021540Y013974D01*
X021774Y013740D01*
X022106Y013740D01*
X022340Y013974D01*
X022340Y014306D01*
X022106Y014540D01*
X022190Y014456D02*
X022690Y014456D01*
X022612Y014378D02*
X022268Y014378D01*
X022340Y014299D02*
X022540Y014299D01*
X022540Y014221D02*
X022340Y014221D01*
X022340Y014142D02*
X022540Y014142D01*
X022540Y014064D02*
X022340Y014064D01*
X022340Y013985D02*
X022540Y013985D01*
X022608Y013907D02*
X022272Y013907D01*
X022194Y013828D02*
X022686Y013828D01*
X022765Y013750D02*
X022115Y013750D01*
X021765Y013750D02*
X021115Y013750D01*
X021106Y013740D02*
X021340Y013974D01*
X021340Y014306D01*
X021106Y014540D01*
X020774Y014540D01*
X020540Y014306D01*
X020540Y013974D01*
X020774Y013740D01*
X021106Y013740D01*
X021194Y013828D02*
X021686Y013828D01*
X021608Y013907D02*
X021272Y013907D01*
X021340Y013985D02*
X021540Y013985D01*
X021540Y014064D02*
X021340Y014064D01*
X021340Y014142D02*
X021540Y014142D01*
X021540Y014221D02*
X021340Y014221D01*
X021340Y014299D02*
X021540Y014299D01*
X021612Y014378D02*
X021268Y014378D01*
X021190Y014456D02*
X021690Y014456D01*
X021769Y014535D02*
X021111Y014535D01*
X020769Y014535D02*
X020111Y014535D01*
X020106Y014540D02*
X019774Y014540D01*
X019540Y014306D01*
X019540Y013974D01*
X019774Y013740D01*
X020106Y013740D01*
X020340Y013974D01*
X020340Y014306D01*
X020106Y014540D01*
X020190Y014456D02*
X020690Y014456D01*
X020612Y014378D02*
X020268Y014378D01*
X020340Y014299D02*
X020540Y014299D01*
X020540Y014221D02*
X020340Y014221D01*
X020340Y014142D02*
X020540Y014142D01*
X020540Y014064D02*
X020340Y014064D01*
X020340Y013985D02*
X020540Y013985D01*
X020608Y013907D02*
X020272Y013907D01*
X020194Y013828D02*
X020686Y013828D01*
X020765Y013750D02*
X020115Y013750D01*
X019765Y013750D02*
X019115Y013750D01*
X019106Y013740D02*
X019340Y013974D01*
X019340Y014306D01*
X019106Y014540D01*
X018774Y014540D01*
X018540Y014306D01*
X018540Y013974D01*
X018774Y013740D01*
X019106Y013740D01*
X019194Y013828D02*
X019686Y013828D01*
X019608Y013907D02*
X019272Y013907D01*
X019340Y013985D02*
X019540Y013985D01*
X019540Y014064D02*
X019340Y014064D01*
X019340Y014142D02*
X019540Y014142D01*
X019540Y014221D02*
X019340Y014221D01*
X019340Y014299D02*
X019540Y014299D01*
X019612Y014378D02*
X019268Y014378D01*
X019190Y014456D02*
X019690Y014456D01*
X019769Y014535D02*
X019111Y014535D01*
X018769Y014535D02*
X018111Y014535D01*
X018106Y014540D02*
X017774Y014540D01*
X017540Y014306D01*
X017540Y013974D01*
X017774Y013740D01*
X018106Y013740D01*
X018340Y013974D01*
X018340Y014306D01*
X018106Y014540D01*
X018190Y014456D02*
X018690Y014456D01*
X018612Y014378D02*
X018268Y014378D01*
X018340Y014299D02*
X018540Y014299D01*
X018540Y014221D02*
X018340Y014221D01*
X018340Y014142D02*
X018540Y014142D01*
X018540Y014064D02*
X018340Y014064D01*
X018340Y013985D02*
X018540Y013985D01*
X018608Y013907D02*
X018272Y013907D01*
X018194Y013828D02*
X018686Y013828D01*
X018765Y013750D02*
X018115Y013750D01*
X017765Y013750D02*
X017115Y013750D01*
X017106Y013740D02*
X017340Y013974D01*
X017340Y014306D01*
X017106Y014540D01*
X016774Y014540D01*
X016540Y014306D01*
X016540Y013974D01*
X016774Y013740D01*
X017106Y013740D01*
X017194Y013828D02*
X017686Y013828D01*
X017608Y013907D02*
X017272Y013907D01*
X017340Y013985D02*
X017540Y013985D01*
X017540Y014064D02*
X017340Y014064D01*
X017340Y014142D02*
X017540Y014142D01*
X017540Y014221D02*
X017340Y014221D01*
X017340Y014299D02*
X017540Y014299D01*
X017612Y014378D02*
X017268Y014378D01*
X017190Y014456D02*
X017690Y014456D01*
X017769Y014535D02*
X017111Y014535D01*
X016769Y014535D02*
X016111Y014535D01*
X016106Y014540D02*
X015774Y014540D01*
X015540Y014306D01*
X015540Y013974D01*
X015774Y013740D01*
X016106Y013740D01*
X016340Y013974D01*
X016340Y014306D01*
X016106Y014540D01*
X016190Y014456D02*
X016690Y014456D01*
X016612Y014378D02*
X016268Y014378D01*
X016340Y014299D02*
X016540Y014299D01*
X016540Y014221D02*
X016340Y014221D01*
X016340Y014142D02*
X016540Y014142D01*
X016540Y014064D02*
X016340Y014064D01*
X016340Y013985D02*
X016540Y013985D01*
X016608Y013907D02*
X016272Y013907D01*
X016194Y013828D02*
X016686Y013828D01*
X016765Y013750D02*
X016115Y013750D01*
X015765Y013750D02*
X015115Y013750D01*
X015106Y013740D02*
X015340Y013974D01*
X015340Y014306D01*
X015106Y014540D01*
X014774Y014540D01*
X014540Y014306D01*
X014540Y013974D01*
X014774Y013740D01*
X015106Y013740D01*
X015194Y013828D02*
X015686Y013828D01*
X015608Y013907D02*
X015272Y013907D01*
X015340Y013985D02*
X015540Y013985D01*
X015540Y014064D02*
X015340Y014064D01*
X015340Y014142D02*
X015540Y014142D01*
X015540Y014221D02*
X015340Y014221D01*
X015340Y014299D02*
X015540Y014299D01*
X015612Y014378D02*
X015268Y014378D01*
X015190Y014456D02*
X015690Y014456D01*
X015769Y014535D02*
X015111Y014535D01*
X014769Y014535D02*
X014111Y014535D01*
X014106Y014540D02*
X013774Y014540D01*
X013540Y014306D01*
X013540Y013974D01*
X013774Y013740D01*
X014106Y013740D01*
X014340Y013974D01*
X014340Y014306D01*
X014106Y014540D01*
X014190Y014456D02*
X014690Y014456D01*
X014612Y014378D02*
X014268Y014378D01*
X014340Y014299D02*
X014540Y014299D01*
X014540Y014221D02*
X014340Y014221D01*
X014340Y014142D02*
X014540Y014142D01*
X014540Y014064D02*
X014340Y014064D01*
X014340Y013985D02*
X014540Y013985D01*
X014608Y013907D02*
X014272Y013907D01*
X014194Y013828D02*
X014686Y013828D01*
X014765Y013750D02*
X014115Y013750D01*
X013765Y013750D02*
X013115Y013750D01*
X013106Y013740D02*
X013340Y013974D01*
X013340Y014306D01*
X013106Y014540D01*
X012774Y014540D01*
X012540Y014306D01*
X012540Y013974D01*
X012774Y013740D01*
X013106Y013740D01*
X013194Y013828D02*
X013686Y013828D01*
X013608Y013907D02*
X013272Y013907D01*
X013340Y013985D02*
X013540Y013985D01*
X013540Y014064D02*
X013340Y014064D01*
X013340Y014142D02*
X013540Y014142D01*
X013540Y014221D02*
X013340Y014221D01*
X013340Y014299D02*
X013540Y014299D01*
X013612Y014378D02*
X013268Y014378D01*
X013190Y014456D02*
X013690Y014456D01*
X013769Y014535D02*
X013111Y014535D01*
X012769Y014535D02*
X012111Y014535D01*
X012106Y014540D02*
X011774Y014540D01*
X011540Y014306D01*
X011540Y013974D01*
X011774Y013740D01*
X012106Y013740D01*
X012340Y013974D01*
X012340Y014306D01*
X012106Y014540D01*
X012190Y014456D02*
X012690Y014456D01*
X012612Y014378D02*
X012268Y014378D01*
X012340Y014299D02*
X012540Y014299D01*
X012540Y014221D02*
X012340Y014221D01*
X012340Y014142D02*
X012540Y014142D01*
X012540Y014064D02*
X012340Y014064D01*
X012340Y013985D02*
X012540Y013985D01*
X012608Y013907D02*
X012272Y013907D01*
X012194Y013828D02*
X012686Y013828D01*
X012765Y013750D02*
X012115Y013750D01*
X011765Y013750D02*
X011115Y013750D01*
X011106Y013740D02*
X011340Y013974D01*
X011340Y014306D01*
X011106Y014540D01*
X010774Y014540D01*
X010540Y014306D01*
X010540Y013974D01*
X010774Y013740D01*
X011106Y013740D01*
X011194Y013828D02*
X011686Y013828D01*
X011608Y013907D02*
X011272Y013907D01*
X011340Y013985D02*
X011540Y013985D01*
X011540Y014064D02*
X011340Y014064D01*
X011340Y014142D02*
X011540Y014142D01*
X011540Y014221D02*
X011340Y014221D01*
X011340Y014299D02*
X011540Y014299D01*
X011612Y014378D02*
X011268Y014378D01*
X011190Y014456D02*
X011690Y014456D01*
X011769Y014535D02*
X011111Y014535D01*
X010769Y014535D02*
X010111Y014535D01*
X010106Y014540D02*
X009774Y014540D01*
X009540Y014306D01*
X009540Y013974D01*
X009774Y013740D01*
X010106Y013740D01*
X010340Y013974D01*
X010340Y014306D01*
X010106Y014540D01*
X010190Y014456D02*
X010690Y014456D01*
X010612Y014378D02*
X010268Y014378D01*
X010340Y014299D02*
X010540Y014299D01*
X010540Y014221D02*
X010340Y014221D01*
X010340Y014142D02*
X010540Y014142D01*
X010540Y014064D02*
X010340Y014064D01*
X010340Y013985D02*
X010540Y013985D01*
X010608Y013907D02*
X010272Y013907D01*
X010194Y013828D02*
X010686Y013828D01*
X010765Y013750D02*
X010115Y013750D01*
X009765Y013750D02*
X009115Y013750D01*
X009106Y013740D02*
X009340Y013974D01*
X009340Y014306D01*
X009106Y014540D01*
X008774Y014540D01*
X008540Y014306D01*
X008540Y013974D01*
X008774Y013740D01*
X009106Y013740D01*
X009194Y013828D02*
X009686Y013828D01*
X009608Y013907D02*
X009272Y013907D01*
X009340Y013985D02*
X009540Y013985D01*
X009540Y014064D02*
X009340Y014064D01*
X009340Y014142D02*
X009540Y014142D01*
X009540Y014221D02*
X009340Y014221D01*
X009340Y014299D02*
X009540Y014299D01*
X009612Y014378D02*
X009268Y014378D01*
X009190Y014456D02*
X009690Y014456D01*
X009769Y014535D02*
X009111Y014535D01*
X008769Y014535D02*
X008111Y014535D01*
X008106Y014540D02*
X007774Y014540D01*
X007540Y014306D01*
X007540Y013974D01*
X007774Y013740D01*
X008106Y013740D01*
X008340Y013974D01*
X008340Y014306D01*
X008106Y014540D01*
X008190Y014456D02*
X008690Y014456D01*
X008612Y014378D02*
X008268Y014378D01*
X008340Y014299D02*
X008540Y014299D01*
X008540Y014221D02*
X008340Y014221D01*
X008340Y014142D02*
X008540Y014142D01*
X008540Y014064D02*
X008340Y014064D01*
X008340Y013985D02*
X008540Y013985D01*
X008608Y013907D02*
X008272Y013907D01*
X008194Y013828D02*
X008686Y013828D01*
X008765Y013750D02*
X008115Y013750D01*
X007765Y013750D02*
X007115Y013750D01*
X007106Y013740D02*
X007340Y013974D01*
X007340Y014306D01*
X007106Y014540D01*
X006774Y014540D01*
X006540Y014306D01*
X006540Y013974D01*
X006774Y013740D01*
X007106Y013740D01*
X007194Y013828D02*
X007686Y013828D01*
X007608Y013907D02*
X007272Y013907D01*
X007340Y013985D02*
X007540Y013985D01*
X007540Y014064D02*
X007340Y014064D01*
X007340Y014142D02*
X007540Y014142D01*
X007540Y014221D02*
X007340Y014221D01*
X007340Y014299D02*
X007540Y014299D01*
X007612Y014378D02*
X007268Y014378D01*
X007190Y014456D02*
X007690Y014456D01*
X007769Y014535D02*
X007111Y014535D01*
X006769Y014535D02*
X006111Y014535D01*
X006106Y014540D02*
X005774Y014540D01*
X005540Y014306D01*
X005540Y013974D01*
X005774Y013740D01*
X006106Y013740D01*
X006340Y013974D01*
X006340Y014306D01*
X006106Y014540D01*
X006190Y014456D02*
X006690Y014456D01*
X006612Y014378D02*
X006268Y014378D01*
X006340Y014299D02*
X006540Y014299D01*
X006540Y014221D02*
X006340Y014221D01*
X006340Y014142D02*
X006540Y014142D01*
X006540Y014064D02*
X006340Y014064D01*
X006340Y013985D02*
X006540Y013985D01*
X006608Y013907D02*
X006272Y013907D01*
X006194Y013828D02*
X006686Y013828D01*
X006765Y013750D02*
X006115Y013750D01*
X005765Y013750D02*
X005528Y013750D01*
X005450Y013828D02*
X005686Y013828D01*
X005608Y013907D02*
X005371Y013907D01*
X005340Y013985D02*
X005540Y013985D01*
X005540Y014064D02*
X005340Y014064D01*
X005340Y014142D02*
X005540Y014142D01*
X005540Y014221D02*
X005340Y014221D01*
X005340Y014299D02*
X005540Y014299D01*
X005612Y014378D02*
X005268Y014378D01*
X005190Y014456D02*
X005690Y014456D01*
X005769Y014535D02*
X005111Y014535D01*
X004769Y014535D02*
X003214Y014535D01*
X003227Y014456D02*
X004690Y014456D01*
X004612Y014378D02*
X003240Y014378D01*
X003253Y014299D02*
X004540Y014299D01*
X004540Y014221D02*
X003267Y014221D01*
X003280Y014142D02*
X004540Y014142D01*
X004540Y014064D02*
X003267Y014064D01*
X003254Y013985D02*
X004540Y013985D01*
X004608Y013907D02*
X003241Y013907D01*
X003228Y013828D02*
X004686Y013828D01*
X004765Y013750D02*
X003215Y013750D01*
X003189Y013671D02*
X005211Y013671D01*
X005289Y013593D02*
X003147Y013593D01*
X003104Y013514D02*
X005368Y013514D01*
X005446Y013436D02*
X003062Y013436D01*
X003019Y013357D02*
X005525Y013357D01*
X005640Y013440D02*
X006240Y013440D01*
X010348Y009332D01*
X012814Y009332D01*
X012954Y009406D01*
X013733Y009409D01*
X014496Y008666D01*
X019296Y008660D01*
X019433Y008697D01*
X019615Y008954D01*
X019380Y009040D02*
X014313Y009040D01*
X014232Y009118D02*
X019426Y009118D01*
X019548Y009197D02*
X014152Y009197D01*
X014071Y009275D02*
X032321Y009275D01*
X032243Y009354D02*
X013991Y009354D01*
X013910Y009432D02*
X032209Y009432D01*
X032185Y009511D02*
X013830Y009511D01*
X013789Y009550D02*
X013789Y009550D01*
X013751Y009197D02*
X013029Y009197D01*
X012951Y009118D02*
X013831Y009118D01*
X013912Y009040D02*
X000655Y009040D01*
X000655Y009118D02*
X012677Y009118D01*
X012639Y009511D02*
X010367Y009511D01*
X010289Y009589D02*
X032185Y009589D01*
X032198Y009668D02*
X010210Y009668D01*
X010132Y009746D02*
X032231Y009746D01*
X032295Y009825D02*
X028173Y009825D01*
X028040Y010040D02*
X028040Y011540D01*
X028225Y011709D02*
X034225Y011709D01*
X034225Y011787D02*
X028097Y011787D01*
X027983Y011787D02*
X027914Y011787D01*
X027914Y011866D02*
X034225Y011866D01*
X034225Y011944D02*
X027914Y011944D01*
X027914Y012023D02*
X034225Y012023D01*
X034225Y012101D02*
X027914Y012101D01*
X027914Y012180D02*
X034225Y012180D01*
X034225Y012258D02*
X027914Y012258D01*
X027914Y012337D02*
X034225Y012337D01*
X034225Y012415D02*
X027915Y012415D01*
X027915Y012494D02*
X034225Y012494D01*
X034225Y012572D02*
X027915Y012572D01*
X027915Y012651D02*
X034225Y012651D01*
X034225Y012729D02*
X027915Y012729D01*
X027915Y012808D02*
X032818Y012808D01*
X032865Y012808D02*
X034225Y012808D01*
X034225Y012886D02*
X033372Y012886D01*
X033551Y012965D02*
X034225Y012965D01*
X034225Y013043D02*
X033700Y013043D01*
X033785Y013122D02*
X034225Y013122D01*
X034225Y013200D02*
X033870Y013200D01*
X033956Y013279D02*
X034225Y013279D01*
X034225Y013357D02*
X034019Y013357D01*
X034062Y013436D02*
X034225Y013436D01*
X034225Y013514D02*
X034104Y013514D01*
X034147Y013593D02*
X034225Y013593D01*
X034225Y013671D02*
X034189Y013671D01*
X034215Y013750D02*
X034225Y013750D01*
X032508Y012886D02*
X027915Y012886D01*
X027915Y012965D02*
X032323Y012965D01*
X032202Y013043D02*
X027916Y013043D01*
X027916Y013122D02*
X032082Y013122D01*
X031997Y013200D02*
X027916Y013200D01*
X027916Y013279D02*
X031936Y013279D01*
X031875Y013357D02*
X027916Y013357D01*
X027916Y013436D02*
X031813Y013436D01*
X031757Y013514D02*
X027916Y013514D01*
X027916Y013593D02*
X031731Y013593D01*
X031704Y013671D02*
X027917Y013671D01*
X028115Y013750D02*
X028708Y013750D01*
X028758Y013700D02*
X028500Y013958D01*
X028500Y014100D01*
X028900Y014100D01*
X028980Y014100D01*
X028980Y014180D01*
X029380Y014180D01*
X029380Y014322D01*
X029122Y014580D01*
X028980Y014580D01*
X028980Y014180D01*
X028900Y014180D01*
X028900Y014580D01*
X028758Y014580D01*
X028500Y014322D01*
X028500Y014180D01*
X028900Y014180D01*
X028900Y014100D01*
X028900Y013700D01*
X028758Y013700D01*
X028900Y013750D02*
X028980Y013750D01*
X028980Y013700D02*
X029122Y013700D01*
X029380Y013958D01*
X029380Y014100D01*
X028980Y014100D01*
X028980Y013700D01*
X028980Y013828D02*
X028900Y013828D01*
X028900Y013907D02*
X028980Y013907D01*
X028980Y013985D02*
X028900Y013985D01*
X028900Y014064D02*
X028980Y014064D01*
X028980Y014142D02*
X029540Y014142D01*
X029540Y014064D02*
X029380Y014064D01*
X029380Y013985D02*
X029540Y013985D01*
X029540Y013974D02*
X029774Y013740D01*
X030106Y013740D01*
X030340Y013974D01*
X030340Y014306D01*
X030106Y014540D01*
X029774Y014540D01*
X029540Y014306D01*
X029540Y013974D01*
X029608Y013907D02*
X029329Y013907D01*
X029250Y013828D02*
X029686Y013828D01*
X029765Y013750D02*
X029172Y013750D01*
X028900Y014142D02*
X028340Y014142D01*
X028340Y014064D02*
X028500Y014064D01*
X028500Y013985D02*
X028340Y013985D01*
X028272Y013907D02*
X028551Y013907D01*
X028630Y013828D02*
X028194Y013828D01*
X027940Y014140D02*
X027777Y013981D01*
X027773Y011088D01*
X027900Y010688D02*
X024495Y010688D01*
X024495Y010610D02*
X027900Y010610D01*
X027900Y010531D02*
X024516Y010531D01*
X024494Y010553D02*
X024494Y010553D01*
X024577Y010453D02*
X027900Y010453D01*
X027900Y010374D02*
X024603Y010374D01*
X024603Y010296D02*
X027900Y010296D01*
X027863Y010217D02*
X024572Y010217D01*
X024504Y010139D02*
X027810Y010139D01*
X027790Y010060D02*
X009818Y010060D01*
X009896Y009982D02*
X027794Y009982D01*
X027826Y009903D02*
X009975Y009903D01*
X010053Y009825D02*
X027907Y009825D01*
X024598Y006842D02*
X034225Y006842D01*
X034225Y006920D02*
X019593Y006920D01*
X019673Y006842D02*
X024362Y006842D01*
X024269Y006763D02*
X020551Y006763D01*
X020607Y006685D02*
X024236Y006685D01*
X024230Y006606D02*
X020630Y006606D01*
X020629Y006528D02*
X024190Y006528D01*
X024111Y006449D02*
X020596Y006449D01*
X020380Y006580D02*
X019740Y006580D01*
X018976Y007329D01*
X013140Y007340D01*
X013040Y007240D01*
X012870Y007240D01*
X012620Y007234D02*
X000655Y007234D01*
X000655Y007156D02*
X012634Y007156D01*
X012679Y007077D02*
X000655Y007077D01*
X000655Y006999D02*
X012800Y006999D01*
X012940Y006999D02*
X014480Y006999D01*
X014480Y007077D02*
X013061Y007077D01*
X013154Y007156D02*
X014507Y007156D01*
X014509Y006920D02*
X000655Y006920D01*
X000655Y006842D02*
X014575Y006842D01*
X014730Y007040D02*
X014870Y007180D01*
X018870Y007180D01*
X019800Y006250D01*
X024110Y006250D01*
X024480Y006620D01*
X024712Y006528D02*
X034225Y006528D01*
X034225Y006606D02*
X024730Y006606D01*
X024724Y006685D02*
X034225Y006685D01*
X034225Y006763D02*
X024691Y006763D01*
X024663Y006449D02*
X034225Y006449D01*
X034225Y006371D02*
X024531Y006371D01*
X024429Y006371D02*
X024429Y006371D01*
X024350Y006292D02*
X034225Y006292D01*
X034225Y006214D02*
X024272Y006214D01*
X024193Y006135D02*
X034225Y006135D01*
X034225Y006057D02*
X023563Y006057D01*
X023570Y005978D02*
X034225Y005978D01*
X034225Y005900D02*
X023553Y005900D01*
X023505Y005821D02*
X034225Y005821D01*
X034225Y005743D02*
X023376Y005743D01*
X023264Y005743D02*
X015676Y005743D01*
X015674Y005664D02*
X034225Y005664D01*
X034225Y005586D02*
X015752Y005586D01*
X015831Y005507D02*
X034225Y005507D01*
X034225Y005429D02*
X015909Y005429D01*
X015988Y005350D02*
X034225Y005350D01*
X034225Y005272D02*
X016066Y005272D01*
X016145Y005193D02*
X034225Y005193D01*
X034225Y005115D02*
X016223Y005115D01*
X016302Y005036D02*
X034225Y005036D01*
X034225Y004958D02*
X016380Y004958D01*
X016459Y004879D02*
X034225Y004879D01*
X034225Y004801D02*
X016537Y004801D01*
X016616Y004722D02*
X034225Y004722D01*
X034225Y004644D02*
X016694Y004644D01*
X016773Y004565D02*
X034225Y004565D01*
X034225Y004487D02*
X016851Y004487D01*
X016930Y004408D02*
X034225Y004408D01*
X034225Y004330D02*
X017008Y004330D01*
X017087Y004251D02*
X034225Y004251D01*
X034225Y004173D02*
X017165Y004173D01*
X017244Y004094D02*
X028633Y004094D01*
X028514Y004016D02*
X017322Y004016D01*
X017401Y003937D02*
X021741Y003937D01*
X021999Y003937D02*
X028438Y003937D01*
X028361Y003859D02*
X022083Y003859D01*
X022116Y003780D02*
X028285Y003780D01*
X028209Y003702D02*
X022120Y003702D01*
X022100Y003623D02*
X028132Y003623D01*
X028056Y003545D02*
X022048Y003545D01*
X022008Y003466D02*
X027979Y003466D01*
X027903Y003388D02*
X022060Y003388D01*
X022080Y003309D02*
X024897Y003309D01*
X024953Y003309D02*
X025966Y003309D01*
X024633Y003231D02*
X022076Y003231D01*
X022043Y003152D02*
X024558Y003152D01*
X024492Y003074D02*
X021961Y003074D01*
X021699Y003074D02*
X021276Y003074D01*
X021376Y003152D02*
X021617Y003152D01*
X021584Y003231D02*
X021412Y003231D01*
X021420Y003309D02*
X021580Y003309D01*
X021528Y003388D02*
X021404Y003388D01*
X021530Y003580D02*
X021090Y003580D01*
X020950Y003440D01*
X017500Y003440D01*
X015090Y005850D01*
X015090Y006320D01*
X014921Y006135D02*
X014803Y006135D01*
X014864Y006214D02*
X014724Y006214D01*
X014680Y006292D02*
X014840Y006292D01*
X014840Y006371D02*
X014676Y006371D01*
X014643Y006449D02*
X014873Y006449D01*
X014944Y006528D02*
X014558Y006528D01*
X014103Y006685D02*
X015332Y006685D01*
X015285Y006763D02*
X000655Y006763D01*
X000655Y006685D02*
X013977Y006685D01*
X013852Y006606D02*
X000655Y006606D01*
X000655Y006528D02*
X013806Y006528D01*
X013790Y006449D02*
X000655Y006449D01*
X000655Y006371D02*
X013798Y006371D01*
X013834Y006292D02*
X000655Y006292D01*
X000655Y006214D02*
X013900Y006214D01*
X013947Y006135D02*
X000655Y006135D01*
X000655Y006057D02*
X014025Y006057D01*
X014104Y005978D02*
X000655Y005978D01*
X000655Y005900D02*
X014182Y005900D01*
X014261Y005821D02*
X000655Y005821D01*
X000655Y005743D02*
X014599Y005743D01*
X014678Y005664D02*
X000655Y005664D01*
X000655Y005586D02*
X014756Y005586D01*
X014835Y005507D02*
X000655Y005507D01*
X000655Y005429D02*
X014913Y005429D01*
X014992Y005350D02*
X000655Y005350D01*
X000655Y005272D02*
X015070Y005272D01*
X015149Y005193D02*
X000655Y005193D01*
X000655Y005115D02*
X015227Y005115D01*
X015306Y005036D02*
X000655Y005036D01*
X000655Y004958D02*
X015384Y004958D01*
X015463Y004879D02*
X000655Y004879D01*
X000655Y004801D02*
X015541Y004801D01*
X015620Y004722D02*
X000655Y004722D01*
X000655Y004644D02*
X015698Y004644D01*
X015777Y004565D02*
X000655Y004565D01*
X000655Y004487D02*
X015855Y004487D01*
X015934Y004408D02*
X000655Y004408D01*
X000655Y004330D02*
X016012Y004330D01*
X016091Y004251D02*
X000655Y004251D01*
X000655Y004173D02*
X016169Y004173D01*
X016248Y004094D02*
X000655Y004094D01*
X000655Y004016D02*
X016326Y004016D01*
X016405Y003937D02*
X000655Y003937D01*
X000655Y003859D02*
X003714Y003859D01*
X003698Y003852D02*
X003628Y003782D01*
X003590Y003690D01*
X003590Y003590D01*
X003628Y003498D01*
X003698Y003428D01*
X003790Y003390D01*
X003890Y003390D01*
X003982Y003428D01*
X004052Y003498D01*
X004090Y003590D01*
X004090Y003690D01*
X004052Y003782D01*
X003982Y003852D01*
X003890Y003890D01*
X003790Y003890D01*
X003698Y003852D01*
X003627Y003780D02*
X000655Y003780D01*
X000655Y003702D02*
X003595Y003702D01*
X003590Y003623D02*
X000655Y003623D01*
X000655Y003545D02*
X003609Y003545D01*
X003660Y003466D02*
X001943Y003466D01*
X001792Y003466D02*
X000655Y003466D01*
X000655Y003388D02*
X001482Y003388D01*
X001313Y003309D02*
X000655Y003309D01*
X000655Y003231D02*
X001193Y003231D01*
X001072Y003152D02*
X000655Y003152D01*
X000655Y003074D02*
X000992Y003074D01*
X000931Y002995D02*
X000655Y002995D01*
X000655Y002917D02*
X000869Y002917D01*
X000808Y002838D02*
X000655Y002838D01*
X000655Y002760D02*
X000755Y002760D01*
X000728Y002681D02*
X000655Y002681D01*
X000655Y002603D02*
X000701Y002603D01*
X000674Y002524D02*
X000655Y002524D01*
X002386Y003388D02*
X016955Y003388D01*
X017033Y003309D02*
X002565Y003309D01*
X002707Y003231D02*
X017112Y003231D01*
X017190Y003152D02*
X002792Y003152D01*
X002877Y003074D02*
X017269Y003074D01*
X017440Y003300D02*
X014430Y006310D01*
X014881Y006057D02*
X014950Y006057D01*
X015230Y006057D02*
X015303Y006057D01*
X015232Y005978D02*
X015230Y005978D01*
X015450Y005850D02*
X015440Y005700D01*
X017560Y003580D01*
X020890Y003580D01*
X021030Y003720D01*
X021870Y003720D01*
X021530Y003580D02*
X021830Y003290D01*
X021170Y003300D02*
X017440Y003300D01*
X016876Y003466D02*
X004020Y003466D01*
X004071Y003545D02*
X016798Y003545D01*
X016719Y003623D02*
X004090Y003623D01*
X004085Y003702D02*
X016640Y003702D01*
X016562Y003780D02*
X004053Y003780D01*
X003966Y003859D02*
X016483Y003859D01*
X017479Y003859D02*
X020971Y003859D01*
X020892Y003780D02*
X017558Y003780D01*
X017774Y002540D02*
X017540Y002306D01*
X017540Y001974D01*
X017774Y001740D01*
X018106Y001740D01*
X018340Y001974D01*
X018340Y002306D01*
X018106Y002540D01*
X017774Y002540D01*
X017758Y002524D02*
X017122Y002524D01*
X017106Y002540D02*
X016774Y002540D01*
X016540Y002306D01*
X016540Y001974D01*
X016774Y001740D01*
X017106Y001740D01*
X017340Y001974D01*
X017340Y002306D01*
X017106Y002540D01*
X017200Y002446D02*
X017680Y002446D01*
X017601Y002367D02*
X017279Y002367D01*
X017340Y002289D02*
X017540Y002289D01*
X017540Y002210D02*
X017340Y002210D01*
X017340Y002132D02*
X017540Y002132D01*
X017540Y002053D02*
X017340Y002053D01*
X017340Y001975D02*
X017540Y001975D01*
X017618Y001896D02*
X017262Y001896D01*
X017183Y001818D02*
X017697Y001818D01*
X018183Y001818D02*
X018697Y001818D01*
X018774Y001740D02*
X018540Y001974D01*
X018540Y002306D01*
X018774Y002540D01*
X019106Y002540D01*
X019340Y002306D01*
X019340Y001974D01*
X019106Y001740D01*
X018774Y001740D01*
X018618Y001896D02*
X018262Y001896D01*
X018340Y001975D02*
X018540Y001975D01*
X018540Y002053D02*
X018340Y002053D01*
X018340Y002132D02*
X018540Y002132D01*
X018540Y002210D02*
X018340Y002210D01*
X018340Y002289D02*
X018540Y002289D01*
X018601Y002367D02*
X018279Y002367D01*
X018200Y002446D02*
X018680Y002446D01*
X018758Y002524D02*
X018122Y002524D01*
X019122Y002524D02*
X019758Y002524D01*
X019774Y002540D02*
X019540Y002306D01*
X019540Y001974D01*
X019774Y001740D01*
X020106Y001740D01*
X020340Y001974D01*
X020340Y002306D01*
X020106Y002540D01*
X019774Y002540D01*
X019680Y002446D02*
X019200Y002446D01*
X019279Y002367D02*
X019601Y002367D01*
X019540Y002289D02*
X019340Y002289D01*
X019340Y002210D02*
X019540Y002210D01*
X019540Y002132D02*
X019340Y002132D01*
X019340Y002053D02*
X019540Y002053D01*
X019540Y001975D02*
X019340Y001975D01*
X019262Y001896D02*
X019618Y001896D01*
X019697Y001818D02*
X019183Y001818D01*
X020183Y001818D02*
X020640Y001818D01*
X020562Y001896D02*
X020262Y001896D01*
X020340Y001975D02*
X020500Y001975D01*
X020500Y001958D02*
X020758Y001700D01*
X020900Y001700D01*
X020900Y002100D01*
X020500Y002100D01*
X020500Y001958D01*
X020500Y002053D02*
X020340Y002053D01*
X020340Y002132D02*
X020900Y002132D01*
X020900Y002100D02*
X020900Y002180D01*
X020900Y002580D01*
X020758Y002580D01*
X020500Y002322D01*
X020500Y002180D01*
X020900Y002180D01*
X020980Y002180D01*
X020980Y002580D01*
X021122Y002580D01*
X021380Y002322D01*
X021380Y002180D01*
X020980Y002180D01*
X020980Y002100D01*
X021380Y002100D01*
X021380Y001958D01*
X021122Y001700D01*
X020980Y001700D01*
X020980Y002100D01*
X020900Y002100D01*
X020900Y002053D02*
X020980Y002053D01*
X020980Y001975D02*
X020900Y001975D01*
X020900Y001896D02*
X020980Y001896D01*
X020980Y001818D02*
X020900Y001818D01*
X020900Y001739D02*
X020980Y001739D01*
X021161Y001739D02*
X021719Y001739D01*
X021758Y001700D02*
X021500Y001958D01*
X021500Y002100D01*
X021900Y002100D01*
X021900Y002180D01*
X021900Y002580D01*
X021758Y002580D01*
X021500Y002322D01*
X021500Y002180D01*
X021900Y002180D01*
X021980Y002180D01*
X021980Y002580D01*
X022122Y002580D01*
X022380Y002322D01*
X022380Y002180D01*
X021980Y002180D01*
X021980Y002100D01*
X022380Y002100D01*
X022380Y001958D01*
X022122Y001700D01*
X021980Y001700D01*
X021980Y002100D01*
X021900Y002100D01*
X021900Y001700D01*
X021758Y001700D01*
X021900Y001739D02*
X021980Y001739D01*
X021980Y001818D02*
X021900Y001818D01*
X021900Y001896D02*
X021980Y001896D01*
X021980Y001975D02*
X021900Y001975D01*
X021900Y002053D02*
X021980Y002053D01*
X021980Y002132D02*
X022540Y002132D01*
X022540Y002210D02*
X022380Y002210D01*
X022380Y002289D02*
X022540Y002289D01*
X022540Y002306D02*
X022540Y001974D01*
X022774Y001740D01*
X023106Y001740D01*
X023340Y001974D01*
X023340Y002306D01*
X023106Y002540D01*
X022774Y002540D01*
X022540Y002306D01*
X022601Y002367D02*
X022335Y002367D01*
X022257Y002446D02*
X022680Y002446D01*
X022758Y002524D02*
X022178Y002524D01*
X021980Y002524D02*
X021900Y002524D01*
X021900Y002446D02*
X021980Y002446D01*
X021980Y002367D02*
X021900Y002367D01*
X021900Y002289D02*
X021980Y002289D01*
X021980Y002210D02*
X021900Y002210D01*
X021900Y002132D02*
X020980Y002132D01*
X020980Y002210D02*
X020900Y002210D01*
X020900Y002289D02*
X020980Y002289D01*
X020980Y002367D02*
X020900Y002367D01*
X020900Y002446D02*
X020980Y002446D01*
X020980Y002524D02*
X020900Y002524D01*
X020702Y002524D02*
X020122Y002524D01*
X020200Y002446D02*
X020623Y002446D01*
X020545Y002367D02*
X020279Y002367D01*
X020340Y002289D02*
X020500Y002289D01*
X020500Y002210D02*
X020340Y002210D01*
X021178Y002524D02*
X021702Y002524D01*
X021623Y002446D02*
X021257Y002446D01*
X021335Y002367D02*
X021545Y002367D01*
X021500Y002289D02*
X021380Y002289D01*
X021380Y002210D02*
X021500Y002210D01*
X021500Y002053D02*
X021380Y002053D01*
X021380Y001975D02*
X021500Y001975D01*
X021562Y001896D02*
X021318Y001896D01*
X021240Y001818D02*
X021640Y001818D01*
X022161Y001739D02*
X023811Y001739D01*
X023669Y001818D02*
X023183Y001818D01*
X023262Y001896D02*
X023590Y001896D01*
X023540Y001975D02*
X023340Y001975D01*
X023340Y002053D02*
X023521Y002053D01*
X023520Y002132D02*
X023340Y002132D01*
X023340Y002210D02*
X023520Y002210D01*
X023540Y002289D02*
X023340Y002289D01*
X023279Y002367D02*
X023579Y002367D01*
X023652Y002446D02*
X023200Y002446D01*
X023122Y002524D02*
X023758Y002524D01*
X024077Y002603D02*
X003193Y002603D01*
X003216Y002524D02*
X004758Y002524D01*
X004774Y002540D02*
X004540Y002306D01*
X004540Y001974D01*
X004774Y001740D01*
X005106Y001740D01*
X005340Y001974D01*
X005340Y002306D01*
X005106Y002540D01*
X004774Y002540D01*
X004680Y002446D02*
X003229Y002446D01*
X003242Y002367D02*
X004601Y002367D01*
X004540Y002289D02*
X003255Y002289D01*
X003268Y002210D02*
X004540Y002210D01*
X004540Y002132D02*
X003279Y002132D01*
X003265Y002053D02*
X004540Y002053D01*
X004540Y001975D02*
X003252Y001975D01*
X003239Y001896D02*
X004618Y001896D01*
X004697Y001818D02*
X003226Y001818D01*
X003213Y001739D02*
X020719Y001739D01*
X022240Y001818D02*
X022697Y001818D01*
X022618Y001896D02*
X022318Y001896D01*
X022380Y001975D02*
X022540Y001975D01*
X022540Y002053D02*
X022380Y002053D01*
X024147Y002681D02*
X003150Y002681D01*
X003207Y001705D02*
X003207Y001705D01*
X005183Y001818D02*
X005697Y001818D01*
X005774Y001740D02*
X005540Y001974D01*
X005540Y002306D01*
X005774Y002540D01*
X006106Y002540D01*
X006340Y002306D01*
X006340Y001974D01*
X006106Y001740D01*
X005774Y001740D01*
X005618Y001896D02*
X005262Y001896D01*
X005340Y001975D02*
X005540Y001975D01*
X005540Y002053D02*
X005340Y002053D01*
X005340Y002132D02*
X005540Y002132D01*
X005540Y002210D02*
X005340Y002210D01*
X005340Y002289D02*
X005540Y002289D01*
X005601Y002367D02*
X005279Y002367D01*
X005200Y002446D02*
X005680Y002446D01*
X005758Y002524D02*
X005122Y002524D01*
X006122Y002524D02*
X006758Y002524D01*
X006774Y002540D02*
X006540Y002306D01*
X006540Y001974D01*
X006774Y001740D01*
X007106Y001740D01*
X007340Y001974D01*
X007340Y002306D01*
X007106Y002540D01*
X006774Y002540D01*
X006680Y002446D02*
X006200Y002446D01*
X006279Y002367D02*
X006601Y002367D01*
X006540Y002289D02*
X006340Y002289D01*
X006340Y002210D02*
X006540Y002210D01*
X006540Y002132D02*
X006340Y002132D01*
X006340Y002053D02*
X006540Y002053D01*
X006540Y001975D02*
X006340Y001975D01*
X006262Y001896D02*
X006618Y001896D01*
X006697Y001818D02*
X006183Y001818D01*
X007183Y001818D02*
X007697Y001818D01*
X007774Y001740D02*
X007540Y001974D01*
X007540Y002306D01*
X007774Y002540D01*
X008106Y002540D01*
X008340Y002306D01*
X008340Y001974D01*
X008106Y001740D01*
X007774Y001740D01*
X007618Y001896D02*
X007262Y001896D01*
X007340Y001975D02*
X007540Y001975D01*
X007540Y002053D02*
X007340Y002053D01*
X007340Y002132D02*
X007540Y002132D01*
X007540Y002210D02*
X007340Y002210D01*
X007340Y002289D02*
X007540Y002289D01*
X007601Y002367D02*
X007279Y002367D01*
X007200Y002446D02*
X007680Y002446D01*
X007758Y002524D02*
X007122Y002524D01*
X008122Y002524D02*
X008758Y002524D01*
X008774Y002540D02*
X008540Y002306D01*
X008540Y001974D01*
X008774Y001740D01*
X009106Y001740D01*
X009340Y001974D01*
X009340Y002306D01*
X009106Y002540D01*
X008774Y002540D01*
X008680Y002446D02*
X008200Y002446D01*
X008279Y002367D02*
X008601Y002367D01*
X008540Y002289D02*
X008340Y002289D01*
X008340Y002210D02*
X008540Y002210D01*
X008540Y002132D02*
X008340Y002132D01*
X008340Y002053D02*
X008540Y002053D01*
X008540Y001975D02*
X008340Y001975D01*
X008262Y001896D02*
X008618Y001896D01*
X008697Y001818D02*
X008183Y001818D01*
X009183Y001818D02*
X009697Y001818D01*
X009774Y001740D02*
X010106Y001740D01*
X010340Y001974D01*
X010340Y002306D01*
X010106Y002540D01*
X009774Y002540D01*
X009540Y002306D01*
X009540Y001974D01*
X009774Y001740D01*
X009618Y001896D02*
X009262Y001896D01*
X009340Y001975D02*
X009540Y001975D01*
X009540Y002053D02*
X009340Y002053D01*
X009340Y002132D02*
X009540Y002132D01*
X009540Y002210D02*
X009340Y002210D01*
X009340Y002289D02*
X009540Y002289D01*
X009601Y002367D02*
X009279Y002367D01*
X009200Y002446D02*
X009680Y002446D01*
X009758Y002524D02*
X009122Y002524D01*
X010122Y002524D02*
X010758Y002524D01*
X010774Y002540D02*
X010540Y002306D01*
X010540Y001974D01*
X010774Y001740D01*
X011106Y001740D01*
X011340Y001974D01*
X011340Y002306D01*
X011106Y002540D01*
X010774Y002540D01*
X010680Y002446D02*
X010200Y002446D01*
X010279Y002367D02*
X010601Y002367D01*
X010540Y002289D02*
X010340Y002289D01*
X010340Y002210D02*
X010540Y002210D01*
X010540Y002132D02*
X010340Y002132D01*
X010340Y002053D02*
X010540Y002053D01*
X010540Y001975D02*
X010340Y001975D01*
X010262Y001896D02*
X010618Y001896D01*
X010697Y001818D02*
X010183Y001818D01*
X011183Y001818D02*
X011697Y001818D01*
X011774Y001740D02*
X011540Y001974D01*
X011540Y002306D01*
X011774Y002540D01*
X012106Y002540D01*
X012340Y002306D01*
X012340Y001974D01*
X012106Y001740D01*
X011774Y001740D01*
X011618Y001896D02*
X011262Y001896D01*
X011340Y001975D02*
X011540Y001975D01*
X011540Y002053D02*
X011340Y002053D01*
X011340Y002132D02*
X011540Y002132D01*
X011540Y002210D02*
X011340Y002210D01*
X011340Y002289D02*
X011540Y002289D01*
X011601Y002367D02*
X011279Y002367D01*
X011200Y002446D02*
X011680Y002446D01*
X011758Y002524D02*
X011122Y002524D01*
X012122Y002524D02*
X012758Y002524D01*
X012774Y002540D02*
X012540Y002306D01*
X012540Y001974D01*
X012774Y001740D01*
X013106Y001740D01*
X013340Y001974D01*
X013340Y002306D01*
X013106Y002540D01*
X012774Y002540D01*
X012680Y002446D02*
X012200Y002446D01*
X012279Y002367D02*
X012601Y002367D01*
X012540Y002289D02*
X012340Y002289D01*
X012340Y002210D02*
X012540Y002210D01*
X012540Y002132D02*
X012340Y002132D01*
X012340Y002053D02*
X012540Y002053D01*
X012540Y001975D02*
X012340Y001975D01*
X012262Y001896D02*
X012618Y001896D01*
X012697Y001818D02*
X012183Y001818D01*
X013183Y001818D02*
X013697Y001818D01*
X013774Y001740D02*
X013540Y001974D01*
X013540Y002306D01*
X013774Y002540D01*
X014106Y002540D01*
X014340Y002306D01*
X014340Y001974D01*
X014106Y001740D01*
X013774Y001740D01*
X013618Y001896D02*
X013262Y001896D01*
X013340Y001975D02*
X013540Y001975D01*
X013540Y002053D02*
X013340Y002053D01*
X013340Y002132D02*
X013540Y002132D01*
X013540Y002210D02*
X013340Y002210D01*
X013340Y002289D02*
X013540Y002289D01*
X013601Y002367D02*
X013279Y002367D01*
X013200Y002446D02*
X013680Y002446D01*
X013758Y002524D02*
X013122Y002524D01*
X014122Y002524D02*
X014758Y002524D01*
X014774Y002540D02*
X014540Y002306D01*
X014540Y001974D01*
X014774Y001740D01*
X015106Y001740D01*
X015340Y001974D01*
X015340Y002306D01*
X015106Y002540D01*
X014774Y002540D01*
X014680Y002446D02*
X014200Y002446D01*
X014279Y002367D02*
X014601Y002367D01*
X014540Y002289D02*
X014340Y002289D01*
X014340Y002210D02*
X014540Y002210D01*
X014540Y002132D02*
X014340Y002132D01*
X014340Y002053D02*
X014540Y002053D01*
X014540Y001975D02*
X014340Y001975D01*
X014262Y001896D02*
X014618Y001896D01*
X014697Y001818D02*
X014183Y001818D01*
X015183Y001818D02*
X015697Y001818D01*
X015774Y001740D02*
X015540Y001974D01*
X015540Y002306D01*
X015774Y002540D01*
X016106Y002540D01*
X016340Y002306D01*
X016340Y001974D01*
X016106Y001740D01*
X015774Y001740D01*
X015618Y001896D02*
X015262Y001896D01*
X015340Y001975D02*
X015540Y001975D01*
X015540Y002053D02*
X015340Y002053D01*
X015340Y002132D02*
X015540Y002132D01*
X015540Y002210D02*
X015340Y002210D01*
X015340Y002289D02*
X015540Y002289D01*
X015601Y002367D02*
X015279Y002367D01*
X015200Y002446D02*
X015680Y002446D01*
X015758Y002524D02*
X015122Y002524D01*
X016122Y002524D02*
X016758Y002524D01*
X016680Y002446D02*
X016200Y002446D01*
X016279Y002367D02*
X016601Y002367D01*
X016540Y002289D02*
X016340Y002289D01*
X016340Y002210D02*
X016540Y002210D01*
X016540Y002132D02*
X016340Y002132D01*
X016340Y002053D02*
X016540Y002053D01*
X016540Y001975D02*
X016340Y001975D01*
X016262Y001896D02*
X016618Y001896D01*
X016697Y001818D02*
X016183Y001818D01*
X020890Y002995D02*
X024423Y002995D01*
X025980Y002132D02*
X026540Y002132D01*
X026540Y002210D02*
X026380Y002210D01*
X026380Y002289D02*
X026540Y002289D01*
X026601Y002367D02*
X026335Y002367D01*
X026257Y002446D02*
X026680Y002446D01*
X027200Y002446D02*
X027680Y002446D01*
X027601Y002367D02*
X027279Y002367D01*
X027340Y002289D02*
X027540Y002289D01*
X027540Y002210D02*
X027340Y002210D01*
X027340Y002132D02*
X027540Y002132D01*
X027540Y002053D02*
X027340Y002053D01*
X027340Y001975D02*
X027540Y001975D01*
X027618Y001896D02*
X027262Y001896D01*
X027183Y001818D02*
X027697Y001818D01*
X028183Y001818D02*
X028697Y001818D01*
X028774Y001740D02*
X028540Y001974D01*
X028540Y002306D01*
X028774Y002540D01*
X029106Y002540D01*
X029340Y002306D01*
X029340Y001974D01*
X029106Y001740D01*
X028774Y001740D01*
X028618Y001896D02*
X028262Y001896D01*
X028340Y001975D02*
X028540Y001975D01*
X028540Y002053D02*
X028340Y002053D01*
X028340Y002132D02*
X028540Y002132D01*
X028540Y002210D02*
X028340Y002210D01*
X028340Y002289D02*
X028540Y002289D01*
X028601Y002367D02*
X028279Y002367D01*
X028200Y002446D02*
X028680Y002446D01*
X028758Y002524D02*
X028216Y002524D01*
X028311Y002603D02*
X031701Y002603D01*
X031728Y002681D02*
X028387Y002681D01*
X028464Y002760D02*
X031755Y002760D01*
X031808Y002838D02*
X028540Y002838D01*
X028617Y002917D02*
X031869Y002917D01*
X031931Y002995D02*
X028693Y002995D01*
X028770Y003074D02*
X031992Y003074D01*
X032072Y003152D02*
X028846Y003152D01*
X028922Y003231D02*
X032193Y003231D01*
X032313Y003309D02*
X028999Y003309D01*
X029075Y003388D02*
X032482Y003388D01*
X032792Y003466D02*
X029152Y003466D01*
X029189Y003545D02*
X034225Y003545D01*
X034225Y003623D02*
X029221Y003623D01*
X029223Y003702D02*
X034225Y003702D01*
X034225Y003780D02*
X029222Y003780D01*
X029197Y003859D02*
X034225Y003859D01*
X034225Y003937D02*
X029163Y003937D01*
X029092Y004016D02*
X034225Y004016D01*
X034225Y004094D02*
X028975Y004094D01*
X029122Y002524D02*
X029758Y002524D01*
X029774Y002540D02*
X029540Y002306D01*
X029540Y001974D01*
X029774Y001740D01*
X030106Y001740D01*
X030340Y001974D01*
X030340Y002306D01*
X030106Y002540D01*
X029774Y002540D01*
X029680Y002446D02*
X029200Y002446D01*
X029279Y002367D02*
X029601Y002367D01*
X029540Y002289D02*
X029340Y002289D01*
X029340Y002210D02*
X029540Y002210D01*
X029540Y002132D02*
X029340Y002132D01*
X029340Y002053D02*
X029540Y002053D01*
X029540Y001975D02*
X029340Y001975D01*
X029262Y001896D02*
X029618Y001896D01*
X029697Y001818D02*
X029183Y001818D01*
X030183Y001818D02*
X030697Y001818D01*
X030774Y001740D02*
X031106Y001740D01*
X031340Y001974D01*
X031340Y002306D01*
X031106Y002540D01*
X030774Y002540D01*
X030540Y002306D01*
X030540Y001974D01*
X030774Y001740D01*
X030618Y001896D02*
X030262Y001896D01*
X030340Y001975D02*
X030540Y001975D01*
X030540Y002053D02*
X030340Y002053D01*
X030340Y002132D02*
X030540Y002132D01*
X030540Y002210D02*
X030340Y002210D01*
X030340Y002289D02*
X030540Y002289D01*
X030601Y002367D02*
X030279Y002367D01*
X030200Y002446D02*
X030680Y002446D01*
X030758Y002524D02*
X030122Y002524D01*
X031122Y002524D02*
X031674Y002524D01*
X031647Y002446D02*
X031200Y002446D01*
X031279Y002367D02*
X031620Y002367D01*
X031618Y002289D02*
X031340Y002289D01*
X031340Y002210D02*
X031618Y002210D01*
X031618Y002132D02*
X031340Y002132D01*
X031340Y002053D02*
X031618Y002053D01*
X031618Y001975D02*
X031340Y001975D01*
X031262Y001896D02*
X031626Y001896D01*
X031653Y001818D02*
X031183Y001818D01*
X033877Y003074D02*
X034225Y003074D01*
X034225Y003152D02*
X033792Y003152D01*
X033707Y003231D02*
X034225Y003231D01*
X034225Y003309D02*
X033565Y003309D01*
X033386Y003388D02*
X034225Y003388D01*
X034225Y003466D02*
X032943Y003466D01*
X033963Y002995D02*
X034225Y002995D01*
X034225Y002917D02*
X034023Y002917D01*
X034065Y002838D02*
X034225Y002838D01*
X034225Y002760D02*
X034108Y002760D01*
X034150Y002681D02*
X034225Y002681D01*
X034225Y002603D02*
X034193Y002603D01*
X034216Y002524D02*
X034225Y002524D01*
X026697Y001818D02*
X026240Y001818D01*
X026318Y001896D02*
X026618Y001896D01*
X026540Y001975D02*
X026380Y001975D01*
X026380Y002053D02*
X026540Y002053D01*
X025719Y001739D02*
X024366Y001739D01*
X024506Y001818D02*
X025640Y001818D01*
X025562Y001896D02*
X024580Y001896D01*
X024644Y001975D02*
X025500Y001975D01*
X025500Y002053D02*
X024713Y002053D01*
X021064Y003074D02*
X020890Y003074D01*
X020864Y003152D02*
X020964Y003152D01*
X023135Y005821D02*
X015700Y005821D01*
X015700Y005900D02*
X023087Y005900D01*
X023200Y006110D02*
X019730Y006110D01*
X019753Y006763D02*
X020209Y006763D01*
X020353Y007391D02*
X019452Y007391D01*
X019473Y007470D02*
X020291Y007470D01*
X020432Y007662D02*
X020515Y007583D01*
X020432Y007662D02*
X019470Y007660D01*
X019315Y007759D01*
X013992Y007756D01*
X013874Y007762D01*
X013740Y007883D01*
X013564Y007705D02*
X012744Y007705D01*
X012586Y007510D02*
X019214Y007510D01*
X019223Y007492D01*
X019471Y007976D02*
X015965Y007986D01*
X015750Y008240D01*
X015630Y008019D02*
X015510Y008019D01*
X015270Y008019D02*
X013954Y008019D01*
X013987Y007941D02*
X015821Y007941D01*
X016120Y008240D02*
X018700Y008240D01*
X018944Y008176D02*
X019317Y008176D01*
X019629Y008507D02*
X015601Y008496D01*
X015390Y008240D01*
X015158Y008333D02*
X000655Y008333D01*
X000655Y008255D02*
X015140Y008255D01*
X015146Y008176D02*
X000655Y008176D01*
X000655Y008098D02*
X013604Y008098D01*
X013525Y008019D02*
X000655Y008019D01*
X000655Y007941D02*
X013493Y007941D01*
X013490Y007862D02*
X000655Y007862D01*
X000655Y007784D02*
X013510Y007784D01*
X013876Y008098D02*
X015179Y008098D01*
X015208Y008412D02*
X000655Y008412D01*
X000655Y008490D02*
X015415Y008490D01*
X015988Y008804D02*
X019293Y008804D01*
X019374Y008883D02*
X014474Y008883D01*
X014394Y008961D02*
X019365Y008961D01*
X015315Y006999D02*
X014980Y006999D01*
X014951Y006920D02*
X015278Y006920D01*
X015270Y006842D02*
X014885Y006842D01*
X012429Y007313D02*
X000655Y007313D01*
X000655Y007391D02*
X012364Y007391D01*
X012336Y007470D02*
X000655Y007470D01*
X000655Y007548D02*
X012336Y007548D01*
X012363Y007627D02*
X000655Y007627D01*
X000655Y007705D02*
X012427Y007705D01*
X014234Y008726D02*
X000655Y008726D01*
X000655Y008804D02*
X014153Y008804D01*
X014073Y008883D02*
X000655Y008883D01*
X000655Y008961D02*
X013992Y008961D01*
X014315Y008647D02*
X000655Y008647D01*
X000655Y008569D02*
X014395Y008569D01*
X010285Y009197D02*
X000655Y009197D01*
X000655Y009275D02*
X010207Y009275D01*
X010128Y009354D02*
X000655Y009354D01*
X000655Y009432D02*
X010050Y009432D01*
X009971Y009511D02*
X000655Y009511D01*
X000655Y009589D02*
X009893Y009589D01*
X009814Y009668D02*
X004021Y009668D01*
X004052Y009698D02*
X004090Y009790D01*
X004090Y009890D01*
X004052Y009982D01*
X003982Y010052D01*
X003890Y010090D01*
X003790Y010090D01*
X003698Y010052D01*
X003628Y009982D01*
X003590Y009890D01*
X003590Y009790D01*
X003628Y009698D01*
X003698Y009628D01*
X003790Y009590D01*
X003890Y009590D01*
X003982Y009628D01*
X004052Y009698D01*
X004072Y009746D02*
X009736Y009746D01*
X009657Y009825D02*
X004090Y009825D01*
X004084Y009903D02*
X009579Y009903D01*
X009500Y009982D02*
X004052Y009982D01*
X003962Y010060D02*
X009422Y010060D01*
X009343Y010139D02*
X000655Y010139D01*
X000655Y010217D02*
X009265Y010217D01*
X009186Y010296D02*
X000655Y010296D01*
X000655Y010374D02*
X009108Y010374D01*
X009029Y010453D02*
X000655Y010453D01*
X000655Y010531D02*
X008951Y010531D01*
X008872Y010610D02*
X000655Y010610D01*
X000655Y010688D02*
X008794Y010688D01*
X008715Y010767D02*
X000655Y010767D01*
X000655Y010845D02*
X008637Y010845D01*
X008558Y010924D02*
X000655Y010924D01*
X000655Y011002D02*
X008480Y011002D01*
X008401Y011081D02*
X000655Y011081D01*
X000655Y011159D02*
X008323Y011159D01*
X008244Y011238D02*
X000655Y011238D01*
X000655Y011316D02*
X008166Y011316D01*
X008087Y011395D02*
X000655Y011395D01*
X000655Y011473D02*
X008009Y011473D01*
X007930Y011552D02*
X000655Y011552D01*
X000655Y011630D02*
X007852Y011630D01*
X007773Y011709D02*
X000655Y011709D01*
X000655Y011787D02*
X007695Y011787D01*
X007616Y011866D02*
X000655Y011866D01*
X000655Y011944D02*
X007538Y011944D01*
X007459Y012023D02*
X000655Y012023D01*
X000655Y012101D02*
X007381Y012101D01*
X007302Y012180D02*
X000655Y012180D01*
X000655Y012258D02*
X007224Y012258D01*
X007145Y012337D02*
X000655Y012337D01*
X000655Y012415D02*
X007067Y012415D01*
X006988Y012494D02*
X000655Y012494D01*
X000655Y012572D02*
X006910Y012572D01*
X006831Y012651D02*
X000655Y012651D01*
X000655Y012729D02*
X006753Y012729D01*
X006674Y012808D02*
X001865Y012808D01*
X001818Y012808D02*
X000655Y012808D01*
X000655Y012886D02*
X001508Y012886D01*
X001323Y012965D02*
X000655Y012965D01*
X000655Y013043D02*
X001202Y013043D01*
X001082Y013122D02*
X000655Y013122D01*
X000655Y013200D02*
X000997Y013200D01*
X000936Y013279D02*
X000655Y013279D01*
X000655Y013357D02*
X000875Y013357D01*
X000813Y013436D02*
X000655Y013436D01*
X000655Y013514D02*
X000757Y013514D01*
X000731Y013593D02*
X000655Y013593D01*
X000655Y013671D02*
X000704Y013671D01*
X000677Y013750D02*
X000655Y013750D01*
X002372Y012886D02*
X006596Y012886D01*
X006517Y012965D02*
X002551Y012965D01*
X002700Y013043D02*
X006439Y013043D01*
X006360Y013122D02*
X002785Y013122D01*
X002870Y013200D02*
X006282Y013200D01*
X006203Y013279D02*
X002956Y013279D01*
X004940Y014140D02*
X005640Y013440D01*
X005132Y013750D02*
X005115Y013750D01*
X003187Y014613D02*
X031705Y014613D01*
X031678Y014535D02*
X031111Y014535D01*
X031106Y014540D02*
X030774Y014540D01*
X030540Y014306D01*
X030540Y013974D01*
X030774Y013740D01*
X031106Y013740D01*
X031340Y013974D01*
X031340Y014306D01*
X031106Y014540D01*
X031190Y014456D02*
X031651Y014456D01*
X031624Y014378D02*
X031268Y014378D01*
X031340Y014299D02*
X031618Y014299D01*
X031618Y014221D02*
X031340Y014221D01*
X031340Y014142D02*
X031618Y014142D01*
X031618Y014064D02*
X031340Y014064D01*
X031340Y013985D02*
X031618Y013985D01*
X031623Y013907D02*
X031272Y013907D01*
X031194Y013828D02*
X031650Y013828D01*
X031677Y013750D02*
X031115Y013750D01*
X030765Y013750D02*
X030115Y013750D01*
X030194Y013828D02*
X030686Y013828D01*
X030608Y013907D02*
X030272Y013907D01*
X030340Y013985D02*
X030540Y013985D01*
X030540Y014064D02*
X030340Y014064D01*
X030340Y014142D02*
X030540Y014142D01*
X030540Y014221D02*
X030340Y014221D01*
X030340Y014299D02*
X030540Y014299D01*
X030612Y014378D02*
X030268Y014378D01*
X030190Y014456D02*
X030690Y014456D01*
X030769Y014535D02*
X030111Y014535D01*
X029769Y014535D02*
X029168Y014535D01*
X029246Y014456D02*
X029690Y014456D01*
X029612Y014378D02*
X029325Y014378D01*
X029380Y014299D02*
X029540Y014299D01*
X029540Y014221D02*
X029380Y014221D01*
X028980Y014221D02*
X028900Y014221D01*
X028900Y014299D02*
X028980Y014299D01*
X028980Y014378D02*
X028900Y014378D01*
X028900Y014456D02*
X028980Y014456D01*
X028980Y014535D02*
X028900Y014535D01*
X028712Y014535D02*
X028111Y014535D01*
X028190Y014456D02*
X028634Y014456D01*
X028555Y014378D02*
X028268Y014378D01*
X028340Y014299D02*
X028500Y014299D01*
X028500Y014221D02*
X028340Y014221D01*
X031732Y014692D02*
X003144Y014692D01*
X003102Y014770D02*
X031759Y014770D01*
X031817Y014849D02*
X003059Y014849D01*
X003017Y014927D02*
X031878Y014927D01*
X031939Y015006D02*
X002951Y015006D01*
X002866Y015084D02*
X032000Y015084D01*
X032089Y015163D02*
X002781Y015163D01*
X002695Y015241D02*
X032209Y015241D01*
X032329Y015320D02*
X002541Y015320D01*
X002362Y015398D02*
X032524Y015398D01*
X023200Y006110D02*
X023320Y005990D01*
X003659Y009668D02*
X000655Y009668D01*
X000655Y009746D02*
X003608Y009746D01*
X003590Y009825D02*
X000655Y009825D01*
X000655Y009903D02*
X003596Y009903D01*
X003628Y009982D02*
X000655Y009982D01*
X000655Y010060D02*
X003718Y010060D01*
D13*
X003840Y009840D03*
X006240Y009640D03*
X008090Y008890D03*
X005840Y007440D03*
X005240Y007440D03*
X005240Y006740D03*
X005840Y006740D03*
X005840Y006040D03*
X005240Y006040D03*
X007240Y006640D03*
X011590Y006770D03*
X012870Y007240D03*
X012586Y007510D03*
X013740Y007883D03*
X015390Y008240D03*
X015750Y008240D03*
X016120Y008240D03*
X014730Y007040D03*
X015520Y006850D03*
X015090Y006320D03*
X014430Y006310D03*
X014040Y006440D03*
X015450Y005850D03*
X017897Y004490D03*
X020358Y005045D03*
X021870Y003720D03*
X021830Y003290D03*
X021170Y003300D03*
X020640Y003040D03*
X024293Y003835D03*
X024623Y004805D03*
X023320Y005990D03*
X024480Y006620D03*
X027448Y005531D03*
X030713Y004018D03*
X022286Y008538D03*
X020515Y007583D03*
X019471Y007976D03*
X019223Y007492D03*
X018700Y008240D03*
X019629Y008507D03*
X019615Y008954D03*
X022680Y010051D03*
X024353Y010341D03*
X024673Y010932D03*
X022193Y012097D03*
X020240Y010440D03*
X017607Y012100D03*
X012814Y009332D03*
X011630Y008730D03*
X011779Y005770D03*
X011269Y004250D03*
X013283Y004215D03*
X008089Y004190D03*
X006589Y004190D03*
X003840Y003640D03*
X018690Y006771D03*
X020380Y006580D03*
X026123Y009287D03*
X027793Y008997D03*
X028040Y010040D03*
X030180Y009890D03*
X027773Y011088D03*
X028040Y011540D03*
X028192Y012148D03*
X031220Y011461D03*
X011215Y012089D03*
X006329Y012465D03*
X004568Y011084D03*
X002870Y011220D03*
D14*
X028803Y003710D03*
D15*
X028006Y002892D01*
X024888Y002888D01*
X024230Y002140D01*
X023940Y002140D01*
M02*
