G75*
G70*
%OFA0B0*%
%FSLAX24Y24*%
%IPPOS*%
%LPD*%
%AMOC8*
5,1,8,0,0,1.08239X$1,22.5*
%
%ADD10C,0.0050*%
%ADD11R,0.0050X0.0050*%
%ADD12R,0.0100X0.0050*%
%ADD13R,0.0150X0.0050*%
%ADD14R,0.0200X0.0050*%
%ADD15R,0.0500X0.0050*%
%ADD16R,0.0550X0.0050*%
%ADD17R,0.0450X0.0050*%
%ADD18R,0.0250X0.0050*%
%ADD19R,0.0600X0.0050*%
%ADD20R,0.0750X0.0050*%
%ADD21R,0.0950X0.0050*%
%ADD22R,0.0700X0.0050*%
%ADD23R,0.0300X0.0050*%
%ADD24R,0.0650X0.0050*%
%ADD25R,0.1600X0.0050*%
%ADD26R,0.1550X0.0050*%
%ADD27R,0.1500X0.0050*%
%ADD28R,0.1800X0.0050*%
%ADD29R,0.1750X0.0050*%
%ADD30R,0.0800X0.0050*%
%ADD31R,0.0850X0.0050*%
%ADD32R,0.1450X0.0050*%
%ADD33R,0.0900X0.0050*%
%ADD34R,0.1400X0.0050*%
%ADD35R,0.2400X0.0050*%
%ADD36R,0.2350X0.0050*%
%ADD37R,0.2300X0.0050*%
%ADD38R,0.0350X0.0050*%
%ADD39R,0.1200X0.0050*%
%ADD40R,0.1100X0.0050*%
%ADD41R,0.2650X0.0050*%
%ADD42R,0.1000X0.0050*%
%ADD43R,0.1050X0.0050*%
%ADD44R,0.0400X0.0050*%
%ADD45R,0.2700X0.0050*%
%ADD46R,0.1700X0.0050*%
%ADD47R,0.2800X0.0050*%
%ADD48R,0.3250X0.0050*%
%ADD49R,0.1150X0.0050*%
%ADD50R,0.2850X0.0050*%
%ADD51R,0.2250X0.0050*%
%ADD52R,0.1300X0.0050*%
%ADD53R,0.3400X0.0050*%
%ADD54R,0.2150X0.0050*%
%ADD55R,0.2900X0.0050*%
%ADD56R,0.4050X0.0050*%
%ADD57R,0.4850X0.0050*%
%ADD58R,0.2200X0.0050*%
%ADD59R,0.4650X0.0050*%
%ADD60R,0.2750X0.0050*%
%ADD61R,0.4200X0.0050*%
%ADD62R,0.3650X0.0050*%
%ADD63R,0.3050X0.0050*%
%ADD64R,0.2950X0.0050*%
%ADD65R,0.3550X0.0050*%
%ADD66R,0.2100X0.0050*%
%ADD67R,0.2500X0.0050*%
%ADD68R,0.2000X0.0050*%
%ADD69R,0.3850X0.0050*%
%ADD70R,0.1950X0.0050*%
%ADD71R,0.3800X0.0050*%
%ADD72R,0.3700X0.0050*%
%ADD73R,0.1650X0.0050*%
%ADD74R,0.3500X0.0050*%
%ADD75R,0.3300X0.0050*%
%ADD76R,0.1900X0.0050*%
%ADD77R,0.2050X0.0050*%
%ADD78R,0.3150X0.0050*%
%ADD79R,0.3200X0.0050*%
%ADD80R,0.2550X0.0050*%
%ADD81R,0.3100X0.0050*%
%ADD82R,0.4800X0.0050*%
%ADD83R,0.4300X0.0050*%
%ADD84R,0.6150X0.0050*%
%ADD85R,0.1350X0.0050*%
%ADD86R,0.4500X0.0050*%
%ADD87R,0.1850X0.0050*%
%ADD88R,0.3600X0.0050*%
%ADD89R,0.5200X0.0050*%
%ADD90R,0.5150X0.0050*%
%ADD91R,0.4450X0.0050*%
%ADD92R,0.1250X0.0050*%
%ADD93R,0.2600X0.0050*%
%ADD94R,0.2450X0.0050*%
%ADD95R,0.4250X0.0050*%
%ADD96R,0.4100X0.0050*%
%ADD97R,0.4000X0.0050*%
%ADD98R,0.3900X0.0050*%
%ADD99R,0.3000X0.0050*%
%ADD100R,0.4950X0.0050*%
%ADD101R,0.5000X0.0050*%
%ADD102R,0.5050X0.0050*%
%ADD103R,0.5100X0.0050*%
%ADD104R,0.7000X0.0050*%
%ADD105R,0.7200X0.0050*%
%ADD106R,0.4750X0.0050*%
%ADD107R,0.4700X0.0050*%
%ADD108R,0.4600X0.0050*%
%ADD109R,0.8300X0.0050*%
%ADD110R,0.8400X0.0050*%
%ADD111R,0.8500X0.0050*%
%ADD112R,0.8700X0.0050*%
%ADD113R,0.9000X0.0050*%
%ADD114R,0.7400X0.0050*%
%ADD115R,0.5550X0.0050*%
%ADD116R,0.5400X0.0050*%
%ADD117R,0.5250X0.0050*%
%ADD118R,0.4400X0.0050*%
%ADD119R,0.4350X0.0050*%
%ADD120R,0.3350X0.0050*%
%ADD121C,0.0000*%
D10*
X001440Y000640D02*
X033440Y000640D01*
X033500Y000642D01*
X033561Y000647D01*
X033620Y000656D01*
X033679Y000669D01*
X033738Y000685D01*
X033795Y000705D01*
X033850Y000728D01*
X033905Y000755D01*
X033957Y000784D01*
X034008Y000817D01*
X034057Y000853D01*
X034103Y000891D01*
X034147Y000933D01*
X034189Y000977D01*
X034227Y001023D01*
X034263Y001072D01*
X034296Y001123D01*
X034325Y001175D01*
X034352Y001230D01*
X034375Y001285D01*
X034395Y001342D01*
X034411Y001401D01*
X034424Y001460D01*
X034433Y001519D01*
X034438Y001580D01*
X034440Y001640D01*
X034440Y014640D01*
X034438Y014700D01*
X034433Y014761D01*
X034424Y014820D01*
X034411Y014879D01*
X034395Y014938D01*
X034375Y014995D01*
X034352Y015050D01*
X034325Y015105D01*
X034296Y015157D01*
X034263Y015208D01*
X034227Y015257D01*
X034189Y015303D01*
X034147Y015347D01*
X034103Y015389D01*
X034057Y015427D01*
X034008Y015463D01*
X033957Y015496D01*
X033905Y015525D01*
X033850Y015552D01*
X033795Y015575D01*
X033738Y015595D01*
X033679Y015611D01*
X033620Y015624D01*
X033561Y015633D01*
X033500Y015638D01*
X033440Y015640D01*
X001440Y015640D01*
X001380Y015638D01*
X001319Y015633D01*
X001260Y015624D01*
X001201Y015611D01*
X001142Y015595D01*
X001085Y015575D01*
X001030Y015552D01*
X000975Y015525D01*
X000923Y015496D01*
X000872Y015463D01*
X000823Y015427D01*
X000777Y015389D01*
X000733Y015347D01*
X000691Y015303D01*
X000653Y015257D01*
X000617Y015208D01*
X000584Y015157D01*
X000555Y015105D01*
X000528Y015050D01*
X000505Y014995D01*
X000485Y014938D01*
X000469Y014879D01*
X000456Y014820D01*
X000447Y014761D01*
X000442Y014700D01*
X000440Y014640D01*
X000440Y001640D01*
X000442Y001580D01*
X000447Y001519D01*
X000456Y001460D01*
X000469Y001401D01*
X000485Y001342D01*
X000505Y001285D01*
X000528Y001230D01*
X000555Y001175D01*
X000584Y001123D01*
X000617Y001072D01*
X000653Y001023D01*
X000691Y000977D01*
X000733Y000933D01*
X000777Y000891D01*
X000823Y000853D01*
X000872Y000817D01*
X000923Y000784D01*
X000975Y000755D01*
X001030Y000728D01*
X001085Y000705D01*
X001142Y000685D01*
X001201Y000669D01*
X001260Y000656D01*
X001319Y000647D01*
X001380Y000642D01*
X001440Y000640D01*
X031251Y008913D02*
X031251Y011945D01*
X034893Y011945D01*
X034893Y008913D01*
X031251Y008913D01*
D11*
X025640Y010340D03*
X022790Y008340D03*
X020090Y008190D03*
X020090Y008890D03*
X015090Y010490D03*
X017590Y011940D03*
X018190Y012740D03*
X018240Y012840D03*
X017590Y012940D03*
X019040Y013990D03*
X022040Y012690D03*
X023840Y014390D03*
X027490Y013840D03*
X027590Y014690D03*
X025590Y012440D03*
X014090Y005540D03*
X014140Y005490D03*
X013940Y005340D03*
X014040Y005090D03*
X014090Y005040D03*
X013140Y004290D03*
X012990Y004290D03*
X011240Y004040D03*
X011240Y003990D03*
X011240Y003940D03*
X011040Y005090D03*
X010940Y005590D03*
X010840Y005640D03*
X010790Y005590D03*
X011740Y005640D03*
X015540Y003640D03*
X016240Y004290D03*
X017940Y002190D03*
X015340Y001990D03*
X015140Y001640D03*
X014140Y001740D03*
D12*
X014115Y001790D03*
X014065Y001840D03*
X014015Y001890D03*
X014015Y001940D03*
X013965Y001990D03*
X015065Y001690D03*
X015265Y002040D03*
X015215Y002090D03*
X015165Y002140D03*
X015115Y002190D03*
X016165Y002390D03*
X013665Y002940D03*
X011815Y003690D03*
X011815Y004090D03*
X011865Y004140D03*
X011865Y004190D03*
X011215Y004190D03*
X011215Y004140D03*
X011215Y004090D03*
X010665Y004090D03*
X010565Y004140D03*
X010565Y004290D03*
X010565Y004340D03*
X010615Y004390D03*
X012265Y004840D03*
X013115Y004340D03*
X014165Y005340D03*
X014265Y005290D03*
X014315Y005390D03*
X014215Y005440D03*
X014665Y005390D03*
X013765Y006090D03*
X013065Y007290D03*
X013865Y007490D03*
X010765Y005540D03*
X016115Y003890D03*
X016315Y003890D03*
X016565Y004240D03*
X018665Y005440D03*
X020715Y006640D03*
X020615Y006690D03*
X022615Y008190D03*
X022665Y008240D03*
X022715Y008290D03*
X022665Y009990D03*
X022315Y010190D03*
X025015Y011240D03*
X024965Y011540D03*
X026315Y011790D03*
X025415Y012340D03*
X025515Y012390D03*
X024765Y013090D03*
X023965Y013040D03*
X025565Y014040D03*
X025965Y013190D03*
X027415Y013890D03*
X027965Y014890D03*
X023915Y014440D03*
X022065Y014540D03*
X020415Y015090D03*
X019665Y014540D03*
X019015Y013940D03*
X018365Y013440D03*
X017515Y012890D03*
X017465Y012840D03*
X017365Y012790D03*
X018165Y012690D03*
X018215Y012790D03*
X017515Y011890D03*
X017465Y011840D03*
X017415Y011790D03*
X017365Y011740D03*
X017215Y011640D03*
X016865Y011890D03*
X018165Y011490D03*
X018215Y011540D03*
X017015Y011040D03*
X016915Y010990D03*
X016865Y010940D03*
X016565Y010440D03*
X015115Y010540D03*
X025465Y010240D03*
X025565Y010290D03*
D13*
X025340Y010190D03*
X025240Y010140D03*
X023890Y009990D03*
X023790Y009940D03*
X022690Y010240D03*
X022840Y010690D03*
X024890Y011490D03*
X026240Y011740D03*
X025290Y012290D03*
X025190Y012240D03*
X024640Y013040D03*
X025690Y013640D03*
X025440Y013990D03*
X025340Y013940D03*
X024090Y014540D03*
X023990Y014490D03*
X023440Y013990D03*
X022090Y014590D03*
X021340Y014640D03*
X021240Y014590D03*
X020340Y015040D03*
X019740Y014590D03*
X018440Y013490D03*
X017290Y012740D03*
X017240Y012690D03*
X017140Y012640D03*
X018090Y012590D03*
X018090Y012540D03*
X018140Y012640D03*
X016790Y011840D03*
X016690Y011790D03*
X017140Y011590D03*
X017090Y011540D03*
X016990Y011490D03*
X017290Y011690D03*
X016790Y010890D03*
X016640Y010790D03*
X016490Y010390D03*
X020790Y008240D03*
X022540Y008140D03*
X020490Y006740D03*
X019090Y006290D03*
X019140Y005690D03*
X017940Y004740D03*
X016940Y004690D03*
X016290Y004240D03*
X016190Y003840D03*
X015590Y003590D03*
X016890Y002990D03*
X015040Y002240D03*
X014990Y002290D03*
X013940Y002090D03*
X013940Y002040D03*
X014640Y001790D03*
X014990Y001740D03*
X010540Y004190D03*
X010540Y004240D03*
X010640Y004440D03*
X010690Y004490D03*
X011240Y004290D03*
X011240Y004240D03*
X011890Y004240D03*
X011890Y004290D03*
X012890Y004840D03*
X012990Y004440D03*
X013040Y004390D03*
X013940Y005190D03*
X013990Y005140D03*
X014040Y005290D03*
X014140Y005240D03*
X014390Y005340D03*
X014440Y005290D03*
X014540Y005240D03*
X015390Y006490D03*
X027040Y012390D03*
X027840Y014940D03*
D14*
X027715Y014990D03*
X025215Y013890D03*
X025165Y013840D03*
X025065Y013790D03*
X025715Y013090D03*
X025865Y013140D03*
X024265Y012340D03*
X024165Y011790D03*
X024815Y011440D03*
X024715Y011390D03*
X024615Y011340D03*
X025115Y011290D03*
X026115Y011690D03*
X024015Y013090D03*
X022715Y014090D03*
X022115Y014640D03*
X021865Y013640D03*
X021765Y013590D03*
X019865Y014640D03*
X019965Y014690D03*
X020265Y014990D03*
X018965Y013890D03*
X018615Y013590D03*
X018515Y013540D03*
X017065Y012590D03*
X017015Y012540D03*
X016915Y012490D03*
X016765Y012390D03*
X016615Y011740D03*
X016915Y011440D03*
X016815Y011390D03*
X016715Y010840D03*
X016565Y010740D03*
X016515Y010690D03*
X018265Y011590D03*
X018065Y012440D03*
X018065Y012490D03*
X024165Y014590D03*
X025165Y010090D03*
X025065Y010040D03*
X022465Y008090D03*
X021815Y007340D03*
X020415Y006790D03*
X019015Y006340D03*
X018165Y005040D03*
X017365Y004690D03*
X017015Y004640D03*
X016365Y004190D03*
X014665Y005140D03*
X014615Y005190D03*
X014765Y005340D03*
X014265Y005190D03*
X013865Y005240D03*
X014065Y005390D03*
X011865Y004340D03*
X012415Y003740D03*
X013815Y002390D03*
X013815Y002340D03*
X013865Y002290D03*
X013865Y002240D03*
X013865Y002190D03*
X013915Y002140D03*
X014915Y002390D03*
X014965Y002340D03*
X014915Y001790D03*
X016765Y003040D03*
X010965Y005140D03*
X011115Y005740D03*
X020215Y008140D03*
X020665Y008290D03*
D15*
X020465Y008040D03*
X020365Y008490D03*
X020865Y008940D03*
X021915Y007840D03*
X019815Y006090D03*
X019715Y006140D03*
X016015Y003590D03*
X015965Y003640D03*
X016665Y002540D03*
X016915Y002440D03*
X017065Y002390D03*
X017215Y002340D03*
X017415Y002290D03*
X014715Y001840D03*
X014665Y001890D03*
X014615Y001940D03*
X014565Y001990D03*
X014515Y002090D03*
X014465Y002190D03*
X014415Y002290D03*
X012615Y004290D03*
X012765Y004740D03*
X010815Y005290D03*
X014215Y007290D03*
X015165Y010040D03*
X015215Y010140D03*
X015265Y010190D03*
X015315Y010290D03*
X015365Y010340D03*
X015415Y010390D03*
X015565Y010590D03*
X016115Y011340D03*
X016165Y011390D03*
X017565Y011040D03*
X017615Y011140D03*
X017665Y011240D03*
X017715Y011390D03*
X017765Y011490D03*
X017815Y011590D03*
X017815Y011640D03*
X017865Y011740D03*
X017915Y011790D03*
X017315Y010540D03*
X021565Y012390D03*
X021665Y012440D03*
X022665Y012290D03*
X022765Y012340D03*
X024915Y012740D03*
X026415Y013890D03*
X023365Y014840D03*
X022215Y014240D03*
X022115Y014190D03*
X020865Y013990D03*
X022515Y013490D03*
D16*
X022740Y013540D03*
X023190Y013790D03*
X022040Y014140D03*
X020790Y013940D03*
X023840Y015340D03*
X026540Y013940D03*
X024090Y012890D03*
X025540Y011490D03*
X025640Y011540D03*
X024190Y009740D03*
X020990Y008890D03*
X020690Y007840D03*
X020740Y007790D03*
X020840Y007740D03*
X021790Y007790D03*
X018790Y005490D03*
X017390Y004740D03*
X015790Y003790D03*
X015840Y003740D03*
X015890Y003690D03*
X016790Y003440D03*
X016540Y002590D03*
X016790Y002490D03*
X014540Y002040D03*
X014490Y002140D03*
X014440Y002240D03*
X014390Y002340D03*
X014390Y002390D03*
X014340Y002490D03*
X014340Y002540D03*
X012140Y003640D03*
X012540Y004340D03*
X014590Y005090D03*
X014090Y007240D03*
X015140Y009890D03*
X015140Y009940D03*
X015190Y009990D03*
X015890Y009990D03*
X015940Y010040D03*
X015990Y010090D03*
X016040Y010140D03*
X016090Y010190D03*
X016140Y010240D03*
X016190Y010290D03*
X016240Y010340D03*
D17*
X015540Y010540D03*
X015490Y010490D03*
X015440Y010440D03*
X015290Y010240D03*
X015190Y010090D03*
X014640Y010090D03*
X014640Y010140D03*
X014640Y010190D03*
X014690Y010340D03*
X014590Y009990D03*
X014590Y009940D03*
X014590Y009890D03*
X017290Y010490D03*
X017340Y010590D03*
X017390Y010640D03*
X017390Y010690D03*
X017440Y010740D03*
X017440Y010790D03*
X017490Y010840D03*
X017490Y010890D03*
X017540Y010940D03*
X017540Y010990D03*
X017590Y011090D03*
X017640Y011190D03*
X017690Y011290D03*
X017690Y011340D03*
X017740Y011440D03*
X017790Y011540D03*
X017840Y011690D03*
X016240Y011440D03*
X020940Y014040D03*
X020990Y014090D03*
X022290Y014290D03*
X022340Y014340D03*
X022440Y014390D03*
X024190Y013790D03*
X024440Y013440D03*
X024740Y014090D03*
X026740Y013690D03*
X026890Y014040D03*
X024290Y012390D03*
X022590Y012240D03*
X022540Y012190D03*
X021890Y012090D03*
X021740Y012490D03*
X025440Y011440D03*
X023640Y010640D03*
X022340Y010090D03*
X022040Y007890D03*
X021440Y007490D03*
X020640Y007140D03*
X019640Y006190D03*
X019590Y006240D03*
X019540Y006290D03*
X019490Y006340D03*
X018540Y005740D03*
X013940Y005890D03*
X011490Y005590D03*
X017640Y002240D03*
X019240Y003090D03*
X019190Y003140D03*
X019290Y003040D03*
D18*
X019390Y002990D03*
X016290Y003790D03*
X016240Y003940D03*
X017090Y004590D03*
X014340Y005140D03*
X013790Y005290D03*
X013640Y006140D03*
X011190Y005840D03*
X011140Y005790D03*
X012940Y004490D03*
X012490Y003790D03*
X012340Y003690D03*
X011240Y004340D03*
X013790Y002590D03*
X013790Y002540D03*
X013790Y002490D03*
X013790Y002440D03*
X014840Y002490D03*
X014840Y002540D03*
X014890Y002440D03*
X020190Y006940D03*
X020240Y006890D03*
X020340Y006840D03*
X020840Y007090D03*
X023640Y009840D03*
X023690Y009890D03*
X024790Y009940D03*
X024940Y009990D03*
X025890Y011840D03*
X025940Y011890D03*
X026040Y011940D03*
X026090Y011990D03*
X026190Y012040D03*
X026290Y012090D03*
X026390Y012140D03*
X026490Y012190D03*
X026590Y012240D03*
X026740Y012290D03*
X026890Y012340D03*
X025490Y012990D03*
X025390Y012940D03*
X025590Y013040D03*
X025840Y013690D03*
X024990Y013740D03*
X024890Y013690D03*
X024490Y012990D03*
X025040Y012190D03*
X021990Y012640D03*
X021540Y013490D03*
X021640Y013540D03*
X023340Y013940D03*
X021140Y014540D03*
X020190Y014940D03*
X020040Y014740D03*
X018690Y013640D03*
X016840Y012440D03*
X016690Y012340D03*
X016540Y012240D03*
X016540Y011690D03*
X016490Y011640D03*
X016690Y011340D03*
X016440Y010640D03*
X016390Y010590D03*
X016340Y010540D03*
X018340Y011640D03*
X024190Y015390D03*
X027540Y015040D03*
X014540Y007390D03*
X013740Y007440D03*
D19*
X013965Y007190D03*
X016665Y006740D03*
X019165Y005740D03*
X018265Y005090D03*
X014665Y005040D03*
X012465Y004390D03*
X012065Y004790D03*
X012915Y003340D03*
X014365Y002440D03*
X016365Y002690D03*
X016465Y002640D03*
X020665Y007890D03*
X020615Y007940D03*
X020565Y007990D03*
X020865Y008990D03*
X022565Y010040D03*
X021915Y011140D03*
X021465Y012340D03*
X022865Y012390D03*
X024665Y012090D03*
X025715Y011590D03*
X022315Y013440D03*
X021965Y014090D03*
X020715Y013890D03*
X022015Y014690D03*
X022065Y014740D03*
X022165Y014790D03*
X022315Y014890D03*
X022415Y014940D03*
X022515Y014990D03*
X022765Y015090D03*
X022915Y015140D03*
X023065Y015190D03*
X023265Y015240D03*
X023515Y015290D03*
X024465Y014790D03*
X018915Y013690D03*
X017965Y011840D03*
X016065Y011290D03*
X017965Y010640D03*
X018015Y010690D03*
X015865Y009940D03*
X017215Y008190D03*
D20*
X021140Y008840D03*
X018190Y010840D03*
X022140Y012990D03*
X022990Y012440D03*
X023390Y011290D03*
X026390Y015290D03*
X013240Y007190D03*
X013690Y005440D03*
X016690Y004340D03*
X016140Y002840D03*
X015640Y002490D03*
X015490Y002540D03*
X015790Y002440D03*
X020040Y003090D03*
D21*
X015840Y003040D03*
X014490Y002640D03*
X014490Y002590D03*
X019640Y006440D03*
X015790Y007840D03*
X014840Y009790D03*
X015840Y011040D03*
X015990Y011140D03*
X016090Y011190D03*
X018440Y011040D03*
X021790Y011090D03*
X024140Y011940D03*
X021840Y013940D03*
X024540Y014140D03*
X026890Y015140D03*
D22*
X024265Y013390D03*
X023915Y012840D03*
X023215Y011340D03*
X023065Y011390D03*
X023815Y010990D03*
X019465Y008890D03*
X015765Y009790D03*
X014915Y010590D03*
X018065Y010740D03*
X018115Y010790D03*
X020615Y013840D03*
X010915Y005340D03*
X016215Y002790D03*
X015415Y002590D03*
D23*
X016665Y003090D03*
X016615Y003140D03*
X016715Y003390D03*
X013765Y002790D03*
X013765Y002740D03*
X013765Y002690D03*
X013765Y002640D03*
X011865Y004390D03*
X011265Y004390D03*
X012815Y004790D03*
X013715Y005340D03*
X014865Y005290D03*
X010915Y005190D03*
X013615Y007390D03*
X016165Y010390D03*
X016215Y010440D03*
X016265Y010490D03*
X016415Y011590D03*
X016165Y011990D03*
X016315Y012090D03*
X016365Y012140D03*
X016465Y012190D03*
X016615Y012290D03*
X018415Y011690D03*
X022215Y012340D03*
X022265Y012390D03*
X022315Y012440D03*
X022365Y012490D03*
X022415Y012540D03*
X022465Y012590D03*
X024715Y013590D03*
X024815Y013640D03*
X025265Y012890D03*
X025165Y012840D03*
X025815Y011790D03*
X025765Y011740D03*
X025715Y011690D03*
X025215Y011340D03*
X024465Y011290D03*
X022765Y010340D03*
X022715Y010290D03*
X023565Y009790D03*
X024665Y009890D03*
X022365Y008040D03*
X022265Y007990D03*
X021665Y007390D03*
X020115Y006990D03*
X020565Y008340D03*
X023265Y013890D03*
X024265Y014640D03*
X026765Y015040D03*
X026865Y014990D03*
X027165Y014840D03*
X027265Y013940D03*
X021565Y014490D03*
X021415Y014390D03*
X021065Y014490D03*
D24*
X022240Y014840D03*
X022640Y015040D03*
X026140Y015340D03*
X026340Y013840D03*
X024290Y012440D03*
X024190Y011890D03*
X025790Y011640D03*
X022590Y012140D03*
X021840Y011190D03*
X022640Y010740D03*
X021640Y007740D03*
X021290Y007540D03*
X015840Y009890D03*
X015790Y009840D03*
X013290Y007240D03*
X011290Y005540D03*
X015340Y002640D03*
X016290Y002740D03*
X019890Y003140D03*
X017890Y004640D03*
X018990Y013740D03*
D25*
X023665Y013290D03*
X019115Y011390D03*
X019715Y010840D03*
X021265Y009140D03*
X020565Y008690D03*
X018965Y005840D03*
X018115Y004340D03*
X014815Y002690D03*
X013265Y004090D03*
X013015Y006790D03*
D26*
X016090Y007640D03*
X017890Y004440D03*
X017990Y004390D03*
X014790Y002740D03*
X014590Y002940D03*
X021240Y011390D03*
X021190Y012840D03*
X020790Y013690D03*
X020890Y013740D03*
X025490Y014490D03*
D27*
X022965Y013140D03*
X022915Y012090D03*
X020715Y013640D03*
X020615Y013590D03*
X019815Y010890D03*
X019365Y009240D03*
X019515Y009140D03*
X015915Y008140D03*
X013315Y006990D03*
X013065Y006840D03*
X018365Y006140D03*
X018465Y006090D03*
X014715Y002790D03*
D28*
X014515Y002840D03*
X012465Y005890D03*
X018965Y008190D03*
X021365Y009190D03*
X025465Y014440D03*
X024315Y014940D03*
D29*
X024490Y014990D03*
X024140Y014890D03*
X023490Y013240D03*
X021390Y012940D03*
X019290Y011440D03*
X021190Y011340D03*
X021690Y010890D03*
X015240Y009740D03*
X016190Y007540D03*
X015840Y007140D03*
X018090Y006640D03*
X013590Y007090D03*
X012890Y005640D03*
X011740Y004490D03*
X011790Y004440D03*
X014490Y002890D03*
D30*
X015915Y003540D03*
X016865Y003490D03*
X016065Y002890D03*
X020215Y003040D03*
X020865Y003340D03*
X018765Y005540D03*
X019465Y006590D03*
X019415Y006640D03*
X019565Y008840D03*
X021065Y009990D03*
X023665Y010890D03*
X023865Y011040D03*
X022865Y011440D03*
X023765Y012790D03*
X026315Y013790D03*
X026865Y013990D03*
X026565Y015240D03*
X020665Y014390D03*
X019515Y013890D03*
X019115Y013790D03*
X018215Y010890D03*
D31*
X018290Y010940D03*
X021190Y009940D03*
X021290Y009840D03*
X020440Y008540D03*
X021240Y007590D03*
X019540Y006540D03*
X018640Y005590D03*
X017340Y004790D03*
X016540Y004490D03*
X016690Y004390D03*
X015990Y002940D03*
X010990Y005390D03*
X019590Y013940D03*
X021690Y013890D03*
X024440Y014840D03*
X026740Y015190D03*
D32*
X023590Y013740D03*
X023490Y013690D03*
X023390Y013640D03*
X023290Y013590D03*
X020540Y013540D03*
X018990Y011340D03*
X015540Y010990D03*
X019440Y009190D03*
X016040Y007690D03*
X013540Y007140D03*
X017790Y004490D03*
X015490Y004140D03*
X014590Y002990D03*
X013190Y004140D03*
D33*
X012815Y004240D03*
X013565Y005490D03*
X011115Y005490D03*
X015915Y002990D03*
X016615Y004440D03*
X017865Y004590D03*
X020415Y002990D03*
X019565Y006490D03*
X023615Y010590D03*
X023665Y010940D03*
X023865Y011090D03*
X018365Y010990D03*
X019665Y013990D03*
X021515Y013840D03*
D34*
X020465Y013490D03*
X020415Y013440D03*
X022615Y013040D03*
X021315Y011440D03*
X023865Y011240D03*
X023415Y009640D03*
X023065Y009590D03*
X021165Y009090D03*
X019565Y009090D03*
X013215Y006940D03*
X013115Y006890D03*
X011715Y004740D03*
X014565Y003040D03*
X017715Y004540D03*
X018615Y003540D03*
D35*
X015115Y003090D03*
X011865Y004540D03*
X012415Y006040D03*
X018215Y007040D03*
X019715Y010690D03*
X019865Y010740D03*
D36*
X021940Y011490D03*
X016140Y008390D03*
X012540Y006190D03*
X011840Y004590D03*
X014240Y003790D03*
X015090Y003140D03*
D37*
X015065Y003190D03*
X015065Y003240D03*
X018065Y004240D03*
X021065Y003440D03*
X019115Y005940D03*
X019065Y005990D03*
X018965Y006040D03*
X016265Y008240D03*
X012815Y006440D03*
X012465Y005740D03*
X011865Y004640D03*
D38*
X012590Y003840D03*
X012890Y003290D03*
X016490Y003240D03*
X016540Y003190D03*
X014940Y005240D03*
X013640Y005390D03*
X011090Y005640D03*
X013540Y007340D03*
X019990Y007090D03*
X020040Y007040D03*
X020340Y008090D03*
X020440Y008390D03*
X020390Y008440D03*
X022140Y007940D03*
X022290Y010140D03*
X022840Y010390D03*
X023090Y010490D03*
X025340Y011390D03*
X024890Y012140D03*
X025040Y012790D03*
X024540Y013490D03*
X024640Y013540D03*
X024490Y013940D03*
X024390Y013890D03*
X024590Y013990D03*
X024690Y014040D03*
X025440Y014590D03*
X024340Y014690D03*
X023190Y013840D03*
X022690Y014540D03*
X021790Y014640D03*
X021740Y014590D03*
X021640Y014540D03*
X021490Y014440D03*
X021340Y014340D03*
X021290Y014290D03*
X021190Y014240D03*
X021140Y014190D03*
X019990Y014040D03*
X019390Y014040D03*
X020140Y014890D03*
X021440Y013440D03*
X022640Y012740D03*
X022690Y012790D03*
X022790Y012840D03*
X022840Y012890D03*
X022590Y012690D03*
X022540Y012640D03*
X022140Y012290D03*
X022090Y012240D03*
X022040Y012190D03*
X021890Y012590D03*
X026940Y014940D03*
X027040Y014890D03*
X027290Y014790D03*
X027440Y014740D03*
X027340Y015090D03*
X026690Y015090D03*
X026990Y013640D03*
X016590Y011290D03*
X016340Y011540D03*
X015940Y011840D03*
X015890Y011790D03*
X016040Y011890D03*
X016090Y011940D03*
X016240Y012040D03*
X015690Y011640D03*
X015640Y011590D03*
D39*
X018765Y011240D03*
X021865Y010940D03*
X023865Y011190D03*
X021615Y013290D03*
X021515Y013240D03*
X020315Y014290D03*
X020165Y014240D03*
X024965Y014340D03*
X015915Y007790D03*
X016515Y006640D03*
X014815Y006640D03*
X014715Y006590D03*
X014615Y006540D03*
X014615Y006490D03*
X015515Y004240D03*
X019465Y003190D03*
D40*
X019365Y003240D03*
X018965Y003440D03*
X015515Y004340D03*
X015515Y004390D03*
X015465Y004440D03*
X015465Y004490D03*
X012965Y004190D03*
X016515Y006690D03*
X015815Y007990D03*
X020165Y011040D03*
X020265Y011090D03*
X020365Y011140D03*
X020465Y011190D03*
X021765Y011040D03*
X023865Y011140D03*
X021165Y012990D03*
X021215Y013040D03*
X024815Y014290D03*
X025465Y014540D03*
D41*
X015440Y006940D03*
X012290Y005690D03*
X015190Y003340D03*
X015240Y003290D03*
X018090Y004190D03*
D42*
X019265Y003290D03*
X019715Y006390D03*
X020065Y007290D03*
X020015Y007340D03*
X019915Y007390D03*
X019865Y007440D03*
X019815Y007490D03*
X019765Y007540D03*
X019715Y007590D03*
X015765Y007890D03*
X014865Y009840D03*
X015915Y011090D03*
X016165Y011240D03*
X018515Y011090D03*
X021115Y009790D03*
X023715Y012740D03*
X022015Y013990D03*
X019815Y014140D03*
X024615Y014190D03*
X026315Y013740D03*
D43*
X024740Y014240D03*
X022140Y014040D03*
X020440Y014340D03*
X019340Y013840D03*
X018590Y011140D03*
X021390Y009890D03*
X022240Y010790D03*
X019440Y007840D03*
X019490Y007790D03*
X019540Y007740D03*
X019590Y007690D03*
X019640Y007640D03*
X020140Y007240D03*
X020190Y007190D03*
X021240Y007640D03*
X018390Y005640D03*
X018090Y005240D03*
X019090Y003390D03*
X019190Y003340D03*
X011140Y005440D03*
X015790Y007940D03*
D44*
X014365Y007340D03*
X013465Y007290D03*
X011315Y005890D03*
X010865Y005240D03*
X012115Y003590D03*
X013165Y003390D03*
X013265Y003440D03*
X015015Y005190D03*
X016615Y004290D03*
X017915Y004690D03*
X019965Y007140D03*
X021565Y007440D03*
X023465Y009740D03*
X024365Y009790D03*
X024515Y009840D03*
X023215Y010540D03*
X022965Y010440D03*
X024215Y011840D03*
X024315Y012940D03*
X024015Y013140D03*
X022965Y012990D03*
X022915Y012940D03*
X021815Y012540D03*
X021965Y012140D03*
X018515Y011740D03*
X016315Y011490D03*
X015765Y011690D03*
X015815Y011740D03*
X015565Y011540D03*
X015515Y011490D03*
X015465Y011440D03*
X015415Y011390D03*
X015365Y011340D03*
X015315Y011290D03*
X015265Y011240D03*
X015215Y011190D03*
X015165Y011140D03*
X015115Y011090D03*
X015065Y011040D03*
X014765Y010540D03*
X014765Y010490D03*
X014715Y010440D03*
X014715Y010390D03*
X014665Y010290D03*
X014665Y010240D03*
X014615Y010040D03*
X019465Y014090D03*
X020015Y014790D03*
X020065Y014840D03*
X020915Y014440D03*
X021065Y014140D03*
X022515Y014440D03*
X022615Y014490D03*
X022765Y014590D03*
X022865Y014640D03*
X022965Y014690D03*
X023065Y014740D03*
X023215Y014790D03*
X024415Y014740D03*
X024315Y013840D03*
D45*
X016215Y008490D03*
X015115Y003390D03*
D46*
X020965Y003390D03*
X018165Y006540D03*
X018165Y006590D03*
X016015Y008190D03*
X015215Y009640D03*
X015215Y009690D03*
D47*
X019915Y012490D03*
X020015Y012540D03*
X020165Y012640D03*
X020265Y012690D03*
X020315Y012740D03*
X020415Y012790D03*
X017615Y003690D03*
X015015Y003440D03*
D48*
X014740Y003490D03*
X016790Y005290D03*
X018290Y007940D03*
X019340Y011990D03*
X019540Y012390D03*
X023090Y011990D03*
D49*
X021840Y010990D03*
X020090Y010990D03*
X018690Y011190D03*
X021290Y013090D03*
X021340Y013140D03*
X021440Y013190D03*
X019990Y014190D03*
X021040Y009040D03*
X020490Y008590D03*
X018440Y005140D03*
X015540Y004290D03*
X018840Y003490D03*
D50*
X017690Y003640D03*
X021190Y003490D03*
X015390Y006890D03*
X019840Y012440D03*
D51*
X018690Y008390D03*
X016190Y008290D03*
X016140Y008340D03*
X012390Y006090D03*
X014290Y003740D03*
X014340Y003540D03*
X017690Y003790D03*
D52*
X017015Y003540D03*
X015515Y004190D03*
X018365Y005190D03*
X015265Y006440D03*
X019565Y009040D03*
X019615Y008990D03*
X023665Y009690D03*
X019715Y012840D03*
X019765Y012890D03*
X019815Y012940D03*
X019865Y012990D03*
X019915Y013040D03*
X019965Y013090D03*
X020165Y013240D03*
X020215Y013290D03*
X021815Y013390D03*
X023865Y013340D03*
X025115Y014390D03*
X015365Y010790D03*
X015315Y010740D03*
D53*
X015965Y005640D03*
X021315Y003540D03*
D54*
X019690Y003940D03*
X014340Y003640D03*
X014340Y003590D03*
X011940Y004690D03*
X012840Y005540D03*
X012590Y006290D03*
X013040Y006640D03*
X015640Y007040D03*
X018740Y008340D03*
X021290Y009240D03*
D55*
X019165Y011890D03*
X017615Y006440D03*
X017765Y003590D03*
D56*
X021490Y003590D03*
X017240Y007290D03*
X018440Y009790D03*
X018490Y009840D03*
D57*
X016290Y008990D03*
X016140Y009040D03*
X016040Y009240D03*
X021790Y003640D03*
D58*
X017615Y003840D03*
X014315Y003690D03*
X012565Y006240D03*
X013165Y006690D03*
X018665Y008440D03*
D59*
X021540Y003690D03*
D60*
X017540Y003740D03*
X012990Y006390D03*
X015490Y006840D03*
X020090Y012590D03*
D61*
X020765Y011590D03*
X018965Y010240D03*
X021215Y003740D03*
D62*
X020790Y003790D03*
D63*
X014490Y003840D03*
X018390Y008090D03*
D64*
X017590Y006490D03*
X020340Y003840D03*
D65*
X016040Y005940D03*
X015940Y005990D03*
X014190Y003940D03*
X014190Y003890D03*
X019590Y012140D03*
D66*
X018315Y007140D03*
X016315Y005240D03*
X016365Y005190D03*
X017515Y003890D03*
X012615Y006340D03*
X012365Y006140D03*
X012865Y006540D03*
X012965Y006590D03*
D67*
X012415Y005990D03*
X012365Y005940D03*
X016165Y008440D03*
X018215Y006990D03*
X019965Y003890D03*
D68*
X017465Y003940D03*
X015865Y004590D03*
X015815Y004640D03*
X015765Y004690D03*
X015715Y004740D03*
X012815Y005590D03*
X017915Y007790D03*
X019515Y011490D03*
X019365Y011840D03*
X023715Y012490D03*
X023965Y012640D03*
X024065Y012690D03*
D69*
X017190Y007490D03*
X017190Y007440D03*
X014390Y003990D03*
D70*
X017390Y003990D03*
X019390Y003990D03*
X018090Y007540D03*
X018090Y007590D03*
X018040Y007640D03*
X017990Y007690D03*
X017940Y007740D03*
X021140Y011290D03*
D71*
X020765Y011690D03*
X019765Y012290D03*
X018565Y009990D03*
X014365Y004040D03*
D72*
X018215Y004040D03*
X020815Y011740D03*
X019715Y012240D03*
X019665Y012190D03*
D73*
X021290Y012890D03*
X020990Y013790D03*
X016140Y007590D03*
X013490Y007040D03*
X012340Y005840D03*
X015440Y004090D03*
D74*
X018065Y004090D03*
X016115Y005890D03*
X019515Y012090D03*
D75*
X023215Y012040D03*
X018265Y007990D03*
X017965Y004140D03*
D76*
X018115Y004290D03*
X018465Y007090D03*
X018915Y008240D03*
X022015Y011890D03*
X022265Y011940D03*
X023365Y013190D03*
D77*
X023790Y012540D03*
X023890Y012590D03*
X021790Y011840D03*
X021090Y011240D03*
X021640Y010840D03*
X018840Y008290D03*
X017840Y007840D03*
X013190Y006740D03*
X012790Y006490D03*
X015690Y004790D03*
X015890Y004540D03*
D78*
X016190Y004840D03*
X016140Y004890D03*
X016090Y004940D03*
X016440Y005440D03*
X016540Y005390D03*
X016190Y005540D03*
D79*
X016065Y005590D03*
X016665Y005340D03*
X016015Y004990D03*
X018365Y007890D03*
X018315Y008040D03*
X019215Y010540D03*
X019215Y010590D03*
X019515Y012340D03*
D80*
X018240Y006940D03*
X018290Y006890D03*
X018340Y006840D03*
X015640Y006790D03*
X016190Y005140D03*
X016240Y005090D03*
X016290Y005040D03*
D81*
X016315Y005490D03*
X019265Y011940D03*
D82*
X016665Y008840D03*
X016565Y008890D03*
X016415Y008940D03*
X016465Y005690D03*
D83*
X015865Y005740D03*
X016915Y006390D03*
D84*
X014490Y005790D03*
D85*
X015090Y006740D03*
X015990Y007740D03*
X015890Y008090D03*
X020540Y008640D03*
X019940Y010940D03*
X018890Y011290D03*
X015490Y010940D03*
X015440Y010890D03*
X015390Y010840D03*
X020040Y013140D03*
X020090Y013190D03*
X020290Y013340D03*
X020340Y013390D03*
X022740Y013090D03*
X018940Y005790D03*
D86*
X015565Y005840D03*
X019215Y010390D03*
D87*
X018840Y008490D03*
X015740Y007090D03*
X018990Y005890D03*
D88*
X015865Y006040D03*
X015765Y006090D03*
X015715Y006140D03*
D89*
X016365Y006240D03*
X016415Y006190D03*
D90*
X016340Y006290D03*
D91*
X016640Y006340D03*
X016340Y009190D03*
D92*
X015840Y008040D03*
X014940Y006690D03*
X016590Y006590D03*
X016640Y006540D03*
X021240Y007690D03*
X019690Y008940D03*
X015290Y010690D03*
X015240Y010640D03*
X021740Y013340D03*
D93*
X020065Y010790D03*
X018365Y006790D03*
X018415Y006740D03*
X018465Y006690D03*
D94*
X015540Y006990D03*
X019590Y010640D03*
D95*
X019040Y010290D03*
X018940Y010190D03*
X018940Y010140D03*
X017190Y007190D03*
D96*
X017215Y007240D03*
X018615Y009890D03*
X019065Y010440D03*
D97*
X018615Y009940D03*
X020515Y009290D03*
X017215Y007340D03*
X020765Y011640D03*
D98*
X017215Y007390D03*
D99*
X018415Y008140D03*
D100*
X017240Y008540D03*
D101*
X017215Y008590D03*
D102*
X017140Y008640D03*
D103*
X017115Y008690D03*
D104*
X017965Y008740D03*
D105*
X017965Y008790D03*
D106*
X016140Y009090D03*
D107*
X016265Y009140D03*
D108*
X016065Y009290D03*
X019015Y010040D03*
D109*
X018465Y009340D03*
D110*
X018515Y009390D03*
D111*
X018615Y009440D03*
D112*
X018715Y009490D03*
D113*
X018865Y009540D03*
D114*
X018065Y009590D03*
D115*
X018890Y009640D03*
D116*
X018915Y009690D03*
D117*
X018940Y009740D03*
D118*
X018965Y010090D03*
X020765Y011540D03*
D119*
X020540Y011790D03*
X019140Y010340D03*
D120*
X019240Y010490D03*
X019440Y012040D03*
D121*
X032310Y014140D02*
X032312Y014190D01*
X032318Y014240D01*
X032328Y014289D01*
X032342Y014337D01*
X032359Y014384D01*
X032380Y014429D01*
X032405Y014473D01*
X032433Y014514D01*
X032465Y014553D01*
X032499Y014590D01*
X032536Y014624D01*
X032576Y014654D01*
X032618Y014681D01*
X032662Y014705D01*
X032708Y014726D01*
X032755Y014742D01*
X032803Y014755D01*
X032853Y014764D01*
X032902Y014769D01*
X032953Y014770D01*
X033003Y014767D01*
X033052Y014760D01*
X033101Y014749D01*
X033149Y014734D01*
X033195Y014716D01*
X033240Y014694D01*
X033283Y014668D01*
X033324Y014639D01*
X033363Y014607D01*
X033399Y014572D01*
X033431Y014534D01*
X033461Y014494D01*
X033488Y014451D01*
X033511Y014407D01*
X033530Y014361D01*
X033546Y014313D01*
X033558Y014264D01*
X033566Y014215D01*
X033570Y014165D01*
X033570Y014115D01*
X033566Y014065D01*
X033558Y014016D01*
X033546Y013967D01*
X033530Y013919D01*
X033511Y013873D01*
X033488Y013829D01*
X033461Y013786D01*
X033431Y013746D01*
X033399Y013708D01*
X033363Y013673D01*
X033324Y013641D01*
X033283Y013612D01*
X033240Y013586D01*
X033195Y013564D01*
X033149Y013546D01*
X033101Y013531D01*
X033052Y013520D01*
X033003Y013513D01*
X032953Y013510D01*
X032902Y013511D01*
X032853Y013516D01*
X032803Y013525D01*
X032755Y013538D01*
X032708Y013554D01*
X032662Y013575D01*
X032618Y013599D01*
X032576Y013626D01*
X032536Y013656D01*
X032499Y013690D01*
X032465Y013727D01*
X032433Y013766D01*
X032405Y013807D01*
X032380Y013851D01*
X032359Y013896D01*
X032342Y013943D01*
X032328Y013991D01*
X032318Y014040D01*
X032312Y014090D01*
X032310Y014140D01*
X032310Y002140D02*
X032312Y002190D01*
X032318Y002240D01*
X032328Y002289D01*
X032342Y002337D01*
X032359Y002384D01*
X032380Y002429D01*
X032405Y002473D01*
X032433Y002514D01*
X032465Y002553D01*
X032499Y002590D01*
X032536Y002624D01*
X032576Y002654D01*
X032618Y002681D01*
X032662Y002705D01*
X032708Y002726D01*
X032755Y002742D01*
X032803Y002755D01*
X032853Y002764D01*
X032902Y002769D01*
X032953Y002770D01*
X033003Y002767D01*
X033052Y002760D01*
X033101Y002749D01*
X033149Y002734D01*
X033195Y002716D01*
X033240Y002694D01*
X033283Y002668D01*
X033324Y002639D01*
X033363Y002607D01*
X033399Y002572D01*
X033431Y002534D01*
X033461Y002494D01*
X033488Y002451D01*
X033511Y002407D01*
X033530Y002361D01*
X033546Y002313D01*
X033558Y002264D01*
X033566Y002215D01*
X033570Y002165D01*
X033570Y002115D01*
X033566Y002065D01*
X033558Y002016D01*
X033546Y001967D01*
X033530Y001919D01*
X033511Y001873D01*
X033488Y001829D01*
X033461Y001786D01*
X033431Y001746D01*
X033399Y001708D01*
X033363Y001673D01*
X033324Y001641D01*
X033283Y001612D01*
X033240Y001586D01*
X033195Y001564D01*
X033149Y001546D01*
X033101Y001531D01*
X033052Y001520D01*
X033003Y001513D01*
X032953Y001510D01*
X032902Y001511D01*
X032853Y001516D01*
X032803Y001525D01*
X032755Y001538D01*
X032708Y001554D01*
X032662Y001575D01*
X032618Y001599D01*
X032576Y001626D01*
X032536Y001656D01*
X032499Y001690D01*
X032465Y001727D01*
X032433Y001766D01*
X032405Y001807D01*
X032380Y001851D01*
X032359Y001896D01*
X032342Y001943D01*
X032328Y001991D01*
X032318Y002040D01*
X032312Y002090D01*
X032310Y002140D01*
X001310Y002140D02*
X001312Y002190D01*
X001318Y002240D01*
X001328Y002289D01*
X001342Y002337D01*
X001359Y002384D01*
X001380Y002429D01*
X001405Y002473D01*
X001433Y002514D01*
X001465Y002553D01*
X001499Y002590D01*
X001536Y002624D01*
X001576Y002654D01*
X001618Y002681D01*
X001662Y002705D01*
X001708Y002726D01*
X001755Y002742D01*
X001803Y002755D01*
X001853Y002764D01*
X001902Y002769D01*
X001953Y002770D01*
X002003Y002767D01*
X002052Y002760D01*
X002101Y002749D01*
X002149Y002734D01*
X002195Y002716D01*
X002240Y002694D01*
X002283Y002668D01*
X002324Y002639D01*
X002363Y002607D01*
X002399Y002572D01*
X002431Y002534D01*
X002461Y002494D01*
X002488Y002451D01*
X002511Y002407D01*
X002530Y002361D01*
X002546Y002313D01*
X002558Y002264D01*
X002566Y002215D01*
X002570Y002165D01*
X002570Y002115D01*
X002566Y002065D01*
X002558Y002016D01*
X002546Y001967D01*
X002530Y001919D01*
X002511Y001873D01*
X002488Y001829D01*
X002461Y001786D01*
X002431Y001746D01*
X002399Y001708D01*
X002363Y001673D01*
X002324Y001641D01*
X002283Y001612D01*
X002240Y001586D01*
X002195Y001564D01*
X002149Y001546D01*
X002101Y001531D01*
X002052Y001520D01*
X002003Y001513D01*
X001953Y001510D01*
X001902Y001511D01*
X001853Y001516D01*
X001803Y001525D01*
X001755Y001538D01*
X001708Y001554D01*
X001662Y001575D01*
X001618Y001599D01*
X001576Y001626D01*
X001536Y001656D01*
X001499Y001690D01*
X001465Y001727D01*
X001433Y001766D01*
X001405Y001807D01*
X001380Y001851D01*
X001359Y001896D01*
X001342Y001943D01*
X001328Y001991D01*
X001318Y002040D01*
X001312Y002090D01*
X001310Y002140D01*
X001310Y014140D02*
X001312Y014190D01*
X001318Y014240D01*
X001328Y014289D01*
X001342Y014337D01*
X001359Y014384D01*
X001380Y014429D01*
X001405Y014473D01*
X001433Y014514D01*
X001465Y014553D01*
X001499Y014590D01*
X001536Y014624D01*
X001576Y014654D01*
X001618Y014681D01*
X001662Y014705D01*
X001708Y014726D01*
X001755Y014742D01*
X001803Y014755D01*
X001853Y014764D01*
X001902Y014769D01*
X001953Y014770D01*
X002003Y014767D01*
X002052Y014760D01*
X002101Y014749D01*
X002149Y014734D01*
X002195Y014716D01*
X002240Y014694D01*
X002283Y014668D01*
X002324Y014639D01*
X002363Y014607D01*
X002399Y014572D01*
X002431Y014534D01*
X002461Y014494D01*
X002488Y014451D01*
X002511Y014407D01*
X002530Y014361D01*
X002546Y014313D01*
X002558Y014264D01*
X002566Y014215D01*
X002570Y014165D01*
X002570Y014115D01*
X002566Y014065D01*
X002558Y014016D01*
X002546Y013967D01*
X002530Y013919D01*
X002511Y013873D01*
X002488Y013829D01*
X002461Y013786D01*
X002431Y013746D01*
X002399Y013708D01*
X002363Y013673D01*
X002324Y013641D01*
X002283Y013612D01*
X002240Y013586D01*
X002195Y013564D01*
X002149Y013546D01*
X002101Y013531D01*
X002052Y013520D01*
X002003Y013513D01*
X001953Y013510D01*
X001902Y013511D01*
X001853Y013516D01*
X001803Y013525D01*
X001755Y013538D01*
X001708Y013554D01*
X001662Y013575D01*
X001618Y013599D01*
X001576Y013626D01*
X001536Y013656D01*
X001499Y013690D01*
X001465Y013727D01*
X001433Y013766D01*
X001405Y013807D01*
X001380Y013851D01*
X001359Y013896D01*
X001342Y013943D01*
X001328Y013991D01*
X001318Y014040D01*
X001312Y014090D01*
X001310Y014140D01*
M02*
