%
M48
M72
T01C0.0160
T02C0.0320
T03C0.0354
T04C0.0400
%
T01
X3840Y3640
X6589Y4190
X8089Y4190
X11269Y4250
X13283Y4215
X11779Y5770
X11590Y6770
X12870Y7240
X12586Y7510
X13740Y7883
X15390Y8240
X15750Y8240
X16120Y8240
X14730Y7040
X15520Y6850
X15090Y6320
X14430Y6310
X14040Y6440
X15450Y5850
X17897Y4490
X20358Y5045
X21870Y3720
X21830Y3290
X21170Y3300
X20640Y3040
X24293Y3835
X24623Y4805
X23320Y5990
X24480Y6620
X27448Y5531
X30713Y4018
X22286Y8538
X20515Y7583
X19471Y7976
X19223Y7492
X18700Y8240
X19629Y8507
X19615Y8954
X22680Y10051
X24353Y10341
X24673Y10932
X22193Y12097
X20240Y10440
X17607Y12100
X12814Y9332
X11630Y8730
X8090Y8890
X6240Y9640
X3840Y9840
X4568Y11084
X2870Y11220
X6329Y12465
X11215Y12089
X5840Y7440
X5240Y7440
X5240Y6740
X5840Y6740
X5840Y6040
X5240Y6040
X7240Y6640
X18690Y6771
X20380Y6580
X26123Y9287
X27793Y8997
X28040Y10040
X30180Y9890
X27773Y11088
X28040Y11540
X28192Y12148
X31220Y11461
T02
X28803Y3710
T03
X32551Y9563
X32551Y11295
T04
X4940Y2140
X5940Y2140
X6940Y2140
X7940Y2140
X8940Y2140
X9940Y2140
X10940Y2140
X11940Y2140
X12940Y2140
X13940Y2140
X14940Y2140
X15940Y2140
X16940Y2140
X17940Y2140
X18940Y2140
X19940Y2140
X20940Y2140
X21940Y2140
X22940Y2140
X23940Y2140
X25940Y2140
X26940Y2140
X27940Y2140
X28940Y2140
X29940Y2140
X30940Y2140
X30940Y14140
X29940Y14140
X28940Y14140
X27940Y14140
X26940Y14140
X25940Y14140
X23940Y14140
X22940Y14140
X21940Y14140
X20940Y14140
X19940Y14140
X18940Y14140
X17940Y14140
X16940Y14140
X15940Y14140
X14940Y14140
X13940Y14140
X12940Y14140
X11940Y14140
X10940Y14140
X9940Y14140
X8940Y14140
X7940Y14140
X6940Y14140
X5940Y14140
X4940Y14140
M30
